<?xml version="1.0" encoding="UTF-8" standalone="no"?>
<!-- Created with Inkscape (http://www.inkscape.org/) -->

<svg
   width="144.13086mm"
   height="99.426285mm"
   viewBox="0 0 144.13085 99.426298"
   version="1.1"
   id="svg134807"
   xmlns="http://www.w3.org/2000/svg"
   xmlns:svg="http://www.w3.org/2000/svg">
  <defs
     id="defs134804" />
  <g
     id="layer1"
     transform="translate(-68.671362,-57.465663)">
    <g
       id="g6343"
       style="display:inline;fill:none;stroke:#000000;stroke-opacity:1;vector-effect:non-scaling-stroke;-inkscape-stroke:hairline;stroke-width:0.26458333;stroke-dasharray:none"
       transform="translate(-165.55915)">
      <g
         id="g38423"
         style="display:inline;fill:none;stroke:#000000;stroke-opacity:1;vector-effect:non-scaling-stroke;-inkscape-stroke:hairline;stroke-width:0.26458333;stroke-dasharray:none">
        <g
           id="g34125-2-22"
           transform="translate(345.05853,-46.063632)"
           style="fill:none;stroke:#000000;stroke-opacity:1;vector-effect:non-scaling-stroke;-inkscape-stroke:hairline;stroke-width:0.26458333;stroke-dasharray:none">
          <path
             id="path52377-0-5-0-4-2-41-0-0-5-6-3"
             style="fill:none;fill-opacity:0.931765;stroke:#000000;stroke-width:0.26458333;stroke-linecap:square;stroke-linejoin:round;stroke-opacity:1;vector-effect:non-scaling-stroke;-inkscape-stroke:hairline;stroke-dasharray:none"
             d="m 19.235911,132.63017 -0.792716,0.79271 v 0.15865 h -2.500106 v 3.49953 h 2.500106 v 0.25631 l 0.792716,0.79272 h 2.707328 c 0.558239,4e-5 0.999938,0.44377 0.999939,1.00201 v 1.19941 h 2.656686 v 1.03404 a 0.85000002,0.85000002 0 0 0 0.84956,0.85008 0.85000002,0.85000002 0 0 0 0.850078,-0.85008 0.85000002,0.85000002 0 0 0 0,-5.2e-4 0.85000002,0.85000002 0 0 0 0,-5.1e-4 0.85000002,0.85000002 0 0 0 0,-5.2e-4 0.85000002,0.85000002 0 0 0 0,-5.2e-4 0.85000002,0.85000002 0 0 0 0,-5.1e-4 0.85000002,0.85000002 0 0 0 0,-5.2e-4 0.85000002,0.85000002 0 0 0 0,-5.2e-4 0.85000002,0.85000002 0 0 0 0,-5.1e-4 0.85000002,0.85000002 0 0 0 0,-5.2e-4 0.85000002,0.85000002 0 0 0 0,-5.2e-4 0.85000002,0.85000002 0 0 0 0,-5.1e-4 0.85000002,0.85000002 0 0 0 0,-5.2e-4 0.85000002,0.85000002 0 0 0 0,-5.2e-4 0.85000002,0.85000002 0 0 0 0,-5.1e-4 0.85000002,0.85000002 0 0 0 0,-5.2e-4 0.85000002,0.85000002 0 0 0 0,-5.2e-4 0.85000002,0.85000002 0 0 0 0,-5.1e-4 0.85000002,0.85000002 0 0 0 0,-5.2e-4 0.85000002,0.85000002 0 0 0 0,-5.2e-4 0.85000002,0.85000002 0 0 0 0,-5.1e-4 0.85000002,0.85000002 0 0 0 0,-5.2e-4 0.85000002,0.85000002 0 0 0 0,-5.2e-4 0.85000002,0.85000002 0 0 0 0,-5.1e-4 0.85000002,0.85000002 0 0 0 0,-5.2e-4 0.85000002,0.85000002 0 0 0 0,-5.2e-4 0.85000002,0.85000002 0 0 0 0,-5.1e-4 0.85000002,0.85000002 0 0 0 0,-5.2e-4 0.85000002,0.85000002 0 0 0 0,-5.2e-4 0.85000002,0.85000002 0 0 0 0,-5.1e-4 0.85000002,0.85000002 0 0 0 0,-5.2e-4 0.85000002,0.85000002 0 0 0 0,-5.2e-4 0.85000002,0.85000002 0 0 0 0,-5.1e-4 0.85000002,0.85000002 0 0 0 0,-5.2e-4 0.85000002,0.85000002 0 0 0 0,-5.2e-4 0.85000002,0.85000002 0 0 0 0,-5.2e-4 0.85000002,0.85000002 0 0 0 0,-5.1e-4 0.85000002,0.85000002 0 0 0 0,-5.2e-4 0.85000002,0.85000002 0 0 0 0,-5.2e-4 0.85000002,0.85000002 0 0 0 0,-5.1e-4 0.85000002,0.85000002 0 0 0 0,-5.2e-4 0.85000002,0.85000002 0 0 0 0,-5.2e-4 0.85000002,0.85000002 0 0 0 0,-5.1e-4 v -1.01234 h 1.143599 v -0.99994 h 2.500106 v -3.50005 h -2.500106 v -1.20147 h -5.000212 v -1.20717 l -0.792716,-0.79271 z" />
          <circle
             style="fill:none;fill-opacity:0.458111;stroke:#000000;stroke-width:0.26458333;stroke-linecap:square;stroke-dasharray:none;stroke-opacity:1;vector-effect:non-scaling-stroke;-inkscape-stroke:hairline"
             id="path34096-2-0-9"
             cx="15.949717"
             cy="145.16563"
             r="1" />
          <circle
             style="fill:none;fill-opacity:0.458111;stroke:#000000;stroke-width:0.26458333;stroke-linecap:square;stroke-dasharray:none;stroke-opacity:1;vector-effect:non-scaling-stroke;-inkscape-stroke:hairline"
             id="path34096-9-41"
             cx="20.949717"
             cy="147.26562"
             r="1" />
          <circle
             style="fill:none;fill-opacity:0.458111;stroke:#000000;stroke-width:0.26458333;stroke-linecap:square;stroke-dasharray:none;stroke-opacity:1;vector-effect:non-scaling-stroke;-inkscape-stroke:hairline"
             id="path34072-1-9-4"
             cx="15.449717"
             cy="141.36563"
             r="0.85000002" />
          <circle
             style="fill:none;fill-opacity:0.458111;stroke:#000000;stroke-width:0.26458333;stroke-linecap:square;stroke-dasharray:none;stroke-opacity:1;vector-effect:non-scaling-stroke;-inkscape-stroke:hairline"
             id="path34070-8-2"
             cx="20.949717"
             cy="141.36563"
             r="1.715" />
        </g>
        <g
           id="g34125-2-7-7"
           transform="translate(345.05853,-29.063632)"
           style="fill:none;stroke:#000000;stroke-opacity:1;vector-effect:non-scaling-stroke;-inkscape-stroke:hairline;stroke-width:0.26458333;stroke-dasharray:none">
          <path
             id="path52377-0-5-0-4-2-41-0-0-5-6-5-4"
             style="fill:none;fill-opacity:0.931765;stroke:#000000;stroke-width:0.26458333;stroke-linecap:square;stroke-linejoin:round;stroke-opacity:1;vector-effect:non-scaling-stroke;-inkscape-stroke:hairline;stroke-dasharray:none"
             d="m 19.235911,132.63017 -0.792716,0.79271 v 0.15865 h -2.500106 v 3.49953 h 2.500106 v 0.25631 l 0.792716,0.79272 h 2.707328 c 0.558239,4e-5 0.999938,0.44377 0.999939,1.00201 v 1.19941 h 2.656686 v 1.03404 a 0.85000002,0.85000002 0 0 0 0.84956,0.85008 0.85000002,0.85000002 0 0 0 0.850078,-0.85008 0.85000002,0.85000002 0 0 0 0,-5.2e-4 0.85000002,0.85000002 0 0 0 0,-5.1e-4 0.85000002,0.85000002 0 0 0 0,-5.2e-4 0.85000002,0.85000002 0 0 0 0,-5.2e-4 0.85000002,0.85000002 0 0 0 0,-5.1e-4 0.85000002,0.85000002 0 0 0 0,-5.2e-4 0.85000002,0.85000002 0 0 0 0,-5.2e-4 0.85000002,0.85000002 0 0 0 0,-5.1e-4 0.85000002,0.85000002 0 0 0 0,-5.2e-4 0.85000002,0.85000002 0 0 0 0,-5.2e-4 0.85000002,0.85000002 0 0 0 0,-5.1e-4 0.85000002,0.85000002 0 0 0 0,-5.2e-4 0.85000002,0.85000002 0 0 0 0,-5.2e-4 0.85000002,0.85000002 0 0 0 0,-5.1e-4 0.85000002,0.85000002 0 0 0 0,-5.2e-4 0.85000002,0.85000002 0 0 0 0,-5.2e-4 0.85000002,0.85000002 0 0 0 0,-5.1e-4 0.85000002,0.85000002 0 0 0 0,-5.2e-4 0.85000002,0.85000002 0 0 0 0,-5.2e-4 0.85000002,0.85000002 0 0 0 0,-5.1e-4 0.85000002,0.85000002 0 0 0 0,-5.2e-4 0.85000002,0.85000002 0 0 0 0,-5.2e-4 0.85000002,0.85000002 0 0 0 0,-5.1e-4 0.85000002,0.85000002 0 0 0 0,-5.2e-4 0.85000002,0.85000002 0 0 0 0,-5.2e-4 0.85000002,0.85000002 0 0 0 0,-5.1e-4 0.85000002,0.85000002 0 0 0 0,-5.2e-4 0.85000002,0.85000002 0 0 0 0,-5.2e-4 0.85000002,0.85000002 0 0 0 0,-5.1e-4 0.85000002,0.85000002 0 0 0 0,-5.2e-4 0.85000002,0.85000002 0 0 0 0,-5.2e-4 0.85000002,0.85000002 0 0 0 0,-5.1e-4 0.85000002,0.85000002 0 0 0 0,-5.2e-4 0.85000002,0.85000002 0 0 0 0,-5.2e-4 0.85000002,0.85000002 0 0 0 0,-5.2e-4 0.85000002,0.85000002 0 0 0 0,-5.1e-4 0.85000002,0.85000002 0 0 0 0,-5.2e-4 0.85000002,0.85000002 0 0 0 0,-5.2e-4 0.85000002,0.85000002 0 0 0 0,-5.1e-4 0.85000002,0.85000002 0 0 0 0,-5.2e-4 0.85000002,0.85000002 0 0 0 0,-5.2e-4 0.85000002,0.85000002 0 0 0 0,-5.1e-4 v -1.01234 h 1.143599 v -0.99994 h 2.500106 v -3.50005 h -2.500106 v -1.20147 h -5.000212 v -1.20717 l -0.792716,-0.79271 z" />
          <circle
             style="fill:none;fill-opacity:0.458111;stroke:#000000;stroke-width:0.26458333;stroke-linecap:square;stroke-dasharray:none;stroke-opacity:1;vector-effect:non-scaling-stroke;-inkscape-stroke:hairline"
             id="path34096-2-0-4-4"
             cx="15.949717"
             cy="145.16563"
             r="1" />
          <circle
             style="fill:none;fill-opacity:0.458111;stroke:#000000;stroke-width:0.26458333;stroke-linecap:square;stroke-dasharray:none;stroke-opacity:1;vector-effect:non-scaling-stroke;-inkscape-stroke:hairline"
             id="path34096-9-4-6"
             cx="20.949717"
             cy="147.26562"
             r="1" />
          <circle
             style="fill:none;fill-opacity:0.458111;stroke:#000000;stroke-width:0.26458333;stroke-linecap:square;stroke-dasharray:none;stroke-opacity:1;vector-effect:non-scaling-stroke;-inkscape-stroke:hairline"
             id="path34072-1-9-5-4"
             cx="15.449717"
             cy="141.36563"
             r="0.85000002" />
          <circle
             style="fill:none;fill-opacity:0.458111;stroke:#000000;stroke-width:0.26458333;stroke-linecap:square;stroke-dasharray:none;stroke-opacity:1;vector-effect:non-scaling-stroke;-inkscape-stroke:hairline"
             id="path34070-8-0-7"
             cx="20.949717"
             cy="141.36563"
             r="1.715" />
        </g>
        <g
           id="g34125-2-2-8"
           transform="translate(309.05853,-49.563632)"
           style="fill:none;stroke:#000000;stroke-opacity:1;vector-effect:non-scaling-stroke;-inkscape-stroke:hairline;stroke-width:0.26458333;stroke-dasharray:none">
          <path
             id="path52377-0-5-0-4-2-41-0-0-5-6-1-72"
             style="fill:none;fill-opacity:0.931765;stroke:#000000;stroke-width:0.26458333;stroke-linecap:square;stroke-linejoin:round;stroke-opacity:1;vector-effect:non-scaling-stroke;-inkscape-stroke:hairline;stroke-dasharray:none"
             d="m 19.235911,132.63017 -0.792716,0.79271 v 0.15865 h -2.500106 v 3.49953 h 2.500106 v 0.25631 l 0.792716,0.79272 h 2.707328 c 0.558239,4e-5 0.999938,0.44377 0.999939,1.00201 v 1.19941 h 2.656686 v 1.03404 a 0.85000002,0.85000002 0 0 0 0.84956,0.85008 0.85000002,0.85000002 0 0 0 0.850078,-0.85008 0.85000002,0.85000002 0 0 0 0,-5.2e-4 0.85000002,0.85000002 0 0 0 0,-5.1e-4 0.85000002,0.85000002 0 0 0 0,-5.2e-4 0.85000002,0.85000002 0 0 0 0,-5.2e-4 0.85000002,0.85000002 0 0 0 0,-5.1e-4 0.85000002,0.85000002 0 0 0 0,-5.2e-4 0.85000002,0.85000002 0 0 0 0,-5.2e-4 0.85000002,0.85000002 0 0 0 0,-5.1e-4 0.85000002,0.85000002 0 0 0 0,-5.2e-4 0.85000002,0.85000002 0 0 0 0,-5.2e-4 0.85000002,0.85000002 0 0 0 0,-5.1e-4 0.85000002,0.85000002 0 0 0 0,-5.2e-4 0.85000002,0.85000002 0 0 0 0,-5.2e-4 0.85000002,0.85000002 0 0 0 0,-5.1e-4 0.85000002,0.85000002 0 0 0 0,-5.2e-4 0.85000002,0.85000002 0 0 0 0,-5.2e-4 0.85000002,0.85000002 0 0 0 0,-5.1e-4 0.85000002,0.85000002 0 0 0 0,-5.2e-4 0.85000002,0.85000002 0 0 0 0,-5.2e-4 0.85000002,0.85000002 0 0 0 0,-5.1e-4 0.85000002,0.85000002 0 0 0 0,-5.2e-4 0.85000002,0.85000002 0 0 0 0,-5.2e-4 0.85000002,0.85000002 0 0 0 0,-5.1e-4 0.85000002,0.85000002 0 0 0 0,-5.2e-4 0.85000002,0.85000002 0 0 0 0,-5.2e-4 0.85000002,0.85000002 0 0 0 0,-5.1e-4 0.85000002,0.85000002 0 0 0 0,-5.2e-4 0.85000002,0.85000002 0 0 0 0,-5.2e-4 0.85000002,0.85000002 0 0 0 0,-5.1e-4 0.85000002,0.85000002 0 0 0 0,-5.2e-4 0.85000002,0.85000002 0 0 0 0,-5.2e-4 0.85000002,0.85000002 0 0 0 0,-5.1e-4 0.85000002,0.85000002 0 0 0 0,-5.2e-4 0.85000002,0.85000002 0 0 0 0,-5.2e-4 0.85000002,0.85000002 0 0 0 0,-5.2e-4 0.85000002,0.85000002 0 0 0 0,-5.1e-4 0.85000002,0.85000002 0 0 0 0,-5.2e-4 0.85000002,0.85000002 0 0 0 0,-5.2e-4 0.85000002,0.85000002 0 0 0 0,-5.1e-4 0.85000002,0.85000002 0 0 0 0,-5.2e-4 0.85000002,0.85000002 0 0 0 0,-5.2e-4 0.85000002,0.85000002 0 0 0 0,-5.1e-4 v -1.01234 h 1.143599 v -0.99994 h 2.500106 v -3.50005 h -2.500106 v -1.20147 h -5.000212 v -1.20717 l -0.792716,-0.79271 z" />
          <circle
             style="fill:none;fill-opacity:0.458111;stroke:#000000;stroke-width:0.26458333;stroke-linecap:square;stroke-dasharray:none;stroke-opacity:1;vector-effect:non-scaling-stroke;-inkscape-stroke:hairline"
             id="path34096-2-0-0-1"
             cx="15.949717"
             cy="145.16563"
             r="1" />
          <circle
             style="fill:none;fill-opacity:0.458111;stroke:#000000;stroke-width:0.26458333;stroke-linecap:square;stroke-dasharray:none;stroke-opacity:1;vector-effect:non-scaling-stroke;-inkscape-stroke:hairline"
             id="path34096-9-5-9"
             cx="20.949717"
             cy="147.26562"
             r="1" />
          <circle
             style="fill:none;fill-opacity:0.458111;stroke:#000000;stroke-width:0.26458333;stroke-linecap:square;stroke-dasharray:none;stroke-opacity:1;vector-effect:non-scaling-stroke;-inkscape-stroke:hairline"
             id="path34072-1-9-51-7"
             cx="15.449717"
             cy="141.36563"
             r="0.85000002" />
          <circle
             style="fill:none;fill-opacity:0.458111;stroke:#000000;stroke-width:0.26458333;stroke-linecap:square;stroke-dasharray:none;stroke-opacity:1;vector-effect:non-scaling-stroke;-inkscape-stroke:hairline"
             id="path34070-8-4-67"
             cx="20.949717"
             cy="141.36563"
             r="1.715" />
        </g>
        <g
           id="g34125-2-2-7-0"
           transform="translate(309.05853,-66.563632)"
           style="fill:none;stroke:#000000;stroke-opacity:1;vector-effect:non-scaling-stroke;-inkscape-stroke:hairline;stroke-width:0.26458333;stroke-dasharray:none">
          <path
             id="path52377-0-5-0-4-2-41-0-0-5-6-1-6-8"
             style="fill:none;fill-opacity:0.931765;stroke:#000000;stroke-width:0.26458333;stroke-linecap:square;stroke-linejoin:round;stroke-opacity:1;vector-effect:non-scaling-stroke;-inkscape-stroke:hairline;stroke-dasharray:none"
             d="m 19.235911,132.63017 -0.792716,0.79271 v 0.15865 h -2.500106 v 3.49953 h 2.500106 v 0.25631 l 0.792716,0.79272 h 2.707328 c 0.558239,4e-5 0.999938,0.44377 0.999939,1.00201 v 1.19941 h 2.656686 v 1.03404 a 0.85000002,0.85000002 0 0 0 0.84956,0.85008 0.85000002,0.85000002 0 0 0 0.850078,-0.85008 0.85000002,0.85000002 0 0 0 0,-5.2e-4 0.85000002,0.85000002 0 0 0 0,-5.1e-4 0.85000002,0.85000002 0 0 0 0,-5.2e-4 0.85000002,0.85000002 0 0 0 0,-5.2e-4 0.85000002,0.85000002 0 0 0 0,-5.1e-4 0.85000002,0.85000002 0 0 0 0,-5.2e-4 0.85000002,0.85000002 0 0 0 0,-5.2e-4 0.85000002,0.85000002 0 0 0 0,-5.1e-4 0.85000002,0.85000002 0 0 0 0,-5.2e-4 0.85000002,0.85000002 0 0 0 0,-5.2e-4 0.85000002,0.85000002 0 0 0 0,-5.1e-4 0.85000002,0.85000002 0 0 0 0,-5.2e-4 0.85000002,0.85000002 0 0 0 0,-5.2e-4 0.85000002,0.85000002 0 0 0 0,-5.1e-4 0.85000002,0.85000002 0 0 0 0,-5.2e-4 0.85000002,0.85000002 0 0 0 0,-5.2e-4 0.85000002,0.85000002 0 0 0 0,-5.1e-4 0.85000002,0.85000002 0 0 0 0,-5.2e-4 0.85000002,0.85000002 0 0 0 0,-5.2e-4 0.85000002,0.85000002 0 0 0 0,-5.1e-4 0.85000002,0.85000002 0 0 0 0,-5.2e-4 0.85000002,0.85000002 0 0 0 0,-5.2e-4 0.85000002,0.85000002 0 0 0 0,-5.1e-4 0.85000002,0.85000002 0 0 0 0,-5.2e-4 0.85000002,0.85000002 0 0 0 0,-5.2e-4 0.85000002,0.85000002 0 0 0 0,-5.1e-4 0.85000002,0.85000002 0 0 0 0,-5.2e-4 0.85000002,0.85000002 0 0 0 0,-5.2e-4 0.85000002,0.85000002 0 0 0 0,-5.1e-4 0.85000002,0.85000002 0 0 0 0,-5.2e-4 0.85000002,0.85000002 0 0 0 0,-5.2e-4 0.85000002,0.85000002 0 0 0 0,-5.1e-4 0.85000002,0.85000002 0 0 0 0,-5.2e-4 0.85000002,0.85000002 0 0 0 0,-5.2e-4 0.85000002,0.85000002 0 0 0 0,-5.2e-4 0.85000002,0.85000002 0 0 0 0,-5.1e-4 0.85000002,0.85000002 0 0 0 0,-5.2e-4 0.85000002,0.85000002 0 0 0 0,-5.2e-4 0.85000002,0.85000002 0 0 0 0,-5.1e-4 0.85000002,0.85000002 0 0 0 0,-5.2e-4 0.85000002,0.85000002 0 0 0 0,-5.2e-4 0.85000002,0.85000002 0 0 0 0,-5.1e-4 v -1.01234 h 1.143599 v -0.99994 h 2.500106 v -3.50005 h -2.500106 v -1.20147 h -5.000212 v -1.20717 l -0.792716,-0.79271 z" />
          <circle
             style="fill:none;fill-opacity:0.458111;stroke:#000000;stroke-width:0.26458333;stroke-linecap:square;stroke-dasharray:none;stroke-opacity:1;vector-effect:non-scaling-stroke;-inkscape-stroke:hairline"
             id="path34096-2-0-0-2-1"
             cx="15.949717"
             cy="145.16563"
             r="1" />
          <circle
             style="fill:none;fill-opacity:0.458111;stroke:#000000;stroke-width:0.26458333;stroke-linecap:square;stroke-dasharray:none;stroke-opacity:1;vector-effect:non-scaling-stroke;-inkscape-stroke:hairline"
             id="path34096-9-5-7-2"
             cx="20.949717"
             cy="147.26562"
             r="1" />
          <circle
             style="fill:none;fill-opacity:0.458111;stroke:#000000;stroke-width:0.26458333;stroke-linecap:square;stroke-dasharray:none;stroke-opacity:1;vector-effect:non-scaling-stroke;-inkscape-stroke:hairline"
             id="path34072-1-9-51-2-2"
             cx="15.449717"
             cy="141.36563"
             r="0.85000002" />
          <circle
             style="fill:none;fill-opacity:0.458111;stroke:#000000;stroke-width:0.26458333;stroke-linecap:square;stroke-dasharray:none;stroke-opacity:1;vector-effect:non-scaling-stroke;-inkscape-stroke:hairline"
             id="path34070-8-4-6-5"
             cx="20.949717"
             cy="141.36563"
             r="1.715" />
        </g>
        <g
           id="g34125-2-7-4-91"
           transform="translate(309.05853,-32.563632)"
           style="fill:none;stroke:#000000;stroke-opacity:1;vector-effect:non-scaling-stroke;-inkscape-stroke:hairline;stroke-width:0.26458333;stroke-dasharray:none">
          <path
             id="path52377-0-5-0-4-2-41-0-0-5-6-5-7-8"
             style="fill:none;fill-opacity:0.931765;stroke:#000000;stroke-width:0.26458333;stroke-linecap:square;stroke-linejoin:round;stroke-opacity:1;vector-effect:non-scaling-stroke;-inkscape-stroke:hairline;stroke-dasharray:none"
             d="m 19.235911,132.63017 -0.792716,0.79271 v 0.15865 h -2.500106 v 3.49953 h 2.500106 v 0.25631 l 0.792716,0.79272 h 2.707328 c 0.558239,4e-5 0.999938,0.44377 0.999939,1.00201 v 1.19941 h 2.656686 v 1.03404 a 0.85000002,0.85000002 0 0 0 0.84956,0.85008 0.85000002,0.85000002 0 0 0 0.850078,-0.85008 0.85000002,0.85000002 0 0 0 0,-5.2e-4 0.85000002,0.85000002 0 0 0 0,-5.1e-4 0.85000002,0.85000002 0 0 0 0,-5.2e-4 0.85000002,0.85000002 0 0 0 0,-5.2e-4 0.85000002,0.85000002 0 0 0 0,-5.1e-4 0.85000002,0.85000002 0 0 0 0,-5.2e-4 0.85000002,0.85000002 0 0 0 0,-5.2e-4 0.85000002,0.85000002 0 0 0 0,-5.1e-4 0.85000002,0.85000002 0 0 0 0,-5.2e-4 0.85000002,0.85000002 0 0 0 0,-5.2e-4 0.85000002,0.85000002 0 0 0 0,-5.1e-4 0.85000002,0.85000002 0 0 0 0,-5.2e-4 0.85000002,0.85000002 0 0 0 0,-5.2e-4 0.85000002,0.85000002 0 0 0 0,-5.1e-4 0.85000002,0.85000002 0 0 0 0,-5.2e-4 0.85000002,0.85000002 0 0 0 0,-5.2e-4 0.85000002,0.85000002 0 0 0 0,-5.1e-4 0.85000002,0.85000002 0 0 0 0,-5.2e-4 0.85000002,0.85000002 0 0 0 0,-5.2e-4 0.85000002,0.85000002 0 0 0 0,-5.1e-4 0.85000002,0.85000002 0 0 0 0,-5.2e-4 0.85000002,0.85000002 0 0 0 0,-5.2e-4 0.85000002,0.85000002 0 0 0 0,-5.1e-4 0.85000002,0.85000002 0 0 0 0,-5.2e-4 0.85000002,0.85000002 0 0 0 0,-5.2e-4 0.85000002,0.85000002 0 0 0 0,-5.1e-4 0.85000002,0.85000002 0 0 0 0,-5.2e-4 0.85000002,0.85000002 0 0 0 0,-5.2e-4 0.85000002,0.85000002 0 0 0 0,-5.1e-4 0.85000002,0.85000002 0 0 0 0,-5.2e-4 0.85000002,0.85000002 0 0 0 0,-5.2e-4 0.85000002,0.85000002 0 0 0 0,-5.1e-4 0.85000002,0.85000002 0 0 0 0,-5.2e-4 0.85000002,0.85000002 0 0 0 0,-5.2e-4 0.85000002,0.85000002 0 0 0 0,-5.2e-4 0.85000002,0.85000002 0 0 0 0,-5.1e-4 0.85000002,0.85000002 0 0 0 0,-5.2e-4 0.85000002,0.85000002 0 0 0 0,-5.2e-4 0.85000002,0.85000002 0 0 0 0,-5.1e-4 0.85000002,0.85000002 0 0 0 0,-5.2e-4 0.85000002,0.85000002 0 0 0 0,-5.2e-4 0.85000002,0.85000002 0 0 0 0,-5.1e-4 v -1.01234 h 1.143599 v -0.99994 h 2.500106 v -3.50005 h -2.500106 v -1.20147 h -5.000212 v -1.20717 l -0.792716,-0.79271 z" />
          <circle
             style="fill:none;fill-opacity:0.458111;stroke:#000000;stroke-width:0.26458333;stroke-linecap:square;stroke-dasharray:none;stroke-opacity:1;vector-effect:non-scaling-stroke;-inkscape-stroke:hairline"
             id="path34096-2-0-4-8-2"
             cx="15.949717"
             cy="145.16563"
             r="1" />
          <circle
             style="fill:none;fill-opacity:0.458111;stroke:#000000;stroke-width:0.26458333;stroke-linecap:square;stroke-dasharray:none;stroke-opacity:1;vector-effect:non-scaling-stroke;-inkscape-stroke:hairline"
             id="path34096-9-4-8-3"
             cx="20.949717"
             cy="147.26562"
             r="1" />
          <circle
             style="fill:none;fill-opacity:0.458111;stroke:#000000;stroke-width:0.26458333;stroke-linecap:square;stroke-dasharray:none;stroke-opacity:1;vector-effect:non-scaling-stroke;-inkscape-stroke:hairline"
             id="path34072-1-9-5-5-3"
             cx="15.449717"
             cy="141.36563"
             r="0.85000002" />
          <circle
             style="fill:none;fill-opacity:0.458111;stroke:#000000;stroke-width:0.26458333;stroke-linecap:square;stroke-dasharray:none;stroke-opacity:1;vector-effect:non-scaling-stroke;-inkscape-stroke:hairline"
             id="path34070-8-0-8-0"
             cx="20.949717"
             cy="141.36563"
             r="1.715" />
        </g>
        <g
           id="g34125-2-2-9-2"
           transform="translate(273.05853,-49.563632)"
           style="fill:none;stroke:#000000;stroke-opacity:1;vector-effect:non-scaling-stroke;-inkscape-stroke:hairline;stroke-width:0.26458333;stroke-dasharray:none">
          <path
             id="path52377-0-5-0-4-2-41-0-0-5-6-1-7-3"
             style="fill:none;fill-opacity:0.931765;stroke:#000000;stroke-width:0.26458333;stroke-linecap:square;stroke-linejoin:round;stroke-opacity:1;vector-effect:non-scaling-stroke;-inkscape-stroke:hairline;stroke-dasharray:none"
             d="m 19.235911,132.63017 -0.792716,0.79271 v 0.15865 h -2.500106 v 3.49953 h 2.500106 v 0.25631 l 0.792716,0.79272 h 2.707328 c 0.558239,4e-5 0.999938,0.44377 0.999939,1.00201 v 1.19941 h 2.656686 v 1.03404 a 0.85000002,0.85000002 0 0 0 0.84956,0.85008 0.85000002,0.85000002 0 0 0 0.850078,-0.85008 0.85000002,0.85000002 0 0 0 0,-5.2e-4 0.85000002,0.85000002 0 0 0 0,-5.1e-4 0.85000002,0.85000002 0 0 0 0,-5.2e-4 0.85000002,0.85000002 0 0 0 0,-5.2e-4 0.85000002,0.85000002 0 0 0 0,-5.1e-4 0.85000002,0.85000002 0 0 0 0,-5.2e-4 0.85000002,0.85000002 0 0 0 0,-5.2e-4 0.85000002,0.85000002 0 0 0 0,-5.1e-4 0.85000002,0.85000002 0 0 0 0,-5.2e-4 0.85000002,0.85000002 0 0 0 0,-5.2e-4 0.85000002,0.85000002 0 0 0 0,-5.1e-4 0.85000002,0.85000002 0 0 0 0,-5.2e-4 0.85000002,0.85000002 0 0 0 0,-5.2e-4 0.85000002,0.85000002 0 0 0 0,-5.1e-4 0.85000002,0.85000002 0 0 0 0,-5.2e-4 0.85000002,0.85000002 0 0 0 0,-5.2e-4 0.85000002,0.85000002 0 0 0 0,-5.1e-4 0.85000002,0.85000002 0 0 0 0,-5.2e-4 0.85000002,0.85000002 0 0 0 0,-5.2e-4 0.85000002,0.85000002 0 0 0 0,-5.1e-4 0.85000002,0.85000002 0 0 0 0,-5.2e-4 0.85000002,0.85000002 0 0 0 0,-5.2e-4 0.85000002,0.85000002 0 0 0 0,-5.1e-4 0.85000002,0.85000002 0 0 0 0,-5.2e-4 0.85000002,0.85000002 0 0 0 0,-5.2e-4 0.85000002,0.85000002 0 0 0 0,-5.1e-4 0.85000002,0.85000002 0 0 0 0,-5.2e-4 0.85000002,0.85000002 0 0 0 0,-5.2e-4 0.85000002,0.85000002 0 0 0 0,-5.1e-4 0.85000002,0.85000002 0 0 0 0,-5.2e-4 0.85000002,0.85000002 0 0 0 0,-5.2e-4 0.85000002,0.85000002 0 0 0 0,-5.1e-4 0.85000002,0.85000002 0 0 0 0,-5.2e-4 0.85000002,0.85000002 0 0 0 0,-5.2e-4 0.85000002,0.85000002 0 0 0 0,-5.2e-4 0.85000002,0.85000002 0 0 0 0,-5.1e-4 0.85000002,0.85000002 0 0 0 0,-5.2e-4 0.85000002,0.85000002 0 0 0 0,-5.2e-4 0.85000002,0.85000002 0 0 0 0,-5.1e-4 0.85000002,0.85000002 0 0 0 0,-5.2e-4 0.85000002,0.85000002 0 0 0 0,-5.2e-4 0.85000002,0.85000002 0 0 0 0,-5.1e-4 v -1.01234 h 1.143599 v -0.99994 h 2.500106 v -3.50005 h -2.500106 v -1.20147 h -5.000212 v -1.20717 l -0.792716,-0.79271 z" />
          <circle
             style="fill:none;fill-opacity:0.458111;stroke:#000000;stroke-width:0.26458333;stroke-linecap:square;stroke-dasharray:none;stroke-opacity:1;vector-effect:non-scaling-stroke;-inkscape-stroke:hairline"
             id="path34096-2-0-0-4-6"
             cx="15.949717"
             cy="145.16563"
             r="1" />
          <circle
             style="fill:none;fill-opacity:0.458111;stroke:#000000;stroke-width:0.26458333;stroke-linecap:square;stroke-dasharray:none;stroke-opacity:1;vector-effect:non-scaling-stroke;-inkscape-stroke:hairline"
             id="path34096-9-5-75-6"
             cx="20.949717"
             cy="147.26562"
             r="1" />
          <circle
             style="fill:none;fill-opacity:0.458111;stroke:#000000;stroke-width:0.26458333;stroke-linecap:square;stroke-dasharray:none;stroke-opacity:1;vector-effect:non-scaling-stroke;-inkscape-stroke:hairline"
             id="path34072-1-9-51-8-19"
             cx="15.449717"
             cy="141.36563"
             r="0.85000002" />
          <circle
             style="fill:none;fill-opacity:0.458111;stroke:#000000;stroke-width:0.26458333;stroke-linecap:square;stroke-dasharray:none;stroke-opacity:1;vector-effect:non-scaling-stroke;-inkscape-stroke:hairline"
             id="path34070-8-4-65-4"
             cx="20.949717"
             cy="141.36563"
             r="1.715" />
        </g>
        <g
           id="g34125-2-2-7-7-20"
           transform="translate(273.05853,-66.563632)"
           style="fill:none;stroke:#000000;stroke-opacity:1;vector-effect:non-scaling-stroke;-inkscape-stroke:hairline;stroke-width:0.26458333;stroke-dasharray:none">
          <path
             id="path52377-0-5-0-4-2-41-0-0-5-6-1-6-5-7"
             style="fill:none;fill-opacity:0.931765;stroke:#000000;stroke-width:0.26458333;stroke-linecap:square;stroke-linejoin:round;stroke-opacity:1;vector-effect:non-scaling-stroke;-inkscape-stroke:hairline;stroke-dasharray:none"
             d="m 19.235911,132.63017 -0.792716,0.79271 v 0.15865 h -2.500106 v 3.49953 h 2.500106 v 0.25631 l 0.792716,0.79272 h 2.707328 c 0.558239,4e-5 0.999938,0.44377 0.999939,1.00201 v 1.19941 h 2.656686 v 1.03404 a 0.85000002,0.85000002 0 0 0 0.84956,0.85008 0.85000002,0.85000002 0 0 0 0.850078,-0.85008 0.85000002,0.85000002 0 0 0 0,-5.2e-4 0.85000002,0.85000002 0 0 0 0,-5.1e-4 0.85000002,0.85000002 0 0 0 0,-5.2e-4 0.85000002,0.85000002 0 0 0 0,-5.2e-4 0.85000002,0.85000002 0 0 0 0,-5.1e-4 0.85000002,0.85000002 0 0 0 0,-5.2e-4 0.85000002,0.85000002 0 0 0 0,-5.2e-4 0.85000002,0.85000002 0 0 0 0,-5.1e-4 0.85000002,0.85000002 0 0 0 0,-5.2e-4 0.85000002,0.85000002 0 0 0 0,-5.2e-4 0.85000002,0.85000002 0 0 0 0,-5.1e-4 0.85000002,0.85000002 0 0 0 0,-5.2e-4 0.85000002,0.85000002 0 0 0 0,-5.2e-4 0.85000002,0.85000002 0 0 0 0,-5.1e-4 0.85000002,0.85000002 0 0 0 0,-5.2e-4 0.85000002,0.85000002 0 0 0 0,-5.2e-4 0.85000002,0.85000002 0 0 0 0,-5.1e-4 0.85000002,0.85000002 0 0 0 0,-5.2e-4 0.85000002,0.85000002 0 0 0 0,-5.2e-4 0.85000002,0.85000002 0 0 0 0,-5.1e-4 0.85000002,0.85000002 0 0 0 0,-5.2e-4 0.85000002,0.85000002 0 0 0 0,-5.2e-4 0.85000002,0.85000002 0 0 0 0,-5.1e-4 0.85000002,0.85000002 0 0 0 0,-5.2e-4 0.85000002,0.85000002 0 0 0 0,-5.2e-4 0.85000002,0.85000002 0 0 0 0,-5.1e-4 0.85000002,0.85000002 0 0 0 0,-5.2e-4 0.85000002,0.85000002 0 0 0 0,-5.2e-4 0.85000002,0.85000002 0 0 0 0,-5.1e-4 0.85000002,0.85000002 0 0 0 0,-5.2e-4 0.85000002,0.85000002 0 0 0 0,-5.2e-4 0.85000002,0.85000002 0 0 0 0,-5.1e-4 0.85000002,0.85000002 0 0 0 0,-5.2e-4 0.85000002,0.85000002 0 0 0 0,-5.2e-4 0.85000002,0.85000002 0 0 0 0,-5.2e-4 0.85000002,0.85000002 0 0 0 0,-5.1e-4 0.85000002,0.85000002 0 0 0 0,-5.2e-4 0.85000002,0.85000002 0 0 0 0,-5.2e-4 0.85000002,0.85000002 0 0 0 0,-5.1e-4 0.85000002,0.85000002 0 0 0 0,-5.2e-4 0.85000002,0.85000002 0 0 0 0,-5.2e-4 0.85000002,0.85000002 0 0 0 0,-5.1e-4 v -1.01234 h 1.143599 v -0.99994 h 2.500106 v -3.50005 h -2.500106 v -1.20147 h -5.000212 v -1.20717 l -0.792716,-0.79271 z" />
          <circle
             style="fill:none;fill-opacity:0.458111;stroke:#000000;stroke-width:0.26458333;stroke-linecap:square;stroke-dasharray:none;stroke-opacity:1;vector-effect:non-scaling-stroke;-inkscape-stroke:hairline"
             id="path34096-2-0-0-2-7-8"
             cx="15.949717"
             cy="145.16563"
             r="1" />
          <circle
             style="fill:none;fill-opacity:0.458111;stroke:#000000;stroke-width:0.26458333;stroke-linecap:square;stroke-dasharray:none;stroke-opacity:1;vector-effect:non-scaling-stroke;-inkscape-stroke:hairline"
             id="path34096-9-5-7-9-1"
             cx="20.949717"
             cy="147.26562"
             r="1" />
          <circle
             style="fill:none;fill-opacity:0.458111;stroke:#000000;stroke-width:0.26458333;stroke-linecap:square;stroke-dasharray:none;stroke-opacity:1;vector-effect:non-scaling-stroke;-inkscape-stroke:hairline"
             id="path34072-1-9-51-2-1-34"
             cx="15.449717"
             cy="141.36563"
             r="0.85000002" />
          <circle
             style="fill:none;fill-opacity:0.458111;stroke:#000000;stroke-width:0.26458333;stroke-linecap:square;stroke-dasharray:none;stroke-opacity:1;vector-effect:non-scaling-stroke;-inkscape-stroke:hairline"
             id="path34070-8-4-6-1-2"
             cx="20.949717"
             cy="141.36563"
             r="1.715" />
        </g>
        <g
           id="g34125-2-7-4-9-5"
           transform="translate(273.05853,-32.563632)"
           style="fill:none;stroke:#000000;stroke-opacity:1;vector-effect:non-scaling-stroke;-inkscape-stroke:hairline;stroke-width:0.26458333;stroke-dasharray:none">
          <path
             id="path52377-0-5-0-4-2-41-0-0-5-6-5-7-1-8"
             style="fill:none;fill-opacity:0.931765;stroke:#000000;stroke-width:0.26458333;stroke-linecap:square;stroke-linejoin:round;stroke-opacity:1;vector-effect:non-scaling-stroke;-inkscape-stroke:hairline;stroke-dasharray:none"
             d="m 19.235911,132.63017 -0.792716,0.79271 v 0.15865 h -2.500106 v 3.49953 h 2.500106 v 0.25631 l 0.792716,0.79272 h 2.707328 c 0.558239,4e-5 0.999938,0.44377 0.999939,1.00201 v 1.19941 h 2.656686 v 1.03404 a 0.85000002,0.85000002 0 0 0 0.84956,0.85008 0.85000002,0.85000002 0 0 0 0.850078,-0.85008 0.85000002,0.85000002 0 0 0 0,-5.2e-4 0.85000002,0.85000002 0 0 0 0,-5.1e-4 0.85000002,0.85000002 0 0 0 0,-5.2e-4 0.85000002,0.85000002 0 0 0 0,-5.2e-4 0.85000002,0.85000002 0 0 0 0,-5.1e-4 0.85000002,0.85000002 0 0 0 0,-5.2e-4 0.85000002,0.85000002 0 0 0 0,-5.2e-4 0.85000002,0.85000002 0 0 0 0,-5.1e-4 0.85000002,0.85000002 0 0 0 0,-5.2e-4 0.85000002,0.85000002 0 0 0 0,-5.2e-4 0.85000002,0.85000002 0 0 0 0,-5.1e-4 0.85000002,0.85000002 0 0 0 0,-5.2e-4 0.85000002,0.85000002 0 0 0 0,-5.2e-4 0.85000002,0.85000002 0 0 0 0,-5.1e-4 0.85000002,0.85000002 0 0 0 0,-5.2e-4 0.85000002,0.85000002 0 0 0 0,-5.2e-4 0.85000002,0.85000002 0 0 0 0,-5.1e-4 0.85000002,0.85000002 0 0 0 0,-5.2e-4 0.85000002,0.85000002 0 0 0 0,-5.2e-4 0.85000002,0.85000002 0 0 0 0,-5.1e-4 0.85000002,0.85000002 0 0 0 0,-5.2e-4 0.85000002,0.85000002 0 0 0 0,-5.2e-4 0.85000002,0.85000002 0 0 0 0,-5.1e-4 0.85000002,0.85000002 0 0 0 0,-5.2e-4 0.85000002,0.85000002 0 0 0 0,-5.2e-4 0.85000002,0.85000002 0 0 0 0,-5.1e-4 0.85000002,0.85000002 0 0 0 0,-5.2e-4 0.85000002,0.85000002 0 0 0 0,-5.2e-4 0.85000002,0.85000002 0 0 0 0,-5.1e-4 0.85000002,0.85000002 0 0 0 0,-5.2e-4 0.85000002,0.85000002 0 0 0 0,-5.2e-4 0.85000002,0.85000002 0 0 0 0,-5.1e-4 0.85000002,0.85000002 0 0 0 0,-5.2e-4 0.85000002,0.85000002 0 0 0 0,-5.2e-4 0.85000002,0.85000002 0 0 0 0,-5.2e-4 0.85000002,0.85000002 0 0 0 0,-5.1e-4 0.85000002,0.85000002 0 0 0 0,-5.2e-4 0.85000002,0.85000002 0 0 0 0,-5.2e-4 0.85000002,0.85000002 0 0 0 0,-5.1e-4 0.85000002,0.85000002 0 0 0 0,-5.2e-4 0.85000002,0.85000002 0 0 0 0,-5.2e-4 0.85000002,0.85000002 0 0 0 0,-5.1e-4 v -1.01234 h 1.143599 v -0.99994 h 2.500106 v -3.50005 h -2.500106 v -1.20147 h -5.000212 v -1.20717 l -0.792716,-0.79271 z" />
          <circle
             style="fill:none;fill-opacity:0.458111;stroke:#000000;stroke-width:0.26458333;stroke-linecap:square;stroke-dasharray:none;stroke-opacity:1;vector-effect:non-scaling-stroke;-inkscape-stroke:hairline"
             id="path34096-2-0-4-8-5-2"
             cx="15.949717"
             cy="145.16563"
             r="1" />
          <circle
             style="fill:none;fill-opacity:0.458111;stroke:#000000;stroke-width:0.26458333;stroke-linecap:square;stroke-dasharray:none;stroke-opacity:1;vector-effect:non-scaling-stroke;-inkscape-stroke:hairline"
             id="path34096-9-4-8-5-7"
             cx="20.949717"
             cy="147.26562"
             r="1" />
          <circle
             style="fill:none;fill-opacity:0.458111;stroke:#000000;stroke-width:0.26458333;stroke-linecap:square;stroke-dasharray:none;stroke-opacity:1;vector-effect:non-scaling-stroke;-inkscape-stroke:hairline"
             id="path34072-1-9-5-5-4-7"
             cx="15.449717"
             cy="141.36563"
             r="0.85000002" />
          <circle
             style="fill:none;fill-opacity:0.458111;stroke:#000000;stroke-width:0.26458333;stroke-linecap:square;stroke-dasharray:none;stroke-opacity:1;vector-effect:non-scaling-stroke;-inkscape-stroke:hairline"
             id="path34070-8-0-8-3-5"
             cx="20.949717"
             cy="141.36563"
             r="1.715" />
        </g>
        <g
           id="g34125-2-2-9-9-7"
           transform="translate(255.04551,-47.563632)"
           style="fill:none;stroke:#000000;stroke-opacity:1;vector-effect:non-scaling-stroke;-inkscape-stroke:hairline;stroke-width:0.26458333;stroke-dasharray:none">
          <path
             id="path52377-0-5-0-4-2-41-0-0-5-6-1-7-8-4"
             style="fill:none;fill-opacity:0.931765;stroke:#000000;stroke-width:0.26458333;stroke-linecap:square;stroke-linejoin:round;stroke-opacity:1;vector-effect:non-scaling-stroke;-inkscape-stroke:hairline;stroke-dasharray:none"
             d="m 19.235911,132.63017 -0.792716,0.79271 v 0.15865 h -2.500106 v 3.49953 h 2.500106 v 0.25631 l 0.792716,0.79272 h 2.707328 c 0.558239,4e-5 0.999938,0.44377 0.999939,1.00201 v 1.19941 h 2.656686 v 1.03404 a 0.85000002,0.85000002 0 0 0 0.84956,0.85008 0.85000002,0.85000002 0 0 0 0.850078,-0.85008 0.85000002,0.85000002 0 0 0 0,-5.2e-4 0.85000002,0.85000002 0 0 0 0,-5.1e-4 0.85000002,0.85000002 0 0 0 0,-5.2e-4 0.85000002,0.85000002 0 0 0 0,-5.2e-4 0.85000002,0.85000002 0 0 0 0,-5.1e-4 0.85000002,0.85000002 0 0 0 0,-5.2e-4 0.85000002,0.85000002 0 0 0 0,-5.2e-4 0.85000002,0.85000002 0 0 0 0,-5.1e-4 0.85000002,0.85000002 0 0 0 0,-5.2e-4 0.85000002,0.85000002 0 0 0 0,-5.2e-4 0.85000002,0.85000002 0 0 0 0,-5.1e-4 0.85000002,0.85000002 0 0 0 0,-5.2e-4 0.85000002,0.85000002 0 0 0 0,-5.2e-4 0.85000002,0.85000002 0 0 0 0,-5.1e-4 0.85000002,0.85000002 0 0 0 0,-5.2e-4 0.85000002,0.85000002 0 0 0 0,-5.2e-4 0.85000002,0.85000002 0 0 0 0,-5.1e-4 0.85000002,0.85000002 0 0 0 0,-5.2e-4 0.85000002,0.85000002 0 0 0 0,-5.2e-4 0.85000002,0.85000002 0 0 0 0,-5.1e-4 0.85000002,0.85000002 0 0 0 0,-5.2e-4 0.85000002,0.85000002 0 0 0 0,-5.2e-4 0.85000002,0.85000002 0 0 0 0,-5.1e-4 0.85000002,0.85000002 0 0 0 0,-5.2e-4 0.85000002,0.85000002 0 0 0 0,-5.2e-4 0.85000002,0.85000002 0 0 0 0,-5.1e-4 0.85000002,0.85000002 0 0 0 0,-5.2e-4 0.85000002,0.85000002 0 0 0 0,-5.2e-4 0.85000002,0.85000002 0 0 0 0,-5.1e-4 0.85000002,0.85000002 0 0 0 0,-5.2e-4 0.85000002,0.85000002 0 0 0 0,-5.2e-4 0.85000002,0.85000002 0 0 0 0,-5.1e-4 0.85000002,0.85000002 0 0 0 0,-5.2e-4 0.85000002,0.85000002 0 0 0 0,-5.2e-4 0.85000002,0.85000002 0 0 0 0,-5.2e-4 0.85000002,0.85000002 0 0 0 0,-5.1e-4 0.85000002,0.85000002 0 0 0 0,-5.2e-4 0.85000002,0.85000002 0 0 0 0,-5.2e-4 0.85000002,0.85000002 0 0 0 0,-5.1e-4 0.85000002,0.85000002 0 0 0 0,-5.2e-4 0.85000002,0.85000002 0 0 0 0,-5.2e-4 0.85000002,0.85000002 0 0 0 0,-5.1e-4 v -1.01234 h 1.143599 v -0.99994 h 2.500106 v -3.50005 h -2.500106 v -1.20147 h -5.000212 v -1.20717 l -0.792716,-0.79271 z" />
          <circle
             style="fill:none;fill-opacity:0.458111;stroke:#000000;stroke-width:0.26458333;stroke-linecap:square;stroke-dasharray:none;stroke-opacity:1;vector-effect:non-scaling-stroke;-inkscape-stroke:hairline"
             id="path34096-2-0-0-4-5-1"
             cx="15.949717"
             cy="145.16563"
             r="1" />
          <circle
             style="fill:none;fill-opacity:0.458111;stroke:#000000;stroke-width:0.26458333;stroke-linecap:square;stroke-dasharray:none;stroke-opacity:1;vector-effect:non-scaling-stroke;-inkscape-stroke:hairline"
             id="path34096-9-5-75-5-5"
             cx="20.949717"
             cy="147.26562"
             r="1" />
          <circle
             style="fill:none;fill-opacity:0.458111;stroke:#000000;stroke-width:0.26458333;stroke-linecap:square;stroke-dasharray:none;stroke-opacity:1;vector-effect:non-scaling-stroke;-inkscape-stroke:hairline"
             id="path34072-1-9-51-8-1-9"
             cx="15.449717"
             cy="141.36563"
             r="0.85000002" />
          <circle
             style="fill:none;fill-opacity:0.458111;stroke:#000000;stroke-width:0.26458333;stroke-linecap:square;stroke-dasharray:none;stroke-opacity:1;vector-effect:non-scaling-stroke;-inkscape-stroke:hairline"
             id="path34070-8-4-65-1-2"
             cx="20.949717"
             cy="141.36563"
             r="1.715" />
        </g>
        <g
           id="g34125-2-2-7-7-2-6"
           transform="translate(255.04551,-64.563632)"
           style="fill:none;stroke:#000000;stroke-opacity:1;vector-effect:non-scaling-stroke;-inkscape-stroke:hairline;stroke-width:0.26458333;stroke-dasharray:none">
          <path
             id="path52377-0-5-0-4-2-41-0-0-5-6-1-6-5-2-8"
             style="fill:none;fill-opacity:0.931765;stroke:#000000;stroke-width:0.26458333;stroke-linecap:square;stroke-linejoin:round;stroke-opacity:1;vector-effect:non-scaling-stroke;-inkscape-stroke:hairline;stroke-dasharray:none"
             d="m 19.235911,132.63017 -0.792716,0.79271 v 0.15865 h -2.500106 v 3.49953 h 2.500106 v 0.25631 l 0.792716,0.79272 h 2.707328 c 0.558239,4e-5 0.999938,0.44377 0.999939,1.00201 v 1.19941 h 2.656686 v 1.03404 a 0.85000002,0.85000002 0 0 0 0.84956,0.85008 0.85000002,0.85000002 0 0 0 0.850078,-0.85008 0.85000002,0.85000002 0 0 0 0,-5.2e-4 0.85000002,0.85000002 0 0 0 0,-5.1e-4 0.85000002,0.85000002 0 0 0 0,-5.2e-4 0.85000002,0.85000002 0 0 0 0,-5.2e-4 0.85000002,0.85000002 0 0 0 0,-5.1e-4 0.85000002,0.85000002 0 0 0 0,-5.2e-4 0.85000002,0.85000002 0 0 0 0,-5.2e-4 0.85000002,0.85000002 0 0 0 0,-5.1e-4 0.85000002,0.85000002 0 0 0 0,-5.2e-4 0.85000002,0.85000002 0 0 0 0,-5.2e-4 0.85000002,0.85000002 0 0 0 0,-5.1e-4 0.85000002,0.85000002 0 0 0 0,-5.2e-4 0.85000002,0.85000002 0 0 0 0,-5.2e-4 0.85000002,0.85000002 0 0 0 0,-5.1e-4 0.85000002,0.85000002 0 0 0 0,-5.2e-4 0.85000002,0.85000002 0 0 0 0,-5.2e-4 0.85000002,0.85000002 0 0 0 0,-5.1e-4 0.85000002,0.85000002 0 0 0 0,-5.2e-4 0.85000002,0.85000002 0 0 0 0,-5.2e-4 0.85000002,0.85000002 0 0 0 0,-5.1e-4 0.85000002,0.85000002 0 0 0 0,-5.2e-4 0.85000002,0.85000002 0 0 0 0,-5.2e-4 0.85000002,0.85000002 0 0 0 0,-5.1e-4 0.85000002,0.85000002 0 0 0 0,-5.2e-4 0.85000002,0.85000002 0 0 0 0,-5.2e-4 0.85000002,0.85000002 0 0 0 0,-5.1e-4 0.85000002,0.85000002 0 0 0 0,-5.2e-4 0.85000002,0.85000002 0 0 0 0,-5.2e-4 0.85000002,0.85000002 0 0 0 0,-5.1e-4 0.85000002,0.85000002 0 0 0 0,-5.2e-4 0.85000002,0.85000002 0 0 0 0,-5.2e-4 0.85000002,0.85000002 0 0 0 0,-5.1e-4 0.85000002,0.85000002 0 0 0 0,-5.2e-4 0.85000002,0.85000002 0 0 0 0,-5.2e-4 0.85000002,0.85000002 0 0 0 0,-5.2e-4 0.85000002,0.85000002 0 0 0 0,-5.1e-4 0.85000002,0.85000002 0 0 0 0,-5.2e-4 0.85000002,0.85000002 0 0 0 0,-5.2e-4 0.85000002,0.85000002 0 0 0 0,-5.1e-4 0.85000002,0.85000002 0 0 0 0,-5.2e-4 0.85000002,0.85000002 0 0 0 0,-5.2e-4 0.85000002,0.85000002 0 0 0 0,-5.1e-4 v -1.01234 h 1.143599 v -0.99994 h 2.500106 v -3.50005 h -2.500106 v -1.20147 h -5.000212 v -1.20717 l -0.792716,-0.79271 z" />
          <circle
             style="fill:none;fill-opacity:0.458111;stroke:#000000;stroke-width:0.26458333;stroke-linecap:square;stroke-dasharray:none;stroke-opacity:1;vector-effect:non-scaling-stroke;-inkscape-stroke:hairline"
             id="path34096-2-0-0-2-7-9-0"
             cx="15.949717"
             cy="145.16563"
             r="1" />
          <circle
             style="fill:none;fill-opacity:0.458111;stroke:#000000;stroke-width:0.26458333;stroke-linecap:square;stroke-dasharray:none;stroke-opacity:1;vector-effect:non-scaling-stroke;-inkscape-stroke:hairline"
             id="path34096-9-5-7-9-4-5"
             cx="20.949717"
             cy="147.26562"
             r="1" />
          <circle
             style="fill:none;fill-opacity:0.458111;stroke:#000000;stroke-width:0.26458333;stroke-linecap:square;stroke-dasharray:none;stroke-opacity:1;vector-effect:non-scaling-stroke;-inkscape-stroke:hairline"
             id="path34072-1-9-51-2-1-3-2"
             cx="15.449717"
             cy="141.36563"
             r="0.85000002" />
          <circle
             style="fill:none;fill-opacity:0.458111;stroke:#000000;stroke-width:0.26458333;stroke-linecap:square;stroke-dasharray:none;stroke-opacity:1;vector-effect:non-scaling-stroke;-inkscape-stroke:hairline"
             id="path34070-8-4-6-1-4-3"
             cx="20.949717"
             cy="141.36563"
             r="1.715" />
        </g>
        <g
           id="g34125-2-7-4-9-1-5"
           transform="translate(255.04551,-30.563632)"
           style="fill:none;stroke:#000000;stroke-opacity:1;vector-effect:non-scaling-stroke;-inkscape-stroke:hairline;stroke-width:0.26458333;stroke-dasharray:none">
          <path
             id="path52377-0-5-0-4-2-41-0-0-5-6-5-7-1-6-7"
             style="fill:none;fill-opacity:0.931765;stroke:#000000;stroke-width:0.26458333;stroke-linecap:square;stroke-linejoin:round;stroke-opacity:1;vector-effect:non-scaling-stroke;-inkscape-stroke:hairline;stroke-dasharray:none"
             d="m 19.235911,132.63017 -0.792716,0.79271 v 0.15865 h -2.500106 v 3.49953 h 2.500106 v 0.25631 l 0.792716,0.79272 h 2.707328 c 0.558239,4e-5 0.999938,0.44377 0.999939,1.00201 v 1.19941 h 2.656686 v 1.03404 a 0.85000002,0.85000002 0 0 0 0.84956,0.85008 0.85000002,0.85000002 0 0 0 0.850078,-0.85008 0.85000002,0.85000002 0 0 0 0,-5.2e-4 0.85000002,0.85000002 0 0 0 0,-5.1e-4 0.85000002,0.85000002 0 0 0 0,-5.2e-4 0.85000002,0.85000002 0 0 0 0,-5.2e-4 0.85000002,0.85000002 0 0 0 0,-5.1e-4 0.85000002,0.85000002 0 0 0 0,-5.2e-4 0.85000002,0.85000002 0 0 0 0,-5.2e-4 0.85000002,0.85000002 0 0 0 0,-5.1e-4 0.85000002,0.85000002 0 0 0 0,-5.2e-4 0.85000002,0.85000002 0 0 0 0,-5.2e-4 0.85000002,0.85000002 0 0 0 0,-5.1e-4 0.85000002,0.85000002 0 0 0 0,-5.2e-4 0.85000002,0.85000002 0 0 0 0,-5.2e-4 0.85000002,0.85000002 0 0 0 0,-5.1e-4 0.85000002,0.85000002 0 0 0 0,-5.2e-4 0.85000002,0.85000002 0 0 0 0,-5.2e-4 0.85000002,0.85000002 0 0 0 0,-5.1e-4 0.85000002,0.85000002 0 0 0 0,-5.2e-4 0.85000002,0.85000002 0 0 0 0,-5.2e-4 0.85000002,0.85000002 0 0 0 0,-5.1e-4 0.85000002,0.85000002 0 0 0 0,-5.2e-4 0.85000002,0.85000002 0 0 0 0,-5.2e-4 0.85000002,0.85000002 0 0 0 0,-5.1e-4 0.85000002,0.85000002 0 0 0 0,-5.2e-4 0.85000002,0.85000002 0 0 0 0,-5.2e-4 0.85000002,0.85000002 0 0 0 0,-5.1e-4 0.85000002,0.85000002 0 0 0 0,-5.2e-4 0.85000002,0.85000002 0 0 0 0,-5.2e-4 0.85000002,0.85000002 0 0 0 0,-5.1e-4 0.85000002,0.85000002 0 0 0 0,-5.2e-4 0.85000002,0.85000002 0 0 0 0,-5.2e-4 0.85000002,0.85000002 0 0 0 0,-5.1e-4 0.85000002,0.85000002 0 0 0 0,-5.2e-4 0.85000002,0.85000002 0 0 0 0,-5.2e-4 0.85000002,0.85000002 0 0 0 0,-5.2e-4 0.85000002,0.85000002 0 0 0 0,-5.1e-4 0.85000002,0.85000002 0 0 0 0,-5.2e-4 0.85000002,0.85000002 0 0 0 0,-5.2e-4 0.85000002,0.85000002 0 0 0 0,-5.1e-4 0.85000002,0.85000002 0 0 0 0,-5.2e-4 0.85000002,0.85000002 0 0 0 0,-5.2e-4 0.85000002,0.85000002 0 0 0 0,-5.1e-4 v -1.01234 h 1.143599 v -0.99994 h 2.500106 v -3.50005 h -2.500106 v -1.20147 h -5.000212 v -1.20717 l -0.792716,-0.79271 z" />
          <circle
             style="fill:none;fill-opacity:0.458111;stroke:#000000;stroke-width:0.26458333;stroke-linecap:square;stroke-dasharray:none;stroke-opacity:1;vector-effect:non-scaling-stroke;-inkscape-stroke:hairline"
             id="path34096-2-0-4-8-5-4-5"
             cx="15.949717"
             cy="145.16563"
             r="1" />
          <circle
             style="fill:none;fill-opacity:0.458111;stroke:#000000;stroke-width:0.26458333;stroke-linecap:square;stroke-dasharray:none;stroke-opacity:1;vector-effect:non-scaling-stroke;-inkscape-stroke:hairline"
             id="path34096-9-4-8-5-3-2"
             cx="20.949717"
             cy="147.26562"
             r="1" />
          <circle
             style="fill:none;fill-opacity:0.458111;stroke:#000000;stroke-width:0.26458333;stroke-linecap:square;stroke-dasharray:none;stroke-opacity:1;vector-effect:non-scaling-stroke;-inkscape-stroke:hairline"
             id="path34072-1-9-5-5-4-4-8"
             cx="15.449717"
             cy="141.36563"
             r="0.85000002" />
          <circle
             style="fill:none;fill-opacity:0.458111;stroke:#000000;stroke-width:0.26458333;stroke-linecap:square;stroke-dasharray:none;stroke-opacity:1;vector-effect:non-scaling-stroke;-inkscape-stroke:hairline"
             id="path34070-8-0-8-3-3-6"
             cx="20.949717"
             cy="141.36563"
             r="1.715" />
        </g>
        <g
           id="g34125-2-2-9-8-7"
           transform="translate(291.05853,-54.563632)"
           style="fill:none;stroke:#000000;stroke-opacity:1;vector-effect:non-scaling-stroke;-inkscape-stroke:hairline;stroke-width:0.26458333;stroke-dasharray:none">
          <path
             id="path52377-0-5-0-4-2-41-0-0-5-6-1-7-9-1"
             style="fill:none;fill-opacity:0.931765;stroke:#000000;stroke-width:0.26458333;stroke-linecap:square;stroke-linejoin:round;stroke-opacity:1;vector-effect:non-scaling-stroke;-inkscape-stroke:hairline;stroke-dasharray:none"
             d="m 19.235911,132.63017 -0.792716,0.79271 v 0.15865 h -2.500106 v 3.49953 h 2.500106 v 0.25631 l 0.792716,0.79272 h 2.707328 c 0.558239,4e-5 0.999938,0.44377 0.999939,1.00201 v 1.19941 h 2.656686 v 1.03404 a 0.85000002,0.85000002 0 0 0 0.84956,0.85008 0.85000002,0.85000002 0 0 0 0.850078,-0.85008 0.85000002,0.85000002 0 0 0 0,-5.2e-4 0.85000002,0.85000002 0 0 0 0,-5.1e-4 0.85000002,0.85000002 0 0 0 0,-5.2e-4 0.85000002,0.85000002 0 0 0 0,-5.2e-4 0.85000002,0.85000002 0 0 0 0,-5.1e-4 0.85000002,0.85000002 0 0 0 0,-5.2e-4 0.85000002,0.85000002 0 0 0 0,-5.2e-4 0.85000002,0.85000002 0 0 0 0,-5.1e-4 0.85000002,0.85000002 0 0 0 0,-5.2e-4 0.85000002,0.85000002 0 0 0 0,-5.2e-4 0.85000002,0.85000002 0 0 0 0,-5.1e-4 0.85000002,0.85000002 0 0 0 0,-5.2e-4 0.85000002,0.85000002 0 0 0 0,-5.2e-4 0.85000002,0.85000002 0 0 0 0,-5.1e-4 0.85000002,0.85000002 0 0 0 0,-5.2e-4 0.85000002,0.85000002 0 0 0 0,-5.2e-4 0.85000002,0.85000002 0 0 0 0,-5.1e-4 0.85000002,0.85000002 0 0 0 0,-5.2e-4 0.85000002,0.85000002 0 0 0 0,-5.2e-4 0.85000002,0.85000002 0 0 0 0,-5.1e-4 0.85000002,0.85000002 0 0 0 0,-5.2e-4 0.85000002,0.85000002 0 0 0 0,-5.2e-4 0.85000002,0.85000002 0 0 0 0,-5.1e-4 0.85000002,0.85000002 0 0 0 0,-5.2e-4 0.85000002,0.85000002 0 0 0 0,-5.2e-4 0.85000002,0.85000002 0 0 0 0,-5.1e-4 0.85000002,0.85000002 0 0 0 0,-5.2e-4 0.85000002,0.85000002 0 0 0 0,-5.2e-4 0.85000002,0.85000002 0 0 0 0,-5.1e-4 0.85000002,0.85000002 0 0 0 0,-5.2e-4 0.85000002,0.85000002 0 0 0 0,-5.2e-4 0.85000002,0.85000002 0 0 0 0,-5.1e-4 0.85000002,0.85000002 0 0 0 0,-5.2e-4 0.85000002,0.85000002 0 0 0 0,-5.2e-4 0.85000002,0.85000002 0 0 0 0,-5.2e-4 0.85000002,0.85000002 0 0 0 0,-5.1e-4 0.85000002,0.85000002 0 0 0 0,-5.2e-4 0.85000002,0.85000002 0 0 0 0,-5.2e-4 0.85000002,0.85000002 0 0 0 0,-5.1e-4 0.85000002,0.85000002 0 0 0 0,-5.2e-4 0.85000002,0.85000002 0 0 0 0,-5.2e-4 0.85000002,0.85000002 0 0 0 0,-5.1e-4 v -1.01234 h 1.143599 v -0.99994 h 2.500106 v -3.50005 h -2.500106 v -1.20147 h -5.000212 v -1.20717 l -0.792716,-0.79271 z" />
          <circle
             style="fill:none;fill-opacity:0.458111;stroke:#000000;stroke-width:0.26458333;stroke-linecap:square;stroke-dasharray:none;stroke-opacity:1;vector-effect:non-scaling-stroke;-inkscape-stroke:hairline"
             id="path34096-2-0-0-4-52-2"
             cx="15.949717"
             cy="145.16563"
             r="1" />
          <circle
             style="fill:none;fill-opacity:0.458111;stroke:#000000;stroke-width:0.26458333;stroke-linecap:square;stroke-dasharray:none;stroke-opacity:1;vector-effect:non-scaling-stroke;-inkscape-stroke:hairline"
             id="path34096-9-5-75-2-7"
             cx="20.949717"
             cy="147.26562"
             r="1" />
          <circle
             style="fill:none;fill-opacity:0.458111;stroke:#000000;stroke-width:0.26458333;stroke-linecap:square;stroke-dasharray:none;stroke-opacity:1;vector-effect:non-scaling-stroke;-inkscape-stroke:hairline"
             id="path34072-1-9-51-8-2-4"
             cx="15.449717"
             cy="141.36563"
             r="0.85000002" />
          <circle
             style="fill:none;fill-opacity:0.458111;stroke:#000000;stroke-width:0.26458333;stroke-linecap:square;stroke-dasharray:none;stroke-opacity:1;vector-effect:non-scaling-stroke;-inkscape-stroke:hairline"
             id="path34070-8-4-65-5-8"
             cx="20.949717"
             cy="141.36563"
             r="1.715" />
        </g>
        <g
           id="g34125-2-2-7-7-9-3"
           transform="translate(291.05853,-71.563632)"
           style="fill:none;stroke:#000000;stroke-opacity:1;vector-effect:non-scaling-stroke;-inkscape-stroke:hairline;stroke-width:0.26458333;stroke-dasharray:none">
          <path
             id="path52377-0-5-0-4-2-41-0-0-5-6-1-6-5-3-5"
             style="fill:none;fill-opacity:0.931765;stroke:#000000;stroke-width:0.26458333;stroke-linecap:square;stroke-linejoin:round;stroke-opacity:1;vector-effect:non-scaling-stroke;-inkscape-stroke:hairline;stroke-dasharray:none"
             d="m 19.235911,132.63017 -0.792716,0.79271 v 0.15865 h -2.500106 v 3.49953 h 2.500106 v 0.25631 l 0.792716,0.79272 h 2.707328 c 0.558239,4e-5 0.999938,0.44377 0.999939,1.00201 v 1.19941 h 2.656686 v 1.03404 a 0.85000002,0.85000002 0 0 0 0.84956,0.85008 0.85000002,0.85000002 0 0 0 0.850078,-0.85008 0.85000002,0.85000002 0 0 0 0,-5.2e-4 0.85000002,0.85000002 0 0 0 0,-5.1e-4 0.85000002,0.85000002 0 0 0 0,-5.2e-4 0.85000002,0.85000002 0 0 0 0,-5.2e-4 0.85000002,0.85000002 0 0 0 0,-5.1e-4 0.85000002,0.85000002 0 0 0 0,-5.2e-4 0.85000002,0.85000002 0 0 0 0,-5.2e-4 0.85000002,0.85000002 0 0 0 0,-5.1e-4 0.85000002,0.85000002 0 0 0 0,-5.2e-4 0.85000002,0.85000002 0 0 0 0,-5.2e-4 0.85000002,0.85000002 0 0 0 0,-5.1e-4 0.85000002,0.85000002 0 0 0 0,-5.2e-4 0.85000002,0.85000002 0 0 0 0,-5.2e-4 0.85000002,0.85000002 0 0 0 0,-5.1e-4 0.85000002,0.85000002 0 0 0 0,-5.2e-4 0.85000002,0.85000002 0 0 0 0,-5.2e-4 0.85000002,0.85000002 0 0 0 0,-5.1e-4 0.85000002,0.85000002 0 0 0 0,-5.2e-4 0.85000002,0.85000002 0 0 0 0,-5.2e-4 0.85000002,0.85000002 0 0 0 0,-5.1e-4 0.85000002,0.85000002 0 0 0 0,-5.2e-4 0.85000002,0.85000002 0 0 0 0,-5.2e-4 0.85000002,0.85000002 0 0 0 0,-5.1e-4 0.85000002,0.85000002 0 0 0 0,-5.2e-4 0.85000002,0.85000002 0 0 0 0,-5.2e-4 0.85000002,0.85000002 0 0 0 0,-5.1e-4 0.85000002,0.85000002 0 0 0 0,-5.2e-4 0.85000002,0.85000002 0 0 0 0,-5.2e-4 0.85000002,0.85000002 0 0 0 0,-5.1e-4 0.85000002,0.85000002 0 0 0 0,-5.2e-4 0.85000002,0.85000002 0 0 0 0,-5.2e-4 0.85000002,0.85000002 0 0 0 0,-5.1e-4 0.85000002,0.85000002 0 0 0 0,-5.2e-4 0.85000002,0.85000002 0 0 0 0,-5.2e-4 0.85000002,0.85000002 0 0 0 0,-5.2e-4 0.85000002,0.85000002 0 0 0 0,-5.1e-4 0.85000002,0.85000002 0 0 0 0,-5.2e-4 0.85000002,0.85000002 0 0 0 0,-5.2e-4 0.85000002,0.85000002 0 0 0 0,-5.1e-4 0.85000002,0.85000002 0 0 0 0,-5.2e-4 0.85000002,0.85000002 0 0 0 0,-5.2e-4 0.85000002,0.85000002 0 0 0 0,-5.1e-4 v -1.01234 h 1.143599 v -0.99994 h 2.500106 v -3.50005 h -2.500106 v -1.20147 h -5.000212 v -1.20717 l -0.792716,-0.79271 z" />
          <circle
             style="fill:none;fill-opacity:0.458111;stroke:#000000;stroke-width:0.26458333;stroke-linecap:square;stroke-dasharray:none;stroke-opacity:1;vector-effect:non-scaling-stroke;-inkscape-stroke:hairline"
             id="path34096-2-0-0-2-7-3-1"
             cx="15.949717"
             cy="145.16563"
             r="1" />
          <circle
             style="fill:none;fill-opacity:0.458111;stroke:#000000;stroke-width:0.26458333;stroke-linecap:square;stroke-dasharray:none;stroke-opacity:1;vector-effect:non-scaling-stroke;-inkscape-stroke:hairline"
             id="path34096-9-5-7-9-0-9"
             cx="20.949717"
             cy="147.26562"
             r="1" />
          <circle
             style="fill:none;fill-opacity:0.458111;stroke:#000000;stroke-width:0.26458333;stroke-linecap:square;stroke-dasharray:none;stroke-opacity:1;vector-effect:non-scaling-stroke;-inkscape-stroke:hairline"
             id="path34072-1-9-51-2-1-9-3"
             cx="15.449717"
             cy="141.36563"
             r="0.85000002" />
          <circle
             style="fill:none;fill-opacity:0.458111;stroke:#000000;stroke-width:0.26458333;stroke-linecap:square;stroke-dasharray:none;stroke-opacity:1;vector-effect:non-scaling-stroke;-inkscape-stroke:hairline"
             id="path34070-8-4-6-1-5-3"
             cx="20.949717"
             cy="141.36563"
             r="1.715" />
        </g>
        <g
           id="g34125-2-7-4-9-4-4"
           transform="translate(291.05853,-37.563632)"
           style="fill:none;stroke:#000000;stroke-opacity:1;vector-effect:non-scaling-stroke;-inkscape-stroke:hairline;stroke-width:0.26458333;stroke-dasharray:none">
          <path
             id="path52377-0-5-0-4-2-41-0-0-5-6-5-7-1-9-1"
             style="fill:none;fill-opacity:0.931765;stroke:#000000;stroke-width:0.26458333;stroke-linecap:square;stroke-linejoin:round;stroke-opacity:1;vector-effect:non-scaling-stroke;-inkscape-stroke:hairline;stroke-dasharray:none"
             d="m 19.235911,132.63017 -0.792716,0.79271 v 0.15865 h -2.500106 v 3.49953 h 2.500106 v 0.25631 l 0.792716,0.79272 h 2.707328 c 0.558239,4e-5 0.999938,0.44377 0.999939,1.00201 v 1.19941 h 2.656686 v 1.03404 a 0.85000002,0.85000002 0 0 0 0.84956,0.85008 0.85000002,0.85000002 0 0 0 0.850078,-0.85008 0.85000002,0.85000002 0 0 0 0,-5.2e-4 0.85000002,0.85000002 0 0 0 0,-5.1e-4 0.85000002,0.85000002 0 0 0 0,-5.2e-4 0.85000002,0.85000002 0 0 0 0,-5.2e-4 0.85000002,0.85000002 0 0 0 0,-5.1e-4 0.85000002,0.85000002 0 0 0 0,-5.2e-4 0.85000002,0.85000002 0 0 0 0,-5.2e-4 0.85000002,0.85000002 0 0 0 0,-5.1e-4 0.85000002,0.85000002 0 0 0 0,-5.2e-4 0.85000002,0.85000002 0 0 0 0,-5.2e-4 0.85000002,0.85000002 0 0 0 0,-5.1e-4 0.85000002,0.85000002 0 0 0 0,-5.2e-4 0.85000002,0.85000002 0 0 0 0,-5.2e-4 0.85000002,0.85000002 0 0 0 0,-5.1e-4 0.85000002,0.85000002 0 0 0 0,-5.2e-4 0.85000002,0.85000002 0 0 0 0,-5.2e-4 0.85000002,0.85000002 0 0 0 0,-5.1e-4 0.85000002,0.85000002 0 0 0 0,-5.2e-4 0.85000002,0.85000002 0 0 0 0,-5.2e-4 0.85000002,0.85000002 0 0 0 0,-5.1e-4 0.85000002,0.85000002 0 0 0 0,-5.2e-4 0.85000002,0.85000002 0 0 0 0,-5.2e-4 0.85000002,0.85000002 0 0 0 0,-5.1e-4 0.85000002,0.85000002 0 0 0 0,-5.2e-4 0.85000002,0.85000002 0 0 0 0,-5.2e-4 0.85000002,0.85000002 0 0 0 0,-5.1e-4 0.85000002,0.85000002 0 0 0 0,-5.2e-4 0.85000002,0.85000002 0 0 0 0,-5.2e-4 0.85000002,0.85000002 0 0 0 0,-5.1e-4 0.85000002,0.85000002 0 0 0 0,-5.2e-4 0.85000002,0.85000002 0 0 0 0,-5.2e-4 0.85000002,0.85000002 0 0 0 0,-5.1e-4 0.85000002,0.85000002 0 0 0 0,-5.2e-4 0.85000002,0.85000002 0 0 0 0,-5.2e-4 0.85000002,0.85000002 0 0 0 0,-5.2e-4 0.85000002,0.85000002 0 0 0 0,-5.1e-4 0.85000002,0.85000002 0 0 0 0,-5.2e-4 0.85000002,0.85000002 0 0 0 0,-5.2e-4 0.85000002,0.85000002 0 0 0 0,-5.1e-4 0.85000002,0.85000002 0 0 0 0,-5.2e-4 0.85000002,0.85000002 0 0 0 0,-5.2e-4 0.85000002,0.85000002 0 0 0 0,-5.1e-4 v -1.01234 h 1.143599 v -0.99994 h 2.500106 v -3.50005 h -2.500106 v -1.20147 h -5.000212 v -1.20717 l -0.792716,-0.79271 z" />
          <circle
             style="fill:none;fill-opacity:0.458111;stroke:#000000;stroke-width:0.26458333;stroke-linecap:square;stroke-dasharray:none;stroke-opacity:1;vector-effect:non-scaling-stroke;-inkscape-stroke:hairline"
             id="path34096-2-0-4-8-5-1-8"
             cx="15.949717"
             cy="145.16563"
             r="1" />
          <circle
             style="fill:none;fill-opacity:0.458111;stroke:#000000;stroke-width:0.26458333;stroke-linecap:square;stroke-dasharray:none;stroke-opacity:1;vector-effect:non-scaling-stroke;-inkscape-stroke:hairline"
             id="path34096-9-4-8-5-9-93"
             cx="20.949717"
             cy="147.26562"
             r="1" />
          <circle
             style="fill:none;fill-opacity:0.458111;stroke:#000000;stroke-width:0.26458333;stroke-linecap:square;stroke-dasharray:none;stroke-opacity:1;vector-effect:non-scaling-stroke;-inkscape-stroke:hairline"
             id="path34072-1-9-5-5-4-3-8"
             cx="15.449717"
             cy="141.36563"
             r="0.85000002" />
          <circle
             style="fill:none;fill-opacity:0.458111;stroke:#000000;stroke-width:0.26458333;stroke-linecap:square;stroke-dasharray:none;stroke-opacity:1;vector-effect:non-scaling-stroke;-inkscape-stroke:hairline"
             id="path34070-8-0-8-3-8-7"
             cx="20.949717"
             cy="141.36563"
             r="1.715" />
        </g>
        <g
           id="g34125-2-2-9-0-2"
           transform="translate(327.05853,-37.563632)"
           style="fill:none;stroke:#000000;stroke-opacity:1;vector-effect:non-scaling-stroke;-inkscape-stroke:hairline;stroke-width:0.26458333;stroke-dasharray:none">
          <path
             id="path52377-0-5-0-4-2-41-0-0-5-6-1-7-0-4"
             style="fill:none;fill-opacity:0.931765;stroke:#000000;stroke-width:0.26458333;stroke-linecap:square;stroke-linejoin:round;stroke-opacity:1;vector-effect:non-scaling-stroke;-inkscape-stroke:hairline;stroke-dasharray:none"
             d="m 19.235911,132.63017 -0.792716,0.79271 v 0.15865 h -2.500106 v 3.49953 h 2.500106 v 0.25631 l 0.792716,0.79272 h 2.707328 c 0.558239,4e-5 0.999938,0.44377 0.999939,1.00201 v 1.19941 h 2.656686 v 1.03404 a 0.85000002,0.85000002 0 0 0 0.84956,0.85008 0.85000002,0.85000002 0 0 0 0.850078,-0.85008 0.85000002,0.85000002 0 0 0 0,-5.2e-4 0.85000002,0.85000002 0 0 0 0,-5.1e-4 0.85000002,0.85000002 0 0 0 0,-5.2e-4 0.85000002,0.85000002 0 0 0 0,-5.2e-4 0.85000002,0.85000002 0 0 0 0,-5.1e-4 0.85000002,0.85000002 0 0 0 0,-5.2e-4 0.85000002,0.85000002 0 0 0 0,-5.2e-4 0.85000002,0.85000002 0 0 0 0,-5.1e-4 0.85000002,0.85000002 0 0 0 0,-5.2e-4 0.85000002,0.85000002 0 0 0 0,-5.2e-4 0.85000002,0.85000002 0 0 0 0,-5.1e-4 0.85000002,0.85000002 0 0 0 0,-5.2e-4 0.85000002,0.85000002 0 0 0 0,-5.2e-4 0.85000002,0.85000002 0 0 0 0,-5.1e-4 0.85000002,0.85000002 0 0 0 0,-5.2e-4 0.85000002,0.85000002 0 0 0 0,-5.2e-4 0.85000002,0.85000002 0 0 0 0,-5.1e-4 0.85000002,0.85000002 0 0 0 0,-5.2e-4 0.85000002,0.85000002 0 0 0 0,-5.2e-4 0.85000002,0.85000002 0 0 0 0,-5.1e-4 0.85000002,0.85000002 0 0 0 0,-5.2e-4 0.85000002,0.85000002 0 0 0 0,-5.2e-4 0.85000002,0.85000002 0 0 0 0,-5.1e-4 0.85000002,0.85000002 0 0 0 0,-5.2e-4 0.85000002,0.85000002 0 0 0 0,-5.2e-4 0.85000002,0.85000002 0 0 0 0,-5.1e-4 0.85000002,0.85000002 0 0 0 0,-5.2e-4 0.85000002,0.85000002 0 0 0 0,-5.2e-4 0.85000002,0.85000002 0 0 0 0,-5.1e-4 0.85000002,0.85000002 0 0 0 0,-5.2e-4 0.85000002,0.85000002 0 0 0 0,-5.2e-4 0.85000002,0.85000002 0 0 0 0,-5.1e-4 0.85000002,0.85000002 0 0 0 0,-5.2e-4 0.85000002,0.85000002 0 0 0 0,-5.2e-4 0.85000002,0.85000002 0 0 0 0,-5.2e-4 0.85000002,0.85000002 0 0 0 0,-5.1e-4 0.85000002,0.85000002 0 0 0 0,-5.2e-4 0.85000002,0.85000002 0 0 0 0,-5.2e-4 0.85000002,0.85000002 0 0 0 0,-5.1e-4 0.85000002,0.85000002 0 0 0 0,-5.2e-4 0.85000002,0.85000002 0 0 0 0,-5.2e-4 0.85000002,0.85000002 0 0 0 0,-5.1e-4 v -1.01234 h 1.143599 v -0.99994 h 2.500106 v -3.50005 h -2.500106 v -1.20147 h -5.000212 v -1.20717 l -0.792716,-0.79271 z" />
          <circle
             style="fill:none;fill-opacity:0.458111;stroke:#000000;stroke-width:0.26458333;stroke-linecap:square;stroke-dasharray:none;stroke-opacity:1;vector-effect:non-scaling-stroke;-inkscape-stroke:hairline"
             id="path34096-2-0-0-4-9-0"
             cx="15.949717"
             cy="145.16563"
             r="1" />
          <circle
             style="fill:none;fill-opacity:0.458111;stroke:#000000;stroke-width:0.26458333;stroke-linecap:square;stroke-dasharray:none;stroke-opacity:1;vector-effect:non-scaling-stroke;-inkscape-stroke:hairline"
             id="path34096-9-5-75-3-1"
             cx="20.949717"
             cy="147.26562"
             r="1" />
          <circle
             style="fill:none;fill-opacity:0.458111;stroke:#000000;stroke-width:0.26458333;stroke-linecap:square;stroke-dasharray:none;stroke-opacity:1;vector-effect:non-scaling-stroke;-inkscape-stroke:hairline"
             id="path34072-1-9-51-8-3-7"
             cx="15.449717"
             cy="141.36563"
             r="0.85000002" />
          <circle
             style="fill:none;fill-opacity:0.458111;stroke:#000000;stroke-width:0.26458333;stroke-linecap:square;stroke-dasharray:none;stroke-opacity:1;vector-effect:non-scaling-stroke;-inkscape-stroke:hairline"
             id="path34070-8-4-65-6-0"
             cx="20.949717"
             cy="141.36563"
             r="1.715" />
        </g>
        <g
           id="g34125-2-2-7-7-5-8"
           transform="translate(327.05853,-54.563632)"
           style="fill:none;stroke:#000000;stroke-opacity:1;vector-effect:non-scaling-stroke;-inkscape-stroke:hairline;stroke-width:0.26458333;stroke-dasharray:none">
          <path
             id="path52377-0-5-0-4-2-41-0-0-5-6-1-6-5-0-5"
             style="fill:none;fill-opacity:0.931765;stroke:#000000;stroke-width:0.26458333;stroke-linecap:square;stroke-linejoin:round;stroke-opacity:1;vector-effect:non-scaling-stroke;-inkscape-stroke:hairline;stroke-dasharray:none"
             d="m 19.235911,132.63017 -0.792716,0.79271 v 0.15865 h -2.500106 v 3.49953 h 2.500106 v 0.25631 l 0.792716,0.79272 h 2.707328 c 0.558239,4e-5 0.999938,0.44377 0.999939,1.00201 v 1.19941 h 2.656686 v 1.03404 a 0.85000002,0.85000002 0 0 0 0.84956,0.85008 0.85000002,0.85000002 0 0 0 0.850078,-0.85008 0.85000002,0.85000002 0 0 0 0,-5.2e-4 0.85000002,0.85000002 0 0 0 0,-5.1e-4 0.85000002,0.85000002 0 0 0 0,-5.2e-4 0.85000002,0.85000002 0 0 0 0,-5.2e-4 0.85000002,0.85000002 0 0 0 0,-5.1e-4 0.85000002,0.85000002 0 0 0 0,-5.2e-4 0.85000002,0.85000002 0 0 0 0,-5.2e-4 0.85000002,0.85000002 0 0 0 0,-5.1e-4 0.85000002,0.85000002 0 0 0 0,-5.2e-4 0.85000002,0.85000002 0 0 0 0,-5.2e-4 0.85000002,0.85000002 0 0 0 0,-5.1e-4 0.85000002,0.85000002 0 0 0 0,-5.2e-4 0.85000002,0.85000002 0 0 0 0,-5.2e-4 0.85000002,0.85000002 0 0 0 0,-5.1e-4 0.85000002,0.85000002 0 0 0 0,-5.2e-4 0.85000002,0.85000002 0 0 0 0,-5.2e-4 0.85000002,0.85000002 0 0 0 0,-5.1e-4 0.85000002,0.85000002 0 0 0 0,-5.2e-4 0.85000002,0.85000002 0 0 0 0,-5.2e-4 0.85000002,0.85000002 0 0 0 0,-5.1e-4 0.85000002,0.85000002 0 0 0 0,-5.2e-4 0.85000002,0.85000002 0 0 0 0,-5.2e-4 0.85000002,0.85000002 0 0 0 0,-5.1e-4 0.85000002,0.85000002 0 0 0 0,-5.2e-4 0.85000002,0.85000002 0 0 0 0,-5.2e-4 0.85000002,0.85000002 0 0 0 0,-5.1e-4 0.85000002,0.85000002 0 0 0 0,-5.2e-4 0.85000002,0.85000002 0 0 0 0,-5.2e-4 0.85000002,0.85000002 0 0 0 0,-5.1e-4 0.85000002,0.85000002 0 0 0 0,-5.2e-4 0.85000002,0.85000002 0 0 0 0,-5.2e-4 0.85000002,0.85000002 0 0 0 0,-5.1e-4 0.85000002,0.85000002 0 0 0 0,-5.2e-4 0.85000002,0.85000002 0 0 0 0,-5.2e-4 0.85000002,0.85000002 0 0 0 0,-5.2e-4 0.85000002,0.85000002 0 0 0 0,-5.1e-4 0.85000002,0.85000002 0 0 0 0,-5.2e-4 0.85000002,0.85000002 0 0 0 0,-5.2e-4 0.85000002,0.85000002 0 0 0 0,-5.1e-4 0.85000002,0.85000002 0 0 0 0,-5.2e-4 0.85000002,0.85000002 0 0 0 0,-5.2e-4 0.85000002,0.85000002 0 0 0 0,-5.1e-4 v -1.01234 h 1.143599 v -0.99994 h 2.500106 v -3.50005 h -2.500106 v -1.20147 h -5.000212 v -1.20717 l -0.792716,-0.79271 z" />
          <circle
             style="fill:none;fill-opacity:0.458111;stroke:#000000;stroke-width:0.26458333;stroke-linecap:square;stroke-dasharray:none;stroke-opacity:1;vector-effect:non-scaling-stroke;-inkscape-stroke:hairline"
             id="path34096-2-0-0-2-7-5-5"
             cx="15.949717"
             cy="145.16563"
             r="1" />
          <circle
             style="fill:none;fill-opacity:0.458111;stroke:#000000;stroke-width:0.26458333;stroke-linecap:square;stroke-dasharray:none;stroke-opacity:1;vector-effect:non-scaling-stroke;-inkscape-stroke:hairline"
             id="path34096-9-5-7-9-2-7"
             cx="20.949717"
             cy="147.26562"
             r="1" />
          <circle
             style="fill:none;fill-opacity:0.458111;stroke:#000000;stroke-width:0.26458333;stroke-linecap:square;stroke-dasharray:none;stroke-opacity:1;vector-effect:non-scaling-stroke;-inkscape-stroke:hairline"
             id="path34072-1-9-51-2-1-4-4"
             cx="15.449717"
             cy="141.36563"
             r="0.85000002" />
          <circle
             style="fill:none;fill-opacity:0.458111;stroke:#000000;stroke-width:0.26458333;stroke-linecap:square;stroke-dasharray:none;stroke-opacity:1;vector-effect:non-scaling-stroke;-inkscape-stroke:hairline"
             id="path34070-8-4-6-1-1-1"
             cx="20.949717"
             cy="141.36563"
             r="1.715" />
        </g>
        <g
           id="g34125-2-7-4-9-3-5"
           transform="translate(327.05853,-20.563632)"
           style="fill:none;stroke:#000000;stroke-opacity:1;vector-effect:non-scaling-stroke;-inkscape-stroke:hairline;stroke-width:0.26458333;stroke-dasharray:none">
          <path
             id="path52377-0-5-0-4-2-41-0-0-5-6-5-7-1-3-9"
             style="fill:none;fill-opacity:0.931765;stroke:#000000;stroke-width:0.26458333;stroke-linecap:square;stroke-linejoin:round;stroke-opacity:1;vector-effect:non-scaling-stroke;-inkscape-stroke:hairline;stroke-dasharray:none"
             d="m 19.235911,132.63017 -0.792716,0.79271 v 0.15865 h -2.500106 v 3.49953 h 2.500106 v 0.25631 l 0.792716,0.79272 h 2.707328 c 0.558239,4e-5 0.999938,0.44377 0.999939,1.00201 v 1.19941 h 2.656686 v 1.03404 a 0.85000002,0.85000002 0 0 0 0.84956,0.85008 0.85000002,0.85000002 0 0 0 0.850078,-0.85008 0.85000002,0.85000002 0 0 0 0,-5.2e-4 0.85000002,0.85000002 0 0 0 0,-5.1e-4 0.85000002,0.85000002 0 0 0 0,-5.2e-4 0.85000002,0.85000002 0 0 0 0,-5.2e-4 0.85000002,0.85000002 0 0 0 0,-5.1e-4 0.85000002,0.85000002 0 0 0 0,-5.2e-4 0.85000002,0.85000002 0 0 0 0,-5.2e-4 0.85000002,0.85000002 0 0 0 0,-5.1e-4 0.85000002,0.85000002 0 0 0 0,-5.2e-4 0.85000002,0.85000002 0 0 0 0,-5.2e-4 0.85000002,0.85000002 0 0 0 0,-5.1e-4 0.85000002,0.85000002 0 0 0 0,-5.2e-4 0.85000002,0.85000002 0 0 0 0,-5.2e-4 0.85000002,0.85000002 0 0 0 0,-5.1e-4 0.85000002,0.85000002 0 0 0 0,-5.2e-4 0.85000002,0.85000002 0 0 0 0,-5.2e-4 0.85000002,0.85000002 0 0 0 0,-5.1e-4 0.85000002,0.85000002 0 0 0 0,-5.2e-4 0.85000002,0.85000002 0 0 0 0,-5.2e-4 0.85000002,0.85000002 0 0 0 0,-5.1e-4 0.85000002,0.85000002 0 0 0 0,-5.2e-4 0.85000002,0.85000002 0 0 0 0,-5.2e-4 0.85000002,0.85000002 0 0 0 0,-5.1e-4 0.85000002,0.85000002 0 0 0 0,-5.2e-4 0.85000002,0.85000002 0 0 0 0,-5.2e-4 0.85000002,0.85000002 0 0 0 0,-5.1e-4 0.85000002,0.85000002 0 0 0 0,-5.2e-4 0.85000002,0.85000002 0 0 0 0,-5.2e-4 0.85000002,0.85000002 0 0 0 0,-5.1e-4 0.85000002,0.85000002 0 0 0 0,-5.2e-4 0.85000002,0.85000002 0 0 0 0,-5.2e-4 0.85000002,0.85000002 0 0 0 0,-5.1e-4 0.85000002,0.85000002 0 0 0 0,-5.2e-4 0.85000002,0.85000002 0 0 0 0,-5.2e-4 0.85000002,0.85000002 0 0 0 0,-5.2e-4 0.85000002,0.85000002 0 0 0 0,-5.1e-4 0.85000002,0.85000002 0 0 0 0,-5.2e-4 0.85000002,0.85000002 0 0 0 0,-5.2e-4 0.85000002,0.85000002 0 0 0 0,-5.1e-4 0.85000002,0.85000002 0 0 0 0,-5.2e-4 0.85000002,0.85000002 0 0 0 0,-5.2e-4 0.85000002,0.85000002 0 0 0 0,-5.1e-4 v -1.01234 h 1.143599 v -0.99994 h 2.500106 v -3.50005 h -2.500106 v -1.20147 h -5.000212 v -1.20717 l -0.792716,-0.79271 z" />
          <circle
             style="fill:none;fill-opacity:0.458111;stroke:#000000;stroke-width:0.26458333;stroke-linecap:square;stroke-dasharray:none;stroke-opacity:1;vector-effect:non-scaling-stroke;-inkscape-stroke:hairline"
             id="path34096-2-0-4-8-5-3-9"
             cx="15.949717"
             cy="145.16563"
             r="1" />
          <circle
             style="fill:none;fill-opacity:0.458111;stroke:#000000;stroke-width:0.26458333;stroke-linecap:square;stroke-dasharray:none;stroke-opacity:1;vector-effect:non-scaling-stroke;-inkscape-stroke:hairline"
             id="path34096-9-4-8-5-8-7"
             cx="20.949717"
             cy="147.26562"
             r="1" />
          <circle
             style="fill:none;fill-opacity:0.458111;stroke:#000000;stroke-width:0.26458333;stroke-linecap:square;stroke-dasharray:none;stroke-opacity:1;vector-effect:non-scaling-stroke;-inkscape-stroke:hairline"
             id="path34072-1-9-5-5-4-31-0"
             cx="15.449717"
             cy="141.36563"
             r="0.85000002" />
          <circle
             style="fill:none;fill-opacity:0.458111;stroke:#000000;stroke-width:0.26458333;stroke-linecap:square;stroke-dasharray:none;stroke-opacity:1;vector-effect:non-scaling-stroke;-inkscape-stroke:hairline"
             id="path34070-8-0-8-3-1-3"
             cx="20.949717"
             cy="141.36563"
             r="1.715" />
        </g>
        <g
           id="g34125-2-7-4-9-4-5-2"
           transform="rotate(-35,135.18447,-220.95572)"
           style="fill:none;stroke:#000000;stroke-opacity:1;vector-effect:non-scaling-stroke;-inkscape-stroke:hairline;stroke-width:0.26458333;stroke-dasharray:none">
          <path
             id="path52377-0-5-0-4-2-41-0-0-5-6-5-7-1-9-7-7"
             style="fill:none;fill-opacity:0.931765;stroke:#000000;stroke-width:0.26458333;stroke-linecap:square;stroke-linejoin:round;stroke-opacity:1;vector-effect:non-scaling-stroke;-inkscape-stroke:hairline;stroke-dasharray:none"
             d="m 19.235911,132.63017 -0.792716,0.79271 v 0.15865 h -2.500106 v 3.49953 h 2.500106 v 0.25631 l 0.792716,0.79272 h 2.707328 c 0.558239,4e-5 0.999938,0.44377 0.999939,1.00201 v 1.19941 h 2.656686 v 1.03404 a 0.85000002,0.85000002 0 0 0 0.84956,0.85008 0.85000002,0.85000002 0 0 0 0.850078,-0.85008 0.85000002,0.85000002 0 0 0 0,-5.2e-4 0.85000002,0.85000002 0 0 0 0,-5.1e-4 0.85000002,0.85000002 0 0 0 0,-5.2e-4 0.85000002,0.85000002 0 0 0 0,-5.2e-4 0.85000002,0.85000002 0 0 0 0,-5.1e-4 0.85000002,0.85000002 0 0 0 0,-5.2e-4 0.85000002,0.85000002 0 0 0 0,-5.2e-4 0.85000002,0.85000002 0 0 0 0,-5.1e-4 0.85000002,0.85000002 0 0 0 0,-5.2e-4 0.85000002,0.85000002 0 0 0 0,-5.2e-4 0.85000002,0.85000002 0 0 0 0,-5.1e-4 0.85000002,0.85000002 0 0 0 0,-5.2e-4 0.85000002,0.85000002 0 0 0 0,-5.2e-4 0.85000002,0.85000002 0 0 0 0,-5.1e-4 0.85000002,0.85000002 0 0 0 0,-5.2e-4 0.85000002,0.85000002 0 0 0 0,-5.2e-4 0.85000002,0.85000002 0 0 0 0,-5.1e-4 0.85000002,0.85000002 0 0 0 0,-5.2e-4 0.85000002,0.85000002 0 0 0 0,-5.2e-4 0.85000002,0.85000002 0 0 0 0,-5.1e-4 0.85000002,0.85000002 0 0 0 0,-5.2e-4 0.85000002,0.85000002 0 0 0 0,-5.2e-4 0.85000002,0.85000002 0 0 0 0,-5.1e-4 0.85000002,0.85000002 0 0 0 0,-5.2e-4 0.85000002,0.85000002 0 0 0 0,-5.2e-4 0.85000002,0.85000002 0 0 0 0,-5.1e-4 0.85000002,0.85000002 0 0 0 0,-5.2e-4 0.85000002,0.85000002 0 0 0 0,-5.2e-4 0.85000002,0.85000002 0 0 0 0,-5.1e-4 0.85000002,0.85000002 0 0 0 0,-5.2e-4 0.85000002,0.85000002 0 0 0 0,-5.2e-4 0.85000002,0.85000002 0 0 0 0,-5.1e-4 0.85000002,0.85000002 0 0 0 0,-5.2e-4 0.85000002,0.85000002 0 0 0 0,-5.2e-4 0.85000002,0.85000002 0 0 0 0,-5.2e-4 0.85000002,0.85000002 0 0 0 0,-5.1e-4 0.85000002,0.85000002 0 0 0 0,-5.2e-4 0.85000002,0.85000002 0 0 0 0,-5.2e-4 0.85000002,0.85000002 0 0 0 0,-5.1e-4 0.85000002,0.85000002 0 0 0 0,-5.2e-4 0.85000002,0.85000002 0 0 0 0,-5.2e-4 0.85000002,0.85000002 0 0 0 0,-5.1e-4 v -1.01234 h 1.143599 v -0.99994 h 2.500106 v -3.50005 h -2.500106 v -1.20147 h -5.000212 v -1.20717 l -0.792716,-0.79271 z" />
          <circle
             style="fill:none;fill-opacity:0.458111;stroke:#000000;stroke-width:0.26458333;stroke-linecap:square;stroke-dasharray:none;stroke-opacity:1;vector-effect:non-scaling-stroke;-inkscape-stroke:hairline"
             id="path34096-2-0-4-8-5-1-5-05"
             cx="15.949717"
             cy="145.16563"
             r="1" />
          <circle
             style="fill:none;fill-opacity:0.458111;stroke:#000000;stroke-width:0.26458333;stroke-linecap:square;stroke-dasharray:none;stroke-opacity:1;vector-effect:non-scaling-stroke;-inkscape-stroke:hairline"
             id="path34096-9-4-8-5-9-9-09"
             cx="20.949717"
             cy="147.26562"
             r="1" />
          <circle
             style="fill:none;fill-opacity:0.458111;stroke:#000000;stroke-width:0.26458333;stroke-linecap:square;stroke-dasharray:none;stroke-opacity:1;vector-effect:non-scaling-stroke;-inkscape-stroke:hairline"
             id="path34072-1-9-5-5-4-3-4-3"
             cx="15.449717"
             cy="141.36563"
             r="0.85000002" />
          <circle
             style="fill:none;fill-opacity:0.458111;stroke:#000000;stroke-width:0.26458333;stroke-linecap:square;stroke-dasharray:none;stroke-opacity:1;vector-effect:non-scaling-stroke;-inkscape-stroke:hairline"
             id="path34070-8-0-8-3-8-5-5"
             cx="20.949717"
             cy="141.36563"
             r="1.715" />
        </g>
        <g
           id="g34125-2-7-4-9-4-5-5-47"
           transform="rotate(-20,117.64389,-562.02842)"
           style="fill:none;stroke:#000000;stroke-opacity:1;vector-effect:non-scaling-stroke;-inkscape-stroke:hairline;stroke-width:0.26458333;stroke-dasharray:none">
          <path
             id="path52377-0-5-0-4-2-41-0-0-5-6-5-7-1-9-7-1-8"
             style="fill:none;fill-opacity:0.931765;stroke:#000000;stroke-width:0.26458333;stroke-linecap:square;stroke-linejoin:round;stroke-opacity:1;vector-effect:non-scaling-stroke;-inkscape-stroke:hairline;stroke-dasharray:none"
             d="m 19.235911,132.63017 -0.792716,0.79271 v 0.15865 h -2.500106 v 3.49953 h 2.500106 v 0.25631 l 0.792716,0.79272 h 2.707328 c 0.558239,4e-5 0.999938,0.44377 0.999939,1.00201 v 1.19941 h 2.656686 v 1.03404 a 0.85000002,0.85000002 0 0 0 0.84956,0.85008 0.85000002,0.85000002 0 0 0 0.850078,-0.85008 0.85000002,0.85000002 0 0 0 0,-5.2e-4 0.85000002,0.85000002 0 0 0 0,-5.1e-4 0.85000002,0.85000002 0 0 0 0,-5.2e-4 0.85000002,0.85000002 0 0 0 0,-5.2e-4 0.85000002,0.85000002 0 0 0 0,-5.1e-4 0.85000002,0.85000002 0 0 0 0,-5.2e-4 0.85000002,0.85000002 0 0 0 0,-5.2e-4 0.85000002,0.85000002 0 0 0 0,-5.1e-4 0.85000002,0.85000002 0 0 0 0,-5.2e-4 0.85000002,0.85000002 0 0 0 0,-5.2e-4 0.85000002,0.85000002 0 0 0 0,-5.1e-4 0.85000002,0.85000002 0 0 0 0,-5.2e-4 0.85000002,0.85000002 0 0 0 0,-5.2e-4 0.85000002,0.85000002 0 0 0 0,-5.1e-4 0.85000002,0.85000002 0 0 0 0,-5.2e-4 0.85000002,0.85000002 0 0 0 0,-5.2e-4 0.85000002,0.85000002 0 0 0 0,-5.1e-4 0.85000002,0.85000002 0 0 0 0,-5.2e-4 0.85000002,0.85000002 0 0 0 0,-5.2e-4 0.85000002,0.85000002 0 0 0 0,-5.1e-4 0.85000002,0.85000002 0 0 0 0,-5.2e-4 0.85000002,0.85000002 0 0 0 0,-5.2e-4 0.85000002,0.85000002 0 0 0 0,-5.1e-4 0.85000002,0.85000002 0 0 0 0,-5.2e-4 0.85000002,0.85000002 0 0 0 0,-5.2e-4 0.85000002,0.85000002 0 0 0 0,-5.1e-4 0.85000002,0.85000002 0 0 0 0,-5.2e-4 0.85000002,0.85000002 0 0 0 0,-5.2e-4 0.85000002,0.85000002 0 0 0 0,-5.1e-4 0.85000002,0.85000002 0 0 0 0,-5.2e-4 0.85000002,0.85000002 0 0 0 0,-5.2e-4 0.85000002,0.85000002 0 0 0 0,-5.1e-4 0.85000002,0.85000002 0 0 0 0,-5.2e-4 0.85000002,0.85000002 0 0 0 0,-5.2e-4 0.85000002,0.85000002 0 0 0 0,-5.2e-4 0.85000002,0.85000002 0 0 0 0,-5.1e-4 0.85000002,0.85000002 0 0 0 0,-5.2e-4 0.85000002,0.85000002 0 0 0 0,-5.2e-4 0.85000002,0.85000002 0 0 0 0,-5.1e-4 0.85000002,0.85000002 0 0 0 0,-5.2e-4 0.85000002,0.85000002 0 0 0 0,-5.2e-4 0.85000002,0.85000002 0 0 0 0,-5.1e-4 v -1.01234 h 1.143599 v -0.99994 h 2.500106 v -3.50005 h -2.500106 v -1.20147 h -5.000212 v -1.20717 l -0.792716,-0.79271 z" />
          <circle
             style="fill:none;fill-opacity:0.458111;stroke:#000000;stroke-width:0.26458333;stroke-linecap:square;stroke-dasharray:none;stroke-opacity:1;vector-effect:non-scaling-stroke;-inkscape-stroke:hairline"
             id="path34096-2-0-4-8-5-1-5-0-30"
             cx="15.949717"
             cy="145.16563"
             r="1" />
          <circle
             style="fill:none;fill-opacity:0.458111;stroke:#000000;stroke-width:0.26458333;stroke-linecap:square;stroke-dasharray:none;stroke-opacity:1;vector-effect:non-scaling-stroke;-inkscape-stroke:hairline"
             id="path34096-9-4-8-5-9-9-0-41"
             cx="20.949717"
             cy="147.26562"
             r="1" />
          <circle
             style="fill:none;fill-opacity:0.458111;stroke:#000000;stroke-width:0.26458333;stroke-linecap:square;stroke-dasharray:none;stroke-opacity:1;vector-effect:non-scaling-stroke;-inkscape-stroke:hairline"
             id="path34072-1-9-5-5-4-3-4-2-7"
             cx="15.449717"
             cy="141.36563"
             r="0.85000002" />
          <circle
             style="fill:none;fill-opacity:0.458111;stroke:#000000;stroke-width:0.26458333;stroke-linecap:square;stroke-dasharray:none;stroke-opacity:1;vector-effect:non-scaling-stroke;-inkscape-stroke:hairline"
             id="path34070-8-0-8-3-8-5-0-9"
             cx="20.949717"
             cy="141.36563"
             r="1.715" />
        </g>
        <g
           id="g34125-2-7-4-9-4-5-5-4-5"
           transform="rotate(-5,-3.2034798,-2913.4278)"
           style="fill:none;stroke:#000000;stroke-opacity:1;vector-effect:non-scaling-stroke;-inkscape-stroke:hairline;stroke-width:0.26458333;stroke-dasharray:none">
          <path
             id="path52377-0-5-0-4-2-41-0-0-5-6-5-7-1-9-7-1-9-3"
             style="fill:none;fill-opacity:0.931765;stroke:#000000;stroke-width:0.26458333;stroke-linecap:square;stroke-linejoin:round;stroke-opacity:1;vector-effect:non-scaling-stroke;-inkscape-stroke:hairline;stroke-dasharray:none"
             d="m 19.235911,132.63017 -0.792716,0.79271 v 0.15865 h -2.500106 v 3.49953 h 2.500106 v 0.25631 l 0.792716,0.79272 h 2.707328 c 0.558239,4e-5 0.999938,0.44377 0.999939,1.00201 v 1.19941 h 2.656686 v 1.03404 a 0.85000002,0.85000002 0 0 0 0.84956,0.85008 0.85000002,0.85000002 0 0 0 0.850078,-0.85008 0.85000002,0.85000002 0 0 0 0,-5.2e-4 0.85000002,0.85000002 0 0 0 0,-5.1e-4 0.85000002,0.85000002 0 0 0 0,-5.2e-4 0.85000002,0.85000002 0 0 0 0,-5.2e-4 0.85000002,0.85000002 0 0 0 0,-5.1e-4 0.85000002,0.85000002 0 0 0 0,-5.2e-4 0.85000002,0.85000002 0 0 0 0,-5.2e-4 0.85000002,0.85000002 0 0 0 0,-5.1e-4 0.85000002,0.85000002 0 0 0 0,-5.2e-4 0.85000002,0.85000002 0 0 0 0,-5.2e-4 0.85000002,0.85000002 0 0 0 0,-5.1e-4 0.85000002,0.85000002 0 0 0 0,-5.2e-4 0.85000002,0.85000002 0 0 0 0,-5.2e-4 0.85000002,0.85000002 0 0 0 0,-5.1e-4 0.85000002,0.85000002 0 0 0 0,-5.2e-4 0.85000002,0.85000002 0 0 0 0,-5.2e-4 0.85000002,0.85000002 0 0 0 0,-5.1e-4 0.85000002,0.85000002 0 0 0 0,-5.2e-4 0.85000002,0.85000002 0 0 0 0,-5.2e-4 0.85000002,0.85000002 0 0 0 0,-5.1e-4 0.85000002,0.85000002 0 0 0 0,-5.2e-4 0.85000002,0.85000002 0 0 0 0,-5.2e-4 0.85000002,0.85000002 0 0 0 0,-5.1e-4 0.85000002,0.85000002 0 0 0 0,-5.2e-4 0.85000002,0.85000002 0 0 0 0,-5.2e-4 0.85000002,0.85000002 0 0 0 0,-5.1e-4 0.85000002,0.85000002 0 0 0 0,-5.2e-4 0.85000002,0.85000002 0 0 0 0,-5.2e-4 0.85000002,0.85000002 0 0 0 0,-5.1e-4 0.85000002,0.85000002 0 0 0 0,-5.2e-4 0.85000002,0.85000002 0 0 0 0,-5.2e-4 0.85000002,0.85000002 0 0 0 0,-5.1e-4 0.85000002,0.85000002 0 0 0 0,-5.2e-4 0.85000002,0.85000002 0 0 0 0,-5.2e-4 0.85000002,0.85000002 0 0 0 0,-5.2e-4 0.85000002,0.85000002 0 0 0 0,-5.1e-4 0.85000002,0.85000002 0 0 0 0,-5.2e-4 0.85000002,0.85000002 0 0 0 0,-5.2e-4 0.85000002,0.85000002 0 0 0 0,-5.1e-4 0.85000002,0.85000002 0 0 0 0,-5.2e-4 0.85000002,0.85000002 0 0 0 0,-5.2e-4 0.85000002,0.85000002 0 0 0 0,-5.1e-4 v -1.01234 h 1.143599 v -0.99994 h 2.500106 v -3.50005 h -2.500106 v -1.20147 h -5.000212 v -1.20717 l -0.792716,-0.79271 z" />
          <circle
             style="fill:none;fill-opacity:0.458111;stroke:#000000;stroke-width:0.26458333;stroke-linecap:square;stroke-dasharray:none;stroke-opacity:1;vector-effect:non-scaling-stroke;-inkscape-stroke:hairline"
             id="path34096-2-0-4-8-5-1-5-0-3-2"
             cx="15.949717"
             cy="145.16563"
             r="1" />
          <circle
             style="fill:none;fill-opacity:0.458111;stroke:#000000;stroke-width:0.26458333;stroke-linecap:square;stroke-dasharray:none;stroke-opacity:1;vector-effect:non-scaling-stroke;-inkscape-stroke:hairline"
             id="path34096-9-4-8-5-9-9-0-4-9"
             cx="20.949717"
             cy="147.26562"
             r="1" />
          <circle
             style="fill:none;fill-opacity:0.458111;stroke:#000000;stroke-width:0.26458333;stroke-linecap:square;stroke-dasharray:none;stroke-opacity:1;vector-effect:non-scaling-stroke;-inkscape-stroke:hairline"
             id="path34072-1-9-5-5-4-3-4-2-6-9"
             cx="15.449717"
             cy="141.36563"
             r="0.85000002" />
          <circle
             style="fill:none;fill-opacity:0.458111;stroke:#000000;stroke-width:0.26458333;stroke-linecap:square;stroke-dasharray:none;stroke-opacity:1;vector-effect:non-scaling-stroke;-inkscape-stroke:hairline"
             id="path34070-8-0-8-3-8-5-0-4-8"
             cx="20.949717"
             cy="141.36563"
             r="1.715" />
        </g>
        <g
           id="g34125-2-7-4-9-4-5-5-1-0"
           transform="rotate(10,237.50153,1771.5068)"
           style="fill:none;stroke:#000000;stroke-opacity:1;vector-effect:non-scaling-stroke;-inkscape-stroke:hairline;stroke-width:0.26458333;stroke-dasharray:none">
          <path
             id="path52377-0-5-0-4-2-41-0-0-5-6-5-7-1-9-7-1-1-8"
             style="fill:none;fill-opacity:0.931765;stroke:#000000;stroke-width:0.26458333;stroke-linecap:square;stroke-linejoin:round;stroke-opacity:1;vector-effect:non-scaling-stroke;-inkscape-stroke:hairline;stroke-dasharray:none"
             d="m 19.235911,132.63017 -0.792716,0.79271 v 0.15865 h -2.500106 v 3.49953 h 2.500106 v 0.25631 l 0.792716,0.79272 h 2.707328 c 0.558239,4e-5 0.999938,0.44377 0.999939,1.00201 v 1.19941 h 2.656686 v 1.03404 a 0.85000002,0.85000002 0 0 0 0.84956,0.85008 0.85000002,0.85000002 0 0 0 0.850078,-0.85008 0.85000002,0.85000002 0 0 0 0,-5.2e-4 0.85000002,0.85000002 0 0 0 0,-5.1e-4 0.85000002,0.85000002 0 0 0 0,-5.2e-4 0.85000002,0.85000002 0 0 0 0,-5.2e-4 0.85000002,0.85000002 0 0 0 0,-5.1e-4 0.85000002,0.85000002 0 0 0 0,-5.2e-4 0.85000002,0.85000002 0 0 0 0,-5.2e-4 0.85000002,0.85000002 0 0 0 0,-5.1e-4 0.85000002,0.85000002 0 0 0 0,-5.2e-4 0.85000002,0.85000002 0 0 0 0,-5.2e-4 0.85000002,0.85000002 0 0 0 0,-5.1e-4 0.85000002,0.85000002 0 0 0 0,-5.2e-4 0.85000002,0.85000002 0 0 0 0,-5.2e-4 0.85000002,0.85000002 0 0 0 0,-5.1e-4 0.85000002,0.85000002 0 0 0 0,-5.2e-4 0.85000002,0.85000002 0 0 0 0,-5.2e-4 0.85000002,0.85000002 0 0 0 0,-5.1e-4 0.85000002,0.85000002 0 0 0 0,-5.2e-4 0.85000002,0.85000002 0 0 0 0,-5.2e-4 0.85000002,0.85000002 0 0 0 0,-5.1e-4 0.85000002,0.85000002 0 0 0 0,-5.2e-4 0.85000002,0.85000002 0 0 0 0,-5.2e-4 0.85000002,0.85000002 0 0 0 0,-5.1e-4 0.85000002,0.85000002 0 0 0 0,-5.2e-4 0.85000002,0.85000002 0 0 0 0,-5.2e-4 0.85000002,0.85000002 0 0 0 0,-5.1e-4 0.85000002,0.85000002 0 0 0 0,-5.2e-4 0.85000002,0.85000002 0 0 0 0,-5.2e-4 0.85000002,0.85000002 0 0 0 0,-5.1e-4 0.85000002,0.85000002 0 0 0 0,-5.2e-4 0.85000002,0.85000002 0 0 0 0,-5.2e-4 0.85000002,0.85000002 0 0 0 0,-5.1e-4 0.85000002,0.85000002 0 0 0 0,-5.2e-4 0.85000002,0.85000002 0 0 0 0,-5.2e-4 0.85000002,0.85000002 0 0 0 0,-5.2e-4 0.85000002,0.85000002 0 0 0 0,-5.1e-4 0.85000002,0.85000002 0 0 0 0,-5.2e-4 0.85000002,0.85000002 0 0 0 0,-5.2e-4 0.85000002,0.85000002 0 0 0 0,-5.1e-4 0.85000002,0.85000002 0 0 0 0,-5.2e-4 0.85000002,0.85000002 0 0 0 0,-5.2e-4 0.85000002,0.85000002 0 0 0 0,-5.1e-4 v -1.01234 h 1.143599 v -0.99994 h 2.500106 v -3.50005 h -2.500106 v -1.20147 h -5.000212 v -1.20717 l -0.792716,-0.79271 z" />
          <circle
             style="fill:none;fill-opacity:0.458111;stroke:#000000;stroke-width:0.26458333;stroke-linecap:square;stroke-dasharray:none;stroke-opacity:1;vector-effect:non-scaling-stroke;-inkscape-stroke:hairline"
             id="path34096-2-0-4-8-5-1-5-0-5-9"
             cx="15.949717"
             cy="145.16563"
             r="1" />
          <circle
             style="fill:none;fill-opacity:0.458111;stroke:#000000;stroke-width:0.26458333;stroke-linecap:square;stroke-dasharray:none;stroke-opacity:1;vector-effect:non-scaling-stroke;-inkscape-stroke:hairline"
             id="path34096-9-4-8-5-9-9-0-8-7"
             cx="20.949717"
             cy="147.26562"
             r="1" />
          <circle
             style="fill:none;fill-opacity:0.458111;stroke:#000000;stroke-width:0.26458333;stroke-linecap:square;stroke-dasharray:none;stroke-opacity:1;vector-effect:non-scaling-stroke;-inkscape-stroke:hairline"
             id="path34072-1-9-5-5-4-3-4-2-3-0"
             cx="15.449717"
             cy="141.36563"
             r="0.85000002" />
          <circle
             style="fill:none;fill-opacity:0.458111;stroke:#000000;stroke-width:0.26458333;stroke-linecap:square;stroke-dasharray:none;stroke-opacity:1;vector-effect:non-scaling-stroke;-inkscape-stroke:hairline"
             id="path34070-8-0-8-3-8-5-0-7-8"
             cx="20.949717"
             cy="141.36563"
             r="1.715" />
        </g>
      </g>
      <g
         id="g128561-2-7"
         transform="matrix(-1,0,0,1,376.15076,59.655573)"
         style="display:inline;fill:none;fill-opacity:0;stroke:#000000;stroke-width:0.26458333;stroke-linecap:round;stroke-linejoin:round;stroke-opacity:1;vector-effect:non-scaling-stroke;-inkscape-stroke:hairline;stroke-dasharray:none">
        <path
           style="color:#000000;fill:none;fill-opacity:1;stroke:#000000;stroke-width:0.26458333;stroke-linecap:butt;stroke-linejoin:miter;stroke-opacity:1;vector-effect:non-scaling-stroke;-inkscape-stroke:hairline;stroke-dasharray:none"
           d="m 121.93164,69.925781 a 0.85000002,0.85000002 0 0 1 -0.84961,-0.851563 V 68.77539 a 0.85000002,0.85000002 0 0 1 0.84961,-0.849609 0.85000002,0.85000002 0 0 1 0.84961,0.849609 v 0.298828 a 0.85000002,0.85000002 0 0 1 -0.84961,0.851563 z"
           id="path37937-8-6"
           transform="translate(1.2291666e-6)" />
        <path
           style="fill:none;fill-opacity:1;fill-rule:evenodd;stroke:#000000;stroke-width:0.26458333;stroke-linecap:round;stroke-linejoin:round;stroke-opacity:1;vector-effect:non-scaling-stroke;-inkscape-stroke:hairline;stroke-dasharray:none"
           d="m 125.2815,69.6764 -0.0191,0.0957 -0.0542,0.0811 -0.0811,0.0542 -0.0956,0.019 h -1.2 l -0.0957,-0.019 -0.0811,-0.0542 -0.0542,-0.0811 -0.019,-0.0957 v -1.5 l 0.019,-0.0957 0.0542,-0.0811 0.0811,-0.0542 0.0957,-0.019 h 1.2 l 0.0956,0.019 0.0811,0.0542 0.0542,0.0811 0.0191,0.0957 z"
           id="path37931-6-7"
           transform="translate(1.2291666e-6)" />
      </g>
      <g
         id="g124011-8-2"
         transform="matrix(-1,0,0,1,376.15076,59.655573)"
         style="display:inline;fill:none;fill-opacity:0;stroke:#000000;stroke-width:0.26458333;stroke-linecap:round;stroke-linejoin:round;stroke-opacity:1;vector-effect:non-scaling-stroke;-inkscape-stroke:hairline;stroke-dasharray:none">
        <path
           style="color:#000000;fill:none;fill-opacity:1;stroke:#000000;stroke-opacity:1;vector-effect:non-scaling-stroke;-inkscape-stroke:hairline;stroke-width:0.26458333;stroke-dasharray:none"
           d="m 133.43945,61.361328 a 0.80000001,0.80000001 0 0 0 -0.79883,0.800781 0.80000001,0.80000001 0 0 0 0.79883,0.800782 h 0.40039 a 0.80000001,0.80000001 0 0 0 0.80078,-0.800782 0.80000001,0.80000001 0 0 0 -0.80078,-0.800781 z"
           id="path37321-9-5" />
        <path
           style="color:#000000;fill:none;fill-opacity:1;stroke:#000000;stroke-opacity:1;vector-effect:non-scaling-stroke;-inkscape-stroke:hairline;stroke-width:0.26458333;stroke-dasharray:none"
           d="m 128.33984,65.962891 a 0.80000001,0.80000001 0 0 0 -0.80078,0.798828 0.80000001,0.80000001 0 0 0 0.80078,0.800781 h 0.40039 a 0.80000001,0.80000001 0 0 0 0.79883,-0.800781 0.80000001,0.80000001 0 0 0 -0.79883,-0.798828 z"
           id="path37327-3-6" />
        <path
           style="color:#000000;fill:none;fill-opacity:1;stroke:#000000;stroke-opacity:1;vector-effect:non-scaling-stroke;-inkscape-stroke:hairline;stroke-width:0.26458333;stroke-dasharray:none"
           d="m 129.43945,61.361328 a 0.80000001,0.80000001 0 0 0 -0.79883,0.800781 0.80000001,0.80000001 0 0 0 0.79883,0.800782 h 0.40039 a 0.80000001,0.80000001 0 0 0 0.80078,-0.800782 0.80000001,0.80000001 0 0 0 -0.80078,-0.800781 z"
           id="path37329-6-1" />
        <path
           style="color:#000000;fill:none;fill-opacity:1;stroke:#000000;stroke-opacity:1;vector-effect:non-scaling-stroke;-inkscape-stroke:hairline;stroke-width:0.26458333;stroke-dasharray:none"
           d="m 136.43945,61.361328 a 0.80000001,0.80000001 0 0 0 -0.79883,0.800781 0.80000001,0.80000001 0 0 0 0.79883,0.800782 h 0.40039 a 0.80000001,0.80000001 0 0 0 0.80078,-0.800782 0.80000001,0.80000001 0 0 0 -0.80078,-0.800781 z"
           id="path37333-00-0" />
        <circle
           cx="131.2397"
           cy="64.462097"
           r="0.40000001"
           id="circle37301-1-8"
           style="fill:none;fill-opacity:1;stroke:#000000;stroke-width:0.26458333;stroke-linecap:round;stroke-linejoin:round;stroke-opacity:1;vector-effect:non-scaling-stroke;-inkscape-stroke:hairline;stroke-dasharray:none"
           transform="translate(1.2291666e-6)" />
        <circle
           cx="138.2397"
           cy="64.462097"
           r="0.40000001"
           id="circle37295-7-4"
           style="fill:none;fill-opacity:1;stroke:#000000;stroke-width:0.26458333;stroke-linecap:round;stroke-linejoin:round;stroke-opacity:1;vector-effect:non-scaling-stroke;-inkscape-stroke:hairline;stroke-dasharray:none"
           transform="translate(1.2291666e-6)" />
      </g>
      <g
         id="g118700-11-7"
         transform="matrix(-1,0,0,1,376.15076,59.655573)"
         style="display:inline;fill:none;fill-opacity:0;stroke:#000000;stroke-width:0.26458333;stroke-linecap:round;stroke-linejoin:round;stroke-opacity:1;vector-effect:non-scaling-stroke;-inkscape-stroke:hairline;stroke-dasharray:none">
        <rect
           style="fill:none;fill-opacity:0.595294;stroke:#000000;stroke-width:0.26458333;stroke-linecap:square;stroke-dasharray:none;stroke-opacity:1;vector-effect:non-scaling-stroke;-inkscape-stroke:hairline"
           id="rect117948-11-2"
           width="1.7000042"
           height="49.959999"
           x="114.3165"
           y="9.3029003" />
        <rect
           style="fill:none;fill-opacity:0.595294;stroke:#000000;stroke-width:0.26458333;stroke-linecap:square;stroke-dasharray:none;stroke-opacity:1;vector-effect:non-scaling-stroke;-inkscape-stroke:hairline"
           id="rect117948-2-00-4"
           width="1.7000042"
           height="49.959999"
           x="129.63249"
           y="9.3029003" />
      </g>
    </g>
  </g>
</svg>
