  0
SECTION
  2
HEADER
  9
$ACADVER
  1
AC1014
  9
$HANDSEED
  5
FFFF
  9
$INSUNITS
 70
     4
  9
$MEASUREMENT
 70
     1
  0
ENDSEC
  0
SECTION
  2
TABLES
  0
TABLE
  2
VPORT
  5
8
330
0
100
AcDbSymbolTable
 70
     4
  0
VPORT
  5
2E
330
8
100
AcDbSymbolTableRecord
100
AcDbViewportTableRecord
  2
*ACTIVE
 70
     0
 10
0.0
 20
0.0
 11
1.0
 21
1.0
 12
210.0
 22
148.5
 13
0.0
 23
0.0
 14
10.0
 24
10.0
 15
10.0
 25
10.0
 16
0.0
 26
0.0
 36
1.0
 17
0.0
 27
0.0
 37
0.0
 40
341.0
 41
1.24
 42
50.0
 43
0.0
 44
0.0
 50
0.0
 51
0.0
 71
     0
 72
   100
 73
     1
 74
     3
 75
     0
 76
     0
 77
     0
 78
     0
  0
ENDTAB
  0
TABLE
  2
LTYPE
  5
5
330
0
100
AcDbSymbolTable
 70
     1
  0
LTYPE
  5
14
330
5
100
AcDbSymbolTableRecord
100
AcDbLinetypeTableRecord
  2
BYBLOCK
 70
     0
  3

 72
    65
 73
     0
 40
0.0
  0
LTYPE
  5
15
330
5
100
AcDbSymbolTableRecord
100
AcDbLinetypeTableRecord
  2
BYLAYER
 70
     0
  3

 72
    65
 73
     0
 40
0.0
  0
LTYPE
  5
16
330
5
100
AcDbSymbolTableRecord
100
AcDbLinetypeTableRecord
  2
CONTINUOUS
 70
     0
  3
Solid line
 72
    65
 73
     0
 40
0.0
  0
ENDTAB
  0
TABLE
  2
LAYER
  5
2
100
AcDbSymbolTable
 70
2
  0
LAYER
  5
50
100
AcDbSymbolTableRecord
100
AcDbLayerTableRecord
  2
0
 70
0
  6
CONTINUOUS
  0
LAYER
  5
51
100
AcDbSymbolTableRecord
100
AcDbLayerTableRecord
  2
Layer_1
 70
0
  6
CONTINUOUS
  0
ENDTAB
  0
TABLE
  2
STYLE
  5
3
330
0
100
AcDbSymbolTable
 70
     1
  0
STYLE
  5
11
330
3
100
AcDbSymbolTableRecord
100
AcDbTextStyleTableRecord
  2
STANDARD
 70
     0
 40
0.0
 41
1.0
 50
0.0
 71
     0
 42
2.5
  3
txt
  4

  0
ENDTAB
  0
TABLE
  2
VIEW
  5
6
330
0
100
AcDbSymbolTable
 70
     0
  0
ENDTAB
  0
TABLE
  2
UCS
  5
7
330
0
100
AcDbSymbolTable
 70
     0
  0
ENDTAB
  0
TABLE
  2
APPID
  5
9
330
0
100
AcDbSymbolTable
 70
     2
  0
APPID
  5
12
330
9
100
AcDbSymbolTableRecord
100
AcDbRegAppTableRecord
  2
ACAD
 70
     0
  0
ENDTAB
  0
TABLE
  2
DIMSTYLE
  5
A
330
0
100
AcDbSymbolTable
 70
     1
  0
DIMSTYLE
105
27
330
A
100
AcDbSymbolTableRecord
100
AcDbDimStyleTableRecord
  2
ISO-25
 70
     0
  3

  4

  5

  6

  7

 40
1.0
 41
2.5
 42
0.625
 43
3.75
 44
1.25
 45
0.0
 46
0.0
 47
0.0
 48
0.0
140
2.5
141
2.5
142
0.0
143
0.03937007874016
144
1.0
145
0.0
146
1.0
147
0.625
 71
     0
 72
     0
 73
     0
 74
     0
 75
     0
 76
     0
 77
     1
 78
     8
170
     0
171
     3
172
     1
173
     0
174
     0
175
     0
176
     0
177
     0
178
     0
270
     2
271
     2
272
     2
273
     2
274
     3
340
11
275
     0
280
     0
281
     0
282
     0
283
     0
284
     8
285
     0
286
     0
287
     3
288
     0
  0
ENDTAB
  0
TABLE
  2
BLOCK_RECORD
  5
1
330
0
100
AcDbSymbolTable
 70
     1
  0
BLOCK_RECORD
  5
1F
330
1
100
AcDbSymbolTableRecord
100
AcDbBlockTableRecord
  2
*MODEL_SPACE
  0
BLOCK_RECORD
  5
1B
330
1
100
AcDbSymbolTableRecord
100
AcDbBlockTableRecord
  2
*PAPER_SPACE
  0
ENDTAB
  0
ENDSEC
  0
SECTION
  2
BLOCKS
  0
BLOCK
  5
20
330
1F
100
AcDbEntity
  8
0
100
AcDbBlockBegin
  2
*MODEL_SPACE
 70
     0
 10
0.0
 20
0.0
 30
0.0
  3
*MODEL_SPACE
  1

  0
ENDBLK
  5
21
330
1F
100
AcDbEntity
  8
0
100
AcDbBlockEnd
  0
BLOCK
  5
1C
330
1B
100
AcDbEntity
 67
     1
  8
0
100
AcDbBlockBegin
  2
*PAPER_SPACE
  1

  0
ENDBLK
  5
1D
330
1B
100
AcDbEntity
 67
     1
  8
0
100
AcDbBlockEnd
  0
ENDSEC
  0
SECTION
  2
ENTITIES
  0
LINE
  5
100
100
AcDbEntity
  8
Layer_1
 62
7
100
AcDbLine
 10
58.800788
 20
94.709041
 30
0.0
 11
58.800788
 21
93.709041
 31
0.0
  0
SPLINE
  5
101
100
AcDbEntity
  8
Layer_1
 62
7
100
AcDbSpline
 70
8
 71
3
 72
8
 73
4
 74
0
 40
0
 40
0
 40
0
 40
0
 40
1
 40
1
 40
1
 40
1
 10
58.800788
 20
93.709041
 30
0.0
 10
58.800788
 20
93.178608
 30
0.0
 10
58.590074
 20
92.669900
 30
0.0
 10
58.215002
 20
92.294827
 30
0.0
  0
SPLINE
  5
102
100
AcDbEntity
  8
Layer_1
 62
7
100
AcDbSpline
 70
8
 71
3
 72
8
 73
4
 74
0
 40
0
 40
0
 40
0
 40
0
 40
1
 40
1
 40
1
 40
1
 10
58.215002
 20
92.294827
 30
0.0
 10
57.839929
 20
91.919754
 30
0.0
 10
57.331221
 20
91.709041
 30
0.0
 10
56.800788
 20
91.709041
 30
0.0
  0
LINE
  5
103
100
AcDbEntity
  8
Layer_1
 62
7
100
AcDbLine
 10
56.800788
 20
91.709041
 30
0.0
 11
42.800786
 21
91.709041
 31
0.0
  0
SPLINE
  5
104
100
AcDbEntity
  8
Layer_1
 62
7
100
AcDbSpline
 70
8
 71
3
 72
8
 73
4
 74
0
 40
0
 40
0
 40
0
 40
0
 40
1
 40
1
 40
1
 40
1
 10
42.800786
 20
91.709041
 30
0.0
 10
42.270353
 20
91.709041
 30
0.0
 10
41.761645
 20
91.498327
 30
0.0
 10
41.386572
 20
91.123254
 30
0.0
  0
SPLINE
  5
105
100
AcDbEntity
  8
Layer_1
 62
7
100
AcDbSpline
 70
8
 71
3
 72
8
 73
4
 74
0
 40
0
 40
0
 40
0
 40
0
 40
1
 40
1
 40
1
 40
1
 10
41.386572
 20
91.123254
 30
0.0
 10
41.011499
 20
90.748181
 30
0.0
 10
40.800786
 20
90.239473
 30
0.0
 10
40.800786
 20
89.709040
 30
0.0
  0
LINE
  5
106
100
AcDbEntity
  8
Layer_1
 62
7
100
AcDbLine
 10
40.800786
 20
89.709040
 30
0.0
 11
40.800786
 21
86.458486
 31
0.0
  0
SPLINE
  5
107
100
AcDbEntity
  8
Layer_1
 62
7
100
AcDbSpline
 70
8
 71
3
 72
8
 73
4
 74
0
 40
0
 40
0
 40
0
 40
0
 40
1
 40
1
 40
1
 40
1
 10
40.800786
 20
86.458486
 30
0.0
 10
40.800786
 20
84.668420
 30
0.0
 10
40.089685
 20
82.951672
 30
0.0
 10
38.823917
 20
81.685905
 30
0.0
  0
SPLINE
  5
108
100
AcDbEntity
  8
Layer_1
 62
7
100
AcDbSpline
 70
8
 71
3
 72
8
 73
4
 74
0
 40
0
 40
0
 40
0
 40
0
 40
1
 40
1
 40
1
 40
1
 10
38.823917
 20
81.685905
 30
0.0
 10
37.558149
 20
80.420138
 30
0.0
 10
35.841400
 20
79.709038
 30
0.0
 10
34.051335
 20
79.709039
 30
0.0
  0
LINE
  5
109
100
AcDbEntity
  8
Layer_1
 62
7
100
AcDbLine
 10
34.051335
 20
79.709039
 30
0.0
 11
24.800787
 21
79.709039
 31
0.0
  0
SPLINE
  5
10a
100
AcDbEntity
  8
Layer_1
 62
7
100
AcDbSpline
 70
8
 71
3
 72
8
 73
4
 74
0
 40
0
 40
0
 40
0
 40
0
 40
1
 40
1
 40
1
 40
1
 10
24.800787
 20
79.709039
 30
0.0
 10
24.270354
 20
79.709039
 30
0.0
 10
23.761646
 20
79.498325
 30
0.0
 10
23.386574
 20
79.123252
 30
0.0
  0
SPLINE
  5
10b
100
AcDbEntity
  8
Layer_1
 62
7
100
AcDbSpline
 70
8
 71
3
 72
8
 73
4
 74
0
 40
0
 40
0
 40
0
 40
0
 40
1
 40
1
 40
1
 40
1
 10
23.386574
 20
79.123252
 30
0.0
 10
23.011501
 20
78.748180
 30
0.0
 10
22.800787
 20
78.239472
 30
0.0
 10
22.800787
 20
77.709039
 30
0.0
  0
LINE
  5
10c
100
AcDbEntity
  8
Layer_1
 62
7
100
AcDbLine
 10
22.800787
 20
77.709039
 30
0.0
 11
22.800787
 21
77.273491
 31
0.0
  0
SPLINE
  5
10d
100
AcDbEntity
  8
Layer_1
 62
7
100
AcDbSpline
 70
8
 71
3
 72
8
 73
4
 74
0
 40
0
 40
0
 40
0
 40
0
 40
1
 40
1
 40
1
 40
1
 10
22.800787
 20
77.273491
 30
0.0
 10
22.800787
 20
75.665098
 30
0.0
 10
22.161856
 20
74.122580
 30
0.0
 10
21.024550
 20
72.985275
 30
0.0
  0
SPLINE
  5
10e
100
AcDbEntity
  8
Layer_1
 62
7
100
AcDbSpline
 70
8
 71
3
 72
8
 73
4
 74
0
 40
0
 40
0
 40
0
 40
0
 40
1
 40
1
 40
1
 40
1
 10
21.024550
 20
72.985275
 30
0.0
 10
19.887244
 20
71.847969
 30
0.0
 10
18.344727
 20
71.209038
 30
0.0
 10
16.736334
 20
71.209038
 30
0.0
  0
LINE
  5
10f
100
AcDbEntity
  8
Layer_1
 62
7
100
AcDbLine
 10
16.736334
 20
71.209038
 30
0.0
 11
6.800785
 21
71.209038
 31
0.0
  0
SPLINE
  5
110
100
AcDbEntity
  8
Layer_1
 62
7
100
AcDbSpline
 70
8
 71
3
 72
8
 73
4
 74
0
 40
0
 40
0
 40
0
 40
0
 40
1
 40
1
 40
1
 40
1
 10
6.800785
 20
71.209038
 30
0.0
 10
6.270352
 20
71.209038
 30
0.0
 10
5.761644
 20
70.998324
 30
0.0
 10
5.386571
 20
70.623251
 30
0.0
  0
SPLINE
  5
111
100
AcDbEntity
  8
Layer_1
 62
7
100
AcDbSpline
 70
8
 71
3
 72
8
 73
4
 74
0
 40
0
 40
0
 40
0
 40
0
 40
1
 40
1
 40
1
 40
1
 10
5.386571
 20
70.623251
 30
0.0
 10
5.011498
 20
70.248178
 30
0.0
 10
4.800785
 20
69.739471
 30
0.0
 10
4.800785
 20
69.209037
 30
0.0
  0
LINE
  5
112
100
AcDbEntity
  8
Layer_1
 62
7
100
AcDbLine
 10
4.800785
 20
69.209037
 30
0.0
 11
4.800785
 21
39.209035
 31
0.0
  0
SPLINE
  5
113
100
AcDbEntity
  8
Layer_1
 62
7
100
AcDbSpline
 70
8
 71
3
 72
8
 73
4
 74
0
 40
0
 40
0
 40
0
 40
0
 40
1
 40
1
 40
1
 40
1
 10
4.800785
 20
39.209035
 30
0.0
 10
4.800785
 20
38.678602
 30
0.0
 10
5.011498
 20
38.169894
 30
0.0
 10
5.386571
 20
37.794822
 30
0.0
  0
SPLINE
  5
114
100
AcDbEntity
  8
Layer_1
 62
7
100
AcDbSpline
 70
8
 71
3
 72
8
 73
4
 74
0
 40
0
 40
0
 40
0
 40
0
 40
1
 40
1
 40
1
 40
1
 10
5.386571
 20
37.794822
 30
0.0
 10
5.761644
 20
37.419749
 30
0.0
 10
6.270352
 20
37.209035
 30
0.0
 10
6.800785
 20
37.209035
 30
0.0
  0
LINE
  5
115
100
AcDbEntity
  8
Layer_1
 62
7
100
AcDbLine
 10
6.800785
 20
37.209035
 30
0.0
 11
17.400778
 21
37.209035
 31
0.0
  0
SPLINE
  5
116
100
AcDbEntity
  8
Layer_1
 62
7
100
AcDbSpline
 70
8
 71
3
 72
8
 73
4
 74
0
 40
0
 40
0
 40
0
 40
0
 40
1
 40
1
 40
1
 40
1
 10
17.400778
 20
37.209035
 30
0.0
 10
18.832950
 20
37.209035
 30
0.0
 10
20.206464
 20
36.640107
 30
0.0
 10
21.219162
 20
35.627408
 30
0.0
  0
SPLINE
  5
117
100
AcDbEntity
  8
Layer_1
 62
7
100
AcDbSpline
 70
8
 71
3
 72
8
 73
4
 74
0
 40
0
 40
0
 40
0
 40
0
 40
1
 40
1
 40
1
 40
1
 10
21.219162
 20
35.627408
 30
0.0
 10
22.231860
 20
34.614710
 30
0.0
 10
22.800788
 20
33.241196
 30
0.0
 10
22.800787
 20
31.809024
 30
0.0
  0
LINE
  5
118
100
AcDbEntity
  8
Layer_1
 62
7
100
AcDbLine
 10
22.800787
 20
31.809024
 30
0.0
 11
22.800787
 21
30.709034
 31
0.0
  0
SPLINE
  5
119
100
AcDbEntity
  8
Layer_1
 62
7
100
AcDbSpline
 70
8
 71
3
 72
8
 73
4
 74
0
 40
0
 40
0
 40
0
 40
0
 40
1
 40
1
 40
1
 40
1
 10
22.800787
 20
30.709034
 30
0.0
 10
22.800787
 20
30.178601
 30
0.0
 10
23.011501
 20
29.669893
 30
0.0
 10
23.386574
 20
29.294820
 30
0.0
  0
SPLINE
  5
11a
100
AcDbEntity
  8
Layer_1
 62
7
100
AcDbSpline
 70
8
 71
3
 72
8
 73
4
 74
0
 40
0
 40
0
 40
0
 40
0
 40
1
 40
1
 40
1
 40
1
 10
23.386574
 20
29.294820
 30
0.0
 10
23.761646
 20
28.919748
 30
0.0
 10
24.270354
 20
28.709034
 30
0.0
 10
24.800787
 20
28.709034
 30
0.0
  0
LINE
  5
11b
100
AcDbEntity
  8
Layer_1
 62
7
100
AcDbLine
 10
24.800787
 20
28.709034
 30
0.0
 11
45.569926
 21
28.709034
 31
0.0
  0
SPLINE
  5
11c
100
AcDbEntity
  8
Layer_1
 62
7
100
AcDbSpline
 70
8
 71
3
 72
8
 73
4
 74
0
 40
0
 40
0
 40
0
 40
0
 40
1
 40
1
 40
1
 40
1
 10
45.569926
 20
28.709034
 30
0.0
 10
52.511380
 20
28.709033
 30
0.0
 10
59.179361
 20
26.002807
 30
0.0
 10
64.157459
 20
21.165213
 30
0.0
  0
LINE
  5
11d
100
AcDbEntity
  8
Layer_1
 62
7
100
AcDbLine
 10
64.157459
 20
21.165213
 30
0.0
 11
65.317479
 21
20.037943
 31
0.0
  0
SPLINE
  5
11e
100
AcDbEntity
  8
Layer_1
 62
7
100
AcDbSpline
 70
8
 71
3
 72
8
 73
4
 74
0
 40
0
 40
0
 40
0
 40
0
 40
1
 40
1
 40
1
 40
1
 10
65.317479
 20
20.037943
 30
0.0
 10
65.576322
 20
19.786404
 30
0.0
 10
65.950481
 20
19.693583
 30
0.0
 10
66.296879
 20
19.794973
 30
0.0
  0
SPLINE
  5
11f
100
AcDbEntity
  8
Layer_1
 62
7
100
AcDbSpline
 70
8
 71
3
 72
8
 73
4
 74
0
 40
0
 40
0
 40
0
 40
0
 40
1
 40
1
 40
1
 40
1
 10
66.296879
 20
19.794973
 30
0.0
 10
66.296889
 20
19.794973
 30
0.0
 10
67.155569
 20
20.049673
 30
0.0
 10
68.224189
 20
20.329043
 30
0.0
  0
SPLINE
  5
120
100
AcDbEntity
  8
Layer_1
 62
7
100
AcDbSpline
 70
8
 71
3
 72
8
 73
4
 74
0
 40
0
 40
0
 40
0
 40
0
 40
1
 40
1
 40
1
 40
1
 10
68.224189
 20
20.329043
 30
0.0
 10
89.631222
 20
25.925454
 30
0.0
 10
113.353656
 20
21.039533
 30
0.0
 10
131.113298
 20
5.558641
 30
0.0
  0
LINE
  5
121
100
AcDbEntity
  8
Layer_1
 62
7
100
AcDbLine
 10
131.113298
 20
5.558641
 30
0.0
 11
131.113298
 21
5.558641
 31
0.0
  0
SPLINE
  5
122
100
AcDbEntity
  8
Layer_1
 62
7
100
AcDbSpline
 70
8
 71
3
 72
8
 73
4
 74
0
 40
0
 40
0
 40
0
 40
0
 40
1
 40
1
 40
1
 40
1
 10
131.113298
 20
5.558641
 30
0.0
 10
131.326507
 20
5.372333
 30
0.0
 10
131.608802
 20
5.285330
 30
0.0
 10
131.889898
 20
5.319291
 30
0.0
  0
SPLINE
  5
123
100
AcDbEntity
  8
Layer_1
 62
7
100
AcDbSpline
 70
8
 71
3
 72
8
 73
4
 74
0
 40
0
 40
0
 40
0
 40
0
 40
1
 40
1
 40
1
 40
1
 10
131.889898
 20
5.319291
 30
0.0
 10
132.170995
 20
5.353253
 30
0.0
 10
132.424446
 20
5.504986
 30
0.0
 10
132.587148
 20
5.736711
 30
0.0
  0
LINE
  5
124
100
AcDbEntity
  8
Layer_1
 62
7
100
AcDbLine
 10
132.587148
 20
5.736711
 30
0.0
 11
140.182779
 21
16.554632
 31
0.0
  0
SPLINE
  5
125
100
AcDbEntity
  8
Layer_1
 62
7
100
AcDbSpline
 70
8
 71
3
 72
8
 73
4
 74
0
 40
0
 40
0
 40
0
 40
0
 40
1
 40
1
 40
1
 40
1
 10
140.182779
 20
16.554632
 30
0.0
 10
140.930730
 20
17.619884
 30
0.0
 10
141.332048
 20
18.889842
 30
0.0
 10
141.332049
 20
20.191453
 30
0.0
  0
LINE
  5
126
100
AcDbEntity
  8
Layer_1
 62
7
100
AcDbLine
 10
141.332049
 20
20.191453
 30
0.0
 11
141.332049
 21
87.709040
 31
0.0
  0
SPLINE
  5
127
100
AcDbEntity
  8
Layer_1
 62
7
100
AcDbSpline
 70
8
 71
3
 72
8
 73
4
 74
0
 40
0
 40
0
 40
0
 40
0
 40
1
 40
1
 40
1
 40
1
 10
141.332049
 20
87.709040
 30
0.0
 10
141.332049
 20
88.239473
 30
0.0
 10
141.121336
 20
88.748181
 30
0.0
 10
140.746263
 20
89.123254
 30
0.0
  0
SPLINE
  5
128
100
AcDbEntity
  8
Layer_1
 62
7
100
AcDbSpline
 70
8
 71
3
 72
8
 73
4
 74
0
 40
0
 40
0
 40
0
 40
0
 40
1
 40
1
 40
1
 40
1
 10
140.746263
 20
89.123254
 30
0.0
 10
140.371190
 20
89.498327
 30
0.0
 10
139.862482
 20
89.709040
 30
0.0
 10
139.332049
 20
89.709040
 30
0.0
  0
LINE
  5
129
100
AcDbEntity
  8
Layer_1
 62
7
100
AcDbLine
 10
139.332049
 20
89.709040
 30
0.0
 11
95.850003
 21
89.709040
 31
0.0
  0
SPLINE
  5
12a
100
AcDbEntity
  8
Layer_1
 62
7
100
AcDbSpline
 70
8
 71
3
 72
8
 73
4
 74
0
 40
0
 40
0
 40
0
 40
0
 40
1
 40
1
 40
1
 40
1
 10
95.850003
 20
89.709040
 30
0.0
 10
95.208144
 20
89.709040
 30
0.0
 10
94.602677
 20
90.007102
 30
0.0
 10
94.211233
 20
90.515781
 30
0.0
  0
SPLINE
  5
12b
100
AcDbEntity
  8
Layer_1
 62
7
100
AcDbSpline
 70
8
 71
3
 72
8
 73
4
 74
0
 40
0
 40
0
 40
0
 40
0
 40
1
 40
1
 40
1
 40
1
 10
94.211233
 20
90.515781
 30
0.0
 10
93.476399
 20
91.344894
 30
0.0
 10
92.398208
 20
91.785762
 30
0.0
 10
91.292982
 20
91.709041
 30
0.0
  0
LINE
  5
12c
100
AcDbEntity
  8
Layer_1
 62
7
100
AcDbLine
 10
91.292982
 20
91.709041
 30
0.0
 11
77.800791
 21
91.709041
 31
0.0
  0
SPLINE
  5
12d
100
AcDbEntity
  8
Layer_1
 62
7
100
AcDbSpline
 70
8
 71
3
 72
8
 73
4
 74
0
 40
0
 40
0
 40
0
 40
0
 40
1
 40
1
 40
1
 40
1
 10
77.800791
 20
91.709041
 30
0.0
 10
77.270358
 20
91.709041
 30
0.0
 10
76.761650
 20
91.919754
 30
0.0
 10
76.386577
 20
92.294827
 30
0.0
  0
SPLINE
  5
12e
100
AcDbEntity
  8
Layer_1
 62
7
100
AcDbSpline
 70
8
 71
3
 72
8
 73
4
 74
0
 40
0
 40
0
 40
0
 40
0
 40
1
 40
1
 40
1
 40
1
 10
76.386577
 20
92.294827
 30
0.0
 10
76.011504
 20
92.669900
 30
0.0
 10
75.800790
 20
93.178608
 30
0.0
 10
75.800790
 20
93.709041
 30
0.0
  0
LINE
  5
12f
100
AcDbEntity
  8
Layer_1
 62
7
100
AcDbLine
 10
75.800790
 20
93.709041
 30
0.0
 11
75.800790
 21
94.709041
 31
0.0
  0
SPLINE
  5
130
100
AcDbEntity
  8
Layer_1
 62
7
100
AcDbSpline
 70
8
 71
3
 72
8
 73
4
 74
0
 40
0
 40
0
 40
0
 40
0
 40
1
 40
1
 40
1
 40
1
 10
75.800790
 20
94.709041
 30
0.0
 10
75.800790
 20
95.239474
 30
0.0
 10
75.590077
 20
95.748182
 30
0.0
 10
75.215004
 20
96.123255
 30
0.0
  0
SPLINE
  5
131
100
AcDbEntity
  8
Layer_1
 62
7
100
AcDbSpline
 70
8
 71
3
 72
8
 73
4
 74
0
 40
0
 40
0
 40
0
 40
0
 40
1
 40
1
 40
1
 40
1
 10
75.215004
 20
96.123255
 30
0.0
 10
74.839931
 20
96.498328
 30
0.0
 10
74.331223
 20
96.709041
 30
0.0
 10
73.800790
 20
96.709041
 30
0.0
  0
LINE
  5
132
100
AcDbEntity
  8
Layer_1
 62
7
100
AcDbLine
 10
73.800790
 20
96.709041
 30
0.0
 11
60.800788
 21
96.709041
 31
0.0
  0
SPLINE
  5
133
100
AcDbEntity
  8
Layer_1
 62
7
100
AcDbSpline
 70
8
 71
3
 72
8
 73
4
 74
0
 40
0
 40
0
 40
0
 40
0
 40
1
 40
1
 40
1
 40
1
 10
60.800788
 20
96.709041
 30
0.0
 10
60.270355
 20
96.709041
 30
0.0
 10
59.761647
 20
96.498328
 30
0.0
 10
59.386575
 20
96.123255
 30
0.0
  0
SPLINE
  5
134
100
AcDbEntity
  8
Layer_1
 62
7
100
AcDbSpline
 70
8
 71
3
 72
8
 73
4
 74
0
 40
0
 40
0
 40
0
 40
0
 40
1
 40
1
 40
1
 40
1
 10
59.386575
 20
96.123255
 30
0.0
 10
59.011502
 20
95.748182
 30
0.0
 10
58.800788
 20
95.239474
 30
0.0
 10
58.800788
 20
94.709041
 30
0.0
  0
LINE
  5
135
100
AcDbEntity
  8
Layer_1
 62
7
100
AcDbLine
 10
58.800788
 20
94.709041
 30
0.0
 11
58.800788
 21
94.709041
 31
0.0
  0
ENDSEC
  0
SECTION
  2
OBJECTS
  0
DICTIONARY
  5
C
330
0
100
AcDbDictionary
  3
ACAD_GROUP
350
D
  3
ACAD_MLINESTYLE
350
17
  0
DICTIONARY
  5
D
330
C
100
AcDbDictionary
  0
DICTIONARY
  5
1A
330
C
100
AcDbDictionary
  0
DICTIONARY
  5
17
330
C
100
AcDbDictionary
  3
STANDARD
350
18
  0
DICTIONARY
  5
19
330
C
100
AcDbDictionary
  0
ENDSEC
  0
EOF
