  0
SECTION
  2
HEADER
  9
$ACADVER
  1
AC1014
  9
$HANDSEED
  5
FFFF
  9
$INSUNITS
 70
     4
  9
$MEASUREMENT
 70
     1
  0
ENDSEC
  0
SECTION
  2
TABLES
  0
TABLE
  2
VPORT
  5
8
330
0
100
AcDbSymbolTable
 70
     4
  0
VPORT
  5
2E
330
8
100
AcDbSymbolTableRecord
100
AcDbViewportTableRecord
  2
*ACTIVE
 70
     0
 10
0.0
 20
0.0
 11
1.0
 21
1.0
 12
210.0
 22
148.5
 13
0.0
 23
0.0
 14
10.0
 24
10.0
 15
10.0
 25
10.0
 16
0.0
 26
0.0
 36
1.0
 17
0.0
 27
0.0
 37
0.0
 40
341.0
 41
1.24
 42
50.0
 43
0.0
 44
0.0
 50
0.0
 51
0.0
 71
     0
 72
   100
 73
     1
 74
     3
 75
     0
 76
     0
 77
     0
 78
     0
  0
ENDTAB
  0
TABLE
  2
LTYPE
  5
5
330
0
100
AcDbSymbolTable
 70
     1
  0
LTYPE
  5
14
330
5
100
AcDbSymbolTableRecord
100
AcDbLinetypeTableRecord
  2
BYBLOCK
 70
     0
  3

 72
    65
 73
     0
 40
0.0
  0
LTYPE
  5
15
330
5
100
AcDbSymbolTableRecord
100
AcDbLinetypeTableRecord
  2
BYLAYER
 70
     0
  3

 72
    65
 73
     0
 40
0.0
  0
LTYPE
  5
16
330
5
100
AcDbSymbolTableRecord
100
AcDbLinetypeTableRecord
  2
CONTINUOUS
 70
     0
  3
Solid line
 72
    65
 73
     0
 40
0.0
  0
ENDTAB
  0
TABLE
  2
LAYER
  5
2
100
AcDbSymbolTable
 70
2
  0
LAYER
  5
50
100
AcDbSymbolTableRecord
100
AcDbLayerTableRecord
  2
0
 70
0
  6
CONTINUOUS
  0
LAYER
  5
51
100
AcDbSymbolTableRecord
100
AcDbLayerTableRecord
  2
Layer_1
 70
0
  6
CONTINUOUS
  0
ENDTAB
  0
TABLE
  2
STYLE
  5
3
330
0
100
AcDbSymbolTable
 70
     1
  0
STYLE
  5
11
330
3
100
AcDbSymbolTableRecord
100
AcDbTextStyleTableRecord
  2
STANDARD
 70
     0
 40
0.0
 41
1.0
 50
0.0
 71
     0
 42
2.5
  3
txt
  4

  0
ENDTAB
  0
TABLE
  2
VIEW
  5
6
330
0
100
AcDbSymbolTable
 70
     0
  0
ENDTAB
  0
TABLE
  2
UCS
  5
7
330
0
100
AcDbSymbolTable
 70
     0
  0
ENDTAB
  0
TABLE
  2
APPID
  5
9
330
0
100
AcDbSymbolTable
 70
     2
  0
APPID
  5
12
330
9
100
AcDbSymbolTableRecord
100
AcDbRegAppTableRecord
  2
ACAD
 70
     0
  0
ENDTAB
  0
TABLE
  2
DIMSTYLE
  5
A
330
0
100
AcDbSymbolTable
 70
     1
  0
DIMSTYLE
105
27
330
A
100
AcDbSymbolTableRecord
100
AcDbDimStyleTableRecord
  2
ISO-25
 70
     0
  3

  4

  5

  6

  7

 40
1.0
 41
2.5
 42
0.625
 43
3.75
 44
1.25
 45
0.0
 46
0.0
 47
0.0
 48
0.0
140
2.5
141
2.5
142
0.0
143
0.03937007874016
144
1.0
145
0.0
146
1.0
147
0.625
 71
     0
 72
     0
 73
     0
 74
     0
 75
     0
 76
     0
 77
     1
 78
     8
170
     0
171
     3
172
     1
173
     0
174
     0
175
     0
176
     0
177
     0
178
     0
270
     2
271
     2
272
     2
273
     2
274
     3
340
11
275
     0
280
     0
281
     0
282
     0
283
     0
284
     8
285
     0
286
     0
287
     3
288
     0
  0
ENDTAB
  0
TABLE
  2
BLOCK_RECORD
  5
1
330
0
100
AcDbSymbolTable
 70
     1
  0
BLOCK_RECORD
  5
1F
330
1
100
AcDbSymbolTableRecord
100
AcDbBlockTableRecord
  2
*MODEL_SPACE
  0
BLOCK_RECORD
  5
1B
330
1
100
AcDbSymbolTableRecord
100
AcDbBlockTableRecord
  2
*PAPER_SPACE
  0
ENDTAB
  0
ENDSEC
  0
SECTION
  2
BLOCKS
  0
BLOCK
  5
20
330
1F
100
AcDbEntity
  8
0
100
AcDbBlockBegin
  2
*MODEL_SPACE
 70
     0
 10
0.0
 20
0.0
 30
0.0
  3
*MODEL_SPACE
  1

  0
ENDBLK
  5
21
330
1F
100
AcDbEntity
  8
0
100
AcDbBlockEnd
  0
BLOCK
  5
1C
330
1B
100
AcDbEntity
 67
     1
  8
0
100
AcDbBlockBegin
  2
*PAPER_SPACE
  1

  0
ENDBLK
  5
1D
330
1B
100
AcDbEntity
 67
     1
  8
0
100
AcDbBlockEnd
  0
ENDSEC
  0
SECTION
  2
ENTITIES
  0
LINE
  5
100
100
AcDbEntity
  8
Layer_1
 62
7
100
AcDbLine
 10
56.999972
 20
96.509910
 30
0.0
 11
56.999972
 21
95.509910
 31
0.0
  0
SPLINE
  5
101
100
AcDbEntity
  8
Layer_1
 62
7
100
AcDbSpline
 70
8
 71
3
 72
8
 73
4
 74
0
 40
0
 40
0
 40
0
 40
0
 40
1
 40
1
 40
1
 40
1
 10
56.999972
 20
95.509910
 30
0.0
 10
56.999972
 20
94.979477
 30
0.0
 10
56.789258
 20
94.470769
 30
0.0
 10
56.414186
 20
94.095696
 30
0.0
  0
SPLINE
  5
102
100
AcDbEntity
  8
Layer_1
 62
7
100
AcDbSpline
 70
8
 71
3
 72
8
 73
4
 74
0
 40
0
 40
0
 40
0
 40
0
 40
1
 40
1
 40
1
 40
1
 10
56.414186
 20
94.095696
 30
0.0
 10
56.039113
 20
93.720624
 30
0.0
 10
55.530405
 20
93.509910
 30
0.0
 10
54.999972
 20
93.509910
 30
0.0
  0
LINE
  5
103
100
AcDbEntity
  8
Layer_1
 62
7
100
AcDbLine
 10
54.999972
 20
93.509910
 30
0.0
 11
40.999972
 21
93.509910
 31
0.0
  0
SPLINE
  5
104
100
AcDbEntity
  8
Layer_1
 62
7
100
AcDbSpline
 70
8
 71
3
 72
8
 73
4
 74
0
 40
0
 40
0
 40
0
 40
0
 40
1
 40
1
 40
1
 40
1
 10
40.999972
 20
93.509910
 30
0.0
 10
40.469539
 20
93.509910
 30
0.0
 10
39.960831
 20
93.299196
 30
0.0
 10
39.585758
 20
92.924124
 30
0.0
  0
SPLINE
  5
105
100
AcDbEntity
  8
Layer_1
 62
7
100
AcDbSpline
 70
8
 71
3
 72
8
 73
4
 74
0
 40
0
 40
0
 40
0
 40
0
 40
1
 40
1
 40
1
 40
1
 10
39.585758
 20
92.924124
 30
0.0
 10
39.210686
 20
92.549051
 30
0.0
 10
38.999972
 20
92.040343
 30
0.0
 10
38.999972
 20
91.509910
 30
0.0
  0
LINE
  5
106
100
AcDbEntity
  8
Layer_1
 62
7
100
AcDbLine
 10
38.999972
 20
91.509910
 30
0.0
 11
38.999972
 21
83.509910
 31
0.0
  0
SPLINE
  5
107
100
AcDbEntity
  8
Layer_1
 62
7
100
AcDbSpline
 70
8
 71
3
 72
8
 73
4
 74
0
 40
0
 40
0
 40
0
 40
0
 40
1
 40
1
 40
1
 40
1
 10
38.999972
 20
83.509910
 30
0.0
 10
38.999972
 20
82.979477
 30
0.0
 10
38.789258
 20
82.470769
 30
0.0
 10
38.414185
 20
82.095696
 30
0.0
  0
SPLINE
  5
108
100
AcDbEntity
  8
Layer_1
 62
7
100
AcDbSpline
 70
8
 71
3
 72
8
 73
4
 74
0
 40
0
 40
0
 40
0
 40
0
 40
1
 40
1
 40
1
 40
1
 10
38.414185
 20
82.095696
 30
0.0
 10
38.039113
 20
81.720624
 30
0.0
 10
37.530405
 20
81.509910
 30
0.0
 10
36.999972
 20
81.509910
 30
0.0
  0
LINE
  5
109
100
AcDbEntity
  8
Layer_1
 62
7
100
AcDbLine
 10
36.999972
 20
81.509910
 30
0.0
 11
22.999972
 21
81.509910
 31
0.0
  0
SPLINE
  5
10a
100
AcDbEntity
  8
Layer_1
 62
7
100
AcDbSpline
 70
8
 71
3
 72
8
 73
4
 74
0
 40
0
 40
0
 40
0
 40
0
 40
1
 40
1
 40
1
 40
1
 10
22.999972
 20
81.509910
 30
0.0
 10
22.469539
 20
81.509910
 30
0.0
 10
21.960831
 20
81.299196
 30
0.0
 10
21.585758
 20
80.924124
 30
0.0
  0
SPLINE
  5
10b
100
AcDbEntity
  8
Layer_1
 62
7
100
AcDbSpline
 70
8
 71
3
 72
8
 73
4
 74
0
 40
0
 40
0
 40
0
 40
0
 40
1
 40
1
 40
1
 40
1
 10
21.585758
 20
80.924124
 30
0.0
 10
21.210686
 20
80.549051
 30
0.0
 10
20.999972
 20
80.040343
 30
0.0
 10
20.999972
 20
79.509910
 30
0.0
  0
LINE
  5
10c
100
AcDbEntity
  8
Layer_1
 62
7
100
AcDbLine
 10
20.999972
 20
79.509910
 30
0.0
 11
20.999972
 21
75.009910
 31
0.0
  0
SPLINE
  5
10d
100
AcDbEntity
  8
Layer_1
 62
7
100
AcDbSpline
 70
8
 71
3
 72
8
 73
4
 74
0
 40
0
 40
0
 40
0
 40
0
 40
1
 40
1
 40
1
 40
1
 10
20.999972
 20
75.009910
 30
0.0
 10
20.999972
 20
74.479477
 30
0.0
 10
20.789258
 20
73.970769
 30
0.0
 10
20.414186
 20
73.595696
 30
0.0
  0
SPLINE
  5
10e
100
AcDbEntity
  8
Layer_1
 62
7
100
AcDbSpline
 70
8
 71
3
 72
8
 73
4
 74
0
 40
0
 40
0
 40
0
 40
0
 40
1
 40
1
 40
1
 40
1
 10
20.414186
 20
73.595696
 30
0.0
 10
20.039113
 20
73.220624
 30
0.0
 10
19.530405
 20
73.009910
 30
0.0
 10
18.999972
 20
73.009910
 30
0.0
  0
LINE
  5
10f
100
AcDbEntity
  8
Layer_1
 62
7
100
AcDbLine
 10
18.999972
 20
73.009910
 30
0.0
 11
4.999972
 21
73.009910
 31
0.0
  0
SPLINE
  5
110
100
AcDbEntity
  8
Layer_1
 62
7
100
AcDbSpline
 70
8
 71
3
 72
8
 73
4
 74
0
 40
0
 40
0
 40
0
 40
0
 40
1
 40
1
 40
1
 40
1
 10
4.999972
 20
73.009910
 30
0.0
 10
4.469539
 20
73.009910
 30
0.0
 10
3.960831
 20
72.799196
 30
0.0
 10
3.585758
 20
72.424124
 30
0.0
  0
SPLINE
  5
111
100
AcDbEntity
  8
Layer_1
 62
7
100
AcDbSpline
 70
8
 71
3
 72
8
 73
4
 74
0
 40
0
 40
0
 40
0
 40
0
 40
1
 40
1
 40
1
 40
1
 10
3.585758
 20
72.424124
 30
0.0
 10
3.210686
 20
72.049051
 30
0.0
 10
2.999972
 20
71.540343
 30
0.0
 10
2.999972
 20
71.009910
 30
0.0
  0
LINE
  5
112
100
AcDbEntity
  8
Layer_1
 62
7
100
AcDbLine
 10
2.999972
 20
71.009910
 30
0.0
 11
2.999972
 21
37.408350
 31
0.0
  0
SPLINE
  5
113
100
AcDbEntity
  8
Layer_1
 62
7
100
AcDbSpline
 70
8
 71
3
 72
8
 73
4
 74
0
 40
0
 40
0
 40
0
 40
0
 40
1
 40
1
 40
1
 40
1
 10
2.999972
 20
37.408350
 30
0.0
 10
2.999972
 20
36.877917
 30
0.0
 10
3.210686
 20
36.369209
 30
0.0
 10
3.585758
 20
35.994136
 30
0.0
  0
SPLINE
  5
114
100
AcDbEntity
  8
Layer_1
 62
7
100
AcDbSpline
 70
8
 71
3
 72
8
 73
4
 74
0
 40
0
 40
0
 40
0
 40
0
 40
1
 40
1
 40
1
 40
1
 10
3.585758
 20
35.994136
 30
0.0
 10
3.960831
 20
35.619064
 30
0.0
 10
4.469539
 20
35.408350
 30
0.0
 10
4.999972
 20
35.408350
 30
0.0
  0
LINE
  5
115
100
AcDbEntity
  8
Layer_1
 62
7
100
AcDbLine
 10
4.999972
 20
35.408350
 30
0.0
 11
18.999972
 21
35.408350
 31
0.0
  0
SPLINE
  5
116
100
AcDbEntity
  8
Layer_1
 62
7
100
AcDbSpline
 70
8
 71
3
 72
8
 73
4
 74
0
 40
0
 40
0
 40
0
 40
0
 40
1
 40
1
 40
1
 40
1
 10
18.999972
 20
35.408350
 30
0.0
 10
19.530405
 20
35.408350
 30
0.0
 10
20.039113
 20
35.197636
 30
0.0
 10
20.414186
 20
34.822564
 30
0.0
  0
SPLINE
  5
117
100
AcDbEntity
  8
Layer_1
 62
7
100
AcDbSpline
 70
8
 71
3
 72
8
 73
4
 74
0
 40
0
 40
0
 40
0
 40
0
 40
1
 40
1
 40
1
 40
1
 10
20.414186
 20
34.822564
 30
0.0
 10
20.789258
 20
34.447491
 30
0.0
 10
20.999972
 20
33.938783
 30
0.0
 10
20.999972
 20
33.408350
 30
0.0
  0
LINE
  5
118
100
AcDbEntity
  8
Layer_1
 62
7
100
AcDbLine
 10
20.999972
 20
33.408350
 30
0.0
 11
20.999972
 21
28.908350
 31
0.0
  0
SPLINE
  5
119
100
AcDbEntity
  8
Layer_1
 62
7
100
AcDbSpline
 70
8
 71
3
 72
8
 73
4
 74
0
 40
0
 40
0
 40
0
 40
0
 40
1
 40
1
 40
1
 40
1
 10
20.999972
 20
28.908350
 30
0.0
 10
20.999972
 20
28.377917
 30
0.0
 10
21.210686
 20
27.869209
 30
0.0
 10
21.585758
 20
27.494136
 30
0.0
  0
SPLINE
  5
11a
100
AcDbEntity
  8
Layer_1
 62
7
100
AcDbSpline
 70
8
 71
3
 72
8
 73
4
 74
0
 40
0
 40
0
 40
0
 40
0
 40
1
 40
1
 40
1
 40
1
 10
21.585758
 20
27.494136
 30
0.0
 10
21.960831
 20
27.119064
 30
0.0
 10
22.469539
 20
26.908350
 30
0.0
 10
22.999972
 20
26.908350
 30
0.0
  0
LINE
  5
11b
100
AcDbEntity
  8
Layer_1
 62
7
100
AcDbLine
 10
22.999972
 20
26.908350
 30
0.0
 11
44.487820
 21
26.908350
 31
0.0
  0
SPLINE
  5
11c
100
AcDbEntity
  8
Layer_1
 62
7
100
AcDbSpline
 70
8
 71
3
 72
8
 73
4
 74
0
 40
0
 40
0
 40
0
 40
0
 40
1
 40
1
 40
1
 40
1
 10
44.487820
 20
26.908350
 30
0.0
 10
51.656054
 20
26.908350
 30
0.0
 10
58.541938
 20
24.113983
 30
0.0
 10
63.683039
 20
19.118720
 30
0.0
  0
LINE
  5
11d
100
AcDbEntity
  8
Layer_1
 62
7
100
AcDbLine
 10
63.683039
 20
19.118720
 30
0.0
 11
63.801888
 21
19.003240
 31
0.0
  0
SPLINE
  5
11e
100
AcDbEntity
  8
Layer_1
 62
7
100
AcDbSpline
 70
8
 71
3
 72
8
 73
4
 74
0
 40
0
 40
0
 40
0
 40
0
 40
1
 40
1
 40
1
 40
1
 10
63.801888
 20
19.003240
 30
0.0
 10
64.560613
 20
18.173637
 30
0.0
 10
65.707075
 20
17.816524
 30
0.0
 10
66.802706
 20
18.068510
 30
0.0
  0
SPLINE
  5
11f
100
AcDbEntity
  8
Layer_1
 62
7
100
AcDbSpline
 70
8
 71
3
 72
8
 73
4
 74
0
 40
0
 40
0
 40
0
 40
0
 40
1
 40
1
 40
1
 40
1
 10
66.802706
 20
18.068510
 30
0.0
 10
75.511641
 20
20.372160
 30
0.0
 10
82.528366
 20
21.074540
 30
0.0
 10
89.522639
 20
20.682690
 30
0.0
  0
SPLINE
  5
120
100
AcDbEntity
  8
Layer_1
 62
7
100
AcDbSpline
 70
8
 71
3
 72
8
 73
4
 74
0
 40
0
 40
0
 40
0
 40
0
 40
1
 40
1
 40
1
 40
1
 10
89.522639
 20
20.682690
 30
0.0
 10
90.625438
 20
20.620890
 30
0.0
 10
92.410071
 20
20.466130
 30
0.0
 10
93.507049
 20
20.337190
 30
0.0
  0
SPLINE
  5
121
100
AcDbEntity
  8
Layer_1
 62
7
100
AcDbSpline
 70
8
 71
3
 72
8
 73
4
 74
0
 40
0
 40
0
 40
0
 40
0
 40
1
 40
1
 40
1
 40
1
 10
93.507049
 20
20.337190
 30
0.0
 10
106.972010
 20
18.754540
 30
0.0
 10
119.663831
 20
13.143110
 30
0.0
 10
129.910430
 20
4.218080
 30
0.0
  0
SPLINE
  5
122
100
AcDbEntity
  8
Layer_1
 62
7
100
AcDbSpline
 70
8
 71
3
 72
8
 73
4
 74
0
 40
0
 40
0
 40
0
 40
0
 40
1
 40
1
 40
1
 40
1
 10
129.910430
 20
4.218080
 30
0.0
 10
129.921050
 20
4.209080
 30
0.0
 10
129.938270
 20
4.193780
 30
0.0
 10
129.948880
 20
4.184580
 30
0.0
  0
LINE
  5
123
100
AcDbEntity
  8
Layer_1
 62
7
100
AcDbLine
 10
129.948880
 20
4.184580
 30
0.0
 11
130.222777
 21
3.945830
 31
0.0
  0
SPLINE
  5
124
100
AcDbEntity
  8
Layer_1
 62
7
100
AcDbSpline
 70
8
 71
3
 72
8
 73
4
 74
0
 40
0
 40
0
 40
0
 40
0
 40
1
 40
1
 40
1
 40
1
 10
130.222777
 20
3.945830
 30
0.0
 10
130.746046
 20
3.489713
 30
0.0
 10
131.438285
 20
3.277064
 30
0.0
 10
132.127377
 20
3.360756
 30
0.0
  0
SPLINE
  5
125
100
AcDbEntity
  8
Layer_1
 62
7
100
AcDbSpline
 70
8
 71
3
 72
8
 73
4
 74
0
 40
0
 40
0
 40
0
 40
0
 40
1
 40
1
 40
1
 40
1
 10
132.127377
 20
3.360756
 30
0.0
 10
132.816470
 20
3.444447
 30
0.0
 10
133.437682
 20
3.816617
 30
0.0
 10
133.836556
 20
4.384730
 30
0.0
  0
LINE
  5
126
100
AcDbEntity
  8
Layer_1
 62
7
100
AcDbLine
 10
133.836556
 20
4.384730
 30
0.0
 11
141.983536
 21
15.988330
 31
0.0
  0
SPLINE
  5
127
100
AcDbEntity
  8
Layer_1
 62
7
100
AcDbSpline
 70
8
 71
3
 72
8
 73
4
 74
0
 40
0
 40
0
 40
0
 40
0
 40
1
 40
1
 40
1
 40
1
 10
141.983536
 20
15.988330
 30
0.0
 10
142.731469
 20
17.053596
 30
0.0
 10
143.132776
 20
18.323557
 30
0.0
 10
143.132776
 20
19.625170
 30
0.0
  0
LINE
  5
128
100
AcDbEntity
  8
Layer_1
 62
7
100
AcDbLine
 10
143.132776
 20
19.625170
 30
0.0
 11
143.132776
 21
89.509930
 31
0.0
  0
SPLINE
  5
129
100
AcDbEntity
  8
Layer_1
 62
7
100
AcDbSpline
 70
8
 71
3
 72
8
 73
4
 74
0
 40
0
 40
0
 40
0
 40
0
 40
1
 40
1
 40
1
 40
1
 10
143.132776
 20
89.509930
 30
0.0
 10
143.132776
 20
90.040363
 30
0.0
 10
142.922062
 20
90.549071
 30
0.0
 10
142.546990
 20
90.924144
 30
0.0
  0
SPLINE
  5
12a
100
AcDbEntity
  8
Layer_1
 62
7
100
AcDbSpline
 70
8
 71
3
 72
8
 73
4
 74
0
 40
0
 40
0
 40
0
 40
0
 40
1
 40
1
 40
1
 40
1
 10
142.546990
 20
90.924144
 30
0.0
 10
142.171917
 20
91.299216
 30
0.0
 10
141.663209
 20
91.509930
 30
0.0
 10
141.132776
 20
91.509930
 30
0.0
  0
LINE
  5
12b
100
AcDbEntity
  8
Layer_1
 62
7
100
AcDbLine
 10
141.132776
 20
91.509930
 30
0.0
 11
96.865504
 21
91.509930
 31
0.0
  0
SPLINE
  5
12c
100
AcDbEntity
  8
Layer_1
 62
7
100
AcDbSpline
 70
8
 71
3
 72
8
 73
4
 74
0
 40
0
 40
0
 40
0
 40
0
 40
1
 40
1
 40
1
 40
1
 10
96.865504
 20
91.509930
 30
0.0
 10
96.141244
 20
91.509929
 30
0.0
 10
95.458105
 20
91.846487
 30
0.0
 10
95.016759
 20
92.420740
 30
0.0
  0
LINE
  5
12d
100
AcDbEntity
  8
Layer_1
 62
7
100
AcDbLine
 10
95.016759
 20
92.420740
 30
0.0
 11
94.999239
 21
92.443540
 31
0.0
  0
SPLINE
  5
12e
100
AcDbEntity
  8
Layer_1
 62
7
100
AcDbSpline
 70
8
 71
3
 72
8
 73
4
 74
0
 40
0
 40
0
 40
0
 40
0
 40
1
 40
1
 40
1
 40
1
 10
94.999239
 20
92.443540
 30
0.0
 10
94.482504
 20
93.115884
 30
0.0
 10
93.682674
 20
93.509931
 30
0.0
 10
92.834699
 20
93.509930
 30
0.0
  0
LINE
  5
12f
100
AcDbEntity
  8
Layer_1
 62
7
100
AcDbLine
 10
92.834699
 20
93.509930
 30
0.0
 11
79.601534
 21
93.509930
 31
0.0
  0
SPLINE
  5
130
100
AcDbEntity
  8
Layer_1
 62
7
100
AcDbSpline
 70
8
 71
3
 72
8
 73
4
 74
0
 40
0
 40
0
 40
0
 40
0
 40
1
 40
1
 40
1
 40
1
 10
79.601534
 20
93.509930
 30
0.0
 10
79.071101
 20
93.509930
 30
0.0
 10
78.562393
 20
93.720644
 30
0.0
 10
78.187320
 20
94.095716
 30
0.0
  0
SPLINE
  5
131
100
AcDbEntity
  8
Layer_1
 62
7
100
AcDbSpline
 70
8
 71
3
 72
8
 73
4
 74
0
 40
0
 40
0
 40
0
 40
0
 40
1
 40
1
 40
1
 40
1
 10
78.187320
 20
94.095716
 30
0.0
 10
77.812248
 20
94.470789
 30
0.0
 10
77.601534
 20
94.979497
 30
0.0
 10
77.601534
 20
95.509930
 30
0.0
  0
LINE
  5
132
100
AcDbEntity
  8
Layer_1
 62
7
100
AcDbLine
 10
77.601534
 20
95.509930
 30
0.0
 11
77.601534
 21
96.509930
 31
0.0
  0
SPLINE
  5
133
100
AcDbEntity
  8
Layer_1
 62
7
100
AcDbSpline
 70
8
 71
3
 72
8
 73
4
 74
0
 40
0
 40
0
 40
0
 40
0
 40
1
 40
1
 40
1
 40
1
 10
77.601534
 20
96.509930
 30
0.0
 10
77.601534
 20
97.040363
 30
0.0
 10
77.390820
 20
97.549071
 30
0.0
 10
77.015748
 20
97.924144
 30
0.0
  0
SPLINE
  5
134
100
AcDbEntity
  8
Layer_1
 62
7
100
AcDbSpline
 70
8
 71
3
 72
8
 73
4
 74
0
 40
0
 40
0
 40
0
 40
0
 40
1
 40
1
 40
1
 40
1
 10
77.015748
 20
97.924144
 30
0.0
 10
76.640675
 20
98.299216
 30
0.0
 10
76.131967
 20
98.509930
 30
0.0
 10
75.601534
 20
98.509930
 30
0.0
  0
LINE
  5
135
100
AcDbEntity
  8
Layer_1
 62
7
100
AcDbLine
 10
75.601534
 20
98.509930
 30
0.0
 11
58.999972
 21
98.509930
 31
0.0
  0
SPLINE
  5
136
100
AcDbEntity
  8
Layer_1
 62
7
100
AcDbSpline
 70
8
 71
3
 72
8
 73
4
 74
0
 40
0
 40
0
 40
0
 40
0
 40
1
 40
1
 40
1
 40
1
 10
58.999972
 20
98.509930
 30
0.0
 10
58.469539
 20
98.509930
 30
0.0
 10
57.960831
 20
98.299216
 30
0.0
 10
57.585758
 20
97.924144
 30
0.0
  0
SPLINE
  5
137
100
AcDbEntity
  8
Layer_1
 62
7
100
AcDbSpline
 70
8
 71
3
 72
8
 73
4
 74
0
 40
0
 40
0
 40
0
 40
0
 40
1
 40
1
 40
1
 40
1
 10
57.585758
 20
97.924144
 30
0.0
 10
57.210686
 20
97.549071
 30
0.0
 10
56.999972
 20
97.040363
 30
0.0
 10
56.999972
 20
96.509930
 30
0.0
  0
LINE
  5
138
100
AcDbEntity
  8
Layer_1
 62
7
100
AcDbLine
 10
56.999972
 20
96.509930
 30
0.0
 11
56.999972
 21
96.509910
 31
0.0
  0
ENDSEC
  0
SECTION
  2
OBJECTS
  0
DICTIONARY
  5
C
330
0
100
AcDbDictionary
  3
ACAD_GROUP
350
D
  3
ACAD_MLINESTYLE
350
17
  0
DICTIONARY
  5
D
330
C
100
AcDbDictionary
  0
DICTIONARY
  5
1A
330
C
100
AcDbDictionary
  0
DICTIONARY
  5
17
330
C
100
AcDbDictionary
  3
STANDARD
350
18
  0
DICTIONARY
  5
19
330
C
100
AcDbDictionary
  0
ENDSEC
  0
EOF
