  0
SECTION
  2
HEADER
  9
$ACADVER
  1
AC1014
  9
$HANDSEED
  5
FFFF
  9
$INSUNITS
 70
     4
  9
$MEASUREMENT
 70
     1
  0
ENDSEC
  0
SECTION
  2
TABLES
  0
TABLE
  2
VPORT
  5
8
330
0
100
AcDbSymbolTable
 70
     4
  0
VPORT
  5
2E
330
8
100
AcDbSymbolTableRecord
100
AcDbViewportTableRecord
  2
*ACTIVE
 70
     0
 10
0.0
 20
0.0
 11
1.0
 21
1.0
 12
210.0
 22
148.5
 13
0.0
 23
0.0
 14
10.0
 24
10.0
 15
10.0
 25
10.0
 16
0.0
 26
0.0
 36
1.0
 17
0.0
 27
0.0
 37
0.0
 40
341.0
 41
1.24
 42
50.0
 43
0.0
 44
0.0
 50
0.0
 51
0.0
 71
     0
 72
   100
 73
     1
 74
     3
 75
     0
 76
     0
 77
     0
 78
     0
  0
ENDTAB
  0
TABLE
  2
LTYPE
  5
5
330
0
100
AcDbSymbolTable
 70
     1
  0
LTYPE
  5
14
330
5
100
AcDbSymbolTableRecord
100
AcDbLinetypeTableRecord
  2
BYBLOCK
 70
     0
  3

 72
    65
 73
     0
 40
0.0
  0
LTYPE
  5
15
330
5
100
AcDbSymbolTableRecord
100
AcDbLinetypeTableRecord
  2
BYLAYER
 70
     0
  3

 72
    65
 73
     0
 40
0.0
  0
LTYPE
  5
16
330
5
100
AcDbSymbolTableRecord
100
AcDbLinetypeTableRecord
  2
CONTINUOUS
 70
     0
  3
Solid line
 72
    65
 73
     0
 40
0.0
  0
ENDTAB
  0
TABLE
  2
LAYER
  5
2
100
AcDbSymbolTable
 70
2
  0
LAYER
  5
50
100
AcDbSymbolTableRecord
100
AcDbLayerTableRecord
  2
0
 70
0
  6
CONTINUOUS
  0
LAYER
  5
51
100
AcDbSymbolTableRecord
100
AcDbLayerTableRecord
  2
Layer_1
 70
0
  6
CONTINUOUS
  0
ENDTAB
  0
TABLE
  2
STYLE
  5
3
330
0
100
AcDbSymbolTable
 70
     1
  0
STYLE
  5
11
330
3
100
AcDbSymbolTableRecord
100
AcDbTextStyleTableRecord
  2
STANDARD
 70
     0
 40
0.0
 41
1.0
 50
0.0
 71
     0
 42
2.5
  3
txt
  4

  0
ENDTAB
  0
TABLE
  2
VIEW
  5
6
330
0
100
AcDbSymbolTable
 70
     0
  0
ENDTAB
  0
TABLE
  2
UCS
  5
7
330
0
100
AcDbSymbolTable
 70
     0
  0
ENDTAB
  0
TABLE
  2
APPID
  5
9
330
0
100
AcDbSymbolTable
 70
     2
  0
APPID
  5
12
330
9
100
AcDbSymbolTableRecord
100
AcDbRegAppTableRecord
  2
ACAD
 70
     0
  0
ENDTAB
  0
TABLE
  2
DIMSTYLE
  5
A
330
0
100
AcDbSymbolTable
 70
     1
  0
DIMSTYLE
105
27
330
A
100
AcDbSymbolTableRecord
100
AcDbDimStyleTableRecord
  2
ISO-25
 70
     0
  3

  4

  5

  6

  7

 40
1.0
 41
2.5
 42
0.625
 43
3.75
 44
1.25
 45
0.0
 46
0.0
 47
0.0
 48
0.0
140
2.5
141
2.5
142
0.0
143
0.03937007874016
144
1.0
145
0.0
146
1.0
147
0.625
 71
     0
 72
     0
 73
     0
 74
     0
 75
     0
 76
     0
 77
     1
 78
     8
170
     0
171
     3
172
     1
173
     0
174
     0
175
     0
176
     0
177
     0
178
     0
270
     2
271
     2
272
     2
273
     2
274
     3
340
11
275
     0
280
     0
281
     0
282
     0
283
     0
284
     8
285
     0
286
     0
287
     3
288
     0
  0
ENDTAB
  0
TABLE
  2
BLOCK_RECORD
  5
1
330
0
100
AcDbSymbolTable
 70
     1
  0
BLOCK_RECORD
  5
1F
330
1
100
AcDbSymbolTableRecord
100
AcDbBlockTableRecord
  2
*MODEL_SPACE
  0
BLOCK_RECORD
  5
1B
330
1
100
AcDbSymbolTableRecord
100
AcDbBlockTableRecord
  2
*PAPER_SPACE
  0
ENDTAB
  0
ENDSEC
  0
SECTION
  2
BLOCKS
  0
BLOCK
  5
20
330
1F
100
AcDbEntity
  8
0
100
AcDbBlockBegin
  2
*MODEL_SPACE
 70
     0
 10
0.0
 20
0.0
 30
0.0
  3
*MODEL_SPACE
  1

  0
ENDBLK
  5
21
330
1F
100
AcDbEntity
  8
0
100
AcDbBlockEnd
  0
BLOCK
  5
1C
330
1B
100
AcDbEntity
 67
     1
  8
0
100
AcDbBlockBegin
  2
*PAPER_SPACE
  1

  0
ENDBLK
  5
1D
330
1B
100
AcDbEntity
 67
     1
  8
0
100
AcDbBlockEnd
  0
ENDSEC
  0
SECTION
  2
ENTITIES
  0
SPLINE
  5
100
100
AcDbEntity
  8
Layer_1
 62
7
100
AcDbSpline
 70
8
 71
3
 72
8
 73
4
 74
0
 40
0
 40
0
 40
0
 40
0
 40
1
 40
1
 40
1
 40
1
 10
1.751923
 20
54.859007
 30
0.0
 10
1.489023
 20
54.859007
 30
0.0
 10
1.252009
 20
54.700640
 30
0.0
 10
1.151401
 20
54.457752
 30
0.0
  0
SPLINE
  5
101
100
AcDbEntity
  8
Layer_1
 62
7
100
AcDbSpline
 70
8
 71
3
 72
8
 73
4
 74
0
 40
0
 40
0
 40
0
 40
0
 40
1
 40
1
 40
1
 40
1
 10
1.151401
 20
54.457752
 30
0.0
 10
1.050794
 20
54.214863
 30
0.0
 10
1.106405
 20
53.935287
 30
0.0
 10
1.292304
 20
53.749388
 30
0.0
  0
SPLINE
  5
102
100
AcDbEntity
  8
Layer_1
 62
7
100
AcDbSpline
 70
8
 71
3
 72
8
 73
4
 74
0
 40
0
 40
0
 40
0
 40
0
 40
1
 40
1
 40
1
 40
1
 10
1.292304
 20
53.749388
 30
0.0
 10
1.478203
 20
53.563489
 30
0.0
 10
1.757779
 20
53.507878
 30
0.0
 10
2.000667
 20
53.608486
 30
0.0
  0
SPLINE
  5
103
100
AcDbEntity
  8
Layer_1
 62
7
100
AcDbSpline
 70
8
 71
3
 72
8
 73
4
 74
0
 40
0
 40
0
 40
0
 40
0
 40
1
 40
1
 40
1
 40
1
 10
2.000667
 20
53.608486
 30
0.0
 10
2.243556
 20
53.709093
 30
0.0
 10
2.401923
 20
53.946107
 30
0.0
 10
2.401923
 20
54.209007
 30
0.0
  0
SPLINE
  5
104
100
AcDbEntity
  8
Layer_1
 62
7
100
AcDbSpline
 70
8
 71
3
 72
8
 73
4
 74
0
 40
0
 40
0
 40
0
 40
0
 40
1
 40
1
 40
1
 40
1
 10
2.401923
 20
54.209007
 30
0.0
 10
2.401923
 20
54.381398
 30
0.0
 10
2.333441
 20
54.546728
 30
0.0
 10
2.211543
 20
54.668627
 30
0.0
  0
SPLINE
  5
105
100
AcDbEntity
  8
Layer_1
 62
7
100
AcDbSpline
 70
8
 71
3
 72
8
 73
4
 74
0
 40
0
 40
0
 40
0
 40
0
 40
1
 40
1
 40
1
 40
1
 10
2.211543
 20
54.668627
 30
0.0
 10
2.089644
 20
54.790526
 30
0.0
 10
1.924314
 20
54.859007
 30
0.0
 10
1.751923
 20
54.859007
 30
0.0
  0
LINE
  5
106
100
AcDbEntity
  8
Layer_1
 62
7
100
AcDbLine
 10
1.751923
 20
54.859007
 30
0.0
 11
1.751923
 21
54.859007
 31
0.0
  0
SPLINE
  5
107
100
AcDbEntity
  8
Layer_1
 62
7
100
AcDbSpline
 70
8
 71
3
 72
8
 73
4
 74
0
 40
0
 40
0
 40
0
 40
0
 40
1
 40
1
 40
1
 40
1
 10
84.847624
 20
19.531923
 30
0.0
 10
84.847624
 20
19.269022
 30
0.0
 10
85.005991
 20
19.032009
 30
0.0
 10
85.248879
 20
18.931401
 30
0.0
  0
SPLINE
  5
108
100
AcDbEntity
  8
Layer_1
 62
7
100
AcDbSpline
 70
8
 71
3
 72
8
 73
4
 74
0
 40
0
 40
0
 40
0
 40
0
 40
1
 40
1
 40
1
 40
1
 10
85.248879
 20
18.931401
 30
0.0
 10
85.491768
 20
18.830793
 30
0.0
 10
85.771344
 20
18.886404
 30
0.0
 10
85.957243
 20
19.072303
 30
0.0
  0
SPLINE
  5
109
100
AcDbEntity
  8
Layer_1
 62
7
100
AcDbSpline
 70
8
 71
3
 72
8
 73
4
 74
0
 40
0
 40
0
 40
0
 40
0
 40
1
 40
1
 40
1
 40
1
 10
85.957243
 20
19.072303
 30
0.0
 10
86.143142
 20
19.258202
 30
0.0
 10
86.198753
 20
19.537779
 30
0.0
 10
86.098145
 20
19.780667
 30
0.0
  0
SPLINE
  5
10a
100
AcDbEntity
  8
Layer_1
 62
7
100
AcDbSpline
 70
8
 71
3
 72
8
 73
4
 74
0
 40
0
 40
0
 40
0
 40
0
 40
1
 40
1
 40
1
 40
1
 10
86.098145
 20
19.780667
 30
0.0
 10
85.997538
 20
20.023555
 30
0.0
 10
85.760524
 20
20.181923
 30
0.0
 10
85.497624
 20
20.181923
 30
0.0
  0
SPLINE
  5
10b
100
AcDbEntity
  8
Layer_1
 62
7
100
AcDbSpline
 70
8
 71
3
 72
8
 73
4
 74
0
 40
0
 40
0
 40
0
 40
0
 40
1
 40
1
 40
1
 40
1
 10
85.497624
 20
20.181923
 30
0.0
 10
85.325233
 20
20.181923
 30
0.0
 10
85.159903
 20
20.113441
 30
0.0
 10
85.038004
 20
19.991542
 30
0.0
  0
SPLINE
  5
10c
100
AcDbEntity
  8
Layer_1
 62
7
100
AcDbSpline
 70
8
 71
3
 72
8
 73
4
 74
0
 40
0
 40
0
 40
0
 40
0
 40
1
 40
1
 40
1
 40
1
 10
85.038004
 20
19.991542
 30
0.0
 10
84.916106
 20
19.869643
 30
0.0
 10
84.847624
 20
19.704313
 30
0.0
 10
84.847624
 20
19.531923
 30
0.0
  0
LINE
  5
10d
100
AcDbEntity
  8
Layer_1
 62
7
100
AcDbLine
 10
84.847624
 20
19.531923
 30
0.0
 11
84.847624
 21
19.531923
 31
0.0
  0
SPLINE
  5
10e
100
AcDbEntity
  8
Layer_1
 62
7
100
AcDbSpline
 70
8
 71
3
 72
8
 73
4
 74
0
 40
0
 40
0
 40
0
 40
0
 40
1
 40
1
 40
1
 40
1
 10
38.168080
 20
25.658984
 30
0.0
 10
38.168080
 20
25.396083
 30
0.0
 10
38.326448
 20
25.159069
 30
0.0
 10
38.569336
 20
25.058462
 30
0.0
  0
SPLINE
  5
10f
100
AcDbEntity
  8
Layer_1
 62
7
100
AcDbSpline
 70
8
 71
3
 72
8
 73
4
 74
0
 40
0
 40
0
 40
0
 40
0
 40
1
 40
1
 40
1
 40
1
 10
38.569336
 20
25.058462
 30
0.0
 10
38.812224
 20
24.957854
 30
0.0
 10
39.091801
 20
25.013465
 30
0.0
 10
39.277700
 20
25.199364
 30
0.0
  0
SPLINE
  5
110
100
AcDbEntity
  8
Layer_1
 62
7
100
AcDbSpline
 70
8
 71
3
 72
8
 73
4
 74
0
 40
0
 40
0
 40
0
 40
0
 40
1
 40
1
 40
1
 40
1
 10
39.277700
 20
25.199364
 30
0.0
 10
39.463598
 20
25.385263
 30
0.0
 10
39.519210
 20
25.664839
 30
0.0
 10
39.418602
 20
25.907728
 30
0.0
  0
SPLINE
  5
111
100
AcDbEntity
  8
Layer_1
 62
7
100
AcDbSpline
 70
8
 71
3
 72
8
 73
4
 74
0
 40
0
 40
0
 40
0
 40
0
 40
1
 40
1
 40
1
 40
1
 10
39.418602
 20
25.907728
 30
0.0
 10
39.317994
 20
26.150616
 30
0.0
 10
39.080981
 20
26.308984
 30
0.0
 10
38.818080
 20
26.308984
 30
0.0
  0
SPLINE
  5
112
100
AcDbEntity
  8
Layer_1
 62
7
100
AcDbSpline
 70
8
 71
3
 72
8
 73
4
 74
0
 40
0
 40
0
 40
0
 40
0
 40
1
 40
1
 40
1
 40
1
 10
38.818080
 20
26.308984
 30
0.0
 10
38.459095
 20
26.308984
 30
0.0
 10
38.168080
 20
26.017969
 30
0.0
 10
38.168080
 20
25.658984
 30
0.0
  0
LINE
  5
113
100
AcDbEntity
  8
Layer_1
 62
7
100
AcDbLine
 10
38.168080
 20
25.658984
 30
0.0
 11
38.168080
 21
25.658984
 31
0.0
  0
SPLINE
  5
114
100
AcDbEntity
  8
Layer_1
 62
7
100
AcDbSpline
 70
8
 71
3
 72
8
 73
4
 74
0
 40
0
 40
0
 40
0
 40
0
 40
1
 40
1
 40
1
 40
1
 10
67.951927
 20
99.759004
 30
0.0
 10
67.951927
 20
100.021904
 30
0.0
 10
67.793560
 20
100.258918
 30
0.0
 10
67.550671
 20
100.359525
 30
0.0
  0
SPLINE
  5
115
100
AcDbEntity
  8
Layer_1
 62
7
100
AcDbSpline
 70
8
 71
3
 72
8
 73
4
 74
0
 40
0
 40
0
 40
0
 40
0
 40
1
 40
1
 40
1
 40
1
 10
67.550671
 20
100.359525
 30
0.0
 10
67.307783
 20
100.460133
 30
0.0
 10
67.028206
 20
100.404522
 30
0.0
 10
66.842308
 20
100.218623
 30
0.0
  0
SPLINE
  5
116
100
AcDbEntity
  8
Layer_1
 62
7
100
AcDbSpline
 70
8
 71
3
 72
8
 73
4
 74
0
 40
0
 40
0
 40
0
 40
0
 40
1
 40
1
 40
1
 40
1
 10
66.842308
 20
100.218623
 30
0.0
 10
66.656409
 20
100.032724
 30
0.0
 10
66.600798
 20
99.753148
 30
0.0
 10
66.701405
 20
99.510259
 30
0.0
  0
SPLINE
  5
117
100
AcDbEntity
  8
Layer_1
 62
7
100
AcDbSpline
 70
8
 71
3
 72
8
 73
4
 74
0
 40
0
 40
0
 40
0
 40
0
 40
1
 40
1
 40
1
 40
1
 10
66.701405
 20
99.510259
 30
0.0
 10
66.802013
 20
99.267371
 30
0.0
 10
67.039027
 20
99.109004
 30
0.0
 10
67.301927
 20
99.109004
 30
0.0
  0
SPLINE
  5
118
100
AcDbEntity
  8
Layer_1
 62
7
100
AcDbSpline
 70
8
 71
3
 72
8
 73
4
 74
0
 40
0
 40
0
 40
0
 40
0
 40
1
 40
1
 40
1
 40
1
 10
67.301927
 20
99.109004
 30
0.0
 10
67.474318
 20
99.109004
 30
0.0
 10
67.639648
 20
99.177486
 30
0.0
 10
67.761547
 20
99.299384
 30
0.0
  0
SPLINE
  5
119
100
AcDbEntity
  8
Layer_1
 62
7
100
AcDbSpline
 70
8
 71
3
 72
8
 73
4
 74
0
 40
0
 40
0
 40
0
 40
0
 40
1
 40
1
 40
1
 40
1
 10
67.761547
 20
99.299384
 30
0.0
 10
67.883445
 20
99.421283
 30
0.0
 10
67.951927
 20
99.586613
 30
0.0
 10
67.951927
 20
99.759004
 30
0.0
  0
LINE
  5
11a
100
AcDbEntity
  8
Layer_1
 62
7
100
AcDbLine
 10
67.951927
 20
99.759004
 30
0.0
 11
67.951927
 21
99.759004
 31
0.0
  0
SPLINE
  5
11b
100
AcDbEntity
  8
Layer_1
 62
7
100
AcDbSpline
 70
8
 71
3
 72
8
 73
4
 74
0
 40
0
 40
0
 40
0
 40
0
 40
1
 40
1
 40
1
 40
1
 10
31.935862
 20
82.759001
 30
0.0
 10
31.935862
 20
83.021902
 30
0.0
 10
31.777495
 20
83.258915
 30
0.0
 10
31.534607
 20
83.359523
 30
0.0
  0
SPLINE
  5
11c
100
AcDbEntity
  8
Layer_1
 62
7
100
AcDbSpline
 70
8
 71
3
 72
8
 73
4
 74
0
 40
0
 40
0
 40
0
 40
0
 40
1
 40
1
 40
1
 40
1
 10
31.534607
 20
83.359523
 30
0.0
 10
31.291718
 20
83.460131
 30
0.0
 10
31.012142
 20
83.404520
 30
0.0
 10
30.826243
 20
83.218621
 30
0.0
  0
SPLINE
  5
11d
100
AcDbEntity
  8
Layer_1
 62
7
100
AcDbSpline
 70
8
 71
3
 72
8
 73
4
 74
0
 40
0
 40
0
 40
0
 40
0
 40
1
 40
1
 40
1
 40
1
 10
30.826243
 20
83.218621
 30
0.0
 10
30.640344
 20
83.032722
 30
0.0
 10
30.584733
 20
82.753145
 30
0.0
 10
30.685341
 20
82.510257
 30
0.0
  0
SPLINE
  5
11e
100
AcDbEntity
  8
Layer_1
 62
7
100
AcDbSpline
 70
8
 71
3
 72
8
 73
4
 74
0
 40
0
 40
0
 40
0
 40
0
 40
1
 40
1
 40
1
 40
1
 10
30.685341
 20
82.510257
 30
0.0
 10
30.785948
 20
82.267369
 30
0.0
 10
31.022962
 20
82.109001
 30
0.0
 10
31.285862
 20
82.109001
 30
0.0
  0
SPLINE
  5
11f
100
AcDbEntity
  8
Layer_1
 62
7
100
AcDbSpline
 70
8
 71
3
 72
8
 73
4
 74
0
 40
0
 40
0
 40
0
 40
0
 40
1
 40
1
 40
1
 40
1
 10
31.285862
 20
82.109001
 30
0.0
 10
31.458253
 20
82.109001
 30
0.0
 10
31.623583
 20
82.177483
 30
0.0
 10
31.745482
 20
82.299382
 30
0.0
  0
SPLINE
  5
120
100
AcDbEntity
  8
Layer_1
 62
7
100
AcDbSpline
 70
8
 71
3
 72
8
 73
4
 74
0
 40
0
 40
0
 40
0
 40
0
 40
1
 40
1
 40
1
 40
1
 10
31.745482
 20
82.299382
 30
0.0
 10
31.867380
 20
82.421281
 30
0.0
 10
31.935862
 20
82.586611
 30
0.0
 10
31.935862
 20
82.759001
 30
0.0
  0
LINE
  5
121
100
AcDbEntity
  8
Layer_1
 62
7
100
AcDbLine
 10
31.935862
 20
82.759001
 30
0.0
 11
31.935862
 21
82.759001
 31
0.0
  0
SPLINE
  5
122
100
AcDbEntity
  8
Layer_1
 62
7
100
AcDbSpline
 70
8
 71
3
 72
8
 73
4
 74
0
 40
0
 40
0
 40
0
 40
0
 40
1
 40
1
 40
1
 40
1
 10
103.957013
 20
92.759033
 30
0.0
 10
103.957013
 20
93.021933
 30
0.0
 10
103.798646
 20
93.258947
 30
0.0
 10
103.555757
 20
93.359554
 30
0.0
  0
SPLINE
  5
123
100
AcDbEntity
  8
Layer_1
 62
7
100
AcDbSpline
 70
8
 71
3
 72
8
 73
4
 74
0
 40
0
 40
0
 40
0
 40
0
 40
1
 40
1
 40
1
 40
1
 10
103.555757
 20
93.359554
 30
0.0
 10
103.312869
 20
93.460162
 30
0.0
 10
103.033292
 20
93.404551
 30
0.0
 10
102.847394
 20
93.218652
 30
0.0
  0
SPLINE
  5
124
100
AcDbEntity
  8
Layer_1
 62
7
100
AcDbSpline
 70
8
 71
3
 72
8
 73
4
 74
0
 40
0
 40
0
 40
0
 40
0
 40
1
 40
1
 40
1
 40
1
 10
102.847394
 20
93.218652
 30
0.0
 10
102.661495
 20
93.032753
 30
0.0
 10
102.605884
 20
92.753177
 30
0.0
 10
102.706491
 20
92.510288
 30
0.0
  0
SPLINE
  5
125
100
AcDbEntity
  8
Layer_1
 62
7
100
AcDbSpline
 70
8
 71
3
 72
8
 73
4
 74
0
 40
0
 40
0
 40
0
 40
0
 40
1
 40
1
 40
1
 40
1
 10
102.706491
 20
92.510288
 30
0.0
 10
102.807099
 20
92.267400
 30
0.0
 10
103.044113
 20
92.109033
 30
0.0
 10
103.307013
 20
92.109033
 30
0.0
  0
SPLINE
  5
126
100
AcDbEntity
  8
Layer_1
 62
7
100
AcDbSpline
 70
8
 71
3
 72
8
 73
4
 74
0
 40
0
 40
0
 40
0
 40
0
 40
1
 40
1
 40
1
 40
1
 10
103.307013
 20
92.109033
 30
0.0
 10
103.479404
 20
92.109033
 30
0.0
 10
103.644734
 20
92.177515
 30
0.0
 10
103.766633
 20
92.299413
 30
0.0
  0
SPLINE
  5
127
100
AcDbEntity
  8
Layer_1
 62
7
100
AcDbSpline
 70
8
 71
3
 72
8
 73
4
 74
0
 40
0
 40
0
 40
0
 40
0
 40
1
 40
1
 40
1
 40
1
 10
103.766633
 20
92.299413
 30
0.0
 10
103.888531
 20
92.421312
 30
0.0
 10
103.957013
 20
92.586642
 30
0.0
 10
103.957013
 20
92.759033
 30
0.0
  0
LINE
  5
128
100
AcDbEntity
  8
Layer_1
 62
7
100
AcDbLine
 10
103.957013
 20
92.759033
 30
0.0
 11
103.957013
 21
92.759033
 31
0.0
  0
SPLINE
  5
129
100
AcDbEntity
  8
Layer_1
 62
7
100
AcDbSpline
 70
8
 71
3
 72
8
 73
4
 74
0
 40
0
 40
0
 40
0
 40
0
 40
1
 40
1
 40
1
 40
1
 10
144.381936
 20
85.359022
 30
0.0
 10
144.644836
 20
85.359022
 30
0.0
 10
144.881850
 20
85.200654
 30
0.0
 10
144.982458
 20
84.957766
 30
0.0
  0
SPLINE
  5
12a
100
AcDbEntity
  8
Layer_1
 62
7
100
AcDbSpline
 70
8
 71
3
 72
8
 73
4
 74
0
 40
0
 40
0
 40
0
 40
0
 40
1
 40
1
 40
1
 40
1
 10
144.982458
 20
84.957766
 30
0.0
 10
145.083065
 20
84.714877
 30
0.0
 10
145.027454
 20
84.435301
 30
0.0
 10
144.841555
 20
84.249402
 30
0.0
  0
SPLINE
  5
12b
100
AcDbEntity
  8
Layer_1
 62
7
100
AcDbSpline
 70
8
 71
3
 72
8
 73
4
 74
0
 40
0
 40
0
 40
0
 40
0
 40
1
 40
1
 40
1
 40
1
 10
144.841555
 20
84.249402
 30
0.0
 10
144.655656
 20
84.063503
 30
0.0
 10
144.376080
 20
84.007892
 30
0.0
 10
144.133192
 20
84.108500
 30
0.0
  0
SPLINE
  5
12c
100
AcDbEntity
  8
Layer_1
 62
7
100
AcDbSpline
 70
8
 71
3
 72
8
 73
4
 74
0
 40
0
 40
0
 40
0
 40
0
 40
1
 40
1
 40
1
 40
1
 10
144.133192
 20
84.108500
 30
0.0
 10
143.890303
 20
84.209107
 30
0.0
 10
143.731936
 20
84.446121
 30
0.0
 10
143.731936
 20
84.709022
 30
0.0
  0
SPLINE
  5
12d
100
AcDbEntity
  8
Layer_1
 62
7
100
AcDbSpline
 70
8
 71
3
 72
8
 73
4
 74
0
 40
0
 40
0
 40
0
 40
0
 40
1
 40
1
 40
1
 40
1
 10
143.731936
 20
84.709022
 30
0.0
 10
143.731936
 20
84.881412
 30
0.0
 10
143.800418
 20
85.046742
 30
0.0
 10
143.922316
 20
85.168641
 30
0.0
  0
SPLINE
  5
12e
100
AcDbEntity
  8
Layer_1
 62
7
100
AcDbSpline
 70
8
 71
3
 72
8
 73
4
 74
0
 40
0
 40
0
 40
0
 40
0
 40
1
 40
1
 40
1
 40
1
 10
143.922316
 20
85.168641
 30
0.0
 10
144.044215
 20
85.290540
 30
0.0
 10
144.209545
 20
85.359022
 30
0.0
 10
144.381936
 20
85.359022
 30
0.0
  0
LINE
  5
12f
100
AcDbEntity
  8
Layer_1
 62
7
100
AcDbLine
 10
144.381936
 20
85.359022
 30
0.0
 11
144.381936
 21
85.359022
 31
0.0
  0
SPLINE
  5
130
100
AcDbEntity
  8
Layer_1
 62
7
100
AcDbSpline
 70
8
 71
3
 72
8
 73
4
 74
0
 40
0
 40
0
 40
0
 40
0
 40
1
 40
1
 40
1
 40
1
 10
144.381936
 20
45.358866
 30
0.0
 10
144.644836
 20
45.358866
 30
0.0
 10
144.881850
 20
45.200499
 30
0.0
 10
144.982458
 20
44.957610
 30
0.0
  0
SPLINE
  5
131
100
AcDbEntity
  8
Layer_1
 62
7
100
AcDbSpline
 70
8
 71
3
 72
8
 73
4
 74
0
 40
0
 40
0
 40
0
 40
0
 40
1
 40
1
 40
1
 40
1
 10
144.982458
 20
44.957610
 30
0.0
 10
145.083065
 20
44.714722
 30
0.0
 10
145.027454
 20
44.435145
 30
0.0
 10
144.841555
 20
44.249247
 30
0.0
  0
SPLINE
  5
132
100
AcDbEntity
  8
Layer_1
 62
7
100
AcDbSpline
 70
8
 71
3
 72
8
 73
4
 74
0
 40
0
 40
0
 40
0
 40
0
 40
1
 40
1
 40
1
 40
1
 10
144.841555
 20
44.249247
 30
0.0
 10
144.655656
 20
44.063348
 30
0.0
 10
144.376080
 20
44.007737
 30
0.0
 10
144.133192
 20
44.108344
 30
0.0
  0
SPLINE
  5
133
100
AcDbEntity
  8
Layer_1
 62
7
100
AcDbSpline
 70
8
 71
3
 72
8
 73
4
 74
0
 40
0
 40
0
 40
0
 40
0
 40
1
 40
1
 40
1
 40
1
 10
144.133192
 20
44.108344
 30
0.0
 10
143.890303
 20
44.208952
 30
0.0
 10
143.731936
 20
44.445966
 30
0.0
 10
143.731936
 20
44.708866
 30
0.0
  0
SPLINE
  5
134
100
AcDbEntity
  8
Layer_1
 62
7
100
AcDbSpline
 70
8
 71
3
 72
8
 73
4
 74
0
 40
0
 40
0
 40
0
 40
0
 40
1
 40
1
 40
1
 40
1
 10
143.731936
 20
44.708866
 30
0.0
 10
143.731936
 20
44.881257
 30
0.0
 10
143.800418
 20
45.046587
 30
0.0
 10
143.922316
 20
45.168486
 30
0.0
  0
SPLINE
  5
135
100
AcDbEntity
  8
Layer_1
 62
7
100
AcDbSpline
 70
8
 71
3
 72
8
 73
4
 74
0
 40
0
 40
0
 40
0
 40
0
 40
1
 40
1
 40
1
 40
1
 10
143.922316
 20
45.168486
 30
0.0
 10
144.044215
 20
45.290384
 30
0.0
 10
144.209545
 20
45.358866
 30
0.0
 10
144.381936
 20
45.358866
 30
0.0
  0
LINE
  5
136
100
AcDbEntity
  8
Layer_1
 62
7
100
AcDbLine
 10
144.381936
 20
45.358866
 30
0.0
 11
144.381936
 21
45.358866
 31
0.0
  0
SPLINE
  5
137
100
AcDbEntity
  8
Layer_1
 62
7
100
AcDbSpline
 70
8
 71
3
 72
8
 73
4
 74
0
 40
0
 40
0
 40
0
 40
0
 40
1
 40
1
 40
1
 40
1
 10
138.187603
 20
8.402993
 30
0.0
 10
138.402959
 20
8.252199
 30
0.0
 10
138.687945
 20
8.245981
 30
0.0
 10
138.909673
 20
8.387237
 30
0.0
  0
SPLINE
  5
138
100
AcDbEntity
  8
Layer_1
 62
7
100
AcDbSpline
 70
8
 71
3
 72
8
 73
4
 74
0
 40
0
 40
0
 40
0
 40
0
 40
1
 40
1
 40
1
 40
1
 10
138.909673
 20
8.387237
 30
0.0
 10
139.131401
 20
8.528494
 30
0.0
 10
139.246205
 20
8.789407
 30
0.0
 10
139.200553
 20
9.048313
 30
0.0
  0
SPLINE
  5
139
100
AcDbEntity
  8
Layer_1
 62
7
100
AcDbSpline
 70
8
 71
3
 72
8
 73
4
 74
0
 40
0
 40
0
 40
0
 40
0
 40
1
 40
1
 40
1
 40
1
 10
139.200553
 20
9.048313
 30
0.0
 10
139.154901
 20
9.307219
 30
0.0
 10
138.957782
 20
9.513132
 30
0.0
 10
138.701114
 20
9.570034
 30
0.0
  0
SPLINE
  5
13a
100
AcDbEntity
  8
Layer_1
 62
7
100
AcDbSpline
 70
8
 71
3
 72
8
 73
4
 74
0
 40
0
 40
0
 40
0
 40
0
 40
1
 40
1
 40
1
 40
1
 10
138.701114
 20
9.570034
 30
0.0
 10
138.444445
 20
9.626936
 30
0.0
 10
138.178772
 20
9.523622
 30
0.0
 10
138.027979
 20
9.308266
 30
0.0
  0
SPLINE
  5
13b
100
AcDbEntity
  8
Layer_1
 62
7
100
AcDbSpline
 70
8
 71
3
 72
8
 73
4
 74
0
 40
0
 40
0
 40
0
 40
0
 40
1
 40
1
 40
1
 40
1
 10
138.027979
 20
9.308266
 30
0.0
 10
137.929100
 20
9.167052
 30
0.0
 10
137.890367
 20
8.992342
 30
0.0
 10
137.920303
 20
8.822570
 30
0.0
  0
SPLINE
  5
13c
100
AcDbEntity
  8
Layer_1
 62
7
100
AcDbSpline
 70
8
 71
3
 72
8
 73
4
 74
0
 40
0
 40
0
 40
0
 40
0
 40
1
 40
1
 40
1
 40
1
 10
137.920303
 20
8.822570
 30
0.0
 10
137.950238
 20
8.652799
 30
0.0
 10
138.046389
 20
8.501872
 30
0.0
 10
138.187603
 20
8.402993
 30
0.0
  0
LINE
  5
13d
100
AcDbEntity
  8
Layer_1
 62
7
100
AcDbLine
 10
138.187603
 20
8.402993
 30
0.0
 11
138.187603
 21
8.402993
 31
0.0
  0
ENDSEC
  0
SECTION
  2
OBJECTS
  0
DICTIONARY
  5
C
330
0
100
AcDbDictionary
  3
ACAD_GROUP
350
D
  3
ACAD_MLINESTYLE
350
17
  0
DICTIONARY
  5
D
330
C
100
AcDbDictionary
  0
DICTIONARY
  5
1A
330
C
100
AcDbDictionary
  0
DICTIONARY
  5
17
330
C
100
AcDbDictionary
  3
STANDARD
350
18
  0
DICTIONARY
  5
19
330
C
100
AcDbDictionary
  0
ENDSEC
  0
EOF
