  0
SECTION
  2
HEADER
  9
$ACADVER
  1
AC1014
  9
$HANDSEED
  5
FFFF
  9
$INSUNITS
 70
     4
  9
$MEASUREMENT
 70
     1
  0
ENDSEC
  0
SECTION
  2
TABLES
  0
TABLE
  2
VPORT
  5
8
330
0
100
AcDbSymbolTable
 70
     4
  0
VPORT
  5
2E
330
8
100
AcDbSymbolTableRecord
100
AcDbViewportTableRecord
  2
*ACTIVE
 70
     0
 10
0.0
 20
0.0
 11
1.0
 21
1.0
 12
210.0
 22
148.5
 13
0.0
 23
0.0
 14
10.0
 24
10.0
 15
10.0
 25
10.0
 16
0.0
 26
0.0
 36
1.0
 17
0.0
 27
0.0
 37
0.0
 40
341.0
 41
1.24
 42
50.0
 43
0.0
 44
0.0
 50
0.0
 51
0.0
 71
     0
 72
   100
 73
     1
 74
     3
 75
     0
 76
     0
 77
     0
 78
     0
  0
ENDTAB
  0
TABLE
  2
LTYPE
  5
5
330
0
100
AcDbSymbolTable
 70
     1
  0
LTYPE
  5
14
330
5
100
AcDbSymbolTableRecord
100
AcDbLinetypeTableRecord
  2
BYBLOCK
 70
     0
  3

 72
    65
 73
     0
 40
0.0
  0
LTYPE
  5
15
330
5
100
AcDbSymbolTableRecord
100
AcDbLinetypeTableRecord
  2
BYLAYER
 70
     0
  3

 72
    65
 73
     0
 40
0.0
  0
LTYPE
  5
16
330
5
100
AcDbSymbolTableRecord
100
AcDbLinetypeTableRecord
  2
CONTINUOUS
 70
     0
  3
Solid line
 72
    65
 73
     0
 40
0.0
  0
ENDTAB
  0
TABLE
  2
LAYER
  5
2
100
AcDbSymbolTable
 70
2
  0
LAYER
  5
50
100
AcDbSymbolTableRecord
100
AcDbLayerTableRecord
  2
0
 70
0
  6
CONTINUOUS
  0
LAYER
  5
51
100
AcDbSymbolTableRecord
100
AcDbLayerTableRecord
  2
Layer_1
 70
0
  6
CONTINUOUS
  0
ENDTAB
  0
TABLE
  2
STYLE
  5
3
330
0
100
AcDbSymbolTable
 70
     1
  0
STYLE
  5
11
330
3
100
AcDbSymbolTableRecord
100
AcDbTextStyleTableRecord
  2
STANDARD
 70
     0
 40
0.0
 41
1.0
 50
0.0
 71
     0
 42
2.5
  3
txt
  4

  0
ENDTAB
  0
TABLE
  2
VIEW
  5
6
330
0
100
AcDbSymbolTable
 70
     0
  0
ENDTAB
  0
TABLE
  2
UCS
  5
7
330
0
100
AcDbSymbolTable
 70
     0
  0
ENDTAB
  0
TABLE
  2
APPID
  5
9
330
0
100
AcDbSymbolTable
 70
     2
  0
APPID
  5
12
330
9
100
AcDbSymbolTableRecord
100
AcDbRegAppTableRecord
  2
ACAD
 70
     0
  0
ENDTAB
  0
TABLE
  2
DIMSTYLE
  5
A
330
0
100
AcDbSymbolTable
 70
     1
  0
DIMSTYLE
105
27
330
A
100
AcDbSymbolTableRecord
100
AcDbDimStyleTableRecord
  2
ISO-25
 70
     0
  3

  4

  5

  6

  7

 40
1.0
 41
2.5
 42
0.625
 43
3.75
 44
1.25
 45
0.0
 46
0.0
 47
0.0
 48
0.0
140
2.5
141
2.5
142
0.0
143
0.03937007874016
144
1.0
145
0.0
146
1.0
147
0.625
 71
     0
 72
     0
 73
     0
 74
     0
 75
     0
 76
     0
 77
     1
 78
     8
170
     0
171
     3
172
     1
173
     0
174
     0
175
     0
176
     0
177
     0
178
     0
270
     2
271
     2
272
     2
273
     2
274
     3
340
11
275
     0
280
     0
281
     0
282
     0
283
     0
284
     8
285
     0
286
     0
287
     3
288
     0
  0
ENDTAB
  0
TABLE
  2
BLOCK_RECORD
  5
1
330
0
100
AcDbSymbolTable
 70
     1
  0
BLOCK_RECORD
  5
1F
330
1
100
AcDbSymbolTableRecord
100
AcDbBlockTableRecord
  2
*MODEL_SPACE
  0
BLOCK_RECORD
  5
1B
330
1
100
AcDbSymbolTableRecord
100
AcDbBlockTableRecord
  2
*PAPER_SPACE
  0
ENDTAB
  0
ENDSEC
  0
SECTION
  2
BLOCKS
  0
BLOCK
  5
20
330
1F
100
AcDbEntity
  8
0
100
AcDbBlockBegin
  2
*MODEL_SPACE
 70
     0
 10
0.0
 20
0.0
 30
0.0
  3
*MODEL_SPACE
  1

  0
ENDBLK
  5
21
330
1F
100
AcDbEntity
  8
0
100
AcDbBlockEnd
  0
BLOCK
  5
1C
330
1B
100
AcDbEntity
 67
     1
  8
0
100
AcDbBlockBegin
  2
*PAPER_SPACE
  1

  0
ENDBLK
  5
1D
330
1B
100
AcDbEntity
 67
     1
  8
0
100
AcDbBlockEnd
  0
ENDSEC
  0
SECTION
  2
ENTITIES
  0
LINE
  5
100
100
AcDbEntity
  8
Layer_1
 62
7
100
AcDbLine
 10
1.702164
 20
54.860420
 30
0.0
 11
1.702164
 21
54.858420
 31
0.0
  0
SPLINE
  5
101
100
AcDbEntity
  8
Layer_1
 62
7
100
AcDbSpline
 70
8
 71
3
 72
8
 73
4
 74
0
 40
0
 40
0
 40
0
 40
0
 40
1
 40
1
 40
1
 40
1
 10
1.702164
 20
54.858420
 30
0.0
 10
1.363414
 20
54.832266
 30
0.0
 10
1.101956
 20
54.549638
 30
0.0
 10
1.102201
 20
54.209880
 30
0.0
  0
SPLINE
  5
102
100
AcDbEntity
  8
Layer_1
 62
7
100
AcDbSpline
 70
8
 71
3
 72
8
 73
4
 74
0
 40
0
 40
0
 40
0
 40
0
 40
1
 40
1
 40
1
 40
1
 10
1.102201
 20
54.209880
 30
0.0
 10
1.102228
 20
53.870322
 30
0.0
 10
1.363614
 20
53.587999
 30
0.0
 10
1.702164
 20
53.561860
 30
0.0
  0
LINE
  5
103
100
AcDbEntity
  8
Layer_1
 62
7
100
AcDbLine
 10
1.702164
 20
53.561860
 30
0.0
 11
1.702164
 21
53.559860
 31
0.0
  0
LINE
  5
104
100
AcDbEntity
  8
Layer_1
 62
7
100
AcDbLine
 10
1.702164
 20
53.559860
 30
0.0
 11
1.751774
 21
53.559860
 31
0.0
  0
LINE
  5
105
100
AcDbEntity
  8
Layer_1
 62
7
100
AcDbLine
 10
1.751774
 20
53.559860
 30
0.0
 11
3.001827
 21
53.559860
 31
0.0
  0
LINE
  5
106
100
AcDbEntity
  8
Layer_1
 62
7
100
AcDbLine
 10
3.001827
 20
53.559860
 30
0.0
 11
3.001827
 21
54.860040
 31
0.0
  0
LINE
  5
107
100
AcDbEntity
  8
Layer_1
 62
7
100
AcDbLine
 10
3.001827
 20
54.860040
 30
0.0
 11
1.768827
 21
54.860040
 31
0.0
  0
LINE
  5
108
100
AcDbEntity
  8
Layer_1
 62
7
100
AcDbLine
 10
1.768827
 20
54.860040
 30
0.0
 11
1.751777
 21
54.860040
 31
0.0
  0
LINE
  5
109
100
AcDbEntity
  8
Layer_1
 62
7
100
AcDbLine
 10
1.751777
 20
54.860040
 30
0.0
 11
1.702164
 21
54.860420
 31
0.0
  0
LINE
  5
10a
100
AcDbEntity
  8
Layer_1
 62
7
100
AcDbLine
 10
84.847770
 20
19.483560
 30
0.0
 11
84.849770
 21
19.483560
 31
0.0
  0
SPLINE
  5
10b
100
AcDbEntity
  8
Layer_1
 62
7
100
AcDbSpline
 70
8
 71
3
 72
8
 73
4
 74
0
 40
0
 40
0
 40
0
 40
0
 40
1
 40
1
 40
1
 40
1
 10
84.849770
 20
19.483560
 30
0.0
 10
84.875926
 20
19.144812
 30
0.0
 10
85.158553
 20
18.883355
 30
0.0
 10
85.498310
 20
18.883600
 30
0.0
  0
SPLINE
  5
10c
100
AcDbEntity
  8
Layer_1
 62
7
100
AcDbSpline
 70
8
 71
3
 72
8
 73
4
 74
0
 40
0
 40
0
 40
0
 40
0
 40
1
 40
1
 40
1
 40
1
 10
85.498310
 20
18.883600
 30
0.0
 10
85.837867
 20
18.883627
 30
0.0
 10
86.120189
 20
19.145011
 30
0.0
 10
86.146330
 20
19.483560
 30
0.0
  0
LINE
  5
10d
100
AcDbEntity
  8
Layer_1
 62
7
100
AcDbLine
 10
86.146330
 20
19.483560
 30
0.0
 11
86.148330
 21
19.483560
 31
0.0
  0
LINE
  5
10e
100
AcDbEntity
  8
Layer_1
 62
7
100
AcDbLine
 10
86.148330
 20
19.483560
 30
0.0
 11
86.148330
 21
19.533160
 31
0.0
  0
LINE
  5
10f
100
AcDbEntity
  8
Layer_1
 62
7
100
AcDbLine
 10
86.148330
 20
19.533160
 30
0.0
 11
86.148330
 21
20.783210
 31
0.0
  0
LINE
  5
110
100
AcDbEntity
  8
Layer_1
 62
7
100
AcDbLine
 10
86.148330
 20
20.783210
 30
0.0
 11
84.848150
 21
20.783210
 31
0.0
  0
LINE
  5
111
100
AcDbEntity
  8
Layer_1
 62
7
100
AcDbLine
 10
84.848150
 20
20.783210
 30
0.0
 11
84.848150
 21
19.550210
 31
0.0
  0
LINE
  5
112
100
AcDbEntity
  8
Layer_1
 62
7
100
AcDbLine
 10
84.848150
 20
19.550210
 30
0.0
 11
84.848150
 21
19.533210
 31
0.0
  0
LINE
  5
113
100
AcDbEntity
  8
Layer_1
 62
7
100
AcDbLine
 10
84.848150
 20
19.533210
 30
0.0
 11
84.847770
 21
19.483560
 31
0.0
  0
LINE
  5
114
100
AcDbEntity
  8
Layer_1
 62
7
100
AcDbLine
 10
38.168250
 20
25.610610
 30
0.0
 11
38.170250
 21
25.610610
 31
0.0
  0
SPLINE
  5
115
100
AcDbEntity
  8
Layer_1
 62
7
100
AcDbSpline
 70
8
 71
3
 72
8
 73
4
 74
0
 40
0
 40
0
 40
0
 40
0
 40
1
 40
1
 40
1
 40
1
 10
38.170250
 20
25.610610
 30
0.0
 10
38.196406
 20
25.271862
 30
0.0
 10
38.479033
 20
25.010405
 30
0.0
 10
38.818790
 20
25.010650
 30
0.0
  0
SPLINE
  5
116
100
AcDbEntity
  8
Layer_1
 62
7
100
AcDbSpline
 70
8
 71
3
 72
8
 73
4
 74
0
 40
0
 40
0
 40
0
 40
0
 40
1
 40
1
 40
1
 40
1
 10
38.818790
 20
25.010650
 30
0.0
 10
39.158347
 20
25.010677
 30
0.0
 10
39.440669
 20
25.272061
 30
0.0
 10
39.466810
 20
25.610610
 30
0.0
  0
LINE
  5
117
100
AcDbEntity
  8
Layer_1
 62
7
100
AcDbLine
 10
39.466810
 20
25.610610
 30
0.0
 11
39.468810
 21
25.610610
 31
0.0
  0
LINE
  5
118
100
AcDbEntity
  8
Layer_1
 62
7
100
AcDbLine
 10
39.468810
 20
25.610610
 30
0.0
 11
39.468810
 21
25.660210
 31
0.0
  0
LINE
  5
119
100
AcDbEntity
  8
Layer_1
 62
7
100
AcDbLine
 10
39.468810
 20
25.660210
 30
0.0
 11
39.468810
 21
26.910270
 31
0.0
  0
LINE
  5
11a
100
AcDbEntity
  8
Layer_1
 62
7
100
AcDbLine
 10
39.468810
 20
26.910270
 30
0.0
 11
38.168630
 21
26.910270
 31
0.0
  0
LINE
  5
11b
100
AcDbEntity
  8
Layer_1
 62
7
100
AcDbLine
 10
38.168630
 20
26.910270
 30
0.0
 11
38.168630
 21
25.677270
 31
0.0
  0
LINE
  5
11c
100
AcDbEntity
  8
Layer_1
 62
7
100
AcDbLine
 10
38.168630
 20
25.677270
 30
0.0
 11
38.168630
 21
25.660170
 31
0.0
  0
LINE
  5
11d
100
AcDbEntity
  8
Layer_1
 62
7
100
AcDbLine
 10
38.168630
 20
25.660170
 30
0.0
 11
38.168250
 21
25.610610
 31
0.0
  0
LINE
  5
11e
100
AcDbEntity
  8
Layer_1
 62
7
100
AcDbLine
 10
67.951950
 20
99.810350
 30
0.0
 11
67.949950
 21
99.810350
 31
0.0
  0
SPLINE
  5
11f
100
AcDbEntity
  8
Layer_1
 62
7
100
AcDbSpline
 70
8
 71
3
 72
8
 73
4
 74
0
 40
0
 40
0
 40
0
 40
0
 40
1
 40
1
 40
1
 40
1
 10
67.949950
 20
99.810350
 30
0.0
 10
67.923793
 20
100.149098
 30
0.0
 10
67.641166
 20
100.410553
 30
0.0
 10
67.301410
 20
100.410308
 30
0.0
  0
SPLINE
  5
120
100
AcDbEntity
  8
Layer_1
 62
7
100
AcDbSpline
 70
8
 71
3
 72
8
 73
4
 74
0
 40
0
 40
0
 40
0
 40
0
 40
1
 40
1
 40
1
 40
1
 10
67.301410
 20
100.410308
 30
0.0
 10
66.961854
 20
100.410281
 30
0.0
 10
66.679532
 20
100.148898
 30
0.0
 10
66.653390
 20
99.810350
 30
0.0
  0
LINE
  5
121
100
AcDbEntity
  8
Layer_1
 62
7
100
AcDbLine
 10
66.653390
 20
99.810350
 30
0.0
 11
66.651390
 21
99.810350
 31
0.0
  0
LINE
  5
122
100
AcDbEntity
  8
Layer_1
 62
7
100
AcDbLine
 10
66.651390
 20
99.810350
 30
0.0
 11
66.651390
 21
99.760750
 31
0.0
  0
LINE
  5
123
100
AcDbEntity
  8
Layer_1
 62
7
100
AcDbLine
 10
66.651390
 20
99.760750
 30
0.0
 11
66.651390
 21
98.510690
 31
0.0
  0
LINE
  5
124
100
AcDbEntity
  8
Layer_1
 62
7
100
AcDbLine
 10
66.651390
 20
98.510690
 30
0.0
 11
67.951570
 21
98.510690
 31
0.0
  0
LINE
  5
125
100
AcDbEntity
  8
Layer_1
 62
7
100
AcDbLine
 10
67.951570
 20
98.510690
 30
0.0
 11
67.951570
 21
99.743690
 31
0.0
  0
LINE
  5
126
100
AcDbEntity
  8
Layer_1
 62
7
100
AcDbLine
 10
67.951570
 20
99.743690
 30
0.0
 11
67.951570
 21
99.760690
 31
0.0
  0
LINE
  5
127
100
AcDbEntity
  8
Layer_1
 62
7
100
AcDbLine
 10
67.951570
 20
99.760690
 30
0.0
 11
67.951950
 21
99.810350
 31
0.0
  0
LINE
  5
128
100
AcDbEntity
  8
Layer_1
 62
7
100
AcDbLine
 10
31.935890
 20
82.810350
 30
0.0
 11
31.933890
 21
82.810350
 31
0.0
  0
SPLINE
  5
129
100
AcDbEntity
  8
Layer_1
 62
7
100
AcDbSpline
 70
8
 71
3
 72
8
 73
4
 74
0
 40
0
 40
0
 40
0
 40
0
 40
1
 40
1
 40
1
 40
1
 10
31.933890
 20
82.810350
 30
0.0
 10
31.907734
 20
83.149098
 30
0.0
 10
31.625107
 20
83.410555
 30
0.0
 10
31.285350
 20
83.410310
 30
0.0
  0
SPLINE
  5
12a
100
AcDbEntity
  8
Layer_1
 62
7
100
AcDbSpline
 70
8
 71
3
 72
8
 73
4
 74
0
 40
0
 40
0
 40
0
 40
0
 40
1
 40
1
 40
1
 40
1
 10
31.285350
 20
83.410310
 30
0.0
 10
30.945793
 20
83.410283
 30
0.0
 10
30.663471
 20
83.148899
 30
0.0
 10
30.637330
 20
82.810350
 30
0.0
  0
LINE
  5
12b
100
AcDbEntity
  8
Layer_1
 62
7
100
AcDbLine
 10
30.637330
 20
82.810350
 30
0.0
 11
30.635330
 21
82.810350
 31
0.0
  0
LINE
  5
12c
100
AcDbEntity
  8
Layer_1
 62
7
100
AcDbLine
 10
30.635330
 20
82.810350
 30
0.0
 11
30.635330
 21
82.760750
 31
0.0
  0
LINE
  5
12d
100
AcDbEntity
  8
Layer_1
 62
7
100
AcDbLine
 10
30.635330
 20
82.760750
 30
0.0
 11
30.635330
 21
81.510690
 31
0.0
  0
LINE
  5
12e
100
AcDbEntity
  8
Layer_1
 62
7
100
AcDbLine
 10
30.635330
 20
81.510690
 30
0.0
 11
31.935510
 21
81.510690
 31
0.0
  0
LINE
  5
12f
100
AcDbEntity
  8
Layer_1
 62
7
100
AcDbLine
 10
31.935510
 20
81.510690
 30
0.0
 11
31.935510
 21
82.743690
 31
0.0
  0
LINE
  5
130
100
AcDbEntity
  8
Layer_1
 62
7
100
AcDbLine
 10
31.935510
 20
82.743690
 30
0.0
 11
31.935510
 21
82.760690
 31
0.0
  0
LINE
  5
131
100
AcDbEntity
  8
Layer_1
 62
7
100
AcDbLine
 10
31.935510
 20
82.760690
 30
0.0
 11
31.935890
 21
82.810350
 31
0.0
  0
LINE
  5
132
100
AcDbEntity
  8
Layer_1
 62
7
100
AcDbLine
 10
103.957030
 20
92.810370
 30
0.0
 11
103.955030
 21
92.810370
 31
0.0
  0
SPLINE
  5
133
100
AcDbEntity
  8
Layer_1
 62
7
100
AcDbSpline
 70
8
 71
3
 72
8
 73
4
 74
0
 40
0
 40
0
 40
0
 40
0
 40
1
 40
1
 40
1
 40
1
 10
103.955030
 20
92.810370
 30
0.0
 10
103.928874
 20
93.149118
 30
0.0
 10
103.646247
 20
93.410575
 30
0.0
 10
103.306490
 20
93.410330
 30
0.0
  0
SPLINE
  5
134
100
AcDbEntity
  8
Layer_1
 62
7
100
AcDbSpline
 70
8
 71
3
 72
8
 73
4
 74
0
 40
0
 40
0
 40
0
 40
0
 40
1
 40
1
 40
1
 40
1
 10
103.306490
 20
93.410330
 30
0.0
 10
102.966933
 20
93.410303
 30
0.0
 10
102.684611
 20
93.148919
 30
0.0
 10
102.658470
 20
92.810370
 30
0.0
  0
LINE
  5
135
100
AcDbEntity
  8
Layer_1
 62
7
100
AcDbLine
 10
102.658470
 20
92.810370
 30
0.0
 11
102.656470
 21
92.810370
 31
0.0
  0
LINE
  5
136
100
AcDbEntity
  8
Layer_1
 62
7
100
AcDbLine
 10
102.656470
 20
92.810370
 30
0.0
 11
102.656470
 21
92.760770
 31
0.0
  0
LINE
  5
137
100
AcDbEntity
  8
Layer_1
 62
7
100
AcDbLine
 10
102.656470
 20
92.760770
 30
0.0
 11
102.656470
 21
91.510710
 31
0.0
  0
LINE
  5
138
100
AcDbEntity
  8
Layer_1
 62
7
100
AcDbLine
 10
102.656470
 20
91.510710
 30
0.0
 11
103.956650
 21
91.510710
 31
0.0
  0
LINE
  5
139
100
AcDbEntity
  8
Layer_1
 62
7
100
AcDbLine
 10
103.956650
 20
91.510710
 30
0.0
 11
103.956650
 21
92.743710
 31
0.0
  0
LINE
  5
13a
100
AcDbEntity
  8
Layer_1
 62
7
100
AcDbLine
 10
103.956650
 20
92.743710
 30
0.0
 11
103.956650
 21
92.760810
 31
0.0
  0
LINE
  5
13b
100
AcDbEntity
  8
Layer_1
 62
7
100
AcDbLine
 10
103.956650
 20
92.760810
 30
0.0
 11
103.957030
 21
92.810370
 31
0.0
  0
LINE
  5
13c
100
AcDbEntity
  8
Layer_1
 62
7
100
AcDbLine
 10
144.431890
 20
85.360420
 30
0.0
 11
144.431890
 21
85.358420
 31
0.0
  0
SPLINE
  5
13d
100
AcDbEntity
  8
Layer_1
 62
7
100
AcDbSpline
 70
8
 71
3
 72
8
 73
4
 74
0
 40
0
 40
0
 40
0
 40
0
 40
1
 40
1
 40
1
 40
1
 10
144.431890
 20
85.358420
 30
0.0
 10
144.770638
 20
85.332264
 30
0.0
 10
145.032095
 20
85.049637
 30
0.0
 10
145.031850
 20
84.709880
 30
0.0
  0
SPLINE
  5
13e
100
AcDbEntity
  8
Layer_1
 62
7
100
AcDbSpline
 70
8
 71
3
 72
8
 73
4
 74
0
 40
0
 40
0
 40
0
 40
0
 40
1
 40
1
 40
1
 40
1
 10
145.031850
 20
84.709880
 30
0.0
 10
145.031823
 20
84.370323
 30
0.0
 10
144.770439
 20
84.088001
 30
0.0
 10
144.431890
 20
84.061860
 30
0.0
  0
LINE
  5
13f
100
AcDbEntity
  8
Layer_1
 62
7
100
AcDbLine
 10
144.431890
 20
84.061860
 30
0.0
 11
144.431890
 21
84.059860
 31
0.0
  0
LINE
  5
140
100
AcDbEntity
  8
Layer_1
 62
7
100
AcDbLine
 10
144.431890
 20
84.059860
 30
0.0
 11
144.382290
 21
84.059860
 31
0.0
  0
LINE
  5
141
100
AcDbEntity
  8
Layer_1
 62
7
100
AcDbLine
 10
144.382290
 20
84.059860
 30
0.0
 11
143.132230
 21
84.059860
 31
0.0
  0
LINE
  5
142
100
AcDbEntity
  8
Layer_1
 62
7
100
AcDbLine
 10
143.132230
 20
84.059860
 30
0.0
 11
143.132230
 21
85.360040
 31
0.0
  0
LINE
  5
143
100
AcDbEntity
  8
Layer_1
 62
7
100
AcDbLine
 10
143.132230
 20
85.360040
 30
0.0
 11
144.365230
 21
85.360040
 31
0.0
  0
LINE
  5
144
100
AcDbEntity
  8
Layer_1
 62
7
100
AcDbLine
 10
144.365230
 20
85.360040
 30
0.0
 11
144.382330
 21
85.360040
 31
0.0
  0
LINE
  5
145
100
AcDbEntity
  8
Layer_1
 62
7
100
AcDbLine
 10
144.382330
 20
85.360040
 30
0.0
 11
144.431890
 21
85.360420
 31
0.0
  0
LINE
  5
146
100
AcDbEntity
  8
Layer_1
 62
7
100
AcDbLine
 10
144.431890
 20
45.360280
 30
0.0
 11
144.431890
 21
45.358280
 31
0.0
  0
SPLINE
  5
147
100
AcDbEntity
  8
Layer_1
 62
7
100
AcDbSpline
 70
8
 71
3
 72
8
 73
4
 74
0
 40
0
 40
0
 40
0
 40
0
 40
1
 40
1
 40
1
 40
1
 10
144.431890
 20
45.358280
 30
0.0
 10
144.770638
 20
45.332124
 30
0.0
 10
145.032095
 20
45.049497
 30
0.0
 10
145.031850
 20
44.709740
 30
0.0
  0
SPLINE
  5
148
100
AcDbEntity
  8
Layer_1
 62
7
100
AcDbSpline
 70
8
 71
3
 72
8
 73
4
 74
0
 40
0
 40
0
 40
0
 40
0
 40
1
 40
1
 40
1
 40
1
 10
145.031850
 20
44.709740
 30
0.0
 10
145.031823
 20
44.370183
 30
0.0
 10
144.770439
 20
44.087861
 30
0.0
 10
144.431890
 20
44.061720
 30
0.0
  0
LINE
  5
149
100
AcDbEntity
  8
Layer_1
 62
7
100
AcDbLine
 10
144.431890
 20
44.061720
 30
0.0
 11
144.431890
 21
44.059720
 31
0.0
  0
LINE
  5
14a
100
AcDbEntity
  8
Layer_1
 62
7
100
AcDbLine
 10
144.431890
 20
44.059720
 30
0.0
 11
144.382290
 21
44.059720
 31
0.0
  0
LINE
  5
14b
100
AcDbEntity
  8
Layer_1
 62
7
100
AcDbLine
 10
144.382290
 20
44.059720
 30
0.0
 11
143.132230
 21
44.059720
 31
0.0
  0
LINE
  5
14c
100
AcDbEntity
  8
Layer_1
 62
7
100
AcDbLine
 10
143.132230
 20
44.059720
 30
0.0
 11
143.132230
 21
45.359900
 31
0.0
  0
LINE
  5
14d
100
AcDbEntity
  8
Layer_1
 62
7
100
AcDbLine
 10
143.132230
 20
45.359900
 30
0.0
 11
144.365230
 21
45.359900
 31
0.0
  0
LINE
  5
14e
100
AcDbEntity
  8
Layer_1
 62
7
100
AcDbLine
 10
144.365230
 20
45.359900
 30
0.0
 11
144.382330
 21
45.359900
 31
0.0
  0
LINE
  5
14f
100
AcDbEntity
  8
Layer_1
 62
7
100
AcDbLine
 10
144.382330
 20
45.359900
 30
0.0
 11
144.431890
 21
45.360280
 31
0.0
  0
LINE
  5
150
100
AcDbEntity
  8
Layer_1
 62
7
100
AcDbLine
 10
138.228580
 20
8.375940
 30
0.0
 11
138.229580
 21
8.377940
 31
0.0
  0
SPLINE
  5
151
100
AcDbEntity
  8
Layer_1
 62
7
100
AcDbSpline
 70
8
 71
3
 72
8
 73
4
 74
0
 40
0
 40
0
 40
0
 40
0
 40
1
 40
1
 40
1
 40
1
 10
138.229580
 20
8.377940
 30
0.0
 10
138.522067
 20
8.205063
 30
0.0
 10
138.898351
 20
8.286608
 30
0.0
 10
139.093030
 20
8.565060
 30
0.0
  0
SPLINE
  5
152
100
AcDbEntity
  8
Layer_1
 62
7
100
AcDbSpline
 70
8
 71
3
 72
8
 73
4
 74
0
 40
0
 40
0
 40
0
 40
0
 40
1
 40
1
 40
1
 40
1
 10
139.093030
 20
8.565060
 30
0.0
 10
139.287776
 20
8.843226
 30
0.0
 10
139.235596
 20
9.224422
 30
0.0
 10
138.973260
 20
9.440020
 30
0.0
  0
LINE
  5
153
100
AcDbEntity
  8
Layer_1
 62
7
100
AcDbLine
 10
138.973260
 20
9.440020
 30
0.0
 11
138.974260
 21
9.442020
 31
0.0
  0
LINE
  5
154
100
AcDbEntity
  8
Layer_1
 62
7
100
AcDbLine
 10
138.974260
 20
9.442020
 30
0.0
 11
138.933660
 21
9.470520
 31
0.0
  0
LINE
  5
155
100
AcDbEntity
  8
Layer_1
 62
7
100
AcDbLine
 10
138.933660
 20
9.470520
 30
0.0
 11
137.909670
 21
10.187520
 31
0.0
  0
LINE
  5
156
100
AcDbEntity
  8
Layer_1
 62
7
100
AcDbLine
 10
137.909670
 20
10.187520
 30
0.0
 11
137.163920
 21
9.122470
 31
0.0
  0
LINE
  5
157
100
AcDbEntity
  8
Layer_1
 62
7
100
AcDbLine
 10
137.163920
 20
9.122470
 30
0.0
 11
138.173940
 21
8.415260
 31
0.0
  0
LINE
  5
158
100
AcDbEntity
  8
Layer_1
 62
7
100
AcDbLine
 10
138.173940
 20
8.415260
 30
0.0
 11
138.187940
 21
8.405260
 31
0.0
  0
LINE
  5
159
100
AcDbEntity
  8
Layer_1
 62
7
100
AcDbLine
 10
138.187940
 20
8.405260
 30
0.0
 11
138.228580
 21
8.375940
 31
0.0
  0
ENDSEC
  0
SECTION
  2
OBJECTS
  0
DICTIONARY
  5
C
330
0
100
AcDbDictionary
  3
ACAD_GROUP
350
D
  3
ACAD_MLINESTYLE
350
17
  0
DICTIONARY
  5
D
330
C
100
AcDbDictionary
  0
DICTIONARY
  5
1A
330
C
100
AcDbDictionary
  0
DICTIONARY
  5
17
330
C
100
AcDbDictionary
  3
STANDARD
350
18
  0
DICTIONARY
  5
19
330
C
100
AcDbDictionary
  0
ENDSEC
  0
EOF
