  0
SECTION
  2
HEADER
  9
$ACADVER
  1
AC1014
  9
$HANDSEED
  5
FFFF
  9
$INSUNITS
 70
     4
  9
$MEASUREMENT
 70
     1
  0
ENDSEC
  0
SECTION
  2
TABLES
  0
TABLE
  2
VPORT
  5
8
330
0
100
AcDbSymbolTable
 70
     4
  0
VPORT
  5
2E
330
8
100
AcDbSymbolTableRecord
100
AcDbViewportTableRecord
  2
*ACTIVE
 70
     0
 10
0.0
 20
0.0
 11
1.0
 21
1.0
 12
210.0
 22
148.5
 13
0.0
 23
0.0
 14
10.0
 24
10.0
 15
10.0
 25
10.0
 16
0.0
 26
0.0
 36
1.0
 17
0.0
 27
0.0
 37
0.0
 40
341.0
 41
1.24
 42
50.0
 43
0.0
 44
0.0
 50
0.0
 51
0.0
 71
     0
 72
   100
 73
     1
 74
     3
 75
     0
 76
     0
 77
     0
 78
     0
  0
ENDTAB
  0
TABLE
  2
LTYPE
  5
5
330
0
100
AcDbSymbolTable
 70
     1
  0
LTYPE
  5
14
330
5
100
AcDbSymbolTableRecord
100
AcDbLinetypeTableRecord
  2
BYBLOCK
 70
     0
  3

 72
    65
 73
     0
 40
0.0
  0
LTYPE
  5
15
330
5
100
AcDbSymbolTableRecord
100
AcDbLinetypeTableRecord
  2
BYLAYER
 70
     0
  3

 72
    65
 73
     0
 40
0.0
  0
LTYPE
  5
16
330
5
100
AcDbSymbolTableRecord
100
AcDbLinetypeTableRecord
  2
CONTINUOUS
 70
     0
  3
Solid line
 72
    65
 73
     0
 40
0.0
  0
ENDTAB
  0
TABLE
  2
LAYER
  5
2
100
AcDbSymbolTable
 70
2
  0
LAYER
  5
50
100
AcDbSymbolTableRecord
100
AcDbLayerTableRecord
  2
0
 70
0
  6
CONTINUOUS
  0
LAYER
  5
51
100
AcDbSymbolTableRecord
100
AcDbLayerTableRecord
  2
Layer_1
 70
0
  6
CONTINUOUS
  0
ENDTAB
  0
TABLE
  2
STYLE
  5
3
330
0
100
AcDbSymbolTable
 70
     1
  0
STYLE
  5
11
330
3
100
AcDbSymbolTableRecord
100
AcDbTextStyleTableRecord
  2
STANDARD
 70
     0
 40
0.0
 41
1.0
 50
0.0
 71
     0
 42
2.5
  3
txt
  4

  0
ENDTAB
  0
TABLE
  2
VIEW
  5
6
330
0
100
AcDbSymbolTable
 70
     0
  0
ENDTAB
  0
TABLE
  2
UCS
  5
7
330
0
100
AcDbSymbolTable
 70
     0
  0
ENDTAB
  0
TABLE
  2
APPID
  5
9
330
0
100
AcDbSymbolTable
 70
     2
  0
APPID
  5
12
330
9
100
AcDbSymbolTableRecord
100
AcDbRegAppTableRecord
  2
ACAD
 70
     0
  0
ENDTAB
  0
TABLE
  2
DIMSTYLE
  5
A
330
0
100
AcDbSymbolTable
 70
     1
  0
DIMSTYLE
105
27
330
A
100
AcDbSymbolTableRecord
100
AcDbDimStyleTableRecord
  2
ISO-25
 70
     0
  3

  4

  5

  6

  7

 40
1.0
 41
2.5
 42
0.625
 43
3.75
 44
1.25
 45
0.0
 46
0.0
 47
0.0
 48
0.0
140
2.5
141
2.5
142
0.0
143
0.03937007874016
144
1.0
145
0.0
146
1.0
147
0.625
 71
     0
 72
     0
 73
     0
 74
     0
 75
     0
 76
     0
 77
     1
 78
     8
170
     0
171
     3
172
     1
173
     0
174
     0
175
     0
176
     0
177
     0
178
     0
270
     2
271
     2
272
     2
273
     2
274
     3
340
11
275
     0
280
     0
281
     0
282
     0
283
     0
284
     8
285
     0
286
     0
287
     3
288
     0
  0
ENDTAB
  0
TABLE
  2
BLOCK_RECORD
  5
1
330
0
100
AcDbSymbolTable
 70
     1
  0
BLOCK_RECORD
  5
1F
330
1
100
AcDbSymbolTableRecord
100
AcDbBlockTableRecord
  2
*MODEL_SPACE
  0
BLOCK_RECORD
  5
1B
330
1
100
AcDbSymbolTableRecord
100
AcDbBlockTableRecord
  2
*PAPER_SPACE
  0
ENDTAB
  0
ENDSEC
  0
SECTION
  2
BLOCKS
  0
BLOCK
  5
20
330
1F
100
AcDbEntity
  8
0
100
AcDbBlockBegin
  2
*MODEL_SPACE
 70
     0
 10
0.0
 20
0.0
 30
0.0
  3
*MODEL_SPACE
  1

  0
ENDBLK
  5
21
330
1F
100
AcDbEntity
  8
0
100
AcDbBlockEnd
  0
BLOCK
  5
1C
330
1B
100
AcDbEntity
 67
     1
  8
0
100
AcDbBlockBegin
  2
*PAPER_SPACE
  1

  0
ENDBLK
  5
1D
330
1B
100
AcDbEntity
 67
     1
  8
0
100
AcDbBlockEnd
  0
ENDSEC
  0
SECTION
  2
ENTITIES
  0
SPLINE
  5
100
100
AcDbEntity
  8
Layer_1
 62
7
100
AcDbSpline
 70
8
 71
3
 72
8
 73
4
 74
0
 40
0
 40
0
 40
0
 40
0
 40
1
 40
1
 40
1
 40
1
 10
67.301849
 20
100.408933
 30
0.0
 10
66.962289
 20
100.408906
 30
0.0
 10
66.679969
 20
100.147520
 30
0.0
 10
66.653829
 20
99.808970
 30
0.0
  0
LINE
  5
101
100
AcDbEntity
  8
Layer_1
 62
7
100
AcDbLine
 10
66.653829
 20
99.808970
 30
0.0
 11
66.651829
 21
99.808970
 31
0.0
  0
LINE
  5
102
100
AcDbEntity
  8
Layer_1
 62
7
100
AcDbLine
 10
66.651829
 20
99.808970
 30
0.0
 11
66.651829
 21
99.759360
 31
0.0
  0
LINE
  5
103
100
AcDbEntity
  8
Layer_1
 62
7
100
AcDbLine
 10
66.651829
 20
99.759360
 30
0.0
 11
66.651829
 21
98.509823
 31
0.0
  0
LINE
  5
104
100
AcDbEntity
  8
Layer_1
 62
7
100
AcDbLine
 10
66.651829
 20
98.509823
 30
0.0
 11
59.000098
 21
98.509823
 31
0.0
  0
SPLINE
  5
105
100
AcDbEntity
  8
Layer_1
 62
7
100
AcDbSpline
 70
8
 71
3
 72
8
 73
4
 74
0
 40
0
 40
0
 40
0
 40
0
 40
1
 40
1
 40
1
 40
1
 10
59.000098
 20
98.509823
 30
0.0
 10
57.895628
 20
98.509757
 30
0.0
 10
57.000288
 20
97.614420
 30
0.0
 10
57.000218
 20
96.509945
 30
0.0
  0
LINE
  5
106
100
AcDbEntity
  8
Layer_1
 62
7
100
AcDbLine
 10
57.000218
 20
96.509945
 30
0.0
 11
57.000218
 21
95.510006
 31
0.0
  0
SPLINE
  5
107
100
AcDbEntity
  8
Layer_1
 62
7
100
AcDbSpline
 70
8
 71
3
 72
8
 73
4
 74
0
 40
0
 40
0
 40
0
 40
0
 40
1
 40
1
 40
1
 40
1
 10
57.000218
 20
95.510006
 30
0.0
 10
57.000438
 20
94.405130
 30
0.0
 10
56.104708
 20
93.509397
 30
0.0
 10
54.999828
 20
93.509612
 30
0.0
  0
LINE
  5
108
100
AcDbEntity
  8
Layer_1
 62
7
100
AcDbLine
 10
54.999828
 20
93.509612
 30
0.0
 11
41.000156
 21
93.509612
 31
0.0
  0
SPLINE
  5
109
100
AcDbEntity
  8
Layer_1
 62
7
100
AcDbSpline
 70
8
 71
3
 72
8
 73
4
 74
0
 40
0
 40
0
 40
0
 40
0
 40
1
 40
1
 40
1
 40
1
 10
41.000156
 20
93.509612
 30
0.0
 10
39.895685
 20
93.509540
 30
0.0
 10
39.000355
 20
92.614205
 30
0.0
 10
39.000285
 20
91.509734
 30
0.0
  0
LINE
  5
10a
100
AcDbEntity
  8
Layer_1
 62
7
100
AcDbLine
 10
39.000285
 20
91.509734
 30
0.0
 11
39.000285
 21
83.509703
 31
0.0
  0
SPLINE
  5
10b
100
AcDbEntity
  8
Layer_1
 62
7
100
AcDbSpline
 70
8
 71
3
 72
8
 73
4
 74
0
 40
0
 40
0
 40
0
 40
0
 40
1
 40
1
 40
1
 40
1
 10
39.000285
 20
83.509703
 30
0.0
 10
39.000215
 20
82.405025
 30
0.0
 10
38.104565
 20
81.509604
 30
0.0
 10
36.999885
 20
81.509825
 30
0.0
  0
LINE
  5
10c
100
AcDbEntity
  8
Layer_1
 62
7
100
AcDbLine
 10
36.999885
 20
81.509825
 30
0.0
 11
31.935595
 21
81.509825
 31
0.0
  0
LINE
  5
10d
100
AcDbEntity
  8
Layer_1
 62
7
100
AcDbLine
 10
31.935595
 20
81.509825
 30
0.0
 11
31.935595
 21
82.742308
 31
0.0
  0
LINE
  5
10e
100
AcDbEntity
  8
Layer_1
 62
7
100
AcDbLine
 10
31.935595
 20
82.742308
 30
0.0
 11
31.935595
 21
82.759358
 31
0.0
  0
LINE
  5
10f
100
AcDbEntity
  8
Layer_1
 62
7
100
AcDbLine
 10
31.935595
 20
82.759358
 30
0.0
 11
31.936112
 21
82.808968
 31
0.0
  0
LINE
  5
110
100
AcDbEntity
  8
Layer_1
 62
7
100
AcDbLine
 10
31.936112
 20
82.808968
 30
0.0
 11
31.934012
 21
82.808968
 31
0.0
  0
SPLINE
  5
111
100
AcDbEntity
  8
Layer_1
 62
7
100
AcDbSpline
 70
8
 71
3
 72
8
 73
4
 74
0
 40
0
 40
0
 40
0
 40
0
 40
1
 40
1
 40
1
 40
1
 10
31.934012
 20
82.808968
 30
0.0
 10
31.907862
 20
83.147717
 30
0.0
 10
31.625230
 20
83.409176
 30
0.0
 10
31.285473
 20
83.408931
 30
0.0
  0
SPLINE
  5
112
100
AcDbEntity
  8
Layer_1
 62
7
100
AcDbSpline
 70
8
 71
3
 72
8
 73
4
 74
0
 40
0
 40
0
 40
0
 40
0
 40
1
 40
1
 40
1
 40
1
 10
31.285473
 20
83.408931
 30
0.0
 10
30.945914
 20
83.408906
 30
0.0
 10
30.663589
 20
83.147519
 30
0.0
 10
30.637450
 20
82.808968
 30
0.0
  0
LINE
  5
113
100
AcDbEntity
  8
Layer_1
 62
7
100
AcDbLine
 10
30.637450
 20
82.808968
 30
0.0
 11
30.635350
 21
82.808968
 31
0.0
  0
LINE
  5
114
100
AcDbEntity
  8
Layer_1
 62
7
100
AcDbLine
 10
30.635350
 20
82.808968
 30
0.0
 11
30.635350
 21
82.759358
 31
0.0
  0
LINE
  5
115
100
AcDbEntity
  8
Layer_1
 62
7
100
AcDbLine
 10
30.635350
 20
82.759358
 30
0.0
 11
30.635350
 21
81.509821
 31
0.0
  0
LINE
  5
116
100
AcDbEntity
  8
Layer_1
 62
7
100
AcDbLine
 10
30.635350
 20
81.509821
 30
0.0
 11
23.003774
 21
81.509821
 31
0.0
  0
SPLINE
  5
117
100
AcDbEntity
  8
Layer_1
 62
7
100
AcDbSpline
 70
8
 71
3
 72
8
 73
4
 74
0
 40
0
 40
0
 40
0
 40
0
 40
1
 40
1
 40
1
 40
1
 10
23.003774
 20
81.509821
 30
0.0
 10
21.899107
 20
81.509817
 30
0.0
 10
21.003437
 20
80.614611
 30
0.0
 10
21.002862
 20
79.509944
 30
0.0
  0
LINE
  5
118
100
AcDbEntity
  8
Layer_1
 62
7
100
AcDbLine
 10
21.002862
 20
79.509944
 30
0.0
 11
21.000762
 21
75.009959
 31
0.0
  0
SPLINE
  5
119
100
AcDbEntity
  8
Layer_1
 62
7
100
AcDbSpline
 70
8
 71
3
 72
8
 73
4
 74
0
 40
0
 40
0
 40
0
 40
0
 40
1
 40
1
 40
1
 40
1
 10
21.000762
 20
75.009959
 30
0.0
 10
21.000472
 20
73.905090
 30
0.0
 10
20.104720
 20
73.009569
 30
0.0
 10
18.999851
 20
73.009564
 30
0.0
  0
LINE
  5
11a
100
AcDbEntity
  8
Layer_1
 62
7
100
AcDbLine
 10
18.999851
 20
73.009564
 30
0.0
 11
5.001766
 21
73.009564
 31
0.0
  0
SPLINE
  5
11b
100
AcDbEntity
  8
Layer_1
 62
7
100
AcDbSpline
 70
8
 71
3
 72
8
 73
4
 74
0
 40
0
 40
0
 40
0
 40
0
 40
1
 40
1
 40
1
 40
1
 10
5.001766
 20
73.009564
 30
0.0
 10
3.897292
 20
73.009497
 30
0.0
 10
3.001954
 20
72.114160
 30
0.0
 10
3.001887
 20
71.009686
 30
0.0
  0
LINE
  5
11c
100
AcDbEntity
  8
Layer_1
 62
7
100
AcDbLine
 10
3.001887
 20
71.009686
 30
0.0
 11
3.001887
 21
54.858738
 31
0.0
  0
LINE
  5
11d
100
AcDbEntity
  8
Layer_1
 62
7
100
AcDbLine
 10
3.001887
 20
54.858738
 30
0.0
 11
1.768887
 21
54.858738
 31
0.0
  0
LINE
  5
11e
100
AcDbEntity
  8
Layer_1
 62
7
100
AcDbLine
 10
1.768887
 20
54.858738
 30
0.0
 11
1.751837
 21
54.858738
 31
0.0
  0
LINE
  5
11f
100
AcDbEntity
  8
Layer_1
 62
7
100
AcDbLine
 10
1.751837
 20
54.858738
 30
0.0
 11
1.702227
 21
54.858738
 31
0.0
  0
LINE
  5
120
100
AcDbEntity
  8
Layer_1
 62
7
100
AcDbLine
 10
1.702227
 20
54.858738
 30
0.0
 11
1.702227
 21
54.856738
 31
0.0
  0
SPLINE
  5
121
100
AcDbEntity
  8
Layer_1
 62
7
100
AcDbSpline
 70
8
 71
3
 72
8
 73
4
 74
0
 40
0
 40
0
 40
0
 40
0
 40
1
 40
1
 40
1
 40
1
 10
1.702227
 20
54.856738
 30
0.0
 10
1.363477
 20
54.830538
 30
0.0
 10
1.102018
 20
54.547957
 30
0.0
 10
1.102263
 20
54.208197
 30
0.0
  0
SPLINE
  5
122
100
AcDbEntity
  8
Layer_1
 62
7
100
AcDbSpline
 70
8
 71
3
 72
8
 73
4
 74
0
 40
0
 40
0
 40
0
 40
0
 40
1
 40
1
 40
1
 40
1
 10
1.102263
 20
54.208197
 30
0.0
 10
1.102290
 20
53.868637
 30
0.0
 10
1.363676
 20
53.586317
 30
0.0
 10
1.702227
 20
53.560177
 30
0.0
  0
LINE
  5
123
100
AcDbEntity
  8
Layer_1
 62
7
100
AcDbLine
 10
1.702227
 20
53.560177
 30
0.0
 11
1.702227
 21
53.558177
 31
0.0
  0
LINE
  5
124
100
AcDbEntity
  8
Layer_1
 62
7
100
AcDbLine
 10
1.702227
 20
53.558177
 30
0.0
 11
1.751837
 21
53.558177
 31
0.0
  0
LINE
  5
125
100
AcDbEntity
  8
Layer_1
 62
7
100
AcDbLine
 10
1.751837
 20
53.558177
 30
0.0
 11
3.001890
 21
53.558177
 31
0.0
  0
LINE
  5
126
100
AcDbEntity
  8
Layer_1
 62
7
100
AcDbLine
 10
3.001890
 20
53.558177
 30
0.0
 11
3.001890
 21
37.407735
 31
0.0
  0
SPLINE
  5
127
100
AcDbEntity
  8
Layer_1
 62
7
100
AcDbSpline
 70
8
 71
3
 72
8
 73
4
 74
0
 40
0
 40
0
 40
0
 40
0
 40
1
 40
1
 40
1
 40
1
 10
3.001890
 20
37.407735
 30
0.0
 10
3.001962
 20
36.303265
 30
0.0
 10
3.897298
 20
35.407935
 30
0.0
 10
5.001769
 20
35.407865
 30
0.0
  0
LINE
  5
128
100
AcDbEntity
  8
Layer_1
 62
7
100
AcDbLine
 10
5.001769
 20
35.407865
 30
0.0
 11
18.999883
 21
35.407865
 31
0.0
  0
SPLINE
  5
129
100
AcDbEntity
  8
Layer_1
 62
7
100
AcDbSpline
 70
8
 71
3
 72
8
 73
4
 74
0
 40
0
 40
0
 40
0
 40
0
 40
1
 40
1
 40
1
 40
1
 10
18.999883
 20
35.407865
 30
0.0
 10
20.104551
 20
35.407865
 30
0.0
 10
21.000220
 20
34.512655
 30
0.0
 10
21.000794
 20
33.407985
 30
0.0
  0
LINE
  5
12a
100
AcDbEntity
  8
Layer_1
 62
7
100
AcDbLine
 10
21.000794
 20
33.407985
 30
0.0
 11
21.002894
 21
28.907994
 31
0.0
  0
SPLINE
  5
12b
100
AcDbEntity
  8
Layer_1
 62
7
100
AcDbSpline
 70
8
 71
3
 72
8
 73
4
 74
0
 40
0
 40
0
 40
0
 40
0
 40
1
 40
1
 40
1
 40
1
 10
21.002894
 20
28.907994
 30
0.0
 10
21.003473
 20
27.803334
 30
0.0
 10
21.899141
 20
26.908124
 30
0.0
 10
23.003806
 20
26.908124
 30
0.0
  0
LINE
  5
12c
100
AcDbEntity
  8
Layer_1
 62
7
100
AcDbLine
 10
23.003806
 20
26.908124
 30
0.0
 11
38.168775
 21
26.908124
 31
0.0
  0
LINE
  5
12d
100
AcDbEntity
  8
Layer_1
 62
7
100
AcDbLine
 10
38.168775
 20
26.908124
 30
0.0
 11
38.168775
 21
25.675634
 31
0.0
  0
LINE
  5
12e
100
AcDbEntity
  8
Layer_1
 62
7
100
AcDbLine
 10
38.168775
 20
25.675634
 30
0.0
 11
38.168775
 21
25.658534
 31
0.0
  0
LINE
  5
12f
100
AcDbEntity
  8
Layer_1
 62
7
100
AcDbLine
 10
38.168775
 20
25.658534
 30
0.0
 11
38.168265
 21
25.608934
 31
0.0
  0
LINE
  5
130
100
AcDbEntity
  8
Layer_1
 62
7
100
AcDbLine
 10
38.168265
 20
25.608934
 30
0.0
 11
38.170265
 21
25.608934
 31
0.0
  0
SPLINE
  5
131
100
AcDbEntity
  8
Layer_1
 62
7
100
AcDbSpline
 70
8
 71
3
 72
8
 73
4
 74
0
 40
0
 40
0
 40
0
 40
0
 40
1
 40
1
 40
1
 40
1
 10
38.170265
 20
25.608934
 30
0.0
 10
38.196465
 20
25.270183
 30
0.0
 10
38.479045
 20
25.008723
 30
0.0
 10
38.818805
 20
25.008973
 30
0.0
  0
SPLINE
  5
132
100
AcDbEntity
  8
Layer_1
 62
7
100
AcDbSpline
 70
8
 71
3
 72
8
 73
4
 74
0
 40
0
 40
0
 40
0
 40
0
 40
1
 40
1
 40
1
 40
1
 10
38.818805
 20
25.008973
 30
0.0
 10
39.158365
 20
25.009003
 30
0.0
 10
39.440685
 20
25.270383
 30
0.0
 10
39.466825
 20
25.608934
 30
0.0
  0
LINE
  5
133
100
AcDbEntity
  8
Layer_1
 62
7
100
AcDbLine
 10
39.466825
 20
25.608934
 30
0.0
 11
39.468825
 21
25.608934
 31
0.0
  0
LINE
  5
134
100
AcDbEntity
  8
Layer_1
 62
7
100
AcDbLine
 10
39.468825
 20
25.608934
 30
0.0
 11
39.468825
 21
25.658534
 31
0.0
  0
LINE
  5
135
100
AcDbEntity
  8
Layer_1
 62
7
100
AcDbLine
 10
39.468825
 20
25.658534
 30
0.0
 11
39.468825
 21
26.908074
 31
0.0
  0
LINE
  5
136
100
AcDbEntity
  8
Layer_1
 62
7
100
AcDbLine
 10
39.468825
 20
26.908074
 30
0.0
 11
44.487646
 21
26.908074
 31
0.0
  0
SPLINE
  5
137
100
AcDbEntity
  8
Layer_1
 62
7
100
AcDbSpline
 70
8
 71
3
 72
8
 73
4
 74
0
 40
0
 40
0
 40
0
 40
0
 40
1
 40
1
 40
1
 40
1
 10
44.487646
 20
26.908074
 30
0.0
 10
51.655937
 20
26.908074
 30
0.0
 10
58.541788
 20
24.113243
 30
0.0
 10
63.682339
 20
19.117333
 30
0.0
  0
LINE
  5
138
100
AcDbEntity
  8
Layer_1
 62
7
100
AcDbLine
 10
63.682339
 20
19.117333
 30
0.0
 11
63.802229
 21
19.001063
 31
0.0
  0
SPLINE
  5
139
100
AcDbEntity
  8
Layer_1
 62
7
100
AcDbSpline
 70
8
 71
3
 72
8
 73
4
 74
0
 40
0
 40
0
 40
0
 40
0
 40
1
 40
1
 40
1
 40
1
 10
63.802229
 20
19.001063
 30
0.0
 10
64.560799
 20
18.171532
 30
0.0
 10
65.707059
 20
17.814382
 30
0.0
 10
66.802559
 20
18.066232
 30
0.0
  0
SPLINE
  5
13a
100
AcDbEntity
  8
Layer_1
 62
7
100
AcDbSpline
 70
8
 71
3
 72
8
 73
4
 74
0
 40
0
 40
0
 40
0
 40
0
 40
1
 40
1
 40
1
 40
1
 10
66.802559
 20
18.066232
 30
0.0
 10
73.580900
 20
19.859213
 30
0.0
 10
79.333101
 20
20.678453
 30
0.0
 10
84.848492
 20
20.770463
 30
0.0
  0
LINE
  5
13b
100
AcDbEntity
  8
Layer_1
 62
7
100
AcDbLine
 10
84.848492
 20
20.770463
 30
0.0
 11
84.848492
 21
19.548313
 31
0.0
  0
LINE
  5
13c
100
AcDbEntity
  8
Layer_1
 62
7
100
AcDbLine
 10
84.848492
 20
19.548313
 30
0.0
 11
84.848492
 21
19.531313
 31
0.0
  0
LINE
  5
13d
100
AcDbEntity
  8
Layer_1
 62
7
100
AcDbLine
 10
84.848492
 20
19.531313
 30
0.0
 11
84.847972
 21
19.481713
 31
0.0
  0
LINE
  5
13e
100
AcDbEntity
  8
Layer_1
 62
7
100
AcDbLine
 10
84.847972
 20
19.481713
 30
0.0
 11
84.849972
 21
19.481713
 31
0.0
  0
SPLINE
  5
13f
100
AcDbEntity
  8
Layer_1
 62
7
100
AcDbSpline
 70
8
 71
3
 72
8
 73
4
 74
0
 40
0
 40
0
 40
0
 40
0
 40
1
 40
1
 40
1
 40
1
 10
84.849972
 20
19.481713
 30
0.0
 10
84.876172
 20
19.142963
 30
0.0
 10
85.158752
 20
18.881503
 30
0.0
 10
85.498512
 20
18.881743
 30
0.0
  0
SPLINE
  5
140
100
AcDbEntity
  8
Layer_1
 62
7
100
AcDbSpline
 70
8
 71
3
 72
8
 73
4
 74
0
 40
0
 40
0
 40
0
 40
0
 40
1
 40
1
 40
1
 40
1
 10
85.498512
 20
18.881743
 30
0.0
 10
85.838072
 20
18.881773
 30
0.0
 10
86.120392
 20
19.143163
 30
0.0
 10
86.146532
 20
19.481713
 30
0.0
  0
LINE
  5
141
100
AcDbEntity
  8
Layer_1
 62
7
100
AcDbLine
 10
86.146532
 20
19.481713
 30
0.0
 11
86.148532
 21
19.481713
 31
0.0
  0
LINE
  5
142
100
AcDbEntity
  8
Layer_1
 62
7
100
AcDbLine
 10
86.148532
 20
19.481713
 30
0.0
 11
86.148532
 21
19.531313
 31
0.0
  0
LINE
  5
143
100
AcDbEntity
  8
Layer_1
 62
7
100
AcDbLine
 10
86.148532
 20
19.531313
 30
0.0
 11
86.148532
 21
20.778773
 31
0.0
  0
SPLINE
  5
144
100
AcDbEntity
  8
Layer_1
 62
7
100
AcDbSpline
 70
8
 71
3
 72
8
 73
4
 74
0
 40
0
 40
0
 40
0
 40
0
 40
1
 40
1
 40
1
 40
1
 10
86.148532
 20
20.778773
 30
0.0
 10
87.278082
 20
20.774773
 30
0.0
 10
88.400972
 20
20.742873
 30
0.0
 10
89.522482
 20
20.680073
 30
0.0
  0
SPLINE
  5
145
100
AcDbEntity
  8
Layer_1
 62
7
100
AcDbSpline
 70
8
 71
3
 72
8
 73
4
 74
0
 40
0
 40
0
 40
0
 40
0
 40
1
 40
1
 40
1
 40
1
 10
89.522482
 20
20.680073
 30
0.0
 10
90.625282
 20
20.618273
 30
0.0
 10
92.409763
 20
20.463793
 30
0.0
 10
93.506743
 20
20.334873
 30
0.0
  0
SPLINE
  5
146
100
AcDbEntity
  8
Layer_1
 62
7
100
AcDbSpline
 70
8
 71
3
 72
8
 73
4
 74
0
 40
0
 40
0
 40
0
 40
0
 40
1
 40
1
 40
1
 40
1
 10
93.506743
 20
20.334873
 30
0.0
 10
106.971895
 20
18.752353
 30
0.0
 10
119.663736
 20
13.142432
 30
0.0
 10
129.910208
 20
4.217511
 30
0.0
  0
SPLINE
  5
147
100
AcDbEntity
  8
Layer_1
 62
7
100
AcDbSpline
 70
8
 71
3
 72
8
 73
4
 74
0
 40
0
 40
0
 40
0
 40
0
 40
1
 40
1
 40
1
 40
1
 10
129.910208
 20
4.217511
 30
0.0
 10
129.920808
 20
4.208511
 30
0.0
 10
129.938308
 20
4.193111
 30
0.0
 10
129.949008
 20
4.183911
 30
0.0
  0
LINE
  5
148
100
AcDbEntity
  8
Layer_1
 62
7
100
AcDbLine
 10
129.949008
 20
4.183911
 30
0.0
 11
130.222888
 21
3.945171
 31
0.0
  0
SPLINE
  5
149
100
AcDbEntity
  8
Layer_1
 62
7
100
AcDbSpline
 70
8
 71
3
 72
8
 73
4
 74
0
 40
0
 40
0
 40
0
 40
0
 40
1
 40
1
 40
1
 40
1
 10
130.222888
 20
3.945171
 30
0.0
 10
131.318928
 20
2.989870
 30
0.0
 10
133.001008
 20
3.194090
 30
0.0
 10
133.836618
 20
4.383901
 30
0.0
  0
LINE
  5
14a
100
AcDbEntity
  8
Layer_1
 62
7
100
AcDbLine
 10
133.836618
 20
4.383901
 30
0.0
 11
137.164069
 21
9.120561
 31
0.0
  0
LINE
  5
14b
100
AcDbEntity
  8
Layer_1
 62
7
100
AcDbLine
 10
137.164069
 20
9.120561
 30
0.0
 11
138.173829
 21
8.413631
 31
0.0
  0
LINE
  5
14c
100
AcDbEntity
  8
Layer_1
 62
7
100
AcDbLine
 10
138.173829
 20
8.413631
 30
0.0
 11
138.187729
 21
8.403331
 31
0.0
  0
LINE
  5
14d
100
AcDbEntity
  8
Layer_1
 62
7
100
AcDbLine
 10
138.187729
 20
8.403331
 30
0.0
 11
138.228529
 21
8.373931
 31
0.0
  0
LINE
  5
14e
100
AcDbEntity
  8
Layer_1
 62
7
100
AcDbLine
 10
138.228529
 20
8.373931
 30
0.0
 11
138.229529
 21
8.375931
 31
0.0
  0
SPLINE
  5
14f
100
AcDbEntity
  8
Layer_1
 62
7
100
AcDbSpline
 70
8
 71
3
 72
8
 73
4
 74
0
 40
0
 40
0
 40
0
 40
0
 40
1
 40
1
 40
1
 40
1
 10
138.229529
 20
8.375931
 30
0.0
 10
138.522019
 20
8.203001
 30
0.0
 10
138.898339
 20
8.284531
 30
0.0
 10
139.093039
 20
8.563001
 30
0.0
  0
SPLINE
  5
150
100
AcDbEntity
  8
Layer_1
 62
7
100
AcDbSpline
 70
8
 71
3
 72
8
 73
4
 74
0
 40
0
 40
0
 40
0
 40
0
 40
1
 40
1
 40
1
 40
1
 10
139.093039
 20
8.563001
 30
0.0
 10
139.288039
 20
8.841281
 30
0.0
 10
139.235789
 20
9.222791
 30
0.0
 10
138.973149
 20
9.438401
 30
0.0
  0
LINE
  5
151
100
AcDbEntity
  8
Layer_1
 62
7
100
AcDbLine
 10
138.973149
 20
9.438401
 30
0.0
 11
138.974149
 21
9.440401
 31
0.0
  0
LINE
  5
152
100
AcDbEntity
  8
Layer_1
 62
7
100
AcDbLine
 10
138.974149
 20
9.440401
 30
0.0
 11
138.933349
 21
9.469301
 31
0.0
  0
LINE
  5
153
100
AcDbEntity
  8
Layer_1
 62
7
100
AcDbLine
 10
138.933349
 20
9.469301
 30
0.0
 11
137.910159
 21
10.185541
 31
0.0
  0
LINE
  5
154
100
AcDbEntity
  8
Layer_1
 62
7
100
AcDbLine
 10
137.910159
 20
10.185541
 30
0.0
 11
141.983289
 21
15.986222
 31
0.0
  0
SPLINE
  5
155
100
AcDbEntity
  8
Layer_1
 62
7
100
AcDbSpline
 70
8
 71
3
 72
8
 73
4
 74
0
 40
0
 40
0
 40
0
 40
0
 40
1
 40
1
 40
1
 40
1
 10
141.983289
 20
15.986222
 30
0.0
 10
142.731310
 20
17.051502
 30
0.0
 10
143.132640
 20
18.321533
 30
0.0
 10
143.132580
 20
19.623203
 30
0.0
  0
LINE
  5
156
100
AcDbEntity
  8
Layer_1
 62
7
100
AcDbLine
 10
143.132580
 20
19.623203
 30
0.0
 11
143.132580
 21
44.058406
 31
0.0
  0
LINE
  5
157
100
AcDbEntity
  8
Layer_1
 62
7
100
AcDbLine
 10
143.132580
 20
44.058406
 30
0.0
 11
144.382110
 21
44.058406
 31
0.0
  0
LINE
  5
158
100
AcDbEntity
  8
Layer_1
 62
7
100
AcDbLine
 10
144.382110
 20
44.058406
 30
0.0
 11
144.431710
 21
44.058406
 31
0.0
  0
LINE
  5
159
100
AcDbEntity
  8
Layer_1
 62
7
100
AcDbLine
 10
144.431710
 20
44.058406
 30
0.0
 11
144.431710
 21
44.060406
 31
0.0
  0
SPLINE
  5
15a
100
AcDbEntity
  8
Layer_1
 62
7
100
AcDbSpline
 70
8
 71
3
 72
8
 73
4
 74
0
 40
0
 40
0
 40
0
 40
0
 40
1
 40
1
 40
1
 40
1
 10
144.431710
 20
44.060406
 30
0.0
 10
144.770260
 20
44.086506
 30
0.0
 10
145.031650
 20
44.368866
 30
0.0
 10
145.031680
 20
44.708426
 30
0.0
  0
SPLINE
  5
15b
100
AcDbEntity
  8
Layer_1
 62
7
100
AcDbSpline
 70
8
 71
3
 72
8
 73
4
 74
0
 40
0
 40
0
 40
0
 40
0
 40
1
 40
1
 40
1
 40
1
 10
145.031680
 20
44.708426
 30
0.0
 10
145.031920
 20
45.048186
 30
0.0
 10
144.770460
 20
45.330816
 30
0.0
 10
144.431710
 20
45.356966
 30
0.0
  0
LINE
  5
15c
100
AcDbEntity
  8
Layer_1
 62
7
100
AcDbLine
 10
144.431710
 20
45.356966
 30
0.0
 11
144.431710
 21
45.358966
 31
0.0
  0
LINE
  5
15d
100
AcDbEntity
  8
Layer_1
 62
7
100
AcDbLine
 10
144.431710
 20
45.358966
 30
0.0
 11
144.382110
 21
45.358446
 31
0.0
  0
LINE
  5
15e
100
AcDbEntity
  8
Layer_1
 62
7
100
AcDbLine
 10
144.382110
 20
45.358446
 30
0.0
 11
144.365010
 21
45.358446
 31
0.0
  0
LINE
  5
15f
100
AcDbEntity
  8
Layer_1
 62
7
100
AcDbLine
 10
144.365010
 20
45.358446
 30
0.0
 11
143.132530
 21
45.358446
 31
0.0
  0
LINE
  5
160
100
AcDbEntity
  8
Layer_1
 62
7
100
AcDbLine
 10
143.132530
 20
45.358446
 30
0.0
 11
143.132530
 21
84.058508
 31
0.0
  0
LINE
  5
161
100
AcDbEntity
  8
Layer_1
 62
7
100
AcDbLine
 10
143.132530
 20
84.058508
 30
0.0
 11
144.382060
 21
84.058508
 31
0.0
  0
LINE
  5
162
100
AcDbEntity
  8
Layer_1
 62
7
100
AcDbLine
 10
144.382060
 20
84.058508
 30
0.0
 11
144.431660
 21
84.058508
 31
0.0
  0
LINE
  5
163
100
AcDbEntity
  8
Layer_1
 62
7
100
AcDbLine
 10
144.431660
 20
84.058508
 30
0.0
 11
144.431660
 21
84.060608
 31
0.0
  0
SPLINE
  5
164
100
AcDbEntity
  8
Layer_1
 62
7
100
AcDbSpline
 70
8
 71
3
 72
8
 73
4
 74
0
 40
0
 40
0
 40
0
 40
0
 40
1
 40
1
 40
1
 40
1
 10
144.431660
 20
84.060608
 30
0.0
 10
144.770210
 20
84.086748
 30
0.0
 10
145.031600
 20
84.369070
 30
0.0
 10
145.031630
 20
84.708631
 30
0.0
  0
SPLINE
  5
165
100
AcDbEntity
  8
Layer_1
 62
7
100
AcDbSpline
 70
8
 71
3
 72
8
 73
4
 74
0
 40
0
 40
0
 40
0
 40
0
 40
1
 40
1
 40
1
 40
1
 10
145.031630
 20
84.708631
 30
0.0
 10
145.031870
 20
85.048391
 30
0.0
 10
144.770410
 20
85.331019
 30
0.0
 10
144.431660
 20
85.357170
 30
0.0
  0
LINE
  5
166
100
AcDbEntity
  8
Layer_1
 62
7
100
AcDbLine
 10
144.431660
 20
85.357170
 30
0.0
 11
144.431660
 21
85.359270
 31
0.0
  0
LINE
  5
167
100
AcDbEntity
  8
Layer_1
 62
7
100
AcDbLine
 10
144.431660
 20
85.359270
 30
0.0
 11
144.382060
 21
85.358753
 31
0.0
  0
LINE
  5
168
100
AcDbEntity
  8
Layer_1
 62
7
100
AcDbLine
 10
144.382060
 20
85.358753
 30
0.0
 11
144.364960
 21
85.358753
 31
0.0
  0
LINE
  5
169
100
AcDbEntity
  8
Layer_1
 62
7
100
AcDbLine
 10
144.364960
 20
85.358753
 30
0.0
 11
143.132480
 21
85.358753
 31
0.0
  0
LINE
  5
16a
100
AcDbEntity
  8
Layer_1
 62
7
100
AcDbLine
 10
143.132480
 20
85.358753
 30
0.0
 11
143.132480
 21
89.509921
 31
0.0
  0
SPLINE
  5
16b
100
AcDbEntity
  8
Layer_1
 62
7
100
AcDbSpline
 70
8
 71
3
 72
8
 73
4
 74
0
 40
0
 40
0
 40
0
 40
0
 40
1
 40
1
 40
1
 40
1
 10
143.132480
 20
89.509921
 30
0.0
 10
143.132410
 20
90.614396
 30
0.0
 10
142.237069
 20
91.509734
 30
0.0
 10
141.132599
 20
91.509800
 30
0.0
  0
LINE
  5
16c
100
AcDbEntity
  8
Layer_1
 62
7
100
AcDbLine
 10
141.132599
 20
91.509800
 30
0.0
 11
103.956574
 21
91.509800
 31
0.0
  0
LINE
  5
16d
100
AcDbEntity
  8
Layer_1
 62
7
100
AcDbLine
 10
103.956574
 20
91.509800
 30
0.0
 11
103.956574
 21
92.742283
 31
0.0
  0
LINE
  5
16e
100
AcDbEntity
  8
Layer_1
 62
7
100
AcDbLine
 10
103.956574
 20
92.742283
 30
0.0
 11
103.956574
 21
92.759333
 31
0.0
  0
LINE
  5
16f
100
AcDbEntity
  8
Layer_1
 62
7
100
AcDbLine
 10
103.956574
 20
92.759333
 30
0.0
 11
103.957084
 21
92.808943
 31
0.0
  0
LINE
  5
170
100
AcDbEntity
  8
Layer_1
 62
7
100
AcDbLine
 10
103.957084
 20
92.808943
 30
0.0
 11
103.955084
 21
92.808943
 31
0.0
  0
SPLINE
  5
171
100
AcDbEntity
  8
Layer_1
 62
7
100
AcDbSpline
 70
8
 71
3
 72
8
 73
4
 74
0
 40
0
 40
0
 40
0
 40
0
 40
1
 40
1
 40
1
 40
1
 10
103.955084
 20
92.808943
 30
0.0
 10
103.928884
 20
93.147689
 30
0.0
 10
103.646304
 20
93.409147
 30
0.0
 10
103.306554
 20
93.408907
 30
0.0
  0
SPLINE
  5
172
100
AcDbEntity
  8
Layer_1
 62
7
100
AcDbSpline
 70
8
 71
3
 72
8
 73
4
 74
0
 40
0
 40
0
 40
0
 40
0
 40
1
 40
1
 40
1
 40
1
 10
103.306554
 20
93.408907
 30
0.0
 10
102.966994
 20
93.408885
 30
0.0
 10
102.684664
 20
93.147497
 30
0.0
 10
102.658524
 20
92.808943
 30
0.0
  0
LINE
  5
173
100
AcDbEntity
  8
Layer_1
 62
7
100
AcDbLine
 10
102.658524
 20
92.808943
 30
0.0
 11
102.656524
 21
92.808943
 31
0.0
  0
LINE
  5
174
100
AcDbEntity
  8
Layer_1
 62
7
100
AcDbLine
 10
102.656524
 20
92.808943
 30
0.0
 11
102.656524
 21
92.759333
 31
0.0
  0
LINE
  5
175
100
AcDbEntity
  8
Layer_1
 62
7
100
AcDbLine
 10
102.656524
 20
92.759333
 30
0.0
 11
102.656524
 21
91.509797
 31
0.0
  0
LINE
  5
176
100
AcDbEntity
  8
Layer_1
 62
7
100
AcDbLine
 10
102.656524
 20
91.509797
 30
0.0
 11
96.865143
 21
91.509797
 31
0.0
  0
SPLINE
  5
177
100
AcDbEntity
  8
Layer_1
 62
7
100
AcDbSpline
 70
8
 71
3
 72
8
 73
4
 74
0
 40
0
 40
0
 40
0
 40
0
 40
1
 40
1
 40
1
 40
1
 10
96.865143
 20
91.509797
 30
0.0
 10
96.140933
 20
91.509940
 30
0.0
 10
95.457913
 20
91.846584
 30
0.0
 10
95.016673
 20
92.420852
 30
0.0
  0
LINE
  5
178
100
AcDbEntity
  8
Layer_1
 62
7
100
AcDbLine
 10
95.016673
 20
92.420852
 30
0.0
 11
94.999073
 21
92.443592
 31
0.0
  0
SPLINE
  5
179
100
AcDbEntity
  8
Layer_1
 62
7
100
AcDbSpline
 70
8
 71
3
 72
8
 73
4
 74
0
 40
0
 40
0
 40
0
 40
0
 40
1
 40
1
 40
1
 40
1
 10
94.999073
 20
92.443592
 30
0.0
 10
94.482233
 20
93.115872
 30
0.0
 10
93.682343
 20
93.509807
 30
0.0
 10
92.834353
 20
93.509677
 30
0.0
  0
LINE
  5
17a
100
AcDbEntity
  8
Layer_1
 62
7
100
AcDbLine
 10
92.834353
 20
93.509677
 30
0.0
 11
79.601561
 21
93.509677
 31
0.0
  0
SPLINE
  5
17b
100
AcDbEntity
  8
Layer_1
 62
7
100
AcDbSpline
 70
8
 71
3
 72
8
 73
4
 74
0
 40
0
 40
0
 40
0
 40
0
 40
1
 40
1
 40
1
 40
1
 10
79.601561
 20
93.509677
 30
0.0
 10
78.496911
 20
93.509600
 30
0.0
 10
77.601551
 20
94.405419
 30
0.0
 10
77.602201
 20
95.510071
 30
0.0
  0
LINE
  5
17c
100
AcDbEntity
  8
Layer_1
 62
7
100
AcDbLine
 10
77.602201
 20
95.510071
 30
0.0
 11
77.602721
 21
96.510010
 31
0.0
  0
SPLINE
  5
17d
100
AcDbEntity
  8
Layer_1
 62
7
100
AcDbSpline
 70
8
 71
3
 72
8
 73
4
 74
0
 40
0
 40
0
 40
0
 40
0
 40
1
 40
1
 40
1
 40
1
 10
77.602721
 20
96.510010
 30
0.0
 10
77.603081
 20
97.614460
 30
0.0
 10
76.707810
 20
98.509965
 30
0.0
 10
75.603360
 20
98.509888
 30
0.0
  0
LINE
  5
17e
100
AcDbEntity
  8
Layer_1
 62
7
100
AcDbLine
 10
75.603360
 20
98.509888
 30
0.0
 11
67.951629
 21
98.509888
 31
0.0
  0
LINE
  5
17f
100
AcDbEntity
  8
Layer_1
 62
7
100
AcDbLine
 10
67.951629
 20
98.509888
 30
0.0
 11
67.951629
 21
99.742372
 31
0.0
  0
LINE
  5
180
100
AcDbEntity
  8
Layer_1
 62
7
100
AcDbLine
 10
67.951629
 20
99.742372
 30
0.0
 11
67.951629
 21
99.759422
 31
0.0
  0
LINE
  5
181
100
AcDbEntity
  8
Layer_1
 62
7
100
AcDbLine
 10
67.951629
 20
99.759422
 30
0.0
 11
67.951629
 21
99.809032
 31
0.0
  0
LINE
  5
182
100
AcDbEntity
  8
Layer_1
 62
7
100
AcDbLine
 10
67.951629
 20
99.809032
 30
0.0
 11
67.949629
 21
99.809032
 31
0.0
  0
SPLINE
  5
183
100
AcDbEntity
  8
Layer_1
 62
7
100
AcDbSpline
 70
8
 71
3
 72
8
 73
4
 74
0
 40
0
 40
0
 40
0
 40
0
 40
1
 40
1
 40
1
 40
1
 10
67.949629
 20
99.809032
 30
0.0
 10
67.923429
 20
100.147782
 30
0.0
 10
67.640849
 20
100.409240
 30
0.0
 10
67.301089
 20
100.408995
 30
0.0
  0
LINE
  5
184
100
AcDbEntity
  8
Layer_1
 62
7
100
AcDbLine
 10
67.301089
 20
100.408995
 30
0.0
 11
67.301849
 21
100.408933
 31
0.0
  0
ENDSEC
  0
SECTION
  2
OBJECTS
  0
DICTIONARY
  5
C
330
0
100
AcDbDictionary
  3
ACAD_GROUP
350
D
  3
ACAD_MLINESTYLE
350
17
  0
DICTIONARY
  5
D
330
C
100
AcDbDictionary
  0
DICTIONARY
  5
1A
330
C
100
AcDbDictionary
  0
DICTIONARY
  5
17
330
C
100
AcDbDictionary
  3
STANDARD
350
18
  0
DICTIONARY
  5
19
330
C
100
AcDbDictionary
  0
ENDSEC
  0
EOF
