  0
SECTION
  2
HEADER
  9
$ACADVER
  1
AC1014
  9
$HANDSEED
  5
FFFF
  9
$INSUNITS
 70
     4
  9
$MEASUREMENT
 70
     1
  0
ENDSEC
  0
SECTION
  2
TABLES
  0
TABLE
  2
VPORT
  5
8
330
0
100
AcDbSymbolTable
 70
     4
  0
VPORT
  5
2E
330
8
100
AcDbSymbolTableRecord
100
AcDbViewportTableRecord
  2
*ACTIVE
 70
     0
 10
0.0
 20
0.0
 11
1.0
 21
1.0
 12
210.0
 22
148.5
 13
0.0
 23
0.0
 14
10.0
 24
10.0
 15
10.0
 25
10.0
 16
0.0
 26
0.0
 36
1.0
 17
0.0
 27
0.0
 37
0.0
 40
341.0
 41
1.24
 42
50.0
 43
0.0
 44
0.0
 50
0.0
 51
0.0
 71
     0
 72
   100
 73
     1
 74
     3
 75
     0
 76
     0
 77
     0
 78
     0
  0
ENDTAB
  0
TABLE
  2
LTYPE
  5
5
330
0
100
AcDbSymbolTable
 70
     1
  0
LTYPE
  5
14
330
5
100
AcDbSymbolTableRecord
100
AcDbLinetypeTableRecord
  2
BYBLOCK
 70
     0
  3

 72
    65
 73
     0
 40
0.0
  0
LTYPE
  5
15
330
5
100
AcDbSymbolTableRecord
100
AcDbLinetypeTableRecord
  2
BYLAYER
 70
     0
  3

 72
    65
 73
     0
 40
0.0
  0
LTYPE
  5
16
330
5
100
AcDbSymbolTableRecord
100
AcDbLinetypeTableRecord
  2
CONTINUOUS
 70
     0
  3
Solid line
 72
    65
 73
     0
 40
0.0
  0
ENDTAB
  0
TABLE
  2
LAYER
  5
2
100
AcDbSymbolTable
 70
2
  0
LAYER
  5
50
100
AcDbSymbolTableRecord
100
AcDbLayerTableRecord
  2
0
 70
0
  6
CONTINUOUS
  0
LAYER
  5
51
100
AcDbSymbolTableRecord
100
AcDbLayerTableRecord
  2
Layer_1
 70
0
  6
CONTINUOUS
  0
ENDTAB
  0
TABLE
  2
STYLE
  5
3
330
0
100
AcDbSymbolTable
 70
     1
  0
STYLE
  5
11
330
3
100
AcDbSymbolTableRecord
100
AcDbTextStyleTableRecord
  2
STANDARD
 70
     0
 40
0.0
 41
1.0
 50
0.0
 71
     0
 42
2.5
  3
txt
  4

  0
ENDTAB
  0
TABLE
  2
VIEW
  5
6
330
0
100
AcDbSymbolTable
 70
     0
  0
ENDTAB
  0
TABLE
  2
UCS
  5
7
330
0
100
AcDbSymbolTable
 70
     0
  0
ENDTAB
  0
TABLE
  2
APPID
  5
9
330
0
100
AcDbSymbolTable
 70
     2
  0
APPID
  5
12
330
9
100
AcDbSymbolTableRecord
100
AcDbRegAppTableRecord
  2
ACAD
 70
     0
  0
ENDTAB
  0
TABLE
  2
DIMSTYLE
  5
A
330
0
100
AcDbSymbolTable
 70
     1
  0
DIMSTYLE
105
27
330
A
100
AcDbSymbolTableRecord
100
AcDbDimStyleTableRecord
  2
ISO-25
 70
     0
  3

  4

  5

  6

  7

 40
1.0
 41
2.5
 42
0.625
 43
3.75
 44
1.25
 45
0.0
 46
0.0
 47
0.0
 48
0.0
140
2.5
141
2.5
142
0.0
143
0.03937007874016
144
1.0
145
0.0
146
1.0
147
0.625
 71
     0
 72
     0
 73
     0
 74
     0
 75
     0
 76
     0
 77
     1
 78
     8
170
     0
171
     3
172
     1
173
     0
174
     0
175
     0
176
     0
177
     0
178
     0
270
     2
271
     2
272
     2
273
     2
274
     3
340
11
275
     0
280
     0
281
     0
282
     0
283
     0
284
     8
285
     0
286
     0
287
     3
288
     0
  0
ENDTAB
  0
TABLE
  2
BLOCK_RECORD
  5
1
330
0
100
AcDbSymbolTable
 70
     1
  0
BLOCK_RECORD
  5
1F
330
1
100
AcDbSymbolTableRecord
100
AcDbBlockTableRecord
  2
*MODEL_SPACE
  0
BLOCK_RECORD
  5
1B
330
1
100
AcDbSymbolTableRecord
100
AcDbBlockTableRecord
  2
*PAPER_SPACE
  0
ENDTAB
  0
ENDSEC
  0
SECTION
  2
BLOCKS
  0
BLOCK
  5
20
330
1F
100
AcDbEntity
  8
0
100
AcDbBlockBegin
  2
*MODEL_SPACE
 70
     0
 10
0.0
 20
0.0
 30
0.0
  3
*MODEL_SPACE
  1

  0
ENDBLK
  5
21
330
1F
100
AcDbEntity
  8
0
100
AcDbBlockEnd
  0
BLOCK
  5
1C
330
1B
100
AcDbEntity
 67
     1
  8
0
100
AcDbBlockBegin
  2
*PAPER_SPACE
  1

  0
ENDBLK
  5
1D
330
1B
100
AcDbEntity
 67
     1
  8
0
100
AcDbBlockEnd
  0
ENDSEC
  0
SECTION
  2
ENTITIES
  0
SPLINE
  5
100
100
AcDbEntity
  8
Layer_1
 62
7
100
AcDbSpline
 70
8
 71
3
 72
8
 73
4
 74
0
 40
0
 40
0
 40
0
 40
0
 40
1
 40
1
 40
1
 40
1
 10
4.801945
 20
74.310539
 30
0.0
 10
3.548112
 20
74.310539
 30
0.0
 10
2.417740
 20
73.555248
 30
0.0
 10
1.937919
 20
72.396858
 30
0.0
  0
SPLINE
  5
101
100
AcDbEntity
  8
Layer_1
 62
7
100
AcDbSpline
 70
8
 71
3
 72
8
 73
4
 74
0
 40
0
 40
0
 40
0
 40
0
 40
1
 40
1
 40
1
 40
1
 10
1.937919
 20
72.396858
 30
0.0
 10
1.458097
 20
71.238467
 30
0.0
 10
1.723320
 20
69.905102
 30
0.0
 10
2.609914
 20
69.018508
 30
0.0
  0
SPLINE
  5
102
100
AcDbEntity
  8
Layer_1
 62
7
100
AcDbSpline
 70
8
 71
3
 72
8
 73
4
 74
0
 40
0
 40
0
 40
0
 40
0
 40
1
 40
1
 40
1
 40
1
 10
2.609914
 20
69.018508
 30
0.0
 10
3.496508
 20
68.131914
 30
0.0
 10
4.829873
 20
67.866691
 30
0.0
 10
5.988264
 20
68.346513
 30
0.0
  0
SPLINE
  5
103
100
AcDbEntity
  8
Layer_1
 62
7
100
AcDbSpline
 70
8
 71
3
 72
8
 73
4
 74
0
 40
0
 40
0
 40
0
 40
0
 40
1
 40
1
 40
1
 40
1
 10
5.988264
 20
68.346513
 30
0.0
 10
7.146654
 20
68.826334
 30
0.0
 10
7.901945
 20
69.956706
 30
0.0
 10
7.901945
 20
71.210539
 30
0.0
  0
SPLINE
  5
104
100
AcDbEntity
  8
Layer_1
 62
7
100
AcDbSpline
 70
8
 71
3
 72
8
 73
4
 74
0
 40
0
 40
0
 40
0
 40
0
 40
1
 40
1
 40
1
 40
1
 10
7.901945
 20
71.210539
 30
0.0
 10
7.901945
 20
72.032710
 30
0.0
 10
7.575339
 20
72.821207
 30
0.0
 10
6.993976
 20
73.402570
 30
0.0
  0
SPLINE
  5
105
100
AcDbEntity
  8
Layer_1
 62
7
100
AcDbSpline
 70
8
 71
3
 72
8
 73
4
 74
0
 40
0
 40
0
 40
0
 40
0
 40
1
 40
1
 40
1
 40
1
 10
6.993976
 20
73.402570
 30
0.0
 10
6.412613
 20
73.983933
 30
0.0
 10
5.624116
 20
74.310539
 30
0.0
 10
4.801945
 20
74.310539
 30
0.0
  0
LINE
  5
106
100
AcDbEntity
  8
Layer_1
 62
7
100
AcDbLine
 10
4.801945
 20
74.310539
 30
0.0
 11
4.801945
 21
74.310539
 31
0.0
  0
SPLINE
  5
107
100
AcDbEntity
  8
Layer_1
 62
7
100
AcDbSpline
 70
8
 71
3
 72
8
 73
4
 74
0
 40
0
 40
0
 40
0
 40
0
 40
1
 40
1
 40
1
 40
1
 10
4.801945
 20
40.310540
 30
0.0
 10
3.548112
 20
40.310540
 30
0.0
 10
2.417740
 20
39.555249
 30
0.0
 10
1.937919
 20
38.396859
 30
0.0
  0
SPLINE
  5
108
100
AcDbEntity
  8
Layer_1
 62
7
100
AcDbSpline
 70
8
 71
3
 72
8
 73
4
 74
0
 40
0
 40
0
 40
0
 40
0
 40
1
 40
1
 40
1
 40
1
 10
1.937919
 20
38.396859
 30
0.0
 10
1.458097
 20
37.238468
 30
0.0
 10
1.723320
 20
35.905103
 30
0.0
 10
2.609914
 20
35.018509
 30
0.0
  0
SPLINE
  5
109
100
AcDbEntity
  8
Layer_1
 62
7
100
AcDbSpline
 70
8
 71
3
 72
8
 73
4
 74
0
 40
0
 40
0
 40
0
 40
0
 40
1
 40
1
 40
1
 40
1
 10
2.609914
 20
35.018509
 30
0.0
 10
3.496508
 20
34.131915
 30
0.0
 10
4.829873
 20
33.866692
 30
0.0
 10
5.988264
 20
34.346514
 30
0.0
  0
SPLINE
  5
10a
100
AcDbEntity
  8
Layer_1
 62
7
100
AcDbSpline
 70
8
 71
3
 72
8
 73
4
 74
0
 40
0
 40
0
 40
0
 40
0
 40
1
 40
1
 40
1
 40
1
 10
5.988264
 20
34.346514
 30
0.0
 10
7.146654
 20
34.826335
 30
0.0
 10
7.901945
 20
35.956707
 30
0.0
 10
7.901945
 20
37.210540
 30
0.0
  0
SPLINE
  5
10b
100
AcDbEntity
  8
Layer_1
 62
7
100
AcDbSpline
 70
8
 71
3
 72
8
 73
4
 74
0
 40
0
 40
0
 40
0
 40
0
 40
1
 40
1
 40
1
 40
1
 10
7.901945
 20
37.210540
 30
0.0
 10
7.901945
 20
38.032711
 30
0.0
 10
7.575339
 20
38.821208
 30
0.0
 10
6.993976
 20
39.402571
 30
0.0
  0
SPLINE
  5
10c
100
AcDbEntity
  8
Layer_1
 62
7
100
AcDbSpline
 70
8
 71
3
 72
8
 73
4
 74
0
 40
0
 40
0
 40
0
 40
0
 40
1
 40
1
 40
1
 40
1
 10
6.993976
 20
39.402571
 30
0.0
 10
6.412613
 20
39.983934
 30
0.0
 10
5.624116
 20
40.310540
 30
0.0
 10
4.801945
 20
40.310540
 30
0.0
  0
LINE
  5
10d
100
AcDbEntity
  8
Layer_1
 62
7
100
AcDbLine
 10
4.801945
 20
40.310540
 30
0.0
 11
4.801945
 21
40.310540
 31
0.0
  0
SPLINE
  5
10e
100
AcDbEntity
  8
Layer_1
 62
7
100
AcDbSpline
 70
8
 71
3
 72
8
 73
4
 74
0
 40
0
 40
0
 40
0
 40
0
 40
1
 40
1
 40
1
 40
1
 10
40.801950
 20
94.810539
 30
0.0
 10
39.548117
 20
94.810539
 30
0.0
 10
38.417745
 20
94.055248
 30
0.0
 10
37.937924
 20
92.896858
 30
0.0
  0
SPLINE
  5
10f
100
AcDbEntity
  8
Layer_1
 62
7
100
AcDbSpline
 70
8
 71
3
 72
8
 73
4
 74
0
 40
0
 40
0
 40
0
 40
0
 40
1
 40
1
 40
1
 40
1
 10
37.937924
 20
92.896858
 30
0.0
 10
37.458102
 20
91.738467
 30
0.0
 10
37.723325
 20
90.405102
 30
0.0
 10
38.609919
 20
89.518508
 30
0.0
  0
SPLINE
  5
110
100
AcDbEntity
  8
Layer_1
 62
7
100
AcDbSpline
 70
8
 71
3
 72
8
 73
4
 74
0
 40
0
 40
0
 40
0
 40
0
 40
1
 40
1
 40
1
 40
1
 10
38.609919
 20
89.518508
 30
0.0
 10
39.496513
 20
88.631914
 30
0.0
 10
40.829878
 20
88.366691
 30
0.0
 10
41.988269
 20
88.846513
 30
0.0
  0
SPLINE
  5
111
100
AcDbEntity
  8
Layer_1
 62
7
100
AcDbSpline
 70
8
 71
3
 72
8
 73
4
 74
0
 40
0
 40
0
 40
0
 40
0
 40
1
 40
1
 40
1
 40
1
 10
41.988269
 20
88.846513
 30
0.0
 10
43.146659
 20
89.326334
 30
0.0
 10
43.901950
 20
90.456706
 30
0.0
 10
43.901950
 20
91.710539
 30
0.0
  0
SPLINE
  5
112
100
AcDbEntity
  8
Layer_1
 62
7
100
AcDbSpline
 70
8
 71
3
 72
8
 73
4
 74
0
 40
0
 40
0
 40
0
 40
0
 40
1
 40
1
 40
1
 40
1
 10
43.901950
 20
91.710539
 30
0.0
 10
43.901950
 20
92.532710
 30
0.0
 10
43.575344
 20
93.321207
 30
0.0
 10
42.993981
 20
93.902570
 30
0.0
  0
SPLINE
  5
113
100
AcDbEntity
  8
Layer_1
 62
7
100
AcDbSpline
 70
8
 71
3
 72
8
 73
4
 74
0
 40
0
 40
0
 40
0
 40
0
 40
1
 40
1
 40
1
 40
1
 10
42.993981
 20
93.902570
 30
0.0
 10
42.412618
 20
94.483933
 30
0.0
 10
41.624121
 20
94.810539
 30
0.0
 10
40.801950
 20
94.810539
 30
0.0
  0
LINE
  5
114
100
AcDbEntity
  8
Layer_1
 62
7
100
AcDbLine
 10
40.801950
 20
94.810539
 30
0.0
 11
40.801950
 21
94.810539
 31
0.0
  0
SPLINE
  5
115
100
AcDbEntity
  8
Layer_1
 62
7
100
AcDbSpline
 70
8
 71
3
 72
8
 73
4
 74
0
 40
0
 40
0
 40
0
 40
0
 40
1
 40
1
 40
1
 40
1
 10
75.801940
 20
99.810535
 30
0.0
 10
74.548107
 20
99.810535
 30
0.0
 10
73.417735
 20
99.055244
 30
0.0
 10
72.937914
 20
97.896854
 30
0.0
  0
SPLINE
  5
116
100
AcDbEntity
  8
Layer_1
 62
7
100
AcDbSpline
 70
8
 71
3
 72
8
 73
4
 74
0
 40
0
 40
0
 40
0
 40
0
 40
1
 40
1
 40
1
 40
1
 10
72.937914
 20
97.896854
 30
0.0
 10
72.458092
 20
96.738463
 30
0.0
 10
72.723315
 20
95.405098
 30
0.0
 10
73.609909
 20
94.518504
 30
0.0
  0
SPLINE
  5
117
100
AcDbEntity
  8
Layer_1
 62
7
100
AcDbSpline
 70
8
 71
3
 72
8
 73
4
 74
0
 40
0
 40
0
 40
0
 40
0
 40
1
 40
1
 40
1
 40
1
 10
73.609909
 20
94.518504
 30
0.0
 10
74.496503
 20
93.631910
 30
0.0
 10
75.829868
 20
93.366687
 30
0.0
 10
76.988259
 20
93.846509
 30
0.0
  0
SPLINE
  5
118
100
AcDbEntity
  8
Layer_1
 62
7
100
AcDbSpline
 70
8
 71
3
 72
8
 73
4
 74
0
 40
0
 40
0
 40
0
 40
0
 40
1
 40
1
 40
1
 40
1
 10
76.988259
 20
93.846509
 30
0.0
 10
78.146649
 20
94.326330
 30
0.0
 10
78.901940
 20
95.456702
 30
0.0
 10
78.901940
 20
96.710535
 30
0.0
  0
SPLINE
  5
119
100
AcDbEntity
  8
Layer_1
 62
7
100
AcDbSpline
 70
8
 71
3
 72
8
 73
4
 74
0
 40
0
 40
0
 40
0
 40
0
 40
1
 40
1
 40
1
 40
1
 10
78.901940
 20
96.710535
 30
0.0
 10
78.901940
 20
97.532706
 30
0.0
 10
78.575334
 20
98.321203
 30
0.0
 10
77.993971
 20
98.902566
 30
0.0
  0
SPLINE
  5
11a
100
AcDbEntity
  8
Layer_1
 62
7
100
AcDbSpline
 70
8
 71
3
 72
8
 73
4
 74
0
 40
0
 40
0
 40
0
 40
0
 40
1
 40
1
 40
1
 40
1
 10
77.993971
 20
98.902566
 30
0.0
 10
77.412608
 20
99.483929
 30
0.0
 10
76.624111
 20
99.810535
 30
0.0
 10
75.801940
 20
99.810535
 30
0.0
  0
LINE
  5
11b
100
AcDbEntity
  8
Layer_1
 62
7
100
AcDbLine
 10
75.801940
 20
99.810535
 30
0.0
 11
75.801940
 21
99.810535
 31
0.0
  0
SPLINE
  5
11c
100
AcDbEntity
  8
Layer_1
 62
7
100
AcDbSpline
 70
8
 71
3
 72
8
 73
4
 74
0
 40
0
 40
0
 40
0
 40
0
 40
1
 40
1
 40
1
 40
1
 10
141.331230
 20
92.810539
 30
0.0
 10
140.077397
 20
92.810539
 30
0.0
 10
138.947025
 20
92.055248
 30
0.0
 10
138.467204
 20
90.896858
 30
0.0
  0
SPLINE
  5
11d
100
AcDbEntity
  8
Layer_1
 62
7
100
AcDbSpline
 70
8
 71
3
 72
8
 73
4
 74
0
 40
0
 40
0
 40
0
 40
0
 40
1
 40
1
 40
1
 40
1
 10
138.467204
 20
90.896858
 30
0.0
 10
137.987382
 20
89.738467
 30
0.0
 10
138.252605
 20
88.405102
 30
0.0
 10
139.139199
 20
87.518508
 30
0.0
  0
SPLINE
  5
11e
100
AcDbEntity
  8
Layer_1
 62
7
100
AcDbSpline
 70
8
 71
3
 72
8
 73
4
 74
0
 40
0
 40
0
 40
0
 40
0
 40
1
 40
1
 40
1
 40
1
 10
139.139199
 20
87.518508
 30
0.0
 10
140.025793
 20
86.631914
 30
0.0
 10
141.359158
 20
86.366691
 30
0.0
 10
142.517549
 20
86.846513
 30
0.0
  0
SPLINE
  5
11f
100
AcDbEntity
  8
Layer_1
 62
7
100
AcDbSpline
 70
8
 71
3
 72
8
 73
4
 74
0
 40
0
 40
0
 40
0
 40
0
 40
1
 40
1
 40
1
 40
1
 10
142.517549
 20
86.846513
 30
0.0
 10
143.675939
 20
87.326334
 30
0.0
 10
144.431230
 20
88.456706
 30
0.0
 10
144.431230
 20
89.710539
 30
0.0
  0
SPLINE
  5
120
100
AcDbEntity
  8
Layer_1
 62
7
100
AcDbSpline
 70
8
 71
3
 72
8
 73
4
 74
0
 40
0
 40
0
 40
0
 40
0
 40
1
 40
1
 40
1
 40
1
 10
144.431230
 20
89.710539
 30
0.0
 10
144.431230
 20
90.532710
 30
0.0
 10
144.104624
 20
91.321207
 30
0.0
 10
143.523261
 20
91.902570
 30
0.0
  0
SPLINE
  5
121
100
AcDbEntity
  8
Layer_1
 62
7
100
AcDbSpline
 70
8
 71
3
 72
8
 73
4
 74
0
 40
0
 40
0
 40
0
 40
0
 40
1
 40
1
 40
1
 40
1
 10
143.523261
 20
91.902570
 30
0.0
 10
142.941898
 20
92.483933
 30
0.0
 10
142.153401
 20
92.810539
 30
0.0
 10
141.331230
 20
92.810539
 30
0.0
  0
LINE
  5
122
100
AcDbEntity
  8
Layer_1
 62
7
100
AcDbLine
 10
141.331230
 20
92.810539
 30
0.0
 11
141.331230
 21
92.810539
 31
0.0
  0
SPLINE
  5
123
100
AcDbEntity
  8
Layer_1
 62
7
100
AcDbSpline
 70
8
 71
3
 72
8
 73
4
 74
0
 40
0
 40
0
 40
0
 40
0
 40
1
 40
1
 40
1
 40
1
 10
22.801945
 20
31.810530
 30
0.0
 10
21.548112
 20
31.810530
 30
0.0
 10
20.417740
 20
31.055239
 30
0.0
 10
19.937919
 20
29.896849
 30
0.0
  0
SPLINE
  5
124
100
AcDbEntity
  8
Layer_1
 62
7
100
AcDbSpline
 70
8
 71
3
 72
8
 73
4
 74
0
 40
0
 40
0
 40
0
 40
0
 40
1
 40
1
 40
1
 40
1
 10
19.937919
 20
29.896849
 30
0.0
 10
19.458097
 20
28.738458
 30
0.0
 10
19.723320
 20
27.405093
 30
0.0
 10
20.609914
 20
26.518499
 30
0.0
  0
SPLINE
  5
125
100
AcDbEntity
  8
Layer_1
 62
7
100
AcDbSpline
 70
8
 71
3
 72
8
 73
4
 74
0
 40
0
 40
0
 40
0
 40
0
 40
1
 40
1
 40
1
 40
1
 10
20.609914
 20
26.518499
 30
0.0
 10
21.496508
 20
25.631905
 30
0.0
 10
22.829873
 20
25.366682
 30
0.0
 10
23.988264
 20
25.846504
 30
0.0
  0
SPLINE
  5
126
100
AcDbEntity
  8
Layer_1
 62
7
100
AcDbSpline
 70
8
 71
3
 72
8
 73
4
 74
0
 40
0
 40
0
 40
0
 40
0
 40
1
 40
1
 40
1
 40
1
 10
23.988264
 20
25.846504
 30
0.0
 10
25.146654
 20
26.326325
 30
0.0
 10
25.901945
 20
27.456697
 30
0.0
 10
25.901945
 20
28.710530
 30
0.0
  0
SPLINE
  5
127
100
AcDbEntity
  8
Layer_1
 62
7
100
AcDbSpline
 70
8
 71
3
 72
8
 73
4
 74
0
 40
0
 40
0
 40
0
 40
0
 40
1
 40
1
 40
1
 40
1
 10
25.901945
 20
28.710530
 30
0.0
 10
25.901945
 20
29.532701
 30
0.0
 10
25.575339
 20
30.321198
 30
0.0
 10
24.993976
 20
30.902561
 30
0.0
  0
SPLINE
  5
128
100
AcDbEntity
  8
Layer_1
 62
7
100
AcDbSpline
 70
8
 71
3
 72
8
 73
4
 74
0
 40
0
 40
0
 40
0
 40
0
 40
1
 40
1
 40
1
 40
1
 10
24.993976
 20
30.902561
 30
0.0
 10
24.412613
 20
31.483924
 30
0.0
 10
23.624116
 20
31.810530
 30
0.0
 10
22.801945
 20
31.810530
 30
0.0
  0
LINE
  5
129
100
AcDbEntity
  8
Layer_1
 62
7
100
AcDbLine
 10
22.801945
 20
31.810530
 30
0.0
 11
22.801945
 21
31.810530
 31
0.0
  0
SPLINE
  5
12a
100
AcDbEntity
  8
Layer_1
 62
7
100
AcDbSpline
 70
8
 71
3
 72
8
 73
4
 74
0
 40
0
 40
0
 40
0
 40
0
 40
1
 40
1
 40
1
 40
1
 10
131.963540
 20
7.945070
 30
0.0
 10
130.709707
 20
7.945070
 30
0.0
 10
129.579335
 20
7.189779
 30
0.0
 10
129.099514
 20
6.031389
 30
0.0
  0
SPLINE
  5
12b
100
AcDbEntity
  8
Layer_1
 62
7
100
AcDbSpline
 70
8
 71
3
 72
8
 73
4
 74
0
 40
0
 40
0
 40
0
 40
0
 40
1
 40
1
 40
1
 40
1
 10
129.099514
 20
6.031389
 30
0.0
 10
128.619692
 20
4.872998
 30
0.0
 10
128.884915
 20
3.539633
 30
0.0
 10
129.771509
 20
2.653039
 30
0.0
  0
SPLINE
  5
12c
100
AcDbEntity
  8
Layer_1
 62
7
100
AcDbSpline
 70
8
 71
3
 72
8
 73
4
 74
0
 40
0
 40
0
 40
0
 40
0
 40
1
 40
1
 40
1
 40
1
 10
129.771509
 20
2.653039
 30
0.0
 10
130.658103
 20
1.766445
 30
0.0
 10
131.991468
 20
1.501222
 30
0.0
 10
133.149859
 20
1.981044
 30
0.0
  0
SPLINE
  5
12d
100
AcDbEntity
  8
Layer_1
 62
7
100
AcDbSpline
 70
8
 71
3
 72
8
 73
4
 74
0
 40
0
 40
0
 40
0
 40
0
 40
1
 40
1
 40
1
 40
1
 10
133.149859
 20
1.981044
 30
0.0
 10
134.308249
 20
2.460865
 30
0.0
 10
135.063540
 20
3.591237
 30
0.0
 10
135.063540
 20
4.845070
 30
0.0
  0
SPLINE
  5
12e
100
AcDbEntity
  8
Layer_1
 62
7
100
AcDbSpline
 70
8
 71
3
 72
8
 73
4
 74
0
 40
0
 40
0
 40
0
 40
0
 40
1
 40
1
 40
1
 40
1
 10
135.063540
 20
4.845070
 30
0.0
 10
135.063540
 20
5.667241
 30
0.0
 10
134.736934
 20
6.455738
 30
0.0
 10
134.155571
 20
7.037101
 30
0.0
  0
SPLINE
  5
12f
100
AcDbEntity
  8
Layer_1
 62
7
100
AcDbSpline
 70
8
 71
3
 72
8
 73
4
 74
0
 40
0
 40
0
 40
0
 40
0
 40
1
 40
1
 40
1
 40
1
 10
134.155571
 20
7.037101
 30
0.0
 10
133.574208
 20
7.618464
 30
0.0
 10
132.785711
 20
7.945070
 30
0.0
 10
131.963540
 20
7.945070
 30
0.0
  0
LINE
  5
130
100
AcDbEntity
  8
Layer_1
 62
7
100
AcDbLine
 10
131.963540
 20
7.945070
 30
0.0
 11
131.963540
 21
7.945070
 31
0.0
  0
SPLINE
  5
131
100
AcDbEntity
  8
Layer_1
 62
7
100
AcDbSpline
 70
8
 71
3
 72
8
 73
4
 74
0
 40
0
 40
0
 40
0
 40
0
 40
1
 40
1
 40
1
 40
1
 10
65.734080
 20
22.802930
 30
0.0
 10
64.480247
 20
22.802930
 30
0.0
 10
63.349875
 20
22.047639
 30
0.0
 10
62.870054
 20
20.889249
 30
0.0
  0
SPLINE
  5
132
100
AcDbEntity
  8
Layer_1
 62
7
100
AcDbSpline
 70
8
 71
3
 72
8
 73
4
 74
0
 40
0
 40
0
 40
0
 40
0
 40
1
 40
1
 40
1
 40
1
 10
62.870054
 20
20.889249
 30
0.0
 10
62.390232
 20
19.730858
 30
0.0
 10
62.655455
 20
18.397493
 30
0.0
 10
63.542049
 20
17.510899
 30
0.0
  0
SPLINE
  5
133
100
AcDbEntity
  8
Layer_1
 62
7
100
AcDbSpline
 70
8
 71
3
 72
8
 73
4
 74
0
 40
0
 40
0
 40
0
 40
0
 40
1
 40
1
 40
1
 40
1
 10
63.542049
 20
17.510899
 30
0.0
 10
64.428643
 20
16.624305
 30
0.0
 10
65.762008
 20
16.359082
 30
0.0
 10
66.920399
 20
16.838904
 30
0.0
  0
SPLINE
  5
134
100
AcDbEntity
  8
Layer_1
 62
7
100
AcDbSpline
 70
8
 71
3
 72
8
 73
4
 74
0
 40
0
 40
0
 40
0
 40
0
 40
1
 40
1
 40
1
 40
1
 10
66.920399
 20
16.838904
 30
0.0
 10
68.078789
 20
17.318725
 30
0.0
 10
68.834080
 20
18.449097
 30
0.0
 10
68.834080
 20
19.702930
 30
0.0
  0
SPLINE
  5
135
100
AcDbEntity
  8
Layer_1
 62
7
100
AcDbSpline
 70
8
 71
3
 72
8
 73
4
 74
0
 40
0
 40
0
 40
0
 40
0
 40
1
 40
1
 40
1
 40
1
 10
68.834080
 20
19.702930
 30
0.0
 10
68.834080
 20
20.525101
 30
0.0
 10
68.507474
 20
21.313598
 30
0.0
 10
67.926111
 20
21.894961
 30
0.0
  0
SPLINE
  5
136
100
AcDbEntity
  8
Layer_1
 62
7
100
AcDbSpline
 70
8
 71
3
 72
8
 73
4
 74
0
 40
0
 40
0
 40
0
 40
0
 40
1
 40
1
 40
1
 40
1
 10
67.926111
 20
21.894961
 30
0.0
 10
67.344748
 20
22.476324
 30
0.0
 10
66.556251
 20
22.802930
 30
0.0
 10
65.734080
 20
22.802930
 30
0.0
  0
LINE
  5
137
100
AcDbEntity
  8
Layer_1
 62
7
100
AcDbLine
 10
65.734080
 20
22.802930
 30
0.0
 11
65.734080
 21
22.802930
 31
0.0
  0
SPLINE
  5
138
100
AcDbEntity
  8
Layer_1
 62
7
100
AcDbSpline
 70
8
 71
3
 72
8
 73
4
 74
0
 40
0
 40
0
 40
0
 40
0
 40
1
 40
1
 40
1
 40
1
 10
100.629240
 20
23.980830
 30
0.0
 10
99.375407
 20
23.980830
 30
0.0
 10
98.245035
 20
23.225539
 30
0.0
 10
97.765214
 20
22.067149
 30
0.0
  0
SPLINE
  5
139
100
AcDbEntity
  8
Layer_1
 62
7
100
AcDbSpline
 70
8
 71
3
 72
8
 73
4
 74
0
 40
0
 40
0
 40
0
 40
0
 40
1
 40
1
 40
1
 40
1
 10
97.765214
 20
22.067149
 30
0.0
 10
97.285392
 20
20.908758
 30
0.0
 10
97.550615
 20
19.575393
 30
0.0
 10
98.437209
 20
18.688799
 30
0.0
  0
SPLINE
  5
13a
100
AcDbEntity
  8
Layer_1
 62
7
100
AcDbSpline
 70
8
 71
3
 72
8
 73
4
 74
0
 40
0
 40
0
 40
0
 40
0
 40
1
 40
1
 40
1
 40
1
 10
98.437209
 20
18.688799
 30
0.0
 10
99.323803
 20
17.802205
 30
0.0
 10
100.657168
 20
17.536982
 30
0.0
 10
101.815559
 20
18.016804
 30
0.0
  0
SPLINE
  5
13b
100
AcDbEntity
  8
Layer_1
 62
7
100
AcDbSpline
 70
8
 71
3
 72
8
 73
4
 74
0
 40
0
 40
0
 40
0
 40
0
 40
1
 40
1
 40
1
 40
1
 10
101.815559
 20
18.016804
 30
0.0
 10
102.973949
 20
18.496625
 30
0.0
 10
103.729240
 20
19.626997
 30
0.0
 10
103.729240
 20
20.880830
 30
0.0
  0
SPLINE
  5
13c
100
AcDbEntity
  8
Layer_1
 62
7
100
AcDbSpline
 70
8
 71
3
 72
8
 73
4
 74
0
 40
0
 40
0
 40
0
 40
0
 40
1
 40
1
 40
1
 40
1
 10
103.729240
 20
20.880830
 30
0.0
 10
103.729240
 20
21.703001
 30
0.0
 10
103.402634
 20
22.491498
 30
0.0
 10
102.821271
 20
23.072861
 30
0.0
  0
SPLINE
  5
13d
100
AcDbEntity
  8
Layer_1
 62
7
100
AcDbSpline
 70
8
 71
3
 72
8
 73
4
 74
0
 40
0
 40
0
 40
0
 40
0
 40
1
 40
1
 40
1
 40
1
 10
102.821271
 20
23.072861
 30
0.0
 10
102.239908
 20
23.654224
 30
0.0
 10
101.451411
 20
23.980830
 30
0.0
 10
100.629240
 20
23.980830
 30
0.0
  0
LINE
  5
13e
100
AcDbEntity
  8
Layer_1
 62
7
100
AcDbLine
 10
100.629240
 20
23.980830
 30
0.0
 11
100.629240
 21
23.980830
 31
0.0
  0
SPLINE
  5
13f
100
AcDbEntity
  8
Layer_1
 62
7
100
AcDbSpline
 70
8
 71
3
 72
8
 73
4
 74
0
 40
0
 40
0
 40
0
 40
0
 40
1
 40
1
 40
1
 40
1
 10
114.301940
 20
92.810539
 30
0.0
 10
113.048107
 20
92.810539
 30
0.0
 10
111.917735
 20
92.055248
 30
0.0
 10
111.437914
 20
90.896858
 30
0.0
  0
SPLINE
  5
140
100
AcDbEntity
  8
Layer_1
 62
7
100
AcDbSpline
 70
8
 71
3
 72
8
 73
4
 74
0
 40
0
 40
0
 40
0
 40
0
 40
1
 40
1
 40
1
 40
1
 10
111.437914
 20
90.896858
 30
0.0
 10
110.958092
 20
89.738467
 30
0.0
 10
111.223315
 20
88.405102
 30
0.0
 10
112.109909
 20
87.518508
 30
0.0
  0
SPLINE
  5
141
100
AcDbEntity
  8
Layer_1
 62
7
100
AcDbSpline
 70
8
 71
3
 72
8
 73
4
 74
0
 40
0
 40
0
 40
0
 40
0
 40
1
 40
1
 40
1
 40
1
 10
112.109909
 20
87.518508
 30
0.0
 10
112.996503
 20
86.631914
 30
0.0
 10
114.329868
 20
86.366691
 30
0.0
 10
115.488259
 20
86.846513
 30
0.0
  0
SPLINE
  5
142
100
AcDbEntity
  8
Layer_1
 62
7
100
AcDbSpline
 70
8
 71
3
 72
8
 73
4
 74
0
 40
0
 40
0
 40
0
 40
0
 40
1
 40
1
 40
1
 40
1
 10
115.488259
 20
86.846513
 30
0.0
 10
116.646649
 20
87.326334
 30
0.0
 10
117.401940
 20
88.456706
 30
0.0
 10
117.401940
 20
89.710539
 30
0.0
  0
SPLINE
  5
143
100
AcDbEntity
  8
Layer_1
 62
7
100
AcDbSpline
 70
8
 71
3
 72
8
 73
4
 74
0
 40
0
 40
0
 40
0
 40
0
 40
1
 40
1
 40
1
 40
1
 10
117.401940
 20
89.710539
 30
0.0
 10
117.401940
 20
90.532710
 30
0.0
 10
117.075334
 20
91.321207
 30
0.0
 10
116.493971
 20
91.902570
 30
0.0
  0
SPLINE
  5
144
100
AcDbEntity
  8
Layer_1
 62
7
100
AcDbSpline
 70
8
 71
3
 72
8
 73
4
 74
0
 40
0
 40
0
 40
0
 40
0
 40
1
 40
1
 40
1
 40
1
 10
116.493971
 20
91.902570
 30
0.0
 10
115.912608
 20
92.483933
 30
0.0
 10
115.124111
 20
92.810539
 30
0.0
 10
114.301940
 20
92.810539
 30
0.0
  0
LINE
  5
145
100
AcDbEntity
  8
Layer_1
 62
7
100
AcDbLine
 10
114.301940
 20
92.810539
 30
0.0
 11
114.301940
 21
92.810539
 31
0.0
  0
SPLINE
  5
146
100
AcDbEntity
  8
Layer_1
 62
7
100
AcDbSpline
 70
8
 71
3
 72
8
 73
4
 74
0
 40
0
 40
0
 40
0
 40
0
 40
1
 40
1
 40
1
 40
1
 10
1.752023
 20
55.210490
 30
0.0
 10
1.347561
 20
55.210490
 30
0.0
 10
0.982924
 20
54.966848
 30
0.0
 10
0.828143
 20
54.593173
 30
0.0
  0
SPLINE
  5
147
100
AcDbEntity
  8
Layer_1
 62
7
100
AcDbSpline
 70
8
 71
3
 72
8
 73
4
 74
0
 40
0
 40
0
 40
0
 40
0
 40
1
 40
1
 40
1
 40
1
 10
0.828143
 20
54.593173
 30
0.0
 10
0.673362
 20
54.219499
 30
0.0
 10
0.758918
 20
53.789381
 30
0.0
 10
1.044916
 20
53.503383
 30
0.0
  0
SPLINE
  5
148
100
AcDbEntity
  8
Layer_1
 62
7
100
AcDbSpline
 70
8
 71
3
 72
8
 73
4
 74
0
 40
0
 40
0
 40
0
 40
0
 40
1
 40
1
 40
1
 40
1
 10
1.044916
 20
53.503383
 30
0.0
 10
1.330914
 20
53.217385
 30
0.0
 10
1.761032
 20
53.131829
 30
0.0
 10
2.134706
 20
53.286610
 30
0.0
  0
SPLINE
  5
149
100
AcDbEntity
  8
Layer_1
 62
7
100
AcDbSpline
 70
8
 71
3
 72
8
 73
4
 74
0
 40
0
 40
0
 40
0
 40
0
 40
1
 40
1
 40
1
 40
1
 10
2.134706
 20
53.286610
 30
0.0
 10
2.508381
 20
53.441391
 30
0.0
 10
2.752023
 20
53.806028
 30
0.0
 10
2.752023
 20
54.210490
 30
0.0
  0
SPLINE
  5
14a
100
AcDbEntity
  8
Layer_1
 62
7
100
AcDbSpline
 70
8
 71
3
 72
8
 73
4
 74
0
 40
0
 40
0
 40
0
 40
0
 40
1
 40
1
 40
1
 40
1
 10
2.752023
 20
54.210490
 30
0.0
 10
2.752023
 20
54.475706
 30
0.0
 10
2.646666
 20
54.730060
 30
0.0
 10
2.459130
 20
54.917597
 30
0.0
  0
SPLINE
  5
14b
100
AcDbEntity
  8
Layer_1
 62
7
100
AcDbSpline
 70
8
 71
3
 72
8
 73
4
 74
0
 40
0
 40
0
 40
0
 40
0
 40
1
 40
1
 40
1
 40
1
 10
2.459130
 20
54.917597
 30
0.0
 10
2.271593
 20
55.105133
 30
0.0
 10
2.017239
 20
55.210490
 30
0.0
 10
1.752023
 20
55.210490
 30
0.0
  0
LINE
  5
14c
100
AcDbEntity
  8
Layer_1
 62
7
100
AcDbLine
 10
1.752023
 20
55.210490
 30
0.0
 11
1.752023
 21
55.210490
 31
0.0
  0
SPLINE
  5
14d
100
AcDbEntity
  8
Layer_1
 62
7
100
AcDbSpline
 70
8
 71
3
 72
8
 73
4
 74
0
 40
0
 40
0
 40
0
 40
0
 40
1
 40
1
 40
1
 40
1
 10
84.497712
 20
19.533410
 30
0.0
 10
84.497712
 20
19.128948
 30
0.0
 10
84.741354
 20
18.764311
 30
0.0
 10
85.115029
 20
18.609530
 30
0.0
  0
SPLINE
  5
14e
100
AcDbEntity
  8
Layer_1
 62
7
100
AcDbSpline
 70
8
 71
3
 72
8
 73
4
 74
0
 40
0
 40
0
 40
0
 40
0
 40
1
 40
1
 40
1
 40
1
 10
85.115029
 20
18.609530
 30
0.0
 10
85.488703
 20
18.454749
 30
0.0
 10
85.918821
 20
18.540305
 30
0.0
 10
86.204819
 20
18.826303
 30
0.0
  0
SPLINE
  5
14f
100
AcDbEntity
  8
Layer_1
 62
7
100
AcDbSpline
 70
8
 71
3
 72
8
 73
4
 74
0
 40
0
 40
0
 40
0
 40
0
 40
1
 40
1
 40
1
 40
1
 10
86.204819
 20
18.826303
 30
0.0
 10
86.490817
 20
19.112301
 30
0.0
 10
86.576373
 20
19.542419
 30
0.0
 10
86.421592
 20
19.916093
 30
0.0
  0
SPLINE
  5
150
100
AcDbEntity
  8
Layer_1
 62
7
100
AcDbSpline
 70
8
 71
3
 72
8
 73
4
 74
0
 40
0
 40
0
 40
0
 40
0
 40
1
 40
1
 40
1
 40
1
 10
86.421592
 20
19.916093
 30
0.0
 10
86.266811
 20
20.289768
 30
0.0
 10
85.902174
 20
20.533410
 30
0.0
 10
85.497712
 20
20.533410
 30
0.0
  0
SPLINE
  5
151
100
AcDbEntity
  8
Layer_1
 62
7
100
AcDbSpline
 70
8
 71
3
 72
8
 73
4
 74
0
 40
0
 40
0
 40
0
 40
0
 40
1
 40
1
 40
1
 40
1
 10
85.497712
 20
20.533410
 30
0.0
 10
85.232496
 20
20.533410
 30
0.0
 10
84.978142
 20
20.428053
 30
0.0
 10
84.790605
 20
20.240517
 30
0.0
  0
SPLINE
  5
152
100
AcDbEntity
  8
Layer_1
 62
7
100
AcDbSpline
 70
8
 71
3
 72
8
 73
4
 74
0
 40
0
 40
0
 40
0
 40
0
 40
1
 40
1
 40
1
 40
1
 10
84.790605
 20
20.240517
 30
0.0
 10
84.603069
 20
20.052980
 30
0.0
 10
84.497712
 20
19.798626
 30
0.0
 10
84.497712
 20
19.533410
 30
0.0
  0
LINE
  5
153
100
AcDbEntity
  8
Layer_1
 62
7
100
AcDbLine
 10
84.497712
 20
19.533410
 30
0.0
 11
84.497712
 21
19.533410
 31
0.0
  0
SPLINE
  5
154
100
AcDbEntity
  8
Layer_1
 62
7
100
AcDbSpline
 70
8
 71
3
 72
8
 73
4
 74
0
 40
0
 40
0
 40
0
 40
0
 40
1
 40
1
 40
1
 40
1
 10
37.818175
 20
25.660470
 30
0.0
 10
37.818175
 20
25.256008
 30
0.0
 10
38.061817
 20
24.891371
 30
0.0
 10
38.435492
 20
24.736590
 30
0.0
  0
SPLINE
  5
155
100
AcDbEntity
  8
Layer_1
 62
7
100
AcDbSpline
 70
8
 71
3
 72
8
 73
4
 74
0
 40
0
 40
0
 40
0
 40
0
 40
1
 40
1
 40
1
 40
1
 10
38.435492
 20
24.736590
 30
0.0
 10
38.809166
 20
24.581809
 30
0.0
 10
39.239284
 20
24.667365
 30
0.0
 10
39.525282
 20
24.953363
 30
0.0
  0
SPLINE
  5
156
100
AcDbEntity
  8
Layer_1
 62
7
100
AcDbSpline
 70
8
 71
3
 72
8
 73
4
 74
0
 40
0
 40
0
 40
0
 40
0
 40
1
 40
1
 40
1
 40
1
 10
39.525282
 20
24.953363
 30
0.0
 10
39.811280
 20
25.239361
 30
0.0
 10
39.896836
 20
25.669479
 30
0.0
 10
39.742055
 20
26.043153
 30
0.0
  0
SPLINE
  5
157
100
AcDbEntity
  8
Layer_1
 62
7
100
AcDbSpline
 70
8
 71
3
 72
8
 73
4
 74
0
 40
0
 40
0
 40
0
 40
0
 40
1
 40
1
 40
1
 40
1
 10
39.742055
 20
26.043153
 30
0.0
 10
39.587274
 20
26.416828
 30
0.0
 10
39.222637
 20
26.660470
 30
0.0
 10
38.818175
 20
26.660470
 30
0.0
  0
SPLINE
  5
158
100
AcDbEntity
  8
Layer_1
 62
7
100
AcDbSpline
 70
8
 71
3
 72
8
 73
4
 74
0
 40
0
 40
0
 40
0
 40
0
 40
1
 40
1
 40
1
 40
1
 10
38.818175
 20
26.660470
 30
0.0
 10
38.552959
 20
26.660470
 30
0.0
 10
38.298605
 20
26.555113
 30
0.0
 10
38.111068
 20
26.367577
 30
0.0
  0
SPLINE
  5
159
100
AcDbEntity
  8
Layer_1
 62
7
100
AcDbSpline
 70
8
 71
3
 72
8
 73
4
 74
0
 40
0
 40
0
 40
0
 40
0
 40
1
 40
1
 40
1
 40
1
 10
38.111068
 20
26.367577
 30
0.0
 10
37.923532
 20
26.180040
 30
0.0
 10
37.818175
 20
25.925686
 30
0.0
 10
37.818175
 20
25.660470
 30
0.0
  0
LINE
  5
15a
100
AcDbEntity
  8
Layer_1
 62
7
100
AcDbLine
 10
37.818175
 20
25.660470
 30
0.0
 11
37.818175
 21
25.660470
 31
0.0
  0
SPLINE
  5
15b
100
AcDbEntity
  8
Layer_1
 62
7
100
AcDbSpline
 70
8
 71
3
 72
8
 73
4
 74
0
 40
0
 40
0
 40
0
 40
0
 40
1
 40
1
 40
1
 40
1
 10
68.302018
 20
99.760480
 30
0.0
 10
68.302018
 20
100.164942
 30
0.0
 10
68.058376
 20
100.529579
 30
0.0
 10
67.684701
 20
100.684360
 30
0.0
  0
SPLINE
  5
15c
100
AcDbEntity
  8
Layer_1
 62
7
100
AcDbSpline
 70
8
 71
3
 72
8
 73
4
 74
0
 40
0
 40
0
 40
0
 40
0
 40
1
 40
1
 40
1
 40
1
 10
67.684701
 20
100.684360
 30
0.0
 10
67.311027
 20
100.839141
 30
0.0
 10
66.880909
 20
100.753585
 30
0.0
 10
66.594911
 20
100.467587
 30
0.0
  0
SPLINE
  5
15d
100
AcDbEntity
  8
Layer_1
 62
7
100
AcDbSpline
 70
8
 71
3
 72
8
 73
4
 74
0
 40
0
 40
0
 40
0
 40
0
 40
1
 40
1
 40
1
 40
1
 10
66.594911
 20
100.467587
 30
0.0
 10
66.308913
 20
100.181589
 30
0.0
 10
66.223357
 20
99.751471
 30
0.0
 10
66.378138
 20
99.377797
 30
0.0
  0
SPLINE
  5
15e
100
AcDbEntity
  8
Layer_1
 62
7
100
AcDbSpline
 70
8
 71
3
 72
8
 73
4
 74
0
 40
0
 40
0
 40
0
 40
0
 40
1
 40
1
 40
1
 40
1
 10
66.378138
 20
99.377797
 30
0.0
 10
66.532919
 20
99.004122
 30
0.0
 10
66.897556
 20
98.760480
 30
0.0
 10
67.302018
 20
98.760480
 30
0.0
  0
SPLINE
  5
15f
100
AcDbEntity
  8
Layer_1
 62
7
100
AcDbSpline
 70
8
 71
3
 72
8
 73
4
 74
0
 40
0
 40
0
 40
0
 40
0
 40
1
 40
1
 40
1
 40
1
 10
67.302018
 20
98.760480
 30
0.0
 10
67.567234
 20
98.760480
 30
0.0
 10
67.821588
 20
98.865837
 30
0.0
 10
68.009125
 20
99.053373
 30
0.0
  0
SPLINE
  5
160
100
AcDbEntity
  8
Layer_1
 62
7
100
AcDbSpline
 70
8
 71
3
 72
8
 73
4
 74
0
 40
0
 40
0
 40
0
 40
0
 40
1
 40
1
 40
1
 40
1
 10
68.009125
 20
99.053373
 30
0.0
 10
68.196661
 20
99.240910
 30
0.0
 10
68.302018
 20
99.495264
 30
0.0
 10
68.302018
 20
99.760480
 30
0.0
  0
LINE
  5
161
100
AcDbEntity
  8
Layer_1
 62
7
100
AcDbLine
 10
68.302018
 20
99.760480
 30
0.0
 11
68.302018
 21
99.760480
 31
0.0
  0
SPLINE
  5
162
100
AcDbEntity
  8
Layer_1
 62
7
100
AcDbSpline
 70
8
 71
3
 72
8
 73
4
 74
0
 40
0
 40
0
 40
0
 40
0
 40
1
 40
1
 40
1
 40
1
 10
32.285958
 20
82.760480
 30
0.0
 10
32.285958
 20
83.164942
 30
0.0
 10
32.042316
 20
83.529579
 30
0.0
 10
31.668641
 20
83.684360
 30
0.0
  0
SPLINE
  5
163
100
AcDbEntity
  8
Layer_1
 62
7
100
AcDbSpline
 70
8
 71
3
 72
8
 73
4
 74
0
 40
0
 40
0
 40
0
 40
0
 40
1
 40
1
 40
1
 40
1
 10
31.668641
 20
83.684360
 30
0.0
 10
31.294967
 20
83.839141
 30
0.0
 10
30.864849
 20
83.753585
 30
0.0
 10
30.578851
 20
83.467587
 30
0.0
  0
SPLINE
  5
164
100
AcDbEntity
  8
Layer_1
 62
7
100
AcDbSpline
 70
8
 71
3
 72
8
 73
4
 74
0
 40
0
 40
0
 40
0
 40
0
 40
1
 40
1
 40
1
 40
1
 10
30.578851
 20
83.467587
 30
0.0
 10
30.292853
 20
83.181589
 30
0.0
 10
30.207297
 20
82.751471
 30
0.0
 10
30.362078
 20
82.377797
 30
0.0
  0
SPLINE
  5
165
100
AcDbEntity
  8
Layer_1
 62
7
100
AcDbSpline
 70
8
 71
3
 72
8
 73
4
 74
0
 40
0
 40
0
 40
0
 40
0
 40
1
 40
1
 40
1
 40
1
 10
30.362078
 20
82.377797
 30
0.0
 10
30.516859
 20
82.004122
 30
0.0
 10
30.881496
 20
81.760480
 30
0.0
 10
31.285958
 20
81.760480
 30
0.0
  0
SPLINE
  5
166
100
AcDbEntity
  8
Layer_1
 62
7
100
AcDbSpline
 70
8
 71
3
 72
8
 73
4
 74
0
 40
0
 40
0
 40
0
 40
0
 40
1
 40
1
 40
1
 40
1
 10
31.285958
 20
81.760480
 30
0.0
 10
31.551174
 20
81.760480
 30
0.0
 10
31.805528
 20
81.865837
 30
0.0
 10
31.993065
 20
82.053373
 30
0.0
  0
SPLINE
  5
167
100
AcDbEntity
  8
Layer_1
 62
7
100
AcDbSpline
 70
8
 71
3
 72
8
 73
4
 74
0
 40
0
 40
0
 40
0
 40
0
 40
1
 40
1
 40
1
 40
1
 10
31.993065
 20
82.053373
 30
0.0
 10
32.180601
 20
82.240910
 30
0.0
 10
32.285958
 20
82.495264
 30
0.0
 10
32.285958
 20
82.760480
 30
0.0
  0
LINE
  5
168
100
AcDbEntity
  8
Layer_1
 62
7
100
AcDbLine
 10
32.285958
 20
82.760480
 30
0.0
 11
32.285958
 21
82.760480
 31
0.0
  0
SPLINE
  5
169
100
AcDbEntity
  8
Layer_1
 62
7
100
AcDbSpline
 70
8
 71
3
 72
8
 73
4
 74
0
 40
0
 40
0
 40
0
 40
0
 40
1
 40
1
 40
1
 40
1
 10
104.307099
 20
92.760510
 30
0.0
 10
104.307099
 20
93.164972
 30
0.0
 10
104.063457
 20
93.529609
 30
0.0
 10
103.689782
 20
93.684390
 30
0.0
  0
SPLINE
  5
16a
100
AcDbEntity
  8
Layer_1
 62
7
100
AcDbSpline
 70
8
 71
3
 72
8
 73
4
 74
0
 40
0
 40
0
 40
0
 40
0
 40
1
 40
1
 40
1
 40
1
 10
103.689782
 20
93.684390
 30
0.0
 10
103.316108
 20
93.839171
 30
0.0
 10
102.885990
 20
93.753615
 30
0.0
 10
102.599992
 20
93.467617
 30
0.0
  0
SPLINE
  5
16b
100
AcDbEntity
  8
Layer_1
 62
7
100
AcDbSpline
 70
8
 71
3
 72
8
 73
4
 74
0
 40
0
 40
0
 40
0
 40
0
 40
1
 40
1
 40
1
 40
1
 10
102.599992
 20
93.467617
 30
0.0
 10
102.313994
 20
93.181619
 30
0.0
 10
102.228438
 20
92.751501
 30
0.0
 10
102.383219
 20
92.377827
 30
0.0
  0
SPLINE
  5
16c
100
AcDbEntity
  8
Layer_1
 62
7
100
AcDbSpline
 70
8
 71
3
 72
8
 73
4
 74
0
 40
0
 40
0
 40
0
 40
0
 40
1
 40
1
 40
1
 40
1
 10
102.383219
 20
92.377827
 30
0.0
 10
102.538000
 20
92.004152
 30
0.0
 10
102.902637
 20
91.760510
 30
0.0
 10
103.307099
 20
91.760510
 30
0.0
  0
SPLINE
  5
16d
100
AcDbEntity
  8
Layer_1
 62
7
100
AcDbSpline
 70
8
 71
3
 72
8
 73
4
 74
0
 40
0
 40
0
 40
0
 40
0
 40
1
 40
1
 40
1
 40
1
 10
103.307099
 20
91.760510
 30
0.0
 10
103.572315
 20
91.760510
 30
0.0
 10
103.826669
 20
91.865867
 30
0.0
 10
104.014206
 20
92.053403
 30
0.0
  0
SPLINE
  5
16e
100
AcDbEntity
  8
Layer_1
 62
7
100
AcDbSpline
 70
8
 71
3
 72
8
 73
4
 74
0
 40
0
 40
0
 40
0
 40
0
 40
1
 40
1
 40
1
 40
1
 10
104.014206
 20
92.053403
 30
0.0
 10
104.201742
 20
92.240940
 30
0.0
 10
104.307099
 20
92.495294
 30
0.0
 10
104.307099
 20
92.760510
 30
0.0
  0
LINE
  5
16f
100
AcDbEntity
  8
Layer_1
 62
7
100
AcDbLine
 10
104.307099
 20
92.760510
 30
0.0
 11
104.307099
 21
92.760510
 31
0.0
  0
SPLINE
  5
170
100
AcDbEntity
  8
Layer_1
 62
7
100
AcDbSpline
 70
8
 71
3
 72
8
 73
4
 74
0
 40
0
 40
0
 40
0
 40
0
 40
1
 40
1
 40
1
 40
1
 10
144.382016
 20
85.710500
 30
0.0
 10
144.786478
 20
85.710500
 30
0.0
 10
145.151115
 20
85.466858
 30
0.0
 10
145.305896
 20
85.093183
 30
0.0
  0
SPLINE
  5
171
100
AcDbEntity
  8
Layer_1
 62
7
100
AcDbSpline
 70
8
 71
3
 72
8
 73
4
 74
0
 40
0
 40
0
 40
0
 40
0
 40
1
 40
1
 40
1
 40
1
 10
145.305896
 20
85.093183
 30
0.0
 10
145.460677
 20
84.719509
 30
0.0
 10
145.375121
 20
84.289391
 30
0.0
 10
145.089123
 20
84.003393
 30
0.0
  0
SPLINE
  5
172
100
AcDbEntity
  8
Layer_1
 62
7
100
AcDbSpline
 70
8
 71
3
 72
8
 73
4
 74
0
 40
0
 40
0
 40
0
 40
0
 40
1
 40
1
 40
1
 40
1
 10
145.089123
 20
84.003393
 30
0.0
 10
144.803125
 20
83.717395
 30
0.0
 10
144.373007
 20
83.631839
 30
0.0
 10
143.999333
 20
83.786620
 30
0.0
  0
SPLINE
  5
173
100
AcDbEntity
  8
Layer_1
 62
7
100
AcDbSpline
 70
8
 71
3
 72
8
 73
4
 74
0
 40
0
 40
0
 40
0
 40
0
 40
1
 40
1
 40
1
 40
1
 10
143.999333
 20
83.786620
 30
0.0
 10
143.625658
 20
83.941401
 30
0.0
 10
143.382016
 20
84.306038
 30
0.0
 10
143.382016
 20
84.710500
 30
0.0
  0
SPLINE
  5
174
100
AcDbEntity
  8
Layer_1
 62
7
100
AcDbSpline
 70
8
 71
3
 72
8
 73
4
 74
0
 40
0
 40
0
 40
0
 40
0
 40
1
 40
1
 40
1
 40
1
 10
143.382016
 20
84.710500
 30
0.0
 10
143.382016
 20
84.975716
 30
0.0
 10
143.487373
 20
85.230070
 30
0.0
 10
143.674909
 20
85.417607
 30
0.0
  0
SPLINE
  5
175
100
AcDbEntity
  8
Layer_1
 62
7
100
AcDbSpline
 70
8
 71
3
 72
8
 73
4
 74
0
 40
0
 40
0
 40
0
 40
0
 40
1
 40
1
 40
1
 40
1
 10
143.674909
 20
85.417607
 30
0.0
 10
143.862446
 20
85.605143
 30
0.0
 10
144.116800
 20
85.710500
 30
0.0
 10
144.382016
 20
85.710500
 30
0.0
  0
LINE
  5
176
100
AcDbEntity
  8
Layer_1
 62
7
100
AcDbLine
 10
144.382016
 20
85.710500
 30
0.0
 11
144.382016
 21
85.710500
 31
0.0
  0
SPLINE
  5
177
100
AcDbEntity
  8
Layer_1
 62
7
100
AcDbSpline
 70
8
 71
3
 72
8
 73
4
 74
0
 40
0
 40
0
 40
0
 40
0
 40
1
 40
1
 40
1
 40
1
 10
144.382016
 20
45.710350
 30
0.0
 10
144.786478
 20
45.710350
 30
0.0
 10
145.151115
 20
45.466708
 30
0.0
 10
145.305896
 20
45.093033
 30
0.0
  0
SPLINE
  5
178
100
AcDbEntity
  8
Layer_1
 62
7
100
AcDbSpline
 70
8
 71
3
 72
8
 73
4
 74
0
 40
0
 40
0
 40
0
 40
0
 40
1
 40
1
 40
1
 40
1
 10
145.305896
 20
45.093033
 30
0.0
 10
145.460677
 20
44.719359
 30
0.0
 10
145.375121
 20
44.289241
 30
0.0
 10
145.089123
 20
44.003243
 30
0.0
  0
SPLINE
  5
179
100
AcDbEntity
  8
Layer_1
 62
7
100
AcDbSpline
 70
8
 71
3
 72
8
 73
4
 74
0
 40
0
 40
0
 40
0
 40
0
 40
1
 40
1
 40
1
 40
1
 10
145.089123
 20
44.003243
 30
0.0
 10
144.803125
 20
43.717245
 30
0.0
 10
144.373007
 20
43.631689
 30
0.0
 10
143.999333
 20
43.786470
 30
0.0
  0
SPLINE
  5
17a
100
AcDbEntity
  8
Layer_1
 62
7
100
AcDbSpline
 70
8
 71
3
 72
8
 73
4
 74
0
 40
0
 40
0
 40
0
 40
0
 40
1
 40
1
 40
1
 40
1
 10
143.999333
 20
43.786470
 30
0.0
 10
143.625658
 20
43.941251
 30
0.0
 10
143.382016
 20
44.305888
 30
0.0
 10
143.382016
 20
44.710350
 30
0.0
  0
SPLINE
  5
17b
100
AcDbEntity
  8
Layer_1
 62
7
100
AcDbSpline
 70
8
 71
3
 72
8
 73
4
 74
0
 40
0
 40
0
 40
0
 40
0
 40
1
 40
1
 40
1
 40
1
 10
143.382016
 20
44.710350
 30
0.0
 10
143.382016
 20
44.975566
 30
0.0
 10
143.487373
 20
45.229920
 30
0.0
 10
143.674909
 20
45.417457
 30
0.0
  0
SPLINE
  5
17c
100
AcDbEntity
  8
Layer_1
 62
7
100
AcDbSpline
 70
8
 71
3
 72
8
 73
4
 74
0
 40
0
 40
0
 40
0
 40
0
 40
1
 40
1
 40
1
 40
1
 10
143.674909
 20
45.417457
 30
0.0
 10
143.862446
 20
45.604993
 30
0.0
 10
144.116800
 20
45.710350
 30
0.0
 10
144.382016
 20
45.710350
 30
0.0
  0
LINE
  5
17d
100
AcDbEntity
  8
Layer_1
 62
7
100
AcDbLine
 10
144.382016
 20
45.710350
 30
0.0
 11
144.382016
 21
45.710350
 31
0.0
  0
SPLINE
  5
17e
100
AcDbEntity
  8
Layer_1
 62
7
100
AcDbSpline
 70
8
 71
3
 72
8
 73
4
 74
0
 40
0
 40
0
 40
0
 40
0
 40
1
 40
1
 40
1
 40
1
 10
137.986932
 20
8.117778
 30
0.0
 10
138.318248
 20
7.885788
 30
0.0
 10
138.756688
 20
7.876222
 30
0.0
 10
139.097808
 20
8.093539
 30
0.0
  0
SPLINE
  5
17f
100
AcDbEntity
  8
Layer_1
 62
7
100
AcDbSpline
 70
8
 71
3
 72
8
 73
4
 74
0
 40
0
 40
0
 40
0
 40
0
 40
1
 40
1
 40
1
 40
1
 10
139.097808
 20
8.093539
 30
0.0
 10
139.438928
 20
8.310856
 30
0.0
 10
139.615551
 20
8.712261
 30
0.0
 10
139.545317
 20
9.110579
 30
0.0
  0
SPLINE
  5
180
100
AcDbEntity
  8
Layer_1
 62
7
100
AcDbSpline
 70
8
 71
3
 72
8
 73
4
 74
0
 40
0
 40
0
 40
0
 40
0
 40
1
 40
1
 40
1
 40
1
 10
139.545317
 20
9.110579
 30
0.0
 10
139.475082
 20
9.508896
 30
0.0
 10
139.171823
 20
9.825685
 30
0.0
 10
138.776948
 20
9.913226
 30
0.0
  0
SPLINE
  5
181
100
AcDbEntity
  8
Layer_1
 62
7
100
AcDbSpline
 70
8
 71
3
 72
8
 73
4
 74
0
 40
0
 40
0
 40
0
 40
0
 40
1
 40
1
 40
1
 40
1
 10
138.776948
 20
9.913226
 30
0.0
 10
138.382074
 20
10.000768
 30
0.0
 10
137.973347
 20
9.841823
 30
0.0
 10
137.741357
 20
9.510507
 30
0.0
  0
SPLINE
  5
182
100
AcDbEntity
  8
Layer_1
 62
7
100
AcDbSpline
 70
8
 71
3
 72
8
 73
4
 74
0
 40
0
 40
0
 40
0
 40
0
 40
1
 40
1
 40
1
 40
1
 10
137.741357
 20
9.510507
 30
0.0
 10
137.589235
 20
9.293254
 30
0.0
 10
137.529647
 20
9.024470
 30
0.0
 10
137.575701
 20
8.763282
 30
0.0
  0
SPLINE
  5
183
100
AcDbEntity
  8
Layer_1
 62
7
100
AcDbSpline
 70
8
 71
3
 72
8
 73
4
 74
0
 40
0
 40
0
 40
0
 40
0
 40
1
 40
1
 40
1
 40
1
 10
137.575701
 20
8.763282
 30
0.0
 10
137.621755
 20
8.502095
 30
0.0
 10
137.769680
 20
8.269900
 30
0.0
 10
137.986932
 20
8.117778
 30
0.0
  0
LINE
  5
184
100
AcDbEntity
  8
Layer_1
 62
7
100
AcDbLine
 10
137.986932
 20
8.117778
 30
0.0
 11
137.986932
 21
8.117778
 31
0.0
  0
ENDSEC
  0
SECTION
  2
OBJECTS
  0
DICTIONARY
  5
C
330
0
100
AcDbDictionary
  3
ACAD_GROUP
350
D
  3
ACAD_MLINESTYLE
350
17
  0
DICTIONARY
  5
D
330
C
100
AcDbDictionary
  0
DICTIONARY
  5
1A
330
C
100
AcDbDictionary
  0
DICTIONARY
  5
17
330
C
100
AcDbDictionary
  3
STANDARD
350
18
  0
DICTIONARY
  5
19
330
C
100
AcDbDictionary
  0
ENDSEC
  0
EOF
