<?xml version="1.0" encoding="UTF-8" standalone="no"?>
<!-- Created with Inkscape (http://www.inkscape.org/) -->

<svg
   width="145.5293mm"
   height="102.18569mm"
   viewBox="0 0 145.5293 102.18569"
   version="1.1"
   id="svg1"
   inkscape:version="1.3.2 (091e20e, 2023-11-25, custom)"
   sodipodi:docname="bounds.svg"
   xmlns:inkscape="http://www.inkscape.org/namespaces/inkscape"
   xmlns:sodipodi="http://sodipodi.sourceforge.net/DTD/sodipodi-0.dtd"
   xmlns="http://www.w3.org/2000/svg"
   xmlns:svg="http://www.w3.org/2000/svg">
  <sodipodi:namedview
     id="namedview1"
     pagecolor="#ffffff"
     bordercolor="#666666"
     borderopacity="1.0"
     inkscape:showpageshadow="2"
     inkscape:pageopacity="0.0"
     inkscape:pagecheckerboard="0"
     inkscape:deskcolor="#d1d1d1"
     inkscape:document-units="mm"
     inkscape:zoom="0.73228114"
     inkscape:cx="266.97396"
     inkscape:cy="176.16185"
     inkscape:window-width="1920"
     inkscape:window-height="1018"
     inkscape:window-x="-6"
     inkscape:window-y="-6"
     inkscape:window-maximized="1"
     inkscape:current-layer="layer1" />
  <defs
     id="defs1">
    <inkscape:path-effect
       effect="offset"
       id="path-effect57625-1"
       is_visible="true"
       lpeversion="1.2"
       linejoin_type="miter"
       unit="mm"
       offset="5.5"
       miter_limit="4"
       attempt_force_join="false"
       update_on_knot_move="true" />
    <inkscape:path-effect
       effect="fillet_chamfer"
       id="path-effect57627-52"
       is_visible="true"
       lpeversion="1"
       nodesatellites_param="F,0,0,1,0,2,0,1 @ F,0,0,1,0,2,0,1 @ F,0,0,1,0,2,0,1 @ F,0,0,1,0,2,0,1 @ F,0,0,1,0,2,0,1 @ F,0,0,1,0,2,0,1 @ F,0,0,1,0,2,0,1 @ F,0,0,1,0,2,0,1 @ F,0,0,1,0,2,0,1 @ F,0,0,1,0,2,0,1 @ F,0,0,1,0,8.6700249,0,1 @ F,0,0,1,0,2,0,1 @ F,0,0,1,0,2,0,1 @ F,0,0,1,0,2,0,1 @ F,0,0,1,0,2,0,1 @ F,0,0,1,0,2,0,1 @ F,0,0,1,0,2,0,1 @ F,0,0,1,0,1.2014453,0,1 @ F,0,0,1,0,2,0,1 @ F,0,0,1,0,2,0,1 @ F,0,0,1,0,2,0,1"
       unit="mm"
       method="auto"
       mode="F"
       radius="2"
       chamfer_steps="1"
       flexible="false"
       use_knot_distance="false"
       apply_no_radius="true"
       apply_with_radius="true"
       only_selected="true"
       hide_knots="false" />
  </defs>
  <g
     inkscape:label="Layer 1"
     inkscape:groupmode="layer"
     id="layer1"
     transform="translate(-34.293294,-101.88179)">
    <path
       id="path44149-5-3"
       style="display:inline;fill:none;fill-opacity:0.300518;stroke:#000000;stroke-width:0.264583px;stroke-linecap:butt;stroke-linejoin:miter;stroke-opacity:1"
       d="m 119.50781,46.277344 v 1 a 2,2 135 0 1 -2,2 l -14,0 a 2,2 135 0 0 -2,2 v 8 a 2,2 135 0 1 -1.999998,2 h -14 a 2,2 135 0 0 -2,2 v 4.5 a 2,2 135 0 1 -2,2 h -14 a 2,2 135 0 0 -2,2 v 38.999996 a 2,2 45 0 0 2,2 h 14 a 2,2 45 0 1 2,2 v 4.5 a 2,2 45 0 0 2,2 l 25.597558,0 a 21.358591,21.358591 22.093552 0 1 14.88701,6.04304 l 2.26099,2.19772 a 3.4283807,3.4283807 13.929281 0 0 3.35346,0.83172 c 0.64108,-0.18781 2.0194,-0.59497 3.08859,-0.87214 19.35525,-5.01755 40.74303,-0.87813 57.13839,12.55175 0.85446,0.69991 2.20244,1.87933 3.03501,2.60522 l 1.58854,1.385 a 1.8005177,1.8005177 173.07963 0 0 2.65678,-0.32247 l 10.77367,-15.34358 a 6.3287358,6.3287358 107.53752 0 0 1.1493,-3.6368 V 53.277344 a 2,2 45 0 0 -2,-2 h -45.58176 a 2.4386635,2.4386635 26.227876 0 1 -1.93357,-0.952606 3.3874919,3.3874919 20.4759 0 0 -2.80498,-1.047394 h -11.20899 a 2,2 45 0 1 -2,-2 v -1 a 2,2 45 0 0 -2,-2 h -22 a 2,2 135 0 0 -2,2 z"
       sodipodi:nodetypes="cccccccccccccccccccc"
       inkscape:export-filename="../outline-new.svg"
       inkscape:export-xdpi="7.85"
       inkscape:export-ydpi="7.85"
       transform="translate(-31.214519,57.604451)"
       inkscape:original-d="m 125.00697,49.777932 3e-5,5.00006 -17.99997,1.6e-4 -3e-5,11.99984 -17.999901,-6e-5 -9.9e-5,8.50006 -17.999835,1.9e-4 v 31.999598 l 17.999835,2.1e-4 9.9e-5,8.50005 32.999901,-5e-5 9.21458,8.95354 c 22.22151,-6.50922 47.19713,-1.73245 65.75361,14.44304 l 8.56278,-12.19618 5e-5,-70.20039 h -45.99295 l -1.53805,-1.999854 -18.00001,-1.6e-4 9e-5,-5.00006 z"
       inkscape:path-effect="#path-effect57625-1;#path-effect57627-52" />
  </g>
</svg>
