M48
; DRILL file {KiCad 7.0.1-0} date 2025 September 26, Friday 20:14:51
; FORMAT={-:-/ absolute / metric / decimal}
; #@! TF.CreationDate,2025-09-26T20:14:51+02:00
; #@! TF.GenerationSoftware,Kicad,Pcbnew,7.0.1-0
; #@! TF.FileFunction,NonPlated,1,2,NPTH
FMAT,2
METRIC
; #@! TA.AperFunction,NonPlated,NPTH,ComponentDrill
T1C0.800
; #@! TA.AperFunction,NonPlated,NPTH,ComponentDrill
T2C0.900
; #@! TA.AperFunction,NonPlated,NPTH,ComponentDrill
T3C1.702
; #@! TA.AperFunction,NonPlated,NPTH,ComponentDrill
T4C3.000
; #@! TA.AperFunction,NonPlated,NPTH,ComponentDrill
T5C3.429
%
G90
G05
T1
X199.615Y-111.607
X199.615Y-113.887
X206.615Y-111.607
X206.615Y-113.887
T2
X206.207Y-120.01
X206.207Y-123.01
X206.207Y-120.01
X206.207Y-123.01
T3
X73.007Y-82.778
X73.007Y-99.778
X84.007Y-82.778
X84.007Y-99.778
X91.007Y-74.278
X91.007Y-91.278
X91.007Y-108.278
X102.007Y-74.278
X102.007Y-91.278
X102.007Y-108.278
X109.007Y-62.278
X109.007Y-79.278
X109.007Y-96.278
X120.007Y-62.278
X120.007Y-79.278
X120.007Y-96.278
X127.007Y-57.278
X127.007Y-74.278
X127.007Y-91.278
X131.767Y-116.937
X138.007Y-57.278
X138.007Y-74.278
X138.007Y-91.278
X142.599Y-115.027
X145.007Y-62.278
X145.007Y-79.278
X145.007Y-96.278
X151.916Y-114.62
X156.007Y-62.278
X156.007Y-79.278
X156.007Y-96.278
X162.874Y-115.578
X163.007Y-64.278
X163.007Y-81.278
X163.007Y-98.278
X171.979Y-117.597
X174.007Y-64.278
X174.007Y-81.278
X174.007Y-98.278
X182.315Y-121.359
X190.588Y-125.665
X199.598Y-131.975
T4
X73.507Y-79.028
X73.507Y-96.028
X78.507Y-76.828
X78.507Y-93.828
X83.507Y-79.028
X83.507Y-96.028
X91.507Y-70.528
X91.507Y-87.528
X91.507Y-104.528
X96.507Y-68.328
X96.507Y-85.328
X96.507Y-102.328
X101.507Y-70.528
X101.507Y-87.528
X101.507Y-104.528
X109.507Y-58.528
X109.507Y-75.528
X109.507Y-92.528
X114.507Y-56.328
X114.507Y-73.328
X114.507Y-90.328
X119.507Y-58.528
X119.507Y-75.528
X119.507Y-92.528
X127.507Y-53.528
X127.507Y-70.528
X127.507Y-87.528
X131.608Y-113.157
X132.507Y-51.328
X132.507Y-68.328
X132.507Y-85.328
X136.15Y-110.122
X137.507Y-53.528
X137.507Y-70.528
X137.507Y-87.528
X141.456Y-111.421
X145.507Y-58.528
X145.507Y-75.528
X145.507Y-92.528
X150.507Y-56.328
X150.507Y-73.328
X150.507Y-90.328
X152.741Y-110.927
X155.507Y-58.528
X155.507Y-75.528
X155.507Y-92.528
X157.914Y-109.172
X162.703Y-111.799
X163.507Y-60.528
X163.507Y-77.528
X163.507Y-94.528
X168.507Y-58.328
X168.507Y-75.328
X168.507Y-92.328
X173.507Y-60.528
X173.507Y-77.528
X173.507Y-94.528
X173.731Y-114.244
X179.182Y-113.887
X183.128Y-117.664
X193.148Y-122.88
X198.506Y-123.946
X201.34Y-128.616
T5
X78.507Y-82.778
X78.507Y-99.778
X96.507Y-74.278
X96.507Y-91.278
X96.507Y-108.278
X114.507Y-62.278
X114.507Y-79.278
X114.507Y-96.278
X132.507Y-57.278
X132.507Y-74.278
X132.507Y-91.278
X137.183Y-115.982
X150.507Y-62.278
X150.507Y-79.278
X150.507Y-96.278
X157.395Y-115.099
X168.507Y-64.278
X168.507Y-81.278
X168.507Y-98.278
X177.147Y-119.478
X195.093Y-128.82
T0
M30
