%TF.GenerationSoftware,KiCad,Pcbnew,7.0.1-0*%
%TF.CreationDate,2025-04-04T15:19:30+02:00*%
%TF.ProjectId,nantor,6e616e74-6f72-42e6-9b69-6361645f7063,rev?*%
%TF.SameCoordinates,Original*%
%TF.FileFunction,Profile,NP*%
%FSLAX46Y46*%
G04 Gerber Fmt 4.6, Leading zero omitted, Abs format (unit mm)*
G04 Created by KiCad (PCBNEW 7.0.1-0) date 2025-04-04 15:19:30*
%MOMM*%
%LPD*%
G01*
G04 APERTURE LIST*
%TA.AperFunction,Profile*%
%ADD10C,0.264582*%
%TD*%
G04 APERTURE END LIST*
D10*
X140607062Y-47279821D02*
X140705562Y-47287149D01*
X140803226Y-47299281D01*
X140899888Y-47316147D01*
X140995386Y-47337680D01*
X141089556Y-47363813D01*
X141182232Y-47394476D01*
X141273253Y-47429603D01*
X141362452Y-47469125D01*
X141449667Y-47512975D01*
X141534734Y-47561084D01*
X141617489Y-47613385D01*
X141697767Y-47669810D01*
X141775405Y-47730290D01*
X141850238Y-47794759D01*
X141922104Y-47863148D01*
X141990493Y-47935013D01*
X142054962Y-48009846D01*
X142115443Y-48087483D01*
X142171868Y-48167760D01*
X142224169Y-48250514D01*
X142272278Y-48335581D01*
X142316128Y-48422795D01*
X142355650Y-48511995D01*
X142390777Y-48603015D01*
X142421440Y-48695692D01*
X142447572Y-48789861D01*
X142469105Y-48885360D01*
X142485971Y-48982023D01*
X142498102Y-49079687D01*
X142505431Y-49178188D01*
X142507889Y-49277363D01*
X142507889Y-50277363D01*
X142510347Y-50376537D01*
X142517675Y-50475038D01*
X142529806Y-50572703D01*
X142546673Y-50669366D01*
X142568206Y-50764864D01*
X142594338Y-50859034D01*
X142625001Y-50951711D01*
X142660128Y-51042731D01*
X142699650Y-51131930D01*
X142743499Y-51219145D01*
X142791609Y-51304211D01*
X142843909Y-51386965D01*
X142900334Y-51467243D01*
X142960815Y-51544880D01*
X143025284Y-51619713D01*
X143093674Y-51691578D01*
X143165539Y-51759967D01*
X143240373Y-51824435D01*
X143318011Y-51884916D01*
X143398289Y-51941341D01*
X143481043Y-51993641D01*
X143566110Y-52041751D01*
X143653325Y-52085600D01*
X143742525Y-52125123D01*
X143833545Y-52160249D01*
X143926222Y-52190913D01*
X144020391Y-52217045D01*
X144115889Y-52238578D01*
X144212552Y-52255445D01*
X144310215Y-52267576D01*
X144408716Y-52274905D01*
X144507889Y-52277363D01*
X157895355Y-52277367D01*
X158053729Y-52281956D01*
X158210630Y-52295612D01*
X158365715Y-52318164D01*
X158518638Y-52349442D01*
X158669056Y-52389278D01*
X158816624Y-52437502D01*
X158960999Y-52493944D01*
X159101837Y-52558435D01*
X159238793Y-52630804D01*
X159371523Y-52710883D01*
X159499683Y-52798502D01*
X159622930Y-52893490D01*
X159740917Y-52995680D01*
X159853303Y-53104901D01*
X159959742Y-53220983D01*
X160059891Y-53343758D01*
X160077408Y-53366547D01*
X160162945Y-53471410D01*
X160253855Y-53570558D01*
X160349844Y-53663845D01*
X160450619Y-53751126D01*
X160555885Y-53832257D01*
X160665349Y-53907092D01*
X160778715Y-53975488D01*
X160895691Y-54037299D01*
X161015982Y-54092381D01*
X161139294Y-54140588D01*
X161265333Y-54181776D01*
X161393806Y-54215799D01*
X161524418Y-54242515D01*
X161656874Y-54261776D01*
X161790882Y-54273439D01*
X161926147Y-54277359D01*
X206037186Y-54277359D01*
X206136359Y-54279817D01*
X206234859Y-54287146D01*
X206332523Y-54299277D01*
X206429185Y-54316143D01*
X206524683Y-54337677D01*
X206618852Y-54363809D01*
X206711529Y-54394472D01*
X206802549Y-54429599D01*
X206891749Y-54469121D01*
X206978964Y-54512971D01*
X207064031Y-54561080D01*
X207146785Y-54613381D01*
X207227064Y-54669806D01*
X207304701Y-54730287D01*
X207379535Y-54794755D01*
X207451401Y-54863144D01*
X207519790Y-54935009D01*
X207584259Y-55009842D01*
X207644740Y-55087479D01*
X207701165Y-55167756D01*
X207753466Y-55250510D01*
X207801575Y-55335577D01*
X207845425Y-55422792D01*
X207884947Y-55511991D01*
X207920073Y-55603011D01*
X207950737Y-55695688D01*
X207976869Y-55789857D01*
X207998402Y-55885356D01*
X208015268Y-55982019D01*
X208027399Y-56079683D01*
X208034728Y-56178185D01*
X208037186Y-56277359D01*
X208037201Y-125767593D01*
X208032512Y-126011234D01*
X208018498Y-126253880D01*
X207995239Y-126495277D01*
X207962816Y-126735172D01*
X207921308Y-126973311D01*
X207870795Y-127209441D01*
X207811358Y-127443309D01*
X207743076Y-127674662D01*
X207666030Y-127903245D01*
X207580300Y-128128805D01*
X207485966Y-128351089D01*
X207383107Y-128569843D01*
X207271804Y-128784814D01*
X207152137Y-128995749D01*
X207024186Y-129202394D01*
X206888031Y-129404495D01*
X198988876Y-140656372D01*
X198911521Y-140760587D01*
X198829181Y-140860074D01*
X198742082Y-140954697D01*
X198650450Y-141044323D01*
X198554512Y-141128814D01*
X198454493Y-141208035D01*
X198350621Y-141281851D01*
X198243120Y-141350126D01*
X198132218Y-141412725D01*
X198018141Y-141469512D01*
X197901114Y-141520351D01*
X197781365Y-141565107D01*
X197659119Y-141603644D01*
X197534603Y-141635827D01*
X197408042Y-141661520D01*
X197279663Y-141680588D01*
X197150456Y-141692838D01*
X197021426Y-141698220D01*
X196892825Y-141696813D01*
X196764907Y-141688692D01*
X196637923Y-141673936D01*
X196512124Y-141652622D01*
X196387763Y-141624827D01*
X196265093Y-141590630D01*
X196144364Y-141550106D01*
X196025830Y-141503334D01*
X195909742Y-141450392D01*
X195796352Y-141391355D01*
X195685913Y-141326303D01*
X195578676Y-141255313D01*
X195474893Y-141178461D01*
X195374817Y-141095825D01*
X195351318Y-141075333D01*
X195342282Y-141067490D01*
X195332035Y-141058517D01*
X195321805Y-141049579D01*
X195312820Y-141041840D01*
X193354234Y-139399813D01*
X191340502Y-137836923D01*
X189274087Y-136354217D01*
X187157453Y-134952743D01*
X184993064Y-133633546D01*
X182783384Y-132397676D01*
X180530876Y-131246178D01*
X178238005Y-130180100D01*
X175907233Y-129200490D01*
X173541025Y-128308394D01*
X171141844Y-127504861D01*
X168712154Y-126790936D01*
X166254419Y-126167667D01*
X163771102Y-125636102D01*
X161264668Y-125197288D01*
X158737579Y-124852272D01*
X157807304Y-124752673D01*
X156747551Y-124654470D01*
X155686710Y-124568790D01*
X154753174Y-124506760D01*
X152112063Y-124411188D01*
X149449352Y-124424726D01*
X146745477Y-124553332D01*
X143980873Y-124802961D01*
X141135974Y-125179573D01*
X138191215Y-125689122D01*
X135127032Y-126337568D01*
X131923859Y-127130867D01*
X131726151Y-127162866D01*
X131528350Y-127181417D01*
X131331064Y-127186731D01*
X131134899Y-127179019D01*
X130940462Y-127158491D01*
X130748359Y-127125358D01*
X130559199Y-127079831D01*
X130373587Y-127022120D01*
X130192130Y-126952435D01*
X130015436Y-126870988D01*
X129844111Y-126777989D01*
X129678762Y-126673649D01*
X129519996Y-126558178D01*
X129368419Y-126431787D01*
X129224640Y-126294687D01*
X129089264Y-126147087D01*
X129008057Y-126068176D01*
X128024161Y-125157373D01*
X127001501Y-124299028D01*
X125942219Y-123494010D01*
X124848458Y-122743190D01*
X123722360Y-122047436D01*
X122566070Y-121407619D01*
X121381730Y-120824610D01*
X120171483Y-120299276D01*
X118937472Y-119832489D01*
X117681840Y-119425119D01*
X116406731Y-119078034D01*
X115114286Y-118792105D01*
X113806649Y-118568202D01*
X112485964Y-118407194D01*
X111154372Y-118309951D01*
X109814018Y-118277344D01*
X88507812Y-118277344D01*
X88408638Y-118274886D01*
X88310137Y-118267557D01*
X88212473Y-118255426D01*
X88115810Y-118238560D01*
X88020312Y-118217027D01*
X87926142Y-118190895D01*
X87833466Y-118160231D01*
X87742446Y-118125105D01*
X87653247Y-118085583D01*
X87566032Y-118041733D01*
X87480966Y-117993624D01*
X87398212Y-117941323D01*
X87317934Y-117884898D01*
X87240296Y-117824417D01*
X87165463Y-117759948D01*
X87093597Y-117691559D01*
X87025208Y-117619693D01*
X86960739Y-117544860D01*
X86900258Y-117467222D01*
X86843833Y-117386945D01*
X86791532Y-117304191D01*
X86743423Y-117219124D01*
X86699573Y-117131910D01*
X86660051Y-117042710D01*
X86624925Y-116951690D01*
X86594261Y-116859014D01*
X86568129Y-116764845D01*
X86546596Y-116669346D01*
X86529730Y-116572683D01*
X86517599Y-116475019D01*
X86510270Y-116376518D01*
X86507813Y-116277344D01*
X86507813Y-111777344D01*
X86505355Y-111678169D01*
X86498026Y-111579668D01*
X86485895Y-111482004D01*
X86469029Y-111385341D01*
X86447496Y-111289843D01*
X86421363Y-111195674D01*
X86390700Y-111102997D01*
X86355574Y-111011977D01*
X86316052Y-110922778D01*
X86272202Y-110835563D01*
X86224093Y-110750497D01*
X86171792Y-110667743D01*
X86115367Y-110587465D01*
X86054886Y-110509828D01*
X85990417Y-110434994D01*
X85922028Y-110363129D01*
X85850162Y-110294739D01*
X85775329Y-110230270D01*
X85697691Y-110169789D01*
X85617413Y-110113364D01*
X85534659Y-110061063D01*
X85449593Y-110012954D01*
X85362378Y-109969105D01*
X85273179Y-109929583D01*
X85182159Y-109894456D01*
X85089483Y-109863793D01*
X84995313Y-109837661D01*
X84899815Y-109816127D01*
X84803152Y-109799261D01*
X84705488Y-109787130D01*
X84606987Y-109779802D01*
X84507813Y-109777344D01*
X70507813Y-109777344D01*
X70408638Y-109774886D01*
X70310137Y-109767557D01*
X70212473Y-109755426D01*
X70115810Y-109738560D01*
X70020312Y-109717027D01*
X69926142Y-109690895D01*
X69833466Y-109660232D01*
X69742446Y-109625105D01*
X69653247Y-109585583D01*
X69566032Y-109541733D01*
X69480966Y-109493624D01*
X69398212Y-109441323D01*
X69317934Y-109384898D01*
X69240296Y-109324417D01*
X69165463Y-109259948D01*
X69093597Y-109191559D01*
X69025208Y-109119693D01*
X68960739Y-109044860D01*
X68900258Y-108967222D01*
X68843833Y-108886945D01*
X68791532Y-108804191D01*
X68743423Y-108719124D01*
X68699573Y-108631910D01*
X68660051Y-108542710D01*
X68624925Y-108451690D01*
X68594261Y-108359014D01*
X68568129Y-108264845D01*
X68546596Y-108169346D01*
X68529730Y-108072683D01*
X68517599Y-107975019D01*
X68510270Y-107876518D01*
X68507813Y-107777344D01*
X68507813Y-74777344D01*
X68510270Y-74678169D01*
X68517599Y-74579668D01*
X68529730Y-74482004D01*
X68546596Y-74385341D01*
X68568129Y-74289843D01*
X68594261Y-74195674D01*
X68624925Y-74102997D01*
X68660051Y-74011977D01*
X68699573Y-73922778D01*
X68743423Y-73835563D01*
X68791532Y-73750497D01*
X68843833Y-73667743D01*
X68900258Y-73587465D01*
X68960739Y-73509828D01*
X69025208Y-73434994D01*
X69093597Y-73363129D01*
X69165463Y-73294739D01*
X69240296Y-73230270D01*
X69317934Y-73169789D01*
X69398212Y-73113364D01*
X69480966Y-73061063D01*
X69566032Y-73012954D01*
X69653247Y-72969105D01*
X69742446Y-72929583D01*
X69833466Y-72894456D01*
X69926142Y-72863793D01*
X70020312Y-72837661D01*
X70115810Y-72816128D01*
X70212473Y-72799261D01*
X70310137Y-72787130D01*
X70408638Y-72779802D01*
X70507813Y-72777344D01*
X84507813Y-72777344D01*
X84606987Y-72774886D01*
X84705488Y-72767557D01*
X84803152Y-72755426D01*
X84899815Y-72738560D01*
X84995313Y-72717027D01*
X85089483Y-72690895D01*
X85182159Y-72660231D01*
X85273179Y-72625105D01*
X85362378Y-72585583D01*
X85449593Y-72541733D01*
X85534659Y-72493624D01*
X85617413Y-72441323D01*
X85697691Y-72384898D01*
X85775329Y-72324417D01*
X85850162Y-72259948D01*
X85922028Y-72191559D01*
X85990417Y-72119693D01*
X86054886Y-72044860D01*
X86115367Y-71967222D01*
X86171792Y-71886945D01*
X86224093Y-71804191D01*
X86272202Y-71719124D01*
X86316052Y-71631910D01*
X86355574Y-71542710D01*
X86390700Y-71451690D01*
X86421363Y-71359014D01*
X86447496Y-71264845D01*
X86469029Y-71169346D01*
X86485895Y-71072683D01*
X86498026Y-70975019D01*
X86505355Y-70876518D01*
X86507813Y-70777344D01*
X86507813Y-66277344D01*
X86510270Y-66178169D01*
X86517599Y-66079668D01*
X86529730Y-65982004D01*
X86546596Y-65885341D01*
X86568129Y-65789843D01*
X86594261Y-65695674D01*
X86624925Y-65602997D01*
X86660051Y-65511977D01*
X86699573Y-65422778D01*
X86743423Y-65335563D01*
X86791532Y-65250497D01*
X86843833Y-65167743D01*
X86900258Y-65087465D01*
X86960739Y-65009828D01*
X87025208Y-64934994D01*
X87093597Y-64863129D01*
X87165463Y-64794739D01*
X87240296Y-64730270D01*
X87317934Y-64669789D01*
X87398212Y-64613364D01*
X87480966Y-64561064D01*
X87566032Y-64512954D01*
X87653247Y-64469105D01*
X87742446Y-64429583D01*
X87833466Y-64394456D01*
X87926142Y-64363793D01*
X88020312Y-64337661D01*
X88115810Y-64316127D01*
X88212473Y-64299261D01*
X88310137Y-64287130D01*
X88408638Y-64279802D01*
X88507812Y-64277344D01*
X102507812Y-64277344D01*
X102606987Y-64274886D01*
X102705488Y-64267557D01*
X102803152Y-64255426D01*
X102899815Y-64238560D01*
X102995313Y-64217027D01*
X103089483Y-64190895D01*
X103182159Y-64160232D01*
X103273179Y-64125105D01*
X103362378Y-64085583D01*
X103449593Y-64041733D01*
X103534659Y-63993624D01*
X103617413Y-63941323D01*
X103697691Y-63884898D01*
X103775329Y-63824417D01*
X103850162Y-63759948D01*
X103922028Y-63691559D01*
X103990417Y-63619694D01*
X104054886Y-63544861D01*
X104115367Y-63467224D01*
X104171792Y-63386946D01*
X104224093Y-63304192D01*
X104272202Y-63219126D01*
X104316052Y-63131911D01*
X104355574Y-63042712D01*
X104390700Y-62951692D01*
X104421364Y-62859015D01*
X104447496Y-62764845D01*
X104469029Y-62669347D01*
X104485895Y-62572684D01*
X104498026Y-62475019D01*
X104505355Y-62376518D01*
X104507812Y-62277344D01*
X104507812Y-54277344D01*
X104510270Y-54178169D01*
X104517599Y-54079668D01*
X104529730Y-53982004D01*
X104546596Y-53885341D01*
X104568129Y-53789842D01*
X104594261Y-53695673D01*
X104624925Y-53602996D01*
X104660051Y-53511976D01*
X104699573Y-53422776D01*
X104743423Y-53335561D01*
X104791532Y-53250495D01*
X104843833Y-53167741D01*
X104900258Y-53087464D01*
X104960739Y-53009826D01*
X105025208Y-52934993D01*
X105093597Y-52863129D01*
X105165463Y-52794740D01*
X105240296Y-52730271D01*
X105317934Y-52669791D01*
X105398212Y-52613366D01*
X105480966Y-52561065D01*
X105566032Y-52512956D01*
X105653247Y-52469106D01*
X105742446Y-52429584D01*
X105833466Y-52394457D01*
X105926142Y-52363794D01*
X106020312Y-52337661D01*
X106115810Y-52316128D01*
X106212473Y-52299262D01*
X106310137Y-52287130D01*
X106408638Y-52279802D01*
X106507812Y-52277344D01*
X120507813Y-52277344D01*
X120606987Y-52274886D01*
X120705488Y-52267557D01*
X120803152Y-52255426D01*
X120899815Y-52238559D01*
X120995313Y-52217026D01*
X121089483Y-52190894D01*
X121182159Y-52160230D01*
X121273179Y-52125104D01*
X121362378Y-52085581D01*
X121449593Y-52041732D01*
X121534659Y-51993622D01*
X121617413Y-51941321D01*
X121697691Y-51884897D01*
X121775329Y-51824416D01*
X121850162Y-51759948D01*
X121922028Y-51691559D01*
X121990417Y-51619694D01*
X122054886Y-51544861D01*
X122115367Y-51467224D01*
X122171792Y-51386946D01*
X122224093Y-51304192D01*
X122272202Y-51219126D01*
X122316052Y-51131911D01*
X122355574Y-51042712D01*
X122390700Y-50951692D01*
X122421364Y-50859015D01*
X122447496Y-50764845D01*
X122469029Y-50669347D01*
X122485895Y-50572684D01*
X122498026Y-50475019D01*
X122505355Y-50376518D01*
X122507813Y-50277344D01*
X122507813Y-49277344D01*
X122507889Y-49277363D01*
X122510347Y-49178188D01*
X122517675Y-49079687D01*
X122529807Y-48982023D01*
X122546673Y-48885360D01*
X122568206Y-48789861D01*
X122594338Y-48695692D01*
X122625001Y-48603015D01*
X122660128Y-48511995D01*
X122699650Y-48422795D01*
X122743499Y-48335581D01*
X122791608Y-48250514D01*
X122843910Y-48167760D01*
X122900334Y-48087483D01*
X122960815Y-48009846D01*
X123025284Y-47935013D01*
X123093674Y-47863148D01*
X123165539Y-47794759D01*
X123240373Y-47730290D01*
X123318010Y-47669810D01*
X123398288Y-47613385D01*
X123481042Y-47561084D01*
X123566108Y-47512975D01*
X123653323Y-47469125D01*
X123742522Y-47429603D01*
X123833542Y-47394476D01*
X123926219Y-47363813D01*
X124020388Y-47337680D01*
X124115886Y-47316147D01*
X124212549Y-47299281D01*
X124310213Y-47287149D01*
X124408714Y-47279821D01*
X124507889Y-47277363D01*
X140507889Y-47277363D01*
X140607062Y-47279821D01*
M02*
