%TF.GenerationSoftware,KiCad,Pcbnew,7.0.1-0*%
%TF.CreationDate,2025-04-04T15:19:30+02:00*%
%TF.ProjectId,nantor,6e616e74-6f72-42e6-9b69-6361645f7063,rev?*%
%TF.SameCoordinates,Original*%
%TF.FileFunction,Soldermask,Bot*%
%TF.FilePolarity,Negative*%
%FSLAX46Y46*%
G04 Gerber Fmt 4.6, Leading zero omitted, Abs format (unit mm)*
G04 Created by KiCad (PCBNEW 7.0.1-0) date 2025-04-04 15:19:30*
%MOMM*%
%LPD*%
G01*
G04 APERTURE LIST*
G04 Aperture macros list*
%AMRoundRect*
0 Rectangle with rounded corners*
0 $1 Rounding radius*
0 $2 $3 $4 $5 $6 $7 $8 $9 X,Y pos of 4 corners*
0 Add a 4 corners polygon primitive as box body*
4,1,4,$2,$3,$4,$5,$6,$7,$8,$9,$2,$3,0*
0 Add four circle primitives for the rounded corners*
1,1,$1+$1,$2,$3*
1,1,$1+$1,$4,$5*
1,1,$1+$1,$6,$7*
1,1,$1+$1,$8,$9*
0 Add four rect primitives between the rounded corners*
20,1,$1+$1,$2,$3,$4,$5,0*
20,1,$1+$1,$4,$5,$6,$7,0*
20,1,$1+$1,$6,$7,$8,$9,0*
20,1,$1+$1,$8,$9,$2,$3,0*%
%AMRotRect*
0 Rectangle, with rotation*
0 The origin of the aperture is its center*
0 $1 length*
0 $2 width*
0 $3 Rotation angle, in degrees counterclockwise*
0 Add horizontal line*
21,1,$1,$2,0,0,$3*%
G04 Aperture macros list end*
%ADD10C,1.701800*%
%ADD11C,3.000000*%
%ADD12C,3.429000*%
%ADD13R,2.600000X2.600000*%
%ADD14C,2.032000*%
%ADD15RotRect,2.600000X2.600000X355.000000*%
%ADD16RotRect,2.600000X2.600000X340.000000*%
%ADD17R,1.700000X1.700000*%
%ADD18C,1.700000*%
%ADD19C,0.900000*%
%ADD20C,0.800000*%
%ADD21O,2.000000X1.600000*%
%ADD22RotRect,2.600000X2.600000X10.000000*%
%ADD23RotRect,2.600000X2.600000X325.000000*%
%ADD24R,0.800000X1.000000*%
%ADD25R,1.500000X0.700000*%
%ADD26RoundRect,0.250000X0.600000X0.750000X-0.600000X0.750000X-0.600000X-0.750000X0.600000X-0.750000X0*%
%ADD27O,1.700000X2.000000*%
G04 APERTURE END LIST*
D10*
%TO.C,KS12*%
X163006983Y-81277968D03*
D11*
X163506983Y-77527968D03*
X168506983Y-75327968D03*
D12*
X168506983Y-81277968D03*
D11*
X173506983Y-77527968D03*
D10*
X174006983Y-81277968D03*
D13*
X165231983Y-75327968D03*
D14*
X168506983Y-87177968D03*
X163506983Y-85077968D03*
X173506983Y-85077968D03*
D13*
X176781983Y-77527968D03*
%TD*%
D10*
%TO.C,KS2*%
X91006983Y-74277968D03*
D11*
X91506983Y-70527968D03*
X96506983Y-68327968D03*
D12*
X96506983Y-74277968D03*
D11*
X101506983Y-70527968D03*
D10*
X102006983Y-74277968D03*
D13*
X93231983Y-68327968D03*
D14*
X96506983Y-80177968D03*
X91506983Y-78077968D03*
X101506983Y-78077968D03*
D13*
X104781983Y-70527968D03*
%TD*%
D10*
%TO.C,KS3*%
X109006983Y-62277968D03*
D11*
X109506983Y-58527968D03*
X114506983Y-56327968D03*
D12*
X114506983Y-62277968D03*
D11*
X119506983Y-58527968D03*
D10*
X120006983Y-62277968D03*
D13*
X111231983Y-56327968D03*
D14*
X114506983Y-68177968D03*
X109506983Y-66077968D03*
X119506983Y-66077968D03*
D13*
X122781983Y-58527968D03*
%TD*%
D10*
%TO.C,KS19*%
X151915929Y-114619643D03*
D11*
X152740861Y-110927491D03*
X157913577Y-109171642D03*
D12*
X157395000Y-115099000D03*
D11*
X162702808Y-111799049D03*
D10*
X162874071Y-115578357D03*
D15*
X154651039Y-108886206D03*
D14*
X156880781Y-120976549D03*
X152082835Y-118448761D03*
X162044782Y-119320319D03*
D15*
X165965345Y-112084484D03*
%TD*%
D10*
%TO.C,KS4*%
X127006983Y-57277968D03*
D11*
X127506983Y-53527968D03*
X132506983Y-51327968D03*
D12*
X132506983Y-57277968D03*
D11*
X137506983Y-53527968D03*
D10*
X138006983Y-57277968D03*
D13*
X129231983Y-51327968D03*
D14*
X132506983Y-63177968D03*
X127506983Y-61077968D03*
X137506983Y-61077968D03*
D13*
X140781983Y-53527968D03*
%TD*%
D10*
%TO.C,KS17*%
X163006983Y-98277968D03*
D11*
X163506983Y-94527968D03*
X168506983Y-92327968D03*
D12*
X168506983Y-98277968D03*
D11*
X173506983Y-94527968D03*
D10*
X174006983Y-98277968D03*
D13*
X165231983Y-92327968D03*
D14*
X168506983Y-104177968D03*
X163506983Y-102077968D03*
X173506983Y-102077968D03*
D13*
X176781983Y-94527968D03*
%TD*%
D10*
%TO.C,KS11*%
X145006983Y-79277968D03*
D11*
X145506983Y-75527968D03*
X150506983Y-73327968D03*
D12*
X150506983Y-79277968D03*
D11*
X155506983Y-75527968D03*
D10*
X156006983Y-79277968D03*
D13*
X147231983Y-73327968D03*
D14*
X150506983Y-85177968D03*
X145506983Y-83077968D03*
X155506983Y-83077968D03*
D13*
X158781983Y-75527968D03*
%TD*%
D10*
%TO.C,KS16*%
X145006983Y-96277968D03*
D11*
X145506983Y-92527968D03*
X150506983Y-90327968D03*
D12*
X150506983Y-96277968D03*
D11*
X155506983Y-92527968D03*
D10*
X156006983Y-96277968D03*
D13*
X147231983Y-90327968D03*
D14*
X150506983Y-102177968D03*
X145506983Y-100077968D03*
X155506983Y-100077968D03*
D13*
X158781983Y-92527968D03*
%TD*%
D10*
%TO.C,KS1*%
X73006983Y-82777968D03*
D11*
X73506983Y-79027968D03*
X78506983Y-76827968D03*
D12*
X78506983Y-82777968D03*
D11*
X83506983Y-79027968D03*
D10*
X84006983Y-82777968D03*
D13*
X75231983Y-76827968D03*
D14*
X78506983Y-88677968D03*
X73506983Y-86577968D03*
X83506983Y-86577968D03*
D13*
X86781983Y-79027968D03*
%TD*%
D10*
%TO.C,KS7*%
X73006983Y-99777968D03*
D11*
X73506983Y-96027968D03*
X78506983Y-93827968D03*
D12*
X78506983Y-99777968D03*
D11*
X83506983Y-96027968D03*
D10*
X84006983Y-99777968D03*
D13*
X75231983Y-93827968D03*
D14*
X78506983Y-105677968D03*
X73506983Y-103577968D03*
X83506983Y-103577968D03*
D13*
X86781983Y-96027968D03*
%TD*%
D10*
%TO.C,KS20*%
X171978691Y-117596889D03*
D11*
X173731112Y-114244052D03*
X179182020Y-113886829D03*
D12*
X177147000Y-119478000D03*
D11*
X183128039Y-117664253D03*
D10*
X182315309Y-121359111D03*
D16*
X176104527Y-112766713D03*
D14*
X175129081Y-125022186D03*
X171148860Y-121338731D03*
X180545787Y-124758933D03*
D16*
X186205532Y-118784369D03*
%TD*%
D17*
%TO.C,U1*%
X183541983Y-57297968D03*
X201321983Y-57297968D03*
D18*
X183541983Y-59837968D03*
X201321983Y-59837968D03*
X183541983Y-62377968D03*
X201321983Y-62377968D03*
X183541983Y-64917968D03*
X201321983Y-64917968D03*
X183541983Y-67457968D03*
X201321983Y-67457968D03*
X183541983Y-69997968D03*
X201321983Y-69997968D03*
X183541983Y-72537968D03*
X201321983Y-72537968D03*
X183541983Y-75077968D03*
X201321983Y-75077968D03*
X183541983Y-77617968D03*
X201321983Y-77617968D03*
X183541983Y-80157968D03*
X201321983Y-80157968D03*
X183541983Y-82697968D03*
X201321983Y-82697968D03*
X183541983Y-85237968D03*
X201321983Y-85237968D03*
X183541983Y-87777968D03*
X201321983Y-87777968D03*
X183541983Y-90317968D03*
X201321983Y-90317968D03*
X183541983Y-92857968D03*
X201321983Y-92857968D03*
X183541983Y-95397968D03*
X201321983Y-95397968D03*
X183541983Y-97937968D03*
X201321983Y-97937968D03*
X183541983Y-100477968D03*
X201321983Y-100477968D03*
X183541983Y-103017968D03*
X201321983Y-103017968D03*
X183541983Y-105557968D03*
X201321983Y-105557968D03*
X186081983Y-105557968D03*
X198781983Y-105557968D03*
X186081983Y-103017968D03*
X198781983Y-103017968D03*
X186081983Y-100477968D03*
X198781983Y-100477968D03*
X186081983Y-97937968D03*
X198781983Y-97937968D03*
X186081983Y-95397968D03*
X198781983Y-95397968D03*
X186081983Y-92857968D03*
X198781983Y-92857968D03*
X186081983Y-90317968D03*
X198781983Y-90317968D03*
X186081983Y-87777968D03*
X198781983Y-87777968D03*
X186081983Y-85237968D03*
X198781983Y-85237968D03*
X186081983Y-82697968D03*
X198781983Y-82697968D03*
X186081983Y-80157968D03*
X198781983Y-80157968D03*
X186081983Y-77617968D03*
X198781983Y-77617968D03*
X186081983Y-75077968D03*
X198781983Y-75077968D03*
X186081983Y-72537968D03*
X198781983Y-72537968D03*
X186081983Y-69997968D03*
X198781983Y-69997968D03*
X186081983Y-67457968D03*
X198781983Y-67457968D03*
X186081983Y-64917968D03*
X198781983Y-64917968D03*
X186081983Y-62377968D03*
X198781983Y-62377968D03*
X186081983Y-59837968D03*
X198781983Y-59837968D03*
X186081983Y-57297968D03*
X198781983Y-57297968D03*
%TD*%
D10*
%TO.C,KS5*%
X145006983Y-62277968D03*
D11*
X145506983Y-58527968D03*
X150506983Y-56327968D03*
D12*
X150506983Y-62277968D03*
D11*
X155506983Y-58527968D03*
D10*
X156006983Y-62277968D03*
D13*
X147231983Y-56327968D03*
D14*
X150506983Y-68177968D03*
X145506983Y-66077968D03*
X155506983Y-66077968D03*
D13*
X158781983Y-58527968D03*
%TD*%
D19*
%TO.C,SW1*%
X206206699Y-123009898D03*
X206206699Y-120009898D03*
%TD*%
D20*
%TO.C,J1*%
X206615182Y-111607147D03*
X199615182Y-111607147D03*
X206615182Y-113887147D03*
X199615182Y-113887147D03*
D21*
X202015182Y-109307147D03*
X205015182Y-116187147D03*
X196915182Y-111587147D03*
X196915182Y-113907147D03*
X198015182Y-109307147D03*
X198015182Y-116187147D03*
X205015182Y-109307147D03*
X202015182Y-116187147D03*
%TD*%
D10*
%TO.C,KS6*%
X163006983Y-64277968D03*
D11*
X163506983Y-60527968D03*
X168506983Y-58327968D03*
D12*
X168506983Y-64277968D03*
D11*
X173506983Y-60527968D03*
D10*
X174006983Y-64277968D03*
D13*
X165231983Y-58327968D03*
D14*
X168506983Y-70177968D03*
X163506983Y-68077968D03*
X173506983Y-68077968D03*
D13*
X176781983Y-60527968D03*
%TD*%
D10*
%TO.C,KS13*%
X91006983Y-108277968D03*
D11*
X91506983Y-104527968D03*
X96506983Y-102327968D03*
D12*
X96506983Y-108277968D03*
D11*
X101506983Y-104527968D03*
D10*
X102006983Y-108277968D03*
D13*
X93231983Y-102327968D03*
D14*
X96506983Y-114177968D03*
X91506983Y-112077968D03*
X101506983Y-112077968D03*
D13*
X104781983Y-104527968D03*
%TD*%
D10*
%TO.C,KS14*%
X109006983Y-96277968D03*
D11*
X109506983Y-92527968D03*
X114506983Y-90327968D03*
D12*
X114506983Y-96277968D03*
D11*
X119506983Y-92527968D03*
D10*
X120006983Y-96277968D03*
D13*
X111231983Y-90327968D03*
D14*
X114506983Y-102177968D03*
X109506983Y-100077968D03*
X119506983Y-100077968D03*
D13*
X122781983Y-92527968D03*
%TD*%
D10*
%TO.C,KS18*%
X131766557Y-116937065D03*
D11*
X131607781Y-113157212D03*
X136149793Y-110122394D03*
D12*
X137183000Y-115982000D03*
D11*
X141455858Y-111420730D03*
D10*
X142599443Y-115026935D03*
D22*
X132924548Y-110691092D03*
D14*
X138207524Y-121792366D03*
X132918824Y-120592510D03*
X142766902Y-118856029D03*
D22*
X144681103Y-110852032D03*
%TD*%
D10*
%TO.C,KS10*%
X127006983Y-74277968D03*
D11*
X127506983Y-70527968D03*
X132506983Y-68327968D03*
D12*
X132506983Y-74277968D03*
D11*
X137506983Y-70527968D03*
D10*
X138006983Y-74277968D03*
D13*
X129231983Y-68327968D03*
D14*
X132506983Y-80177968D03*
X127506983Y-78077968D03*
X137506983Y-78077968D03*
D13*
X140781983Y-70527968D03*
%TD*%
D10*
%TO.C,KS15*%
X127006983Y-91277968D03*
D11*
X127506983Y-87527968D03*
X132506983Y-85327968D03*
D12*
X132506983Y-91277968D03*
D11*
X137506983Y-87527968D03*
D10*
X138006983Y-91277968D03*
D13*
X129231983Y-85327968D03*
D14*
X132506983Y-97177968D03*
X127506983Y-95077968D03*
X137506983Y-95077968D03*
D13*
X140781983Y-87527968D03*
%TD*%
D10*
%TO.C,KS21*%
X190587664Y-125665330D03*
D11*
X193148151Y-122880298D03*
X198505780Y-123946045D03*
D12*
X195093000Y-128820000D03*
D11*
X201339672Y-128616062D03*
D10*
X199598336Y-131974670D03*
D23*
X195823057Y-122067583D03*
D14*
X191708899Y-133652997D03*
X188817649Y-129064896D03*
X197009170Y-134800660D03*
D23*
X204022395Y-130494525D03*
%TD*%
D10*
%TO.C,KS9*%
X109006983Y-79277968D03*
D11*
X109506983Y-75527968D03*
X114506983Y-73327968D03*
D12*
X114506983Y-79277968D03*
D11*
X119506983Y-75527968D03*
D10*
X120006983Y-79277968D03*
D13*
X111231983Y-73327968D03*
D14*
X114506983Y-85177968D03*
X109506983Y-83077968D03*
X119506983Y-83077968D03*
D13*
X122781983Y-75527968D03*
%TD*%
D10*
%TO.C,KS8*%
X91006983Y-91277968D03*
D11*
X91506983Y-87527968D03*
X96506983Y-85327968D03*
D12*
X96506983Y-91277968D03*
D11*
X101506983Y-87527968D03*
D10*
X102006983Y-91277968D03*
D13*
X93231983Y-85327968D03*
D14*
X96506983Y-97177968D03*
X91506983Y-95077968D03*
X101506983Y-95077968D03*
D13*
X104781983Y-87527968D03*
%TD*%
D24*
%TO.C,SW2*%
X207307000Y-117860000D03*
X205097000Y-117860000D03*
D19*
X206207000Y-120010000D03*
X206207000Y-123010000D03*
D24*
X207307000Y-125160000D03*
X205097000Y-125160000D03*
D25*
X204447000Y-119260000D03*
X204447000Y-122260000D03*
X204447000Y-123760000D03*
%TD*%
D26*
%TO.C,J2*%
X192806983Y-116071469D03*
D27*
X190306983Y-116071469D03*
%TD*%
M02*
