M48
; DRILL file {KiCad 7.0.1-0} date 2025 September 26, Friday 20:14:51
; FORMAT={-:-/ absolute / metric / decimal}
; #@! TF.CreationDate,2025-09-26T20:14:51+02:00
; #@! TF.GenerationSoftware,Kicad,Pcbnew,7.0.1-0
; #@! TF.FileFunction,Plated,1,2,PTH
FMAT,2
METRIC
; #@! TA.AperFunction,Plated,PTH,ViaDrill
T1C0.400
; #@! TA.AperFunction,Plated,PTH,ComponentDrill
T2C0.900
; #@! TA.AperFunction,Plated,PTH,ComponentDrill
T3C1.000
; #@! TA.AperFunction,Plated,PTH,ComponentDrill
T4C1.270
%
G90
G05
T1
X179.809Y-67.119
X179.809Y-84.119
X179.809Y-101.119
X202.542Y-123.761
X202.542Y-120.77
T3
X183.542Y-57.298
X183.542Y-59.838
X183.542Y-62.378
X183.542Y-64.918
X183.542Y-67.458
X183.542Y-69.998
X183.542Y-72.538
X183.542Y-75.078
X183.542Y-77.618
X183.542Y-80.158
X183.542Y-82.698
X183.542Y-85.238
X183.542Y-87.778
X183.542Y-90.318
X183.542Y-92.858
X183.542Y-95.398
X183.542Y-97.938
X183.542Y-100.478
X183.542Y-103.018
X183.542Y-105.558
X186.082Y-57.298
X186.082Y-59.838
X186.082Y-62.378
X186.082Y-64.918
X186.082Y-67.458
X186.082Y-69.998
X186.082Y-72.538
X186.082Y-75.078
X186.082Y-77.618
X186.082Y-80.158
X186.082Y-82.698
X186.082Y-85.238
X186.082Y-87.778
X186.082Y-90.318
X186.082Y-92.858
X186.082Y-95.398
X186.082Y-97.938
X186.082Y-100.478
X186.082Y-103.018
X186.082Y-105.558
X191.034Y-106.235
X193.534Y-106.235
X198.782Y-57.298
X198.782Y-59.838
X198.782Y-62.378
X198.782Y-64.918
X198.782Y-67.458
X198.782Y-69.998
X198.782Y-72.538
X198.782Y-75.078
X198.782Y-77.618
X198.782Y-80.158
X198.782Y-82.698
X198.782Y-85.238
X198.782Y-87.778
X198.782Y-90.318
X198.782Y-92.858
X198.782Y-95.398
X198.782Y-97.938
X198.782Y-100.478
X198.782Y-103.018
X198.782Y-105.558
X201.322Y-57.298
X201.322Y-59.838
X201.322Y-62.378
X201.322Y-64.918
X201.322Y-67.458
X201.322Y-69.998
X201.322Y-72.538
X201.322Y-75.078
X201.322Y-77.618
X201.322Y-80.158
X201.322Y-82.698
X201.322Y-85.238
X201.322Y-87.778
X201.322Y-90.318
X201.322Y-92.858
X201.322Y-95.398
X201.322Y-97.938
X201.322Y-100.478
X201.322Y-103.018
X201.322Y-105.558
T4
X73.507Y-86.578
X73.507Y-103.578
X78.507Y-88.678
X78.507Y-105.678
X83.507Y-86.578
X83.507Y-103.578
X91.507Y-78.078
X91.507Y-95.078
X91.507Y-112.078
X96.507Y-80.178
X96.507Y-97.178
X96.507Y-114.178
X101.507Y-78.078
X101.507Y-95.078
X101.507Y-112.078
X109.507Y-66.078
X109.507Y-83.078
X109.507Y-100.078
X114.507Y-68.178
X114.507Y-85.178
X114.507Y-102.178
X119.507Y-66.078
X119.507Y-83.078
X119.507Y-100.078
X127.507Y-61.078
X127.507Y-78.078
X127.507Y-95.078
X132.507Y-63.178
X132.507Y-80.178
X132.507Y-97.178
X132.919Y-120.593
X137.507Y-61.078
X137.507Y-78.078
X137.507Y-95.078
X138.208Y-121.792
X142.767Y-118.856
X145.507Y-66.078
X145.507Y-83.078
X145.507Y-100.078
X150.507Y-68.178
X150.507Y-85.178
X150.507Y-102.178
X152.083Y-118.449
X155.507Y-66.078
X155.507Y-83.078
X155.507Y-100.078
X156.881Y-120.977
X162.045Y-119.32
X163.507Y-68.078
X163.507Y-85.078
X163.507Y-102.078
X168.507Y-70.178
X168.507Y-87.178
X168.507Y-104.178
X171.149Y-121.339
X173.507Y-68.078
X173.507Y-85.078
X173.507Y-102.078
X175.129Y-125.022
X180.546Y-124.759
X188.818Y-129.065
X191.709Y-133.653
X197.009Y-134.801
T2
X197.115Y-111.587G85X196.715Y-111.587
G05
X197.115Y-113.907G85X196.715Y-113.907
G05
X198.215Y-109.307G85X197.815Y-109.307
G05
X198.215Y-116.187G85X197.815Y-116.187
G05
X202.215Y-109.307G85X201.815Y-109.307
G05
X202.215Y-116.187G85X201.815Y-116.187
G05
X205.215Y-109.307G85X204.815Y-109.307
G05
X205.215Y-116.187G85X204.815Y-116.187
G05
T0
M30
