%TF.GenerationSoftware,KiCad,Pcbnew,7.0.1-0*%
%TF.CreationDate,2023-06-01T10:31:47+02:00*%
%TF.ProjectId,nantor,6e616e74-6f72-42e6-9b69-6361645f7063,rev?*%
%TF.SameCoordinates,Original*%
%TF.FileFunction,Soldermask,Top*%
%TF.FilePolarity,Negative*%
%FSLAX46Y46*%
G04 Gerber Fmt 4.6, Leading zero omitted, Abs format (unit mm)*
G04 Created by KiCad (PCBNEW 7.0.1-0) date 2023-06-01 10:31:47*
%MOMM*%
%LPD*%
G01*
G04 APERTURE LIST*
G04 Aperture macros list*
%AMRoundRect*
0 Rectangle with rounded corners*
0 $1 Rounding radius*
0 $2 $3 $4 $5 $6 $7 $8 $9 X,Y pos of 4 corners*
0 Add a 4 corners polygon primitive as box body*
4,1,4,$2,$3,$4,$5,$6,$7,$8,$9,$2,$3,0*
0 Add four circle primitives for the rounded corners*
1,1,$1+$1,$2,$3*
1,1,$1+$1,$4,$5*
1,1,$1+$1,$6,$7*
1,1,$1+$1,$8,$9*
0 Add four rect primitives between the rounded corners*
20,1,$1+$1,$2,$3,$4,$5,0*
20,1,$1+$1,$4,$5,$6,$7,0*
20,1,$1+$1,$6,$7,$8,$9,0*
20,1,$1+$1,$8,$9,$2,$3,0*%
%AMRotRect*
0 Rectangle, with rotation*
0 The origin of the aperture is its center*
0 $1 length*
0 $2 width*
0 $3 Rotation angle, in degrees counterclockwise*
0 Add horizontal line*
21,1,$1,$2,0,0,$3*%
G04 Aperture macros list end*
%ADD10C,0.000000*%
%ADD11C,1.701800*%
%ADD12C,3.000000*%
%ADD13C,3.429000*%
%ADD14C,2.032000*%
%ADD15R,2.600000X2.600000*%
%ADD16RotRect,2.600000X2.600000X355.000000*%
%ADD17RotRect,2.600000X2.600000X340.000000*%
%ADD18R,1.700000X1.700000*%
%ADD19C,1.700000*%
%ADD20R,0.800000X1.000000*%
%ADD21C,0.900000*%
%ADD22R,1.500000X0.700000*%
%ADD23C,0.800000*%
%ADD24O,2.000000X1.600000*%
%ADD25RotRect,2.600000X2.600000X10.000000*%
%ADD26RotRect,2.600000X2.600000X325.000000*%
%ADD27RoundRect,0.250000X0.600000X0.750000X-0.600000X0.750000X-0.600000X-0.750000X0.600000X-0.750000X0*%
%ADD28O,1.700000X2.000000*%
G04 APERTURE END LIST*
D10*
G36*
X121496427Y-114490710D02*
G01*
X119520870Y-114490710D01*
X119520870Y-112515158D01*
X121496427Y-112515158D01*
X121496427Y-114490710D01*
G37*
G36*
X111753005Y-110540305D02*
G01*
X111651552Y-110543234D01*
X111551434Y-110551184D01*
X111452773Y-110564032D01*
X111355692Y-110581656D01*
X111260314Y-110603931D01*
X111166761Y-110630736D01*
X111075157Y-110661948D01*
X110985624Y-110697444D01*
X110898285Y-110737101D01*
X110813262Y-110780796D01*
X110730680Y-110828407D01*
X110650659Y-110879811D01*
X110573324Y-110934884D01*
X110498796Y-110993505D01*
X110427200Y-111055550D01*
X110358657Y-111120897D01*
X110293290Y-111189422D01*
X110231222Y-111261003D01*
X110172577Y-111335517D01*
X110117476Y-111412841D01*
X110066042Y-111492853D01*
X110018399Y-111575430D01*
X109974669Y-111660449D01*
X109934974Y-111747786D01*
X109899439Y-111837320D01*
X109868185Y-111928927D01*
X109841335Y-112022485D01*
X109819012Y-112117871D01*
X109801339Y-112214962D01*
X109788439Y-112313635D01*
X109780434Y-112413767D01*
X109777447Y-112515236D01*
X107801890Y-112515236D01*
X107807031Y-112311867D01*
X107822290Y-112111173D01*
X107847419Y-111913401D01*
X107882168Y-111718801D01*
X107926290Y-111527619D01*
X107979537Y-111340105D01*
X108041659Y-111156505D01*
X108112408Y-110977068D01*
X108191537Y-110802042D01*
X108278797Y-110631674D01*
X108373940Y-110466213D01*
X108476717Y-110305907D01*
X108586879Y-110151004D01*
X108704179Y-110001751D01*
X108828368Y-109858396D01*
X108959199Y-109721188D01*
X109096421Y-109590375D01*
X109239788Y-109466204D01*
X109389051Y-109348924D01*
X109543961Y-109238782D01*
X109704270Y-109136026D01*
X109869730Y-109040905D01*
X110040093Y-108953666D01*
X110215110Y-108874557D01*
X110394532Y-108803827D01*
X110578112Y-108741723D01*
X110765601Y-108688493D01*
X110956751Y-108644385D01*
X111151313Y-108609647D01*
X111349040Y-108584527D01*
X111549682Y-108569274D01*
X111752992Y-108564134D01*
X111753005Y-108564121D01*
X111753005Y-110540305D01*
G37*
G36*
X117149878Y-110540034D02*
G01*
X117152864Y-110641501D01*
X117160869Y-110741629D01*
X117173769Y-110840293D01*
X117191441Y-110937373D01*
X117213764Y-111032745D01*
X117240613Y-111126286D01*
X117271867Y-111217875D01*
X117307403Y-111307388D01*
X117347097Y-111394703D01*
X117390827Y-111479697D01*
X117438470Y-111562248D01*
X117489904Y-111642233D01*
X117545005Y-111719530D01*
X117603651Y-111794016D01*
X117665718Y-111865569D01*
X117731085Y-111934065D01*
X117799629Y-111999383D01*
X117871225Y-112061400D01*
X117945753Y-112119992D01*
X118023088Y-112175039D01*
X118103109Y-112226416D01*
X118185692Y-112274002D01*
X118270714Y-112317674D01*
X118358054Y-112357309D01*
X118447587Y-112392784D01*
X118539191Y-112423978D01*
X118632744Y-112450768D01*
X118728123Y-112473030D01*
X118825204Y-112490643D01*
X118923865Y-112503484D01*
X119023983Y-112511429D01*
X119125436Y-112514358D01*
X119125436Y-114491150D01*
X118922127Y-114486010D01*
X118721486Y-114470756D01*
X118523761Y-114445637D01*
X118329199Y-114410899D01*
X118138050Y-114366792D01*
X117950561Y-114313562D01*
X117766981Y-114251458D01*
X117587559Y-114180728D01*
X117412542Y-114101619D01*
X117242180Y-114014381D01*
X117076720Y-113919260D01*
X116916410Y-113816505D01*
X116761500Y-113706363D01*
X116612237Y-113589083D01*
X116468870Y-113464913D01*
X116331647Y-113334100D01*
X116200817Y-113196892D01*
X116076627Y-113053538D01*
X115959327Y-112904285D01*
X115849164Y-112749382D01*
X115746387Y-112589076D01*
X115651244Y-112423615D01*
X115563984Y-112253247D01*
X115484854Y-112078221D01*
X115414104Y-111898783D01*
X115351981Y-111715183D01*
X115298735Y-111527668D01*
X115254613Y-111336486D01*
X115219863Y-111141885D01*
X115194734Y-110944113D01*
X115179475Y-110743417D01*
X115174333Y-110540047D01*
X115072881Y-110542978D01*
X114972762Y-110550933D01*
X114874101Y-110563790D01*
X114777020Y-110581424D01*
X114681642Y-110603714D01*
X114588090Y-110630535D01*
X114496485Y-110661766D01*
X114406952Y-110697283D01*
X114319613Y-110736962D01*
X114234591Y-110780682D01*
X114152008Y-110828318D01*
X114071988Y-110879749D01*
X113994652Y-110934850D01*
X113920125Y-110993499D01*
X113848528Y-111055573D01*
X113779985Y-111120948D01*
X113714619Y-111189502D01*
X113652551Y-111261112D01*
X113593905Y-111335655D01*
X113538804Y-111413007D01*
X113487371Y-111493046D01*
X113439727Y-111575648D01*
X113395997Y-111660691D01*
X113356303Y-111748051D01*
X113320767Y-111837606D01*
X113289513Y-111929232D01*
X113262663Y-112022806D01*
X113240341Y-112118206D01*
X113222668Y-112215308D01*
X113209767Y-112313989D01*
X113201762Y-112414127D01*
X113198776Y-112515598D01*
X111223218Y-112515598D01*
X111228360Y-112312229D01*
X111243619Y-112111534D01*
X111268747Y-111913763D01*
X111303497Y-111719163D01*
X111347619Y-111527981D01*
X111400865Y-111340466D01*
X111462987Y-111156867D01*
X111533737Y-110977430D01*
X111612866Y-110802403D01*
X111700126Y-110632036D01*
X111795268Y-110466575D01*
X111898045Y-110306269D01*
X112008207Y-110151365D01*
X112125508Y-110002112D01*
X112249697Y-109858758D01*
X112380527Y-109721550D01*
X112517750Y-109590737D01*
X112661116Y-109466566D01*
X112810379Y-109349286D01*
X112965289Y-109239144D01*
X113125599Y-109136388D01*
X113291059Y-109041267D01*
X113461421Y-108954028D01*
X113636438Y-108874919D01*
X113815861Y-108804189D01*
X113999441Y-108742085D01*
X114186930Y-108688855D01*
X114378080Y-108644747D01*
X114572642Y-108610009D01*
X114770369Y-108584889D01*
X114971011Y-108569636D01*
X115174320Y-108564496D01*
X115174320Y-108564483D01*
X117149878Y-108564483D01*
X117149878Y-110540034D01*
G37*
D11*
%TO.C,KS12*%
X163006983Y-81277968D03*
D12*
X163506983Y-77527968D03*
X168506983Y-75327968D03*
D13*
X168506983Y-81277968D03*
D12*
X173506983Y-77527968D03*
D11*
X174006983Y-81277968D03*
D14*
X168506983Y-87177968D03*
D15*
X171781983Y-75327968D03*
X160231983Y-77527968D03*
D14*
X163506983Y-85077968D03*
X173506983Y-85077968D03*
%TD*%
D11*
%TO.C,KS2*%
X91006983Y-74277968D03*
D12*
X91506983Y-70527968D03*
X96506983Y-68327968D03*
D13*
X96506983Y-74277968D03*
D12*
X101506983Y-70527968D03*
D11*
X102006983Y-74277968D03*
D14*
X96506983Y-80177968D03*
D15*
X99781983Y-68327968D03*
X88231983Y-70527968D03*
D14*
X91506983Y-78077968D03*
X101506983Y-78077968D03*
%TD*%
D11*
%TO.C,KS3*%
X109006983Y-62277968D03*
D12*
X109506983Y-58527968D03*
X114506983Y-56327968D03*
D13*
X114506983Y-62277968D03*
D12*
X119506983Y-58527968D03*
D11*
X120006983Y-62277968D03*
D14*
X114506983Y-68177968D03*
D15*
X117781983Y-56327968D03*
X106231983Y-58527968D03*
D14*
X109506983Y-66077968D03*
X119506983Y-66077968D03*
%TD*%
D11*
%TO.C,KS19*%
X151915929Y-114619643D03*
D12*
X152740861Y-110927491D03*
X157913577Y-109171642D03*
D13*
X157395000Y-115099000D03*
D12*
X162702808Y-111799049D03*
D11*
X162874071Y-115578357D03*
D14*
X156880781Y-120976549D03*
D16*
X161176114Y-109457077D03*
X149478323Y-110642056D03*
D14*
X152082835Y-118448761D03*
X162044782Y-119320319D03*
%TD*%
D11*
%TO.C,KS4*%
X127006983Y-57277968D03*
D12*
X127506983Y-53527968D03*
X132506983Y-51327968D03*
D13*
X132506983Y-57277968D03*
D12*
X137506983Y-53527968D03*
D11*
X138006983Y-57277968D03*
D14*
X132506983Y-63177968D03*
D15*
X135781983Y-51327968D03*
X124231983Y-53527968D03*
D14*
X127506983Y-61077968D03*
X137506983Y-61077968D03*
%TD*%
D11*
%TO.C,KS17*%
X163006983Y-98277968D03*
D12*
X163506983Y-94527968D03*
X168506983Y-92327968D03*
D13*
X168506983Y-98277968D03*
D12*
X173506983Y-94527968D03*
D11*
X174006983Y-98277968D03*
D14*
X168506983Y-104177968D03*
D15*
X171781983Y-92327968D03*
X160231983Y-94527968D03*
D14*
X163506983Y-102077968D03*
X173506983Y-102077968D03*
%TD*%
D11*
%TO.C,KS11*%
X145006983Y-79277968D03*
D12*
X145506983Y-75527968D03*
X150506983Y-73327968D03*
D13*
X150506983Y-79277968D03*
D12*
X155506983Y-75527968D03*
D11*
X156006983Y-79277968D03*
D14*
X150506983Y-85177968D03*
D15*
X153781983Y-73327968D03*
X142231983Y-75527968D03*
D14*
X145506983Y-83077968D03*
X155506983Y-83077968D03*
%TD*%
D11*
%TO.C,KS16*%
X145006983Y-96277968D03*
D12*
X145506983Y-92527968D03*
X150506983Y-90327968D03*
D13*
X150506983Y-96277968D03*
D12*
X155506983Y-92527968D03*
D11*
X156006983Y-96277968D03*
D14*
X150506983Y-102177968D03*
D15*
X153781983Y-90327968D03*
X142231983Y-92527968D03*
D14*
X145506983Y-100077968D03*
X155506983Y-100077968D03*
%TD*%
D11*
%TO.C,KS1*%
X73006983Y-82777968D03*
D12*
X73506983Y-79027968D03*
X78506983Y-76827968D03*
D13*
X78506983Y-82777968D03*
D12*
X83506983Y-79027968D03*
D11*
X84006983Y-82777968D03*
D14*
X78506983Y-88677968D03*
D15*
X81781983Y-76827968D03*
X70231983Y-79027968D03*
D14*
X73506983Y-86577968D03*
X83506983Y-86577968D03*
%TD*%
D11*
%TO.C,KS7*%
X73006983Y-99777968D03*
D12*
X73506983Y-96027968D03*
X78506983Y-93827968D03*
D13*
X78506983Y-99777968D03*
D12*
X83506983Y-96027968D03*
D11*
X84006983Y-99777968D03*
D14*
X78506983Y-105677968D03*
D15*
X81781983Y-93827968D03*
X70231983Y-96027968D03*
D14*
X73506983Y-103577968D03*
X83506983Y-103577968D03*
%TD*%
D11*
%TO.C,KS20*%
X171978691Y-117596889D03*
D12*
X173731112Y-114244052D03*
X179182020Y-113886829D03*
D13*
X177147000Y-119478000D03*
D12*
X183128039Y-117664253D03*
D11*
X182315309Y-121359111D03*
D14*
X175129081Y-125022186D03*
D17*
X182259513Y-115006945D03*
X170653619Y-113123936D03*
D14*
X171148860Y-121338731D03*
X180545787Y-124758933D03*
%TD*%
D18*
%TO.C,U1*%
X183541983Y-57297968D03*
X201321983Y-57297968D03*
D19*
X183541983Y-59837968D03*
X201321983Y-59837968D03*
X183541983Y-62377968D03*
X201321983Y-62377968D03*
X183541983Y-64917968D03*
X201321983Y-64917968D03*
X183541983Y-67457968D03*
X201321983Y-67457968D03*
X183541983Y-69997968D03*
X201321983Y-69997968D03*
X183541983Y-72537968D03*
X201321983Y-72537968D03*
X183541983Y-75077968D03*
X201321983Y-75077968D03*
X183541983Y-77617968D03*
X201321983Y-77617968D03*
X183541983Y-80157968D03*
X201321983Y-80157968D03*
X183541983Y-82697968D03*
X201321983Y-82697968D03*
X183541983Y-85237968D03*
X201321983Y-85237968D03*
X183541983Y-87777968D03*
X201321983Y-87777968D03*
X183541983Y-90317968D03*
X201321983Y-90317968D03*
X183541983Y-92857968D03*
X201321983Y-92857968D03*
X183541983Y-95397968D03*
X201321983Y-95397968D03*
X183541983Y-97937968D03*
X201321983Y-97937968D03*
X183541983Y-100477968D03*
X201321983Y-100477968D03*
X183541983Y-103017968D03*
X201321983Y-103017968D03*
X183541983Y-105557968D03*
X201321983Y-105557968D03*
X186081983Y-105557968D03*
X198781983Y-105557968D03*
X186081983Y-103017968D03*
X198781983Y-103017968D03*
X186081983Y-100477968D03*
X198781983Y-100477968D03*
X186081983Y-97937968D03*
X198781983Y-97937968D03*
X186081983Y-95397968D03*
X198781983Y-95397968D03*
X186081983Y-92857968D03*
X198781983Y-92857968D03*
X186081983Y-90317968D03*
X198781983Y-90317968D03*
X186081983Y-87777968D03*
X198781983Y-87777968D03*
X186081983Y-85237968D03*
X198781983Y-85237968D03*
X186081983Y-82697968D03*
X198781983Y-82697968D03*
X186081983Y-80157968D03*
X198781983Y-80157968D03*
X186081983Y-77617968D03*
X198781983Y-77617968D03*
X186081983Y-75077968D03*
X198781983Y-75077968D03*
X186081983Y-72537968D03*
X198781983Y-72537968D03*
X186081983Y-69997968D03*
X198781983Y-69997968D03*
X186081983Y-67457968D03*
X198781983Y-67457968D03*
X186081983Y-64917968D03*
X198781983Y-64917968D03*
X186081983Y-62377968D03*
X198781983Y-62377968D03*
X186081983Y-59837968D03*
X198781983Y-59837968D03*
X186081983Y-57297968D03*
X198781983Y-57297968D03*
%TD*%
D11*
%TO.C,KS5*%
X145006983Y-62277968D03*
D12*
X145506983Y-58527968D03*
X150506983Y-56327968D03*
D13*
X150506983Y-62277968D03*
D12*
X155506983Y-58527968D03*
D11*
X156006983Y-62277968D03*
D14*
X150506983Y-68177968D03*
D15*
X153781983Y-56327968D03*
X142231983Y-58527968D03*
D14*
X145506983Y-66077968D03*
X155506983Y-66077968D03*
%TD*%
D20*
%TO.C,SW1*%
X205096699Y-125159898D03*
X207306699Y-125159898D03*
D21*
X206206699Y-123009898D03*
X206206699Y-120009898D03*
D20*
X205096699Y-117859898D03*
X207306699Y-117859898D03*
D22*
X204446699Y-123759898D03*
X204446699Y-120759898D03*
X204446699Y-119259898D03*
%TD*%
D23*
%TO.C,J1*%
X206615182Y-111607147D03*
X199615182Y-111607147D03*
X206615182Y-113887147D03*
X199615182Y-113887147D03*
D24*
X202015182Y-109307147D03*
X205015182Y-116187147D03*
X196915182Y-111587147D03*
X196915182Y-113907147D03*
X198015182Y-109307147D03*
X198015182Y-116187147D03*
X205015182Y-109307147D03*
X202015182Y-116187147D03*
%TD*%
D11*
%TO.C,KS6*%
X163006983Y-64277968D03*
D12*
X163506983Y-60527968D03*
X168506983Y-58327968D03*
D13*
X168506983Y-64277968D03*
D12*
X173506983Y-60527968D03*
D11*
X174006983Y-64277968D03*
D14*
X168506983Y-70177968D03*
D15*
X171781983Y-58327968D03*
X160231983Y-60527968D03*
D14*
X163506983Y-68077968D03*
X173506983Y-68077968D03*
%TD*%
D11*
%TO.C,KS13*%
X91006983Y-108277968D03*
D12*
X91506983Y-104527968D03*
X96506983Y-102327968D03*
D13*
X96506983Y-108277968D03*
D12*
X101506983Y-104527968D03*
D11*
X102006983Y-108277968D03*
D14*
X96506983Y-114177968D03*
D15*
X99781983Y-102327968D03*
X88231983Y-104527968D03*
D14*
X91506983Y-112077968D03*
X101506983Y-112077968D03*
%TD*%
D11*
%TO.C,KS14*%
X109006983Y-96277968D03*
D12*
X109506983Y-92527968D03*
X114506983Y-90327968D03*
D13*
X114506983Y-96277968D03*
D12*
X119506983Y-92527968D03*
D11*
X120006983Y-96277968D03*
D14*
X114506983Y-102177968D03*
D15*
X117781983Y-90327968D03*
X106231983Y-92527968D03*
D14*
X109506983Y-100077968D03*
X119506983Y-100077968D03*
%TD*%
D11*
%TO.C,KS18*%
X131766557Y-116937065D03*
D12*
X131607781Y-113157212D03*
X136149793Y-110122394D03*
D13*
X137183000Y-115982000D03*
D12*
X141455858Y-111420730D03*
D11*
X142599443Y-115026935D03*
D14*
X138207524Y-121792366D03*
D25*
X139375039Y-109553696D03*
X128382535Y-113725910D03*
D14*
X132918824Y-120592510D03*
X142766902Y-118856029D03*
%TD*%
D11*
%TO.C,KS10*%
X127006983Y-74277968D03*
D12*
X127506983Y-70527968D03*
X132506983Y-68327968D03*
D13*
X132506983Y-74277968D03*
D12*
X137506983Y-70527968D03*
D11*
X138006983Y-74277968D03*
D14*
X132506983Y-80177968D03*
D15*
X135781983Y-68327968D03*
X124231983Y-70527968D03*
D14*
X127506983Y-78077968D03*
X137506983Y-78077968D03*
%TD*%
D11*
%TO.C,KS15*%
X127006983Y-91277968D03*
D12*
X127506983Y-87527968D03*
X132506983Y-85327968D03*
D13*
X132506983Y-91277968D03*
D12*
X137506983Y-87527968D03*
D11*
X138006983Y-91277968D03*
D14*
X132506983Y-97177968D03*
D15*
X135781983Y-85327968D03*
X124231983Y-87527968D03*
D14*
X127506983Y-95077968D03*
X137506983Y-95077968D03*
%TD*%
D11*
%TO.C,KS21*%
X190587664Y-125665330D03*
D12*
X193148151Y-122880298D03*
X198505780Y-123946045D03*
D13*
X195093000Y-128820000D03*
D12*
X201339672Y-128616062D03*
D11*
X199598336Y-131974670D03*
D14*
X191708899Y-133652997D03*
D26*
X201188503Y-125824508D03*
X190465428Y-121001835D03*
D14*
X188817649Y-129064896D03*
X197009170Y-134800660D03*
%TD*%
D11*
%TO.C,KS9*%
X109006983Y-79277968D03*
D12*
X109506983Y-75527968D03*
X114506983Y-73327968D03*
D13*
X114506983Y-79277968D03*
D12*
X119506983Y-75527968D03*
D11*
X120006983Y-79277968D03*
D14*
X114506983Y-85177968D03*
D15*
X117781983Y-73327968D03*
X106231983Y-75527968D03*
D14*
X109506983Y-83077968D03*
X119506983Y-83077968D03*
%TD*%
D11*
%TO.C,KS8*%
X91006983Y-91277968D03*
D12*
X91506983Y-87527968D03*
X96506983Y-85327968D03*
D13*
X96506983Y-91277968D03*
D12*
X101506983Y-87527968D03*
D11*
X102006983Y-91277968D03*
D14*
X96506983Y-97177968D03*
D15*
X99781983Y-85327968D03*
X88231983Y-87527968D03*
D14*
X91506983Y-95077968D03*
X101506983Y-95077968D03*
%TD*%
D21*
%TO.C,SW2*%
X206207000Y-120010000D03*
X206207000Y-123010000D03*
%TD*%
D27*
%TO.C,J2*%
X192806983Y-116071469D03*
D28*
X190306983Y-116071469D03*
%TD*%
M02*
