M48
; DRILL file {KiCad 7.0.1-0} date 2023 June 01, Thursday 10:31:40
; FORMAT={-:-/ absolute / inch / decimal}
; #@! TF.CreationDate,2023-06-01T10:31:40+02:00
; #@! TF.GenerationSoftware,Kicad,Pcbnew,7.0.1-0
; #@! TF.FileFunction,NonPlated,1,2,NPTH
FMAT,2
INCH
; #@! TA.AperFunction,NonPlated,NPTH,ComponentDrill
T1C0.0315
; #@! TA.AperFunction,NonPlated,NPTH,ComponentDrill
T2C0.0354
; #@! TA.AperFunction,NonPlated,NPTH,ComponentDrill
T3C0.0670
; #@! TA.AperFunction,NonPlated,NPTH,ComponentDrill
T4C0.1181
; #@! TA.AperFunction,NonPlated,NPTH,ComponentDrill
T5C0.1350
%
G90
G05
T1
X7.8589Y-4.394
X7.8589Y-4.4837
X8.1345Y-4.394
X8.1345Y-4.4837
T2
X8.1184Y-4.7248
X8.1184Y-4.8429
X8.1184Y-4.7248
X8.1184Y-4.8429
T3
X2.8743Y-3.259
X2.8743Y-3.9283
X3.3074Y-3.259
X3.3074Y-3.9283
X3.583Y-2.9243
X3.583Y-3.5936
X3.583Y-4.2629
X4.016Y-2.9243
X4.016Y-3.5936
X4.016Y-4.2629
X4.2916Y-2.4519
X4.2916Y-3.1212
X4.2916Y-3.7905
X4.7247Y-2.4519
X4.7247Y-3.1212
X4.7247Y-3.7905
X5.0003Y-2.255
X5.0003Y-2.9243
X5.0003Y-3.5936
X5.1877Y-4.6038
X5.4333Y-2.255
X5.4333Y-2.9243
X5.4333Y-3.5936
X5.6142Y-4.5286
X5.7089Y-2.4519
X5.7089Y-3.1212
X5.7089Y-3.7905
X5.9809Y-4.5126
X6.142Y-2.4519
X6.142Y-3.1212
X6.142Y-3.7905
X6.4124Y-4.5503
X6.4176Y-2.5306
X6.4176Y-3.1999
X6.4176Y-3.8692
X6.7708Y-4.6298
X6.8507Y-2.5306
X6.8507Y-3.1999
X6.8507Y-3.8692
X7.1778Y-4.7779
X7.5035Y-4.9475
X7.8582Y-5.1959
T4
X2.894Y-3.1113
X2.894Y-3.7806
X3.0908Y-3.0247
X3.0908Y-3.694
X3.2877Y-3.1113
X3.2877Y-3.7806
X3.6026Y-2.7767
X3.6026Y-3.446
X3.6026Y-4.1153
X3.7995Y-2.6901
X3.7995Y-3.3594
X3.7995Y-4.0287
X3.9963Y-2.7767
X3.9963Y-3.446
X3.9963Y-4.1153
X4.3113Y-2.3043
X4.3113Y-2.9735
X4.3113Y-3.6428
X4.5081Y-2.2176
X4.5081Y-2.8869
X4.5081Y-3.5562
X4.705Y-2.3043
X4.705Y-2.9735
X4.705Y-3.6428
X5.02Y-2.1074
X5.02Y-2.7767
X5.02Y-3.446
X5.1814Y-4.455
X5.2168Y-2.0208
X5.2168Y-2.6901
X5.2168Y-3.3594
X5.3602Y-4.3355
X5.4137Y-2.1074
X5.4137Y-2.7767
X5.4137Y-3.446
X5.5691Y-4.3866
X5.7286Y-2.3043
X5.7286Y-2.9735
X5.7286Y-3.6428
X5.9255Y-2.2176
X5.9255Y-2.8869
X5.9255Y-3.5562
X6.0134Y-4.3672
X6.1223Y-2.3043
X6.1223Y-2.9735
X6.1223Y-3.6428
X6.2171Y-4.2981
X6.4056Y-4.4015
X6.4373Y-2.383
X6.4373Y-3.0523
X6.4373Y-3.7216
X6.6341Y-2.2964
X6.6341Y-2.9657
X6.6341Y-3.635
X6.831Y-2.383
X6.831Y-3.0523
X6.831Y-3.7216
X6.8398Y-4.4978
X7.0544Y-4.4837
X7.2098Y-4.6325
X7.6043Y-4.8378
X7.8152Y-4.8798
X7.9268Y-5.0636
T5
X3.0908Y-3.259
X3.0908Y-3.9283
X3.7995Y-2.9243
X3.7995Y-3.5936
X3.7995Y-4.2629
X4.5081Y-2.4519
X4.5081Y-3.1212
X4.5081Y-3.7905
X5.2168Y-2.255
X5.2168Y-2.9243
X5.2168Y-3.5936
X5.4009Y-4.5662
X5.9255Y-2.4519
X5.9255Y-3.1212
X5.9255Y-3.7905
X6.1967Y-4.5315
X6.6341Y-2.5306
X6.6341Y-3.1999
X6.6341Y-3.8692
X6.9743Y-4.7039
X7.6808Y-5.0717
T0
M30
