M48
; DRILL file {KiCad 7.0.1-0} date 2025 April 04, Friday 15:19:23
; FORMAT={-:-/ absolute / inch / decimal}
; #@! TF.CreationDate,2025-04-04T15:19:23+02:00
; #@! TF.GenerationSoftware,Kicad,Pcbnew,7.0.1-0
; #@! TF.FileFunction,Plated,1,2,PTH
FMAT,2
INCH
; #@! TA.AperFunction,Plated,PTH,ViaDrill
T1C0.0157
; #@! TA.AperFunction,Plated,PTH,ComponentDrill
T2C0.0354
; #@! TA.AperFunction,Plated,PTH,ComponentDrill
T3C0.0394
; #@! TA.AperFunction,Plated,PTH,ComponentDrill
T4C0.0500
%
G90
G05
T1
X7.4409Y-3.8058
X7.4409Y-4.0058
X7.576Y-2.4058
X7.5761Y-2.5058
X7.5761Y-2.5558
X7.5761Y-2.6058
X7.5761Y-2.7558
X7.5761Y-2.8558
X7.5761Y-2.9558
X7.8924Y-4.6797
X7.941Y-4.4378
X7.9741Y-4.8725
T3
X7.2261Y-2.2558
X7.2261Y-2.3558
X7.2261Y-2.4558
X7.2261Y-2.5558
X7.2261Y-2.6558
X7.2261Y-2.7558
X7.2261Y-2.8558
X7.2261Y-2.9558
X7.2261Y-3.0558
X7.2261Y-3.1558
X7.2261Y-3.2558
X7.2261Y-3.3558
X7.2261Y-3.4558
X7.2261Y-3.5558
X7.2261Y-3.6558
X7.2261Y-3.7558
X7.2261Y-3.8558
X7.2261Y-3.9558
X7.2261Y-4.0558
X7.2261Y-4.1558
X7.3261Y-2.2558
X7.3261Y-2.3558
X7.3261Y-2.4558
X7.3261Y-2.5558
X7.3261Y-2.6558
X7.3261Y-2.7558
X7.3261Y-2.8558
X7.3261Y-2.9558
X7.3261Y-3.0558
X7.3261Y-3.1558
X7.3261Y-3.2558
X7.3261Y-3.3558
X7.3261Y-3.4558
X7.3261Y-3.5558
X7.3261Y-3.6558
X7.3261Y-3.7558
X7.3261Y-3.8558
X7.3261Y-3.9558
X7.3261Y-4.0558
X7.3261Y-4.1558
X7.4924Y-4.5697
X7.5908Y-4.5697
X7.8261Y-2.2558
X7.8261Y-2.3558
X7.8261Y-2.4558
X7.8261Y-2.5558
X7.8261Y-2.6558
X7.8261Y-2.7558
X7.8261Y-2.8558
X7.8261Y-2.9558
X7.8261Y-3.0558
X7.8261Y-3.1558
X7.8261Y-3.2558
X7.8261Y-3.3558
X7.8261Y-3.4558
X7.8261Y-3.5558
X7.8261Y-3.6558
X7.8261Y-3.7558
X7.8261Y-3.8558
X7.8261Y-3.9558
X7.8261Y-4.0558
X7.8261Y-4.1558
X7.9261Y-2.2558
X7.9261Y-2.3558
X7.9261Y-2.4558
X7.9261Y-2.5558
X7.9261Y-2.6558
X7.9261Y-2.7558
X7.9261Y-2.8558
X7.9261Y-2.9558
X7.9261Y-3.0558
X7.9261Y-3.1558
X7.9261Y-3.2558
X7.9261Y-3.3558
X7.9261Y-3.4558
X7.9261Y-3.5558
X7.9261Y-3.6558
X7.9261Y-3.7558
X7.9261Y-3.8558
X7.9261Y-3.9558
X7.9261Y-4.0558
X7.9261Y-4.1558
T4
X2.894Y-3.4086
X2.894Y-4.0779
X3.0908Y-3.4913
X3.0908Y-4.1605
X3.2877Y-3.4086
X3.2877Y-4.0779
X3.6026Y-3.0739
X3.6026Y-3.7432
X3.6026Y-4.4125
X3.7995Y-3.1566
X3.7995Y-3.8259
X3.7995Y-4.4952
X3.9963Y-3.0739
X3.9963Y-3.7432
X3.9963Y-4.4125
X4.3113Y-2.6015
X4.3113Y-3.2708
X4.3113Y-3.9401
X4.5081Y-2.6842
X4.5081Y-3.3535
X4.5081Y-4.0228
X4.705Y-2.6015
X4.705Y-3.2708
X4.705Y-3.9401
X5.02Y-2.4046
X5.02Y-3.0739
X5.02Y-3.7432
X5.2168Y-2.4873
X5.2168Y-3.1566
X5.2168Y-3.8259
X5.233Y-4.7477
X5.4137Y-2.4046
X5.4137Y-3.0739
X5.4137Y-3.7432
X5.4412Y-4.795
X5.6207Y-4.6794
X5.7286Y-2.6015
X5.7286Y-3.2708
X5.7286Y-3.9401
X5.9255Y-2.6842
X5.9255Y-3.3535
X5.9255Y-4.0228
X5.9875Y-4.6633
X6.1223Y-2.6015
X6.1223Y-3.2708
X6.1223Y-3.9401
X6.1764Y-4.7629
X6.3797Y-4.6977
X6.4373Y-2.6802
X6.4373Y-3.3495
X6.4373Y-4.0188
X6.6341Y-2.7629
X6.6341Y-3.4322
X6.6341Y-4.1015
X6.7381Y-4.7771
X6.831Y-2.6802
X6.831Y-3.3495
X6.831Y-4.0188
X6.8948Y-4.9221
X7.1081Y-4.9118
X7.4338Y-5.0813
X7.5476Y-5.2619
X7.7563Y-5.3071
T2
G00X7.7604Y-4.3932
M15
G01X7.7447Y-4.3932
M16
G05
G00X7.7604Y-4.4845
M15
G01X7.7447Y-4.4845
M16
G05
G00X7.8037Y-4.3034
M15
G01X7.788Y-4.3034
M16
G05
G00X7.8037Y-4.5743
M15
G01X7.788Y-4.5743
M16
G05
G00X7.9612Y-4.3034
M15
G01X7.9455Y-4.3034
M16
G05
G00X7.9612Y-4.5743
M15
G01X7.9455Y-4.5743
M16
G05
G00X8.0793Y-4.3034
M15
G01X8.0636Y-4.3034
M16
G05
G00X8.0793Y-4.5743
M15
G01X8.0636Y-4.5743
M16
G05
T0
M30
