<?xml version="1.0" encoding="UTF-8" standalone="no"?>
<!-- Created with Inkscape (http://www.inkscape.org/) -->

<svg
   width="144.13086mm"
   height="99.426285mm"
   viewBox="0 0 144.13085 99.426298"
   version="1.1"
   id="svg134807"
   xmlns="http://www.w3.org/2000/svg"
   xmlns:svg="http://www.w3.org/2000/svg">
  <defs
     id="defs134804" />
  <g
     id="layer1"
     transform="translate(-68.671362,-57.465663)">
    <path
       id="path44149-5-3"
       style="display:inline;fill:none;fill-opacity:0.300518;stroke:#000000;stroke-width:0.26458333;stroke-linecap:butt;stroke-linejoin:miter;stroke-opacity:1;vector-effect:non-scaling-stroke;-inkscape-stroke:hairline;stroke-dasharray:none"
       d="m 120.20703,48.777344 a 1.1992178,1.1992178 135 0 1 -1.19922,1.199218 h -13 a 3.8007783,3.8007783 135 0 0 -3.80078,3.800778 v 6.199222 a 2,2 135 0 1 -2,2 l -12.199216,0 a 3.8007831,3.8007831 135 0 0 -3.800783,3.800783 v 2.699217 a 2,2 135 0 1 -2,2 H 70.007809 a 3.8007783,3.8007783 135 0 0 -3.800778,3.800778 v 34 a 3.8007831,3.8007831 45 0 0 3.800783,3.80078 h 12.199217 a 2,2 45 0 1 2,2 v 2.69922 a 3.8007831,3.8007831 45 0 0 3.800783,3.80078 l 23.382716,0 a 21.356346,21.356346 22.095651 0 1 14.88657,6.0435 l 2.17168,2.11122 a 3.425764,3.425764 13.914434 0 0 3.35303,0.83069 c 0.42444,-0.12462 1.62716,-0.48052 2.69625,-0.75805 20.18697,-5.24043 42.55918,-0.62471 59.32225,13.98749 l 0.74251,0.6469 a 3.914266,3.914266 173.06969 0 0 5.77466,-0.70191 l 8.85109,-12.60509 a 6.3285687,6.3285687 107.53795 0 0 1.14932,-3.63678 l 0,-70.71875 a 3.8007783,3.8007783 45 0 0 -3.80078,-3.800778 l -43.4255,0 a 2.4386641,2.4386641 26.227871 0 1 -1.93358,-0.952605 3.3874931,3.3874931 20.4759 0 0 -2.80498,-1.047395 h -12.36524 a 1.1992178,1.1992178 45 0 1 -1.19922,-1.199218 3.8007822,3.8007822 45 0 0 -3.80078,-3.800782 h -17 a 3.8007822,3.8007822 135 0 0 -3.80078,3.800782 z"
       transform="translate(2.464331,12.489101)" />
  </g>
</svg>
