  0
SECTION
  2
HEADER
  9
$ACADVER
  1
AC1014
  9
$HANDSEED
  5
FFFF
  9
$INSUNITS
 70
     4
  9
$MEASUREMENT
 70
     1
  0
ENDSEC
  0
SECTION
  2
TABLES
  0
TABLE
  2
VPORT
  5
8
330
0
100
AcDbSymbolTable
 70
     4
  0
VPORT
  5
2E
330
8
100
AcDbSymbolTableRecord
100
AcDbViewportTableRecord
  2
*ACTIVE
 70
     0
 10
0.0
 20
0.0
 11
1.0
 21
1.0
 12
210.0
 22
148.5
 13
0.0
 23
0.0
 14
10.0
 24
10.0
 15
10.0
 25
10.0
 16
0.0
 26
0.0
 36
1.0
 17
0.0
 27
0.0
 37
0.0
 40
341.0
 41
1.24
 42
50.0
 43
0.0
 44
0.0
 50
0.0
 51
0.0
 71
     0
 72
   100
 73
     1
 74
     3
 75
     0
 76
     0
 77
     0
 78
     0
  0
ENDTAB
  0
TABLE
  2
LTYPE
  5
5
330
0
100
AcDbSymbolTable
 70
     1
  0
LTYPE
  5
14
330
5
100
AcDbSymbolTableRecord
100
AcDbLinetypeTableRecord
  2
BYBLOCK
 70
     0
  3

 72
    65
 73
     0
 40
0.0
  0
LTYPE
  5
15
330
5
100
AcDbSymbolTableRecord
100
AcDbLinetypeTableRecord
  2
BYLAYER
 70
     0
  3

 72
    65
 73
     0
 40
0.0
  0
LTYPE
  5
16
330
5
100
AcDbSymbolTableRecord
100
AcDbLinetypeTableRecord
  2
CONTINUOUS
 70
     0
  3
Solid line
 72
    65
 73
     0
 40
0.0
  0
ENDTAB
  0
TABLE
  2
LAYER
  5
2
100
AcDbSymbolTable
 70
1
  0
LAYER
  5
50
100
AcDbSymbolTableRecord
100
AcDbLayerTableRecord
  2
0
 70
0
  6
CONTINUOUS
  0
ENDTAB
  0
TABLE
  2
STYLE
  5
3
330
0
100
AcDbSymbolTable
 70
     1
  0
STYLE
  5
11
330
3
100
AcDbSymbolTableRecord
100
AcDbTextStyleTableRecord
  2
STANDARD
 70
     0
 40
0.0
 41
1.0
 50
0.0
 71
     0
 42
2.5
  3
txt
  4

  0
ENDTAB
  0
TABLE
  2
VIEW
  5
6
330
0
100
AcDbSymbolTable
 70
     0
  0
ENDTAB
  0
TABLE
  2
UCS
  5
7
330
0
100
AcDbSymbolTable
 70
     0
  0
ENDTAB
  0
TABLE
  2
APPID
  5
9
330
0
100
AcDbSymbolTable
 70
     2
  0
APPID
  5
12
330
9
100
AcDbSymbolTableRecord
100
AcDbRegAppTableRecord
  2
ACAD
 70
     0
  0
ENDTAB
  0
TABLE
  2
DIMSTYLE
  5
A
330
0
100
AcDbSymbolTable
 70
     1
  0
DIMSTYLE
105
27
330
A
100
AcDbSymbolTableRecord
100
AcDbDimStyleTableRecord
  2
ISO-25
 70
     0
  3

  4

  5

  6

  7

 40
1.0
 41
2.5
 42
0.625
 43
3.75
 44
1.25
 45
0.0
 46
0.0
 47
0.0
 48
0.0
140
2.5
141
2.5
142
0.0
143
0.03937007874016
144
1.0
145
0.0
146
1.0
147
0.625
 71
     0
 72
     0
 73
     0
 74
     0
 75
     0
 76
     0
 77
     1
 78
     8
170
     0
171
     3
172
     1
173
     0
174
     0
175
     0
176
     0
177
     0
178
     0
270
     2
271
     2
272
     2
273
     2
274
     3
340
11
275
     0
280
     0
281
     0
282
     0
283
     0
284
     8
285
     0
286
     0
287
     3
288
     0
  0
ENDTAB
  0
TABLE
  2
BLOCK_RECORD
  5
1
330
0
100
AcDbSymbolTable
 70
     1
  0
BLOCK_RECORD
  5
1F
330
1
100
AcDbSymbolTableRecord
100
AcDbBlockTableRecord
  2
*MODEL_SPACE
  0
BLOCK_RECORD
  5
1B
330
1
100
AcDbSymbolTableRecord
100
AcDbBlockTableRecord
  2
*PAPER_SPACE
  0
ENDTAB
  0
ENDSEC
  0
SECTION
  2
BLOCKS
  0
BLOCK
  5
20
330
1F
100
AcDbEntity
  8
0
100
AcDbBlockBegin
  2
*MODEL_SPACE
 70
     0
 10
0.0
 20
0.0
 30
0.0
  3
*MODEL_SPACE
  1

  0
ENDBLK
  5
21
330
1F
100
AcDbEntity
  8
0
100
AcDbBlockEnd
  0
BLOCK
  5
1C
330
1B
100
AcDbEntity
 67
     1
  8
0
100
AcDbBlockBegin
  2
*PAPER_SPACE
  1

  0
ENDBLK
  5
1D
330
1B
100
AcDbEntity
 67
     1
  8
0
100
AcDbBlockEnd
  0
ENDSEC
  0
SECTION
  2
ENTITIES
  0
SPLINE
  5
100
100
AcDbEntity
  8
0
 62
7
100
AcDbSpline
 70
8
 71
3
 72
8
 73
4
 74
0
 40
0
 40
0
 40
0
 40
0
 40
1
 40
1
 40
1
 40
1
 10
3.800745
 20
73.125562
 30
0.0
 10
2.587358
 20
73.125562
 30
0.0
 10
1.493450
 20
72.394635
 30
0.0
 10
1.029106
 20
71.273612
 30
0.0
  0
SPLINE
  5
101
100
AcDbEntity
  8
0
 62
7
100
AcDbSpline
 70
8
 71
3
 72
8
 73
4
 74
0
 40
0
 40
0
 40
0
 40
0
 40
1
 40
1
 40
1
 40
1
 10
1.029106
 20
71.273612
 30
0.0
 10
0.564763
 20
70.152589
 30
0.0
 10
0.821431
 20
68.862235
 30
0.0
 10
1.679425
 20
68.004241
 30
0.0
  0
SPLINE
  5
102
100
AcDbEntity
  8
0
 62
7
100
AcDbSpline
 70
8
 71
3
 72
8
 73
4
 74
0
 40
0
 40
0
 40
0
 40
0
 40
1
 40
1
 40
1
 40
1
 10
1.679425
 20
68.004241
 30
0.0
 10
2.537419
 20
67.146247
 30
0.0
 10
3.827772
 20
66.889580
 30
0.0
 10
4.948796
 20
67.353923
 30
0.0
  0
SPLINE
  5
103
100
AcDbEntity
  8
0
 62
7
100
AcDbSpline
 70
8
 71
3
 72
8
 73
4
 74
0
 40
0
 40
0
 40
0
 40
0
 40
1
 40
1
 40
1
 40
1
 10
4.948796
 20
67.353923
 30
0.0
 10
6.069819
 20
67.818266
 30
0.0
 10
6.800745
 20
68.912175
 30
0.0
 10
6.800745
 20
70.125562
 30
0.0
  0
SPLINE
  5
104
100
AcDbEntity
  8
0
 62
7
100
AcDbSpline
 70
8
 71
3
 72
8
 73
4
 74
0
 40
0
 40
0
 40
0
 40
0
 40
1
 40
1
 40
1
 40
1
 10
6.800745
 20
70.125562
 30
0.0
 10
6.800745
 20
70.921211
 30
0.0
 10
6.484675
 20
71.684273
 30
0.0
 10
5.922066
 20
72.246882
 30
0.0
  0
SPLINE
  5
105
100
AcDbEntity
  8
0
 62
7
100
AcDbSpline
 70
8
 71
3
 72
8
 73
4
 74
0
 40
0
 40
0
 40
0
 40
0
 40
1
 40
1
 40
1
 40
1
 10
5.922066
 20
72.246882
 30
0.0
 10
5.359457
 20
72.809492
 30
0.0
 10
4.596395
 20
73.125562
 30
0.0
 10
3.800745
 20
73.125562
 30
0.0
  0
SPLINE
  5
106
100
AcDbEntity
  8
0
 62
7
100
AcDbSpline
 70
8
 71
3
 72
8
 73
4
 74
0
 40
0
 40
0
 40
0
 40
0
 40
1
 40
1
 40
1
 40
1
 10
3.800745
 20
39.125561
 30
0.0
 10
2.587358
 20
39.125561
 30
0.0
 10
1.493450
 20
38.394634
 30
0.0
 10
1.029106
 20
37.273611
 30
0.0
  0
SPLINE
  5
107
100
AcDbEntity
  8
0
 62
7
100
AcDbSpline
 70
8
 71
3
 72
8
 73
4
 74
0
 40
0
 40
0
 40
0
 40
0
 40
1
 40
1
 40
1
 40
1
 10
1.029106
 20
37.273611
 30
0.0
 10
0.564763
 20
36.152588
 30
0.0
 10
0.821431
 20
34.862234
 30
0.0
 10
1.679425
 20
34.004240
 30
0.0
  0
SPLINE
  5
108
100
AcDbEntity
  8
0
 62
7
100
AcDbSpline
 70
8
 71
3
 72
8
 73
4
 74
0
 40
0
 40
0
 40
0
 40
0
 40
1
 40
1
 40
1
 40
1
 10
1.679425
 20
34.004240
 30
0.0
 10
2.537419
 20
33.146246
 30
0.0
 10
3.827772
 20
32.889579
 30
0.0
 10
4.948796
 20
33.353922
 30
0.0
  0
SPLINE
  5
109
100
AcDbEntity
  8
0
 62
7
100
AcDbSpline
 70
8
 71
3
 72
8
 73
4
 74
0
 40
0
 40
0
 40
0
 40
0
 40
1
 40
1
 40
1
 40
1
 10
4.948796
 20
33.353922
 30
0.0
 10
6.069819
 20
33.818265
 30
0.0
 10
6.800745
 20
34.912174
 30
0.0
 10
6.800745
 20
36.125561
 30
0.0
  0
SPLINE
  5
10a
100
AcDbEntity
  8
0
 62
7
100
AcDbSpline
 70
8
 71
3
 72
8
 73
4
 74
0
 40
0
 40
0
 40
0
 40
0
 40
1
 40
1
 40
1
 40
1
 10
6.800745
 20
36.125561
 30
0.0
 10
6.800745
 20
36.921210
 30
0.0
 10
6.484675
 20
37.684272
 30
0.0
 10
5.922066
 20
38.246881
 30
0.0
  0
SPLINE
  5
10b
100
AcDbEntity
  8
0
 62
7
100
AcDbSpline
 70
8
 71
3
 72
8
 73
4
 74
0
 40
0
 40
0
 40
0
 40
0
 40
1
 40
1
 40
1
 40
1
 10
5.922066
 20
38.246881
 30
0.0
 10
5.359457
 20
38.809490
 30
0.0
 10
4.596395
 20
39.125561
 30
0.0
 10
3.800745
 20
39.125561
 30
0.0
  0
LWPOLYLINE
  5
10c
100
AcDbEntity
  8
0
 62
7
100
AcDbPolyline
 90
1
 70
1
 10
3.800745
 20
73.125562
 30
0.0
  0
SPLINE
  5
10d
100
AcDbEntity
  8
0
 62
7
100
AcDbSpline
 70
8
 71
3
 72
8
 73
4
 74
0
 40
0
 40
0
 40
0
 40
0
 40
1
 40
1
 40
1
 40
1
 10
39.800753
 20
93.625563
 30
0.0
 10
38.587366
 20
93.625563
 30
0.0
 10
37.493457
 20
92.894637
 30
0.0
 10
37.029114
 20
91.773614
 30
0.0
  0
SPLINE
  5
10e
100
AcDbEntity
  8
0
 62
7
100
AcDbSpline
 70
8
 71
3
 72
8
 73
4
 74
0
 40
0
 40
0
 40
0
 40
0
 40
1
 40
1
 40
1
 40
1
 10
37.029114
 20
91.773614
 30
0.0
 10
36.564771
 20
90.652590
 30
0.0
 10
36.821438
 20
89.362237
 30
0.0
 10
37.679432
 20
88.504243
 30
0.0
  0
SPLINE
  5
10f
100
AcDbEntity
  8
0
 62
7
100
AcDbSpline
 70
8
 71
3
 72
8
 73
4
 74
0
 40
0
 40
0
 40
0
 40
0
 40
1
 40
1
 40
1
 40
1
 10
37.679432
 20
88.504243
 30
0.0
 10
38.537426
 20
87.646249
 30
0.0
 10
39.827780
 20
87.389581
 30
0.0
 10
40.948803
 20
87.853924
 30
0.0
  0
SPLINE
  5
110
100
AcDbEntity
  8
0
 62
7
100
AcDbSpline
 70
8
 71
3
 72
8
 73
4
 74
0
 40
0
 40
0
 40
0
 40
0
 40
1
 40
1
 40
1
 40
1
 10
40.948803
 20
87.853924
 30
0.0
 10
42.069826
 20
88.318268
 30
0.0
 10
42.800753
 20
89.412176
 30
0.0
 10
42.800753
 20
90.625563
 30
0.0
  0
SPLINE
  5
111
100
AcDbEntity
  8
0
 62
7
100
AcDbSpline
 70
8
 71
3
 72
8
 73
4
 74
0
 40
0
 40
0
 40
0
 40
0
 40
1
 40
1
 40
1
 40
1
 10
42.800753
 20
90.625563
 30
0.0
 10
42.800753
 20
91.421213
 30
0.0
 10
42.484682
 20
92.184275
 30
0.0
 10
41.922073
 20
92.746884
 30
0.0
  0
SPLINE
  5
112
100
AcDbEntity
  8
0
 62
7
100
AcDbSpline
 70
8
 71
3
 72
8
 73
4
 74
0
 40
0
 40
0
 40
0
 40
0
 40
1
 40
1
 40
1
 40
1
 10
41.922073
 20
92.746884
 30
0.0
 10
41.359464
 20
93.309493
 30
0.0
 10
40.596402
 20
93.625563
 30
0.0
 10
39.800753
 20
93.625563
 30
0.0
  0
LWPOLYLINE
  5
113
100
AcDbEntity
  8
0
 62
7
100
AcDbPolyline
 90
1
 70
1
 10
3.800745
 20
39.125561
 30
0.0
  0
SPLINE
  5
114
100
AcDbEntity
  8
0
 62
7
100
AcDbSpline
 70
8
 71
3
 72
8
 73
4
 74
0
 40
0
 40
0
 40
0
 40
0
 40
1
 40
1
 40
1
 40
1
 10
74.800745
 20
98.625560
 30
0.0
 10
73.587358
 20
98.625560
 30
0.0
 10
72.493449
 20
97.894633
 30
0.0
 10
72.029106
 20
96.773610
 30
0.0
  0
SPLINE
  5
115
100
AcDbEntity
  8
0
 62
7
100
AcDbSpline
 70
8
 71
3
 72
8
 73
4
 74
0
 40
0
 40
0
 40
0
 40
0
 40
1
 40
1
 40
1
 40
1
 10
72.029106
 20
96.773610
 30
0.0
 10
71.564763
 20
95.652587
 30
0.0
 10
71.821431
 20
94.362233
 30
0.0
 10
72.679425
 20
93.504239
 30
0.0
  0
SPLINE
  5
116
100
AcDbEntity
  8
0
 62
7
100
AcDbSpline
 70
8
 71
3
 72
8
 73
4
 74
0
 40
0
 40
0
 40
0
 40
0
 40
1
 40
1
 40
1
 40
1
 10
72.679425
 20
93.504239
 30
0.0
 10
73.537419
 20
92.646245
 30
0.0
 10
74.827772
 20
92.389578
 30
0.0
 10
75.948796
 20
92.853921
 30
0.0
  0
SPLINE
  5
117
100
AcDbEntity
  8
0
 62
7
100
AcDbSpline
 70
8
 71
3
 72
8
 73
4
 74
0
 40
0
 40
0
 40
0
 40
0
 40
1
 40
1
 40
1
 40
1
 10
75.948796
 20
92.853921
 30
0.0
 10
77.069819
 20
93.318264
 30
0.0
 10
77.800745
 20
94.412173
 30
0.0
 10
77.800745
 20
95.625560
 30
0.0
  0
SPLINE
  5
118
100
AcDbEntity
  8
0
 62
7
100
AcDbSpline
 70
8
 71
3
 72
8
 73
4
 74
0
 40
0
 40
0
 40
0
 40
0
 40
1
 40
1
 40
1
 40
1
 10
77.800745
 20
95.625560
 30
0.0
 10
77.800745
 20
96.421209
 30
0.0
 10
77.484675
 20
97.184271
 30
0.0
 10
76.922066
 20
97.746880
 30
0.0
  0
SPLINE
  5
119
100
AcDbEntity
  8
0
 62
7
100
AcDbSpline
 70
8
 71
3
 72
8
 73
4
 74
0
 40
0
 40
0
 40
0
 40
0
 40
1
 40
1
 40
1
 40
1
 10
76.922066
 20
97.746880
 30
0.0
 10
76.359457
 20
98.309489
 30
0.0
 10
75.596395
 20
98.625560
 30
0.0
 10
74.800745
 20
98.625560
 30
0.0
  0
LWPOLYLINE
  5
11a
100
AcDbEntity
  8
0
 62
7
100
AcDbPolyline
 90
1
 70
1
 10
39.800753
 20
93.625563
 30
0.0
  0
SPLINE
  5
11b
100
AcDbEntity
  8
0
 62
7
100
AcDbSpline
 70
8
 71
3
 72
8
 73
4
 74
0
 40
0
 40
0
 40
0
 40
0
 40
1
 40
1
 40
1
 40
1
 10
140.330040
 20
91.625563
 30
0.0
 10
139.116653
 20
91.625563
 30
0.0
 10
138.022744
 20
90.894637
 30
0.0
 10
137.558401
 20
89.773614
 30
0.0
  0
SPLINE
  5
11c
100
AcDbEntity
  8
0
 62
7
100
AcDbSpline
 70
8
 71
3
 72
8
 73
4
 74
0
 40
0
 40
0
 40
0
 40
0
 40
1
 40
1
 40
1
 40
1
 10
137.558401
 20
89.773614
 30
0.0
 10
137.094058
 20
88.652590
 30
0.0
 10
137.350725
 20
87.362237
 30
0.0
 10
138.208719
 20
86.504243
 30
0.0
  0
SPLINE
  5
11d
100
AcDbEntity
  8
0
 62
7
100
AcDbSpline
 70
8
 71
3
 72
8
 73
4
 74
0
 40
0
 40
0
 40
0
 40
0
 40
1
 40
1
 40
1
 40
1
 10
138.208719
 20
86.504243
 30
0.0
 10
139.066713
 20
85.646249
 30
0.0
 10
140.357067
 20
85.389581
 30
0.0
 10
141.478090
 20
85.853924
 30
0.0
  0
SPLINE
  5
11e
100
AcDbEntity
  8
0
 62
7
100
AcDbSpline
 70
8
 71
3
 72
8
 73
4
 74
0
 40
0
 40
0
 40
0
 40
0
 40
1
 40
1
 40
1
 40
1
 10
141.478090
 20
85.853924
 30
0.0
 10
142.599113
 20
86.318267
 30
0.0
 10
143.330040
 20
87.412176
 30
0.0
 10
143.330040
 20
88.625563
 30
0.0
  0
SPLINE
  5
11f
100
AcDbEntity
  8
0
 62
7
100
AcDbSpline
 70
8
 71
3
 72
8
 73
4
 74
0
 40
0
 40
0
 40
0
 40
0
 40
1
 40
1
 40
1
 40
1
 10
143.330040
 20
88.625563
 30
0.0
 10
143.330040
 20
90.282418
 30
0.0
 10
141.986894
 20
91.625563
 30
0.0
 10
140.330040
 20
91.625563
 30
0.0
  0
LWPOLYLINE
  5
120
100
AcDbEntity
  8
0
 62
7
100
AcDbPolyline
 90
1
 70
1
 10
74.800745
 20
98.625560
 30
0.0
  0
SPLINE
  5
121
100
AcDbEntity
  8
0
 62
7
100
AcDbSpline
 70
8
 71
3
 72
8
 73
4
 74
0
 40
0
 40
0
 40
0
 40
0
 40
1
 40
1
 40
1
 40
1
 10
21.800747
 20
30.625550
 30
0.0
 10
20.587360
 20
30.625550
 30
0.0
 10
19.493451
 20
29.894624
 30
0.0
 10
19.029108
 20
28.773600
 30
0.0
  0
SPLINE
  5
122
100
AcDbEntity
  8
0
 62
7
100
AcDbSpline
 70
8
 71
3
 72
8
 73
4
 74
0
 40
0
 40
0
 40
0
 40
0
 40
1
 40
1
 40
1
 40
1
 10
19.029108
 20
28.773600
 30
0.0
 10
18.564765
 20
27.652577
 30
0.0
 10
18.821432
 20
26.362223
 30
0.0
 10
19.679426
 20
25.504229
 30
0.0
  0
SPLINE
  5
123
100
AcDbEntity
  8
0
 62
7
100
AcDbSpline
 70
8
 71
3
 72
8
 73
4
 74
0
 40
0
 40
0
 40
0
 40
0
 40
1
 40
1
 40
1
 40
1
 10
19.679426
 20
25.504229
 30
0.0
 10
20.537420
 20
24.646235
 30
0.0
 10
21.827774
 20
24.389568
 30
0.0
 10
22.948797
 20
24.853911
 30
0.0
  0
SPLINE
  5
124
100
AcDbEntity
  8
0
 62
7
100
AcDbSpline
 70
8
 71
3
 72
8
 73
4
 74
0
 40
0
 40
0
 40
0
 40
0
 40
1
 40
1
 40
1
 40
1
 10
22.948797
 20
24.853911
 30
0.0
 10
24.069820
 20
25.318254
 30
0.0
 10
24.800747
 20
26.412163
 30
0.0
 10
24.800747
 20
27.625550
 30
0.0
  0
SPLINE
  5
125
100
AcDbEntity
  8
0
 62
7
100
AcDbSpline
 70
8
 71
3
 72
8
 73
4
 74
0
 40
0
 40
0
 40
0
 40
0
 40
1
 40
1
 40
1
 40
1
 10
24.800747
 20
27.625550
 30
0.0
 10
24.800747
 20
28.421199
 30
0.0
 10
24.484676
 20
29.184261
 30
0.0
 10
23.922067
 20
29.746870
 30
0.0
  0
SPLINE
  5
126
100
AcDbEntity
  8
0
 62
7
100
AcDbSpline
 70
8
 71
3
 72
8
 73
4
 74
0
 40
0
 40
0
 40
0
 40
0
 40
1
 40
1
 40
1
 40
1
 10
23.922067
 20
29.746870
 30
0.0
 10
23.359458
 20
30.309480
 30
0.0
 10
22.596396
 20
30.625550
 30
0.0
 10
21.800747
 20
30.625550
 30
0.0
  0
LWPOLYLINE
  5
127
100
AcDbEntity
  8
0
 62
7
100
AcDbPolyline
 90
1
 70
1
 10
140.330040
 20
91.625563
 30
0.0
  0
SPLINE
  5
128
100
AcDbEntity
  8
0
 62
7
100
AcDbSpline
 70
8
 71
3
 72
8
 73
4
 74
0
 40
0
 40
0
 40
0
 40
0
 40
1
 40
1
 40
1
 40
1
 10
130.962349
 20
6.760088
 30
0.0
 10
129.748962
 20
6.760088
 30
0.0
 10
128.655053
 20
6.029162
 30
0.0
 10
128.190710
 20
4.908139
 30
0.0
  0
SPLINE
  5
129
100
AcDbEntity
  8
0
 62
7
100
AcDbSpline
 70
8
 71
3
 72
8
 73
4
 74
0
 40
0
 40
0
 40
0
 40
0
 40
1
 40
1
 40
1
 40
1
 10
128.190710
 20
4.908139
 30
0.0
 10
127.726367
 20
3.787115
 30
0.0
 10
127.983035
 20
2.496762
 30
0.0
 10
128.841029
 20
1.638768
 30
0.0
  0
SPLINE
  5
12a
100
AcDbEntity
  8
0
 62
7
100
AcDbSpline
 70
8
 71
3
 72
8
 73
4
 74
0
 40
0
 40
0
 40
0
 40
0
 40
1
 40
1
 40
1
 40
1
 10
128.841029
 20
1.638768
 30
0.0
 10
129.699023
 20
0.780774
 30
0.0
 10
130.989376
 20
0.524106
 30
0.0
 10
132.110399
 20
0.988449
 30
0.0
  0
SPLINE
  5
12b
100
AcDbEntity
  8
0
 62
7
100
AcDbSpline
 70
8
 71
3
 72
8
 73
4
 74
0
 40
0
 40
0
 40
0
 40
0
 40
1
 40
1
 40
1
 40
1
 10
132.110399
 20
0.988449
 30
0.0
 10
133.231423
 20
1.452793
 30
0.0
 10
133.962349
 20
2.546701
 30
0.0
 10
133.962349
 20
3.760088
 30
0.0
  0
SPLINE
  5
12c
100
AcDbEntity
  8
0
 62
7
100
AcDbSpline
 70
8
 71
3
 72
8
 73
4
 74
0
 40
0
 40
0
 40
0
 40
0
 40
1
 40
1
 40
1
 40
1
 10
133.962349
 20
3.760088
 30
0.0
 10
133.962349
 20
4.555738
 30
0.0
 10
133.646279
 20
5.318800
 30
0.0
 10
133.083670
 20
5.881409
 30
0.0
  0
SPLINE
  5
12d
100
AcDbEntity
  8
0
 62
7
100
AcDbSpline
 70
8
 71
3
 72
8
 73
4
 74
0
 40
0
 40
0
 40
0
 40
0
 40
1
 40
1
 40
1
 40
1
 10
133.083670
 20
5.881409
 30
0.0
 10
132.521060
 20
6.444018
 30
0.0
 10
131.757999
 20
6.760088
 30
0.0
 10
130.962349
 20
6.760088
 30
0.0
  0
LWPOLYLINE
  5
12e
100
AcDbEntity
  8
0
 62
7
100
AcDbPolyline
 90
1
 70
1
 10
21.800747
 20
30.625550
 30
0.0
  0
SPLINE
  5
12f
100
AcDbEntity
  8
0
 62
7
100
AcDbSpline
 70
8
 71
3
 72
8
 73
4
 74
0
 40
0
 40
0
 40
0
 40
0
 40
1
 40
1
 40
1
 40
1
 10
64.732884
 20
21.617949
 30
0.0
 10
63.519498
 20
21.617949
 30
0.0
 10
62.425589
 20
20.887023
 30
0.0
 10
61.961246
 20
19.766000
 30
0.0
  0
SPLINE
  5
130
100
AcDbEntity
  8
0
 62
7
100
AcDbSpline
 70
8
 71
3
 72
8
 73
4
 74
0
 40
0
 40
0
 40
0
 40
0
 40
1
 40
1
 40
1
 40
1
 10
61.961246
 20
19.766000
 30
0.0
 10
61.496903
 20
18.644976
 30
0.0
 10
61.753570
 20
17.354623
 30
0.0
 10
62.611564
 20
16.496629
 30
0.0
  0
SPLINE
  5
131
100
AcDbEntity
  8
0
 62
7
100
AcDbSpline
 70
8
 71
3
 72
8
 73
4
 74
0
 40
0
 40
0
 40
0
 40
0
 40
1
 40
1
 40
1
 40
1
 10
62.611564
 20
16.496629
 30
0.0
 10
63.469558
 20
15.638635
 30
0.0
 10
64.759912
 20
15.381967
 30
0.0
 10
65.880935
 20
15.846311
 30
0.0
  0
SPLINE
  5
132
100
AcDbEntity
  8
0
 62
7
100
AcDbSpline
 70
8
 71
3
 72
8
 73
4
 74
0
 40
0
 40
0
 40
0
 40
0
 40
1
 40
1
 40
1
 40
1
 10
65.880935
 20
15.846311
 30
0.0
 10
67.001958
 20
16.310654
 30
0.0
 10
67.732885
 20
17.404562
 30
0.0
 10
67.732885
 20
18.617949
 30
0.0
  0
SPLINE
  5
133
100
AcDbEntity
  8
0
 62
7
100
AcDbSpline
 70
8
 71
3
 72
8
 73
4
 74
0
 40
0
 40
0
 40
0
 40
0
 40
1
 40
1
 40
1
 40
1
 10
67.732885
 20
18.617949
 30
0.0
 10
67.732885
 20
19.413599
 30
0.0
 10
67.416814
 20
20.176661
 30
0.0
 10
66.854205
 20
20.739270
 30
0.0
  0
SPLINE
  5
134
100
AcDbEntity
  8
0
 62
7
100
AcDbSpline
 70
8
 71
3
 72
8
 73
4
 74
0
 40
0
 40
0
 40
0
 40
0
 40
1
 40
1
 40
1
 40
1
 10
66.854205
 20
20.739270
 30
0.0
 10
66.291596
 20
21.301879
 30
0.0
 10
65.528534
 20
21.617949
 30
0.0
 10
64.732884
 20
21.617949
 30
0.0
  0
LWPOLYLINE
  5
135
100
AcDbEntity
  8
0
 62
7
100
AcDbPolyline
 90
1
 70
1
 10
130.962349
 20
6.760088
 30
0.0
  0
SPLINE
  5
136
100
AcDbEntity
  8
0
 62
7
100
AcDbSpline
 70
8
 71
3
 72
8
 73
4
 74
0
 40
0
 40
0
 40
0
 40
0
 40
1
 40
1
 40
1
 40
1
 10
99.628047
 20
22.795850
 30
0.0
 10
98.414660
 20
22.795850
 30
0.0
 10
97.320751
 20
22.064923
 30
0.0
 10
96.856408
 20
20.943900
 30
0.0
  0
SPLINE
  5
137
100
AcDbEntity
  8
0
 62
7
100
AcDbSpline
 70
8
 71
3
 72
8
 73
4
 74
0
 40
0
 40
0
 40
0
 40
0
 40
1
 40
1
 40
1
 40
1
 10
96.856408
 20
20.943900
 30
0.0
 10
96.392065
 20
19.822877
 30
0.0
 10
96.648732
 20
18.532523
 30
0.0
 10
97.506726
 20
17.674529
 30
0.0
  0
SPLINE
  5
138
100
AcDbEntity
  8
0
 62
7
100
AcDbSpline
 70
8
 71
3
 72
8
 73
4
 74
0
 40
0
 40
0
 40
0
 40
0
 40
1
 40
1
 40
1
 40
1
 10
97.506726
 20
17.674529
 30
0.0
 10
98.364720
 20
16.816535
 30
0.0
 10
99.655074
 20
16.559868
 30
0.0
 10
100.776097
 20
17.024211
 30
0.0
  0
SPLINE
  5
139
100
AcDbEntity
  8
0
 62
7
100
AcDbSpline
 70
8
 71
3
 72
8
 73
4
 74
0
 40
0
 40
0
 40
0
 40
0
 40
1
 40
1
 40
1
 40
1
 10
100.776097
 20
17.024211
 30
0.0
 10
101.897121
 20
17.488554
 30
0.0
 10
102.628047
 20
18.582463
 30
0.0
 10
102.628047
 20
19.795849
 30
0.0
  0
SPLINE
  5
13a
100
AcDbEntity
  8
0
 62
7
100
AcDbSpline
 70
8
 71
3
 72
8
 73
4
 74
0
 40
0
 40
0
 40
0
 40
0
 40
1
 40
1
 40
1
 40
1
 10
102.628047
 20
19.795849
 30
0.0
 10
102.628047
 20
20.591499
 30
0.0
 10
102.311977
 20
21.354561
 30
0.0
 10
101.749367
 20
21.917170
 30
0.0
  0
SPLINE
  5
13b
100
AcDbEntity
  8
0
 62
7
100
AcDbSpline
 70
8
 71
3
 72
8
 73
4
 74
0
 40
0
 40
0
 40
0
 40
0
 40
1
 40
1
 40
1
 40
1
 10
101.749367
 20
21.917170
 30
0.0
 10
101.186758
 20
22.479779
 30
0.0
 10
100.423696
 20
22.795850
 30
0.0
 10
99.628047
 20
22.795850
 30
0.0
  0
LWPOLYLINE
  5
13c
100
AcDbEntity
  8
0
 62
7
100
AcDbPolyline
 90
1
 70
1
 10
64.732884
 20
21.617949
 30
0.0
  0
SPLINE
  5
13d
100
AcDbEntity
  8
0
 62
7
100
AcDbSpline
 70
8
 71
3
 72
8
 73
4
 74
0
 40
0
 40
0
 40
0
 40
0
 40
1
 40
1
 40
1
 40
1
 10
113.300748
 20
91.625563
 30
0.0
 10
112.087361
 20
91.625563
 30
0.0
 10
110.993452
 20
90.894637
 30
0.0
 10
110.529109
 20
89.773614
 30
0.0
  0
SPLINE
  5
13e
100
AcDbEntity
  8
0
 62
7
100
AcDbSpline
 70
8
 71
3
 72
8
 73
4
 74
0
 40
0
 40
0
 40
0
 40
0
 40
1
 40
1
 40
1
 40
1
 10
110.529109
 20
89.773614
 30
0.0
 10
110.064766
 20
88.652590
 30
0.0
 10
110.321433
 20
87.362237
 30
0.0
 10
111.179427
 20
86.504243
 30
0.0
  0
SPLINE
  5
13f
100
AcDbEntity
  8
0
 62
7
100
AcDbSpline
 70
8
 71
3
 72
8
 73
4
 74
0
 40
0
 40
0
 40
0
 40
0
 40
1
 40
1
 40
1
 40
1
 10
111.179427
 20
86.504243
 30
0.0
 10
112.037421
 20
85.646249
 30
0.0
 10
113.327775
 20
85.389581
 30
0.0
 10
114.448798
 20
85.853924
 30
0.0
  0
SPLINE
  5
140
100
AcDbEntity
  8
0
 62
7
100
AcDbSpline
 70
8
 71
3
 72
8
 73
4
 74
0
 40
0
 40
0
 40
0
 40
0
 40
1
 40
1
 40
1
 40
1
 10
114.448798
 20
85.853924
 30
0.0
 10
115.569821
 20
86.318267
 30
0.0
 10
116.300748
 20
87.412176
 30
0.0
 10
116.300748
 20
88.625563
 30
0.0
  0
SPLINE
  5
141
100
AcDbEntity
  8
0
 62
7
100
AcDbSpline
 70
8
 71
3
 72
8
 73
4
 74
0
 40
0
 40
0
 40
0
 40
0
 40
1
 40
1
 40
1
 40
1
 10
116.300748
 20
88.625563
 30
0.0
 10
116.300748
 20
89.421213
 30
0.0
 10
115.984678
 20
90.184274
 30
0.0
 10
115.422068
 20
90.746884
 30
0.0
  0
SPLINE
  5
142
100
AcDbEntity
  8
0
 62
7
100
AcDbSpline
 70
8
 71
3
 72
8
 73
4
 74
0
 40
0
 40
0
 40
0
 40
0
 40
1
 40
1
 40
1
 40
1
 10
115.422068
 20
90.746884
 30
0.0
 10
114.859459
 20
91.309493
 30
0.0
 10
114.096397
 20
91.625563
 30
0.0
 10
113.300748
 20
91.625563
 30
0.0
  0
LWPOLYLINE
  5
143
100
AcDbEntity
  8
0
 62
7
100
AcDbPolyline
 90
1
 70
1
 10
99.628047
 20
22.795850
 30
0.0
  0
LWPOLYLINE
  5
144
100
AcDbEntity
  8
0
 62
7
100
AcDbPolyline
 90
1
 70
1
 10
113.300748
 20
91.625563
 30
0.0
  0
ENDSEC
  0
SECTION
  2
OBJECTS
  0
DICTIONARY
  5
C
330
0
100
AcDbDictionary
  3
ACAD_GROUP
350
D
  3
ACAD_MLINESTYLE
350
17
  0
DICTIONARY
  5
D
330
C
100
AcDbDictionary
  0
DICTIONARY
  5
1A
330
C
100
AcDbDictionary
  0
DICTIONARY
  5
17
330
C
100
AcDbDictionary
  3
STANDARD
350
18
  0
DICTIONARY
  5
19
330
C
100
AcDbDictionary
  0
ENDSEC
  0
EOF
