  0
SECTION
  2
HEADER
  9
$ACADVER
  1
AC1014
  9
$HANDSEED
  5
FFFF
  9
$INSUNITS
 70
     4
  9
$MEASUREMENT
 70
     1
  0
ENDSEC
  0
SECTION
  2
TABLES
  0
TABLE
  2
VPORT
  5
8
330
0
100
AcDbSymbolTable
 70
     4
  0
VPORT
  5
2E
330
8
100
AcDbSymbolTableRecord
100
AcDbViewportTableRecord
  2
*ACTIVE
 70
     0
 10
0.0
 20
0.0
 11
1.0
 21
1.0
 12
210.0
 22
148.5
 13
0.0
 23
0.0
 14
10.0
 24
10.0
 15
10.0
 25
10.0
 16
0.0
 26
0.0
 36
1.0
 17
0.0
 27
0.0
 37
0.0
 40
341.0
 41
1.24
 42
50.0
 43
0.0
 44
0.0
 50
0.0
 51
0.0
 71
     0
 72
   100
 73
     1
 74
     3
 75
     0
 76
     0
 77
     0
 78
     0
  0
ENDTAB
  0
TABLE
  2
LTYPE
  5
5
330
0
100
AcDbSymbolTable
 70
     1
  0
LTYPE
  5
14
330
5
100
AcDbSymbolTableRecord
100
AcDbLinetypeTableRecord
  2
BYBLOCK
 70
     0
  3

 72
    65
 73
     0
 40
0.0
  0
LTYPE
  5
15
330
5
100
AcDbSymbolTableRecord
100
AcDbLinetypeTableRecord
  2
BYLAYER
 70
     0
  3

 72
    65
 73
     0
 40
0.0
  0
LTYPE
  5
16
330
5
100
AcDbSymbolTableRecord
100
AcDbLinetypeTableRecord
  2
CONTINUOUS
 70
     0
  3
Solid line
 72
    65
 73
     0
 40
0.0
  0
ENDTAB
  0
TABLE
  2
LAYER
  5
2
100
AcDbSymbolTable
 70
2
  0
LAYER
  5
50
100
AcDbSymbolTableRecord
100
AcDbLayerTableRecord
  2
0
 70
0
  6
CONTINUOUS
  0
LAYER
  5
51
100
AcDbSymbolTableRecord
100
AcDbLayerTableRecord
  2
Layer_1
 70
0
  6
CONTINUOUS
  0
ENDTAB
  0
TABLE
  2
STYLE
  5
3
330
0
100
AcDbSymbolTable
 70
     1
  0
STYLE
  5
11
330
3
100
AcDbSymbolTableRecord
100
AcDbTextStyleTableRecord
  2
STANDARD
 70
     0
 40
0.0
 41
1.0
 50
0.0
 71
     0
 42
2.5
  3
txt
  4

  0
ENDTAB
  0
TABLE
  2
VIEW
  5
6
330
0
100
AcDbSymbolTable
 70
     0
  0
ENDTAB
  0
TABLE
  2
UCS
  5
7
330
0
100
AcDbSymbolTable
 70
     0
  0
ENDTAB
  0
TABLE
  2
APPID
  5
9
330
0
100
AcDbSymbolTable
 70
     2
  0
APPID
  5
12
330
9
100
AcDbSymbolTableRecord
100
AcDbRegAppTableRecord
  2
ACAD
 70
     0
  0
ENDTAB
  0
TABLE
  2
DIMSTYLE
  5
A
330
0
100
AcDbSymbolTable
 70
     1
  0
DIMSTYLE
105
27
330
A
100
AcDbSymbolTableRecord
100
AcDbDimStyleTableRecord
  2
ISO-25
 70
     0
  3

  4

  5

  6

  7

 40
1.0
 41
2.5
 42
0.625
 43
3.75
 44
1.25
 45
0.0
 46
0.0
 47
0.0
 48
0.0
140
2.5
141
2.5
142
0.0
143
0.03937007874016
144
1.0
145
0.0
146
1.0
147
0.625
 71
     0
 72
     0
 73
     0
 74
     0
 75
     0
 76
     0
 77
     1
 78
     8
170
     0
171
     3
172
     1
173
     0
174
     0
175
     0
176
     0
177
     0
178
     0
270
     2
271
     2
272
     2
273
     2
274
     3
340
11
275
     0
280
     0
281
     0
282
     0
283
     0
284
     8
285
     0
286
     0
287
     3
288
     0
  0
ENDTAB
  0
TABLE
  2
BLOCK_RECORD
  5
1
330
0
100
AcDbSymbolTable
 70
     1
  0
BLOCK_RECORD
  5
1F
330
1
100
AcDbSymbolTableRecord
100
AcDbBlockTableRecord
  2
*MODEL_SPACE
  0
BLOCK_RECORD
  5
1B
330
1
100
AcDbSymbolTableRecord
100
AcDbBlockTableRecord
  2
*PAPER_SPACE
  0
ENDTAB
  0
ENDSEC
  0
SECTION
  2
BLOCKS
  0
BLOCK
  5
20
330
1F
100
AcDbEntity
  8
0
100
AcDbBlockBegin
  2
*MODEL_SPACE
 70
     0
 10
0.0
 20
0.0
 30
0.0
  3
*MODEL_SPACE
  1

  0
ENDBLK
  5
21
330
1F
100
AcDbEntity
  8
0
100
AcDbBlockEnd
  0
BLOCK
  5
1C
330
1B
100
AcDbEntity
 67
     1
  8
0
100
AcDbBlockBegin
  2
*PAPER_SPACE
  1

  0
ENDBLK
  5
1D
330
1B
100
AcDbEntity
 67
     1
  8
0
100
AcDbBlockEnd
  0
ENDSEC
  0
SECTION
  2
ENTITIES
  0
SPLINE
  5
100
100
AcDbEntity
  8
Layer_1
 62
7
100
AcDbSpline
 70
8
 71
3
 72
8
 73
4
 74
0
 40
0
 40
0
 40
0
 40
0
 40
1
 40
1
 40
1
 40
1
 10
3.850748
 20
73.125559
 30
0.0
 10
2.617138
 20
73.125559
 30
0.0
 10
1.504998
 20
72.382450
 30
0.0
 10
1.032915
 20
71.242743
 30
0.0
  0
SPLINE
  5
101
100
AcDbEntity
  8
Layer_1
 62
7
100
AcDbSpline
 70
8
 71
3
 72
8
 73
4
 74
0
 40
0
 40
0
 40
0
 40
0
 40
1
 40
1
 40
1
 40
1
 10
1.032915
 20
71.242743
 30
0.0
 10
0.560833
 20
70.103036
 30
0.0
 10
0.821778
 20
68.791177
 30
0.0
 10
1.694072
 20
67.918883
 30
0.0
  0
SPLINE
  5
102
100
AcDbEntity
  8
Layer_1
 62
7
100
AcDbSpline
 70
8
 71
3
 72
8
 73
4
 74
0
 40
0
 40
0
 40
0
 40
0
 40
1
 40
1
 40
1
 40
1
 10
1.694072
 20
67.918883
 30
0.0
 10
2.566366
 20
67.046589
 30
0.0
 10
3.878226
 20
66.785644
 30
0.0
 10
5.017933
 20
67.257726
 30
0.0
  0
SPLINE
  5
103
100
AcDbEntity
  8
Layer_1
 62
7
100
AcDbSpline
 70
8
 71
3
 72
8
 73
4
 74
0
 40
0
 40
0
 40
0
 40
0
 40
1
 40
1
 40
1
 40
1
 10
5.017933
 20
67.257726
 30
0.0
 10
6.157640
 20
67.729808
 30
0.0
 10
6.900748
 20
68.841949
 30
0.0
 10
6.900748
 20
70.075559
 30
0.0
  0
SPLINE
  5
104
100
AcDbEntity
  8
Layer_1
 62
7
100
AcDbSpline
 70
8
 71
3
 72
8
 73
4
 74
0
 40
0
 40
0
 40
0
 40
0
 40
1
 40
1
 40
1
 40
1
 10
6.900748
 20
70.075559
 30
0.0
 10
6.900748
 20
70.884469
 30
0.0
 10
6.579410
 20
71.660249
 30
0.0
 10
6.007424
 20
72.232235
 30
0.0
  0
SPLINE
  5
105
100
AcDbEntity
  8
Layer_1
 62
7
100
AcDbSpline
 70
8
 71
3
 72
8
 73
4
 74
0
 40
0
 40
0
 40
0
 40
0
 40
1
 40
1
 40
1
 40
1
 10
6.007424
 20
72.232235
 30
0.0
 10
5.435438
 20
72.804221
 30
0.0
 10
4.659659
 20
73.125559
 30
0.0
 10
3.850748
 20
73.125559
 30
0.0
  0
LINE
  5
106
100
AcDbEntity
  8
Layer_1
 62
7
100
AcDbLine
 10
3.850748
 20
73.125559
 30
0.0
 11
3.850748
 21
73.125559
 31
0.0
  0
SPLINE
  5
107
100
AcDbEntity
  8
Layer_1
 62
7
100
AcDbSpline
 70
8
 71
3
 72
8
 73
4
 74
0
 40
0
 40
0
 40
0
 40
0
 40
1
 40
1
 40
1
 40
1
 10
3.850748
 20
39.225561
 30
0.0
 10
2.617138
 20
39.225561
 30
0.0
 10
1.504998
 20
38.482452
 30
0.0
 10
1.032915
 20
37.342745
 30
0.0
  0
SPLINE
  5
108
100
AcDbEntity
  8
Layer_1
 62
7
100
AcDbSpline
 70
8
 71
3
 72
8
 73
4
 74
0
 40
0
 40
0
 40
0
 40
0
 40
1
 40
1
 40
1
 40
1
 10
1.032915
 20
37.342745
 30
0.0
 10
0.560833
 20
36.203038
 30
0.0
 10
0.821778
 20
34.891179
 30
0.0
 10
1.694072
 20
34.018885
 30
0.0
  0
SPLINE
  5
109
100
AcDbEntity
  8
Layer_1
 62
7
100
AcDbSpline
 70
8
 71
3
 72
8
 73
4
 74
0
 40
0
 40
0
 40
0
 40
0
 40
1
 40
1
 40
1
 40
1
 10
1.694072
 20
34.018885
 30
0.0
 10
2.566366
 20
33.146591
 30
0.0
 10
3.878226
 20
32.885646
 30
0.0
 10
5.017933
 20
33.357728
 30
0.0
  0
SPLINE
  5
10a
100
AcDbEntity
  8
Layer_1
 62
7
100
AcDbSpline
 70
8
 71
3
 72
8
 73
4
 74
0
 40
0
 40
0
 40
0
 40
0
 40
1
 40
1
 40
1
 40
1
 10
5.017933
 20
33.357728
 30
0.0
 10
6.157640
 20
33.829810
 30
0.0
 10
6.900748
 20
34.941951
 30
0.0
 10
6.900748
 20
36.175561
 30
0.0
  0
SPLINE
  5
10b
100
AcDbEntity
  8
Layer_1
 62
7
100
AcDbSpline
 70
8
 71
3
 72
8
 73
4
 74
0
 40
0
 40
0
 40
0
 40
0
 40
1
 40
1
 40
1
 40
1
 10
6.900748
 20
36.175561
 30
0.0
 10
6.900748
 20
36.984471
 30
0.0
 10
6.579410
 20
37.760250
 30
0.0
 10
6.007424
 20
38.332236
 30
0.0
  0
SPLINE
  5
10c
100
AcDbEntity
  8
Layer_1
 62
7
100
AcDbSpline
 70
8
 71
3
 72
8
 73
4
 74
0
 40
0
 40
0
 40
0
 40
0
 40
1
 40
1
 40
1
 40
1
 10
6.007424
 20
38.332236
 30
0.0
 10
5.435438
 20
38.904222
 30
0.0
 10
4.659659
 20
39.225561
 30
0.0
 10
3.850748
 20
39.225561
 30
0.0
  0
LINE
  5
10d
100
AcDbEntity
  8
Layer_1
 62
7
100
AcDbLine
 10
3.850748
 20
39.225561
 30
0.0
 11
3.850748
 21
39.225561
 31
0.0
  0
SPLINE
  5
10e
100
AcDbEntity
  8
Layer_1
 62
7
100
AcDbSpline
 70
8
 71
3
 72
8
 73
4
 74
0
 40
0
 40
0
 40
0
 40
0
 40
1
 40
1
 40
1
 40
1
 10
39.850763
 20
93.625560
 30
0.0
 10
38.617153
 20
93.625560
 30
0.0
 10
37.505012
 20
92.882452
 30
0.0
 10
37.032930
 20
91.742745
 30
0.0
  0
SPLINE
  5
10f
100
AcDbEntity
  8
Layer_1
 62
7
100
AcDbSpline
 70
8
 71
3
 72
8
 73
4
 74
0
 40
0
 40
0
 40
0
 40
0
 40
1
 40
1
 40
1
 40
1
 10
37.032930
 20
91.742745
 30
0.0
 10
36.560848
 20
90.603038
 30
0.0
 10
36.821793
 20
89.291178
 30
0.0
 10
37.694087
 20
88.418884
 30
0.0
  0
SPLINE
  5
110
100
AcDbEntity
  8
Layer_1
 62
7
100
AcDbSpline
 70
8
 71
3
 72
8
 73
4
 74
0
 40
0
 40
0
 40
0
 40
0
 40
1
 40
1
 40
1
 40
1
 10
37.694087
 20
88.418884
 30
0.0
 10
38.566381
 20
87.546591
 30
0.0
 10
39.878240
 20
87.285645
 30
0.0
 10
41.017947
 20
87.757728
 30
0.0
  0
SPLINE
  5
111
100
AcDbEntity
  8
Layer_1
 62
7
100
AcDbSpline
 70
8
 71
3
 72
8
 73
4
 74
0
 40
0
 40
0
 40
0
 40
0
 40
1
 40
1
 40
1
 40
1
 10
41.017947
 20
87.757728
 30
0.0
 10
42.157654
 20
88.229810
 30
0.0
 10
42.900763
 20
89.341950
 30
0.0
 10
42.900763
 20
90.575560
 30
0.0
  0
SPLINE
  5
112
100
AcDbEntity
  8
Layer_1
 62
7
100
AcDbSpline
 70
8
 71
3
 72
8
 73
4
 74
0
 40
0
 40
0
 40
0
 40
0
 40
1
 40
1
 40
1
 40
1
 10
42.900763
 20
90.575560
 30
0.0
 10
42.900763
 20
92.260029
 30
0.0
 10
41.535231
 20
93.625560
 30
0.0
 10
39.850763
 20
93.625560
 30
0.0
  0
LINE
  5
113
100
AcDbEntity
  8
Layer_1
 62
7
100
AcDbLine
 10
39.850763
 20
93.625560
 30
0.0
 11
39.850763
 21
93.625560
 31
0.0
  0
SPLINE
  5
114
100
AcDbEntity
  8
Layer_1
 62
7
100
AcDbSpline
 70
8
 71
3
 72
8
 73
4
 74
0
 40
0
 40
0
 40
0
 40
0
 40
1
 40
1
 40
1
 40
1
 10
74.750735
 20
98.625561
 30
0.0
 10
73.517125
 20
98.625561
 30
0.0
 10
72.404984
 20
97.882452
 30
0.0
 10
71.932902
 20
96.742745
 30
0.0
  0
SPLINE
  5
115
100
AcDbEntity
  8
Layer_1
 62
7
100
AcDbSpline
 70
8
 71
3
 72
8
 73
4
 74
0
 40
0
 40
0
 40
0
 40
0
 40
1
 40
1
 40
1
 40
1
 10
71.932902
 20
96.742745
 30
0.0
 10
71.460820
 20
95.603038
 30
0.0
 10
71.721765
 20
94.291179
 30
0.0
 10
72.594059
 20
93.418885
 30
0.0
  0
SPLINE
  5
116
100
AcDbEntity
  8
Layer_1
 62
7
100
AcDbSpline
 70
8
 71
3
 72
8
 73
4
 74
0
 40
0
 40
0
 40
0
 40
0
 40
1
 40
1
 40
1
 40
1
 10
72.594059
 20
93.418885
 30
0.0
 10
73.466353
 20
92.546591
 30
0.0
 10
74.778213
 20
92.285646
 30
0.0
 10
75.917920
 20
92.757728
 30
0.0
  0
SPLINE
  5
117
100
AcDbEntity
  8
Layer_1
 62
7
100
AcDbSpline
 70
8
 71
3
 72
8
 73
4
 74
0
 40
0
 40
0
 40
0
 40
0
 40
1
 40
1
 40
1
 40
1
 10
75.917920
 20
92.757728
 30
0.0
 10
77.057627
 20
93.229810
 30
0.0
 10
77.800735
 20
94.341951
 30
0.0
 10
77.800735
 20
95.575561
 30
0.0
  0
SPLINE
  5
118
100
AcDbEntity
  8
Layer_1
 62
7
100
AcDbSpline
 70
8
 71
3
 72
8
 73
4
 74
0
 40
0
 40
0
 40
0
 40
0
 40
1
 40
1
 40
1
 40
1
 10
77.800735
 20
95.575561
 30
0.0
 10
77.800735
 20
96.384471
 30
0.0
 10
77.479397
 20
97.160250
 30
0.0
 10
76.907411
 20
97.732236
 30
0.0
  0
SPLINE
  5
119
100
AcDbEntity
  8
Layer_1
 62
7
100
AcDbSpline
 70
8
 71
3
 72
8
 73
4
 74
0
 40
0
 40
0
 40
0
 40
0
 40
1
 40
1
 40
1
 40
1
 10
76.907411
 20
97.732236
 30
0.0
 10
76.335425
 20
98.304222
 30
0.0
 10
75.559646
 20
98.625561
 30
0.0
 10
74.750735
 20
98.625561
 30
0.0
  0
LINE
  5
11a
100
AcDbEntity
  8
Layer_1
 62
7
100
AcDbLine
 10
74.750735
 20
98.625561
 30
0.0
 11
74.750735
 21
98.625561
 31
0.0
  0
SPLINE
  5
11b
100
AcDbEntity
  8
Layer_1
 62
7
100
AcDbSpline
 70
8
 71
3
 72
8
 73
4
 74
0
 40
0
 40
0
 40
0
 40
0
 40
1
 40
1
 40
1
 40
1
 10
140.280040
 20
91.625560
 30
0.0
 10
139.046430
 20
91.625560
 30
0.0
 10
137.934289
 20
90.882452
 30
0.0
 10
137.462207
 20
89.742745
 30
0.0
  0
SPLINE
  5
11c
100
AcDbEntity
  8
Layer_1
 62
7
100
AcDbSpline
 70
8
 71
3
 72
8
 73
4
 74
0
 40
0
 40
0
 40
0
 40
0
 40
1
 40
1
 40
1
 40
1
 10
137.462207
 20
89.742745
 30
0.0
 10
136.990125
 20
88.603038
 30
0.0
 10
137.251070
 20
87.291178
 30
0.0
 10
138.123364
 20
86.418884
 30
0.0
  0
SPLINE
  5
11d
100
AcDbEntity
  8
Layer_1
 62
7
100
AcDbSpline
 70
8
 71
3
 72
8
 73
4
 74
0
 40
0
 40
0
 40
0
 40
0
 40
1
 40
1
 40
1
 40
1
 10
138.123364
 20
86.418884
 30
0.0
 10
138.995658
 20
85.546590
 30
0.0
 10
140.307517
 20
85.285645
 30
0.0
 10
141.447224
 20
85.757727
 30
0.0
  0
SPLINE
  5
11e
100
AcDbEntity
  8
Layer_1
 62
7
100
AcDbSpline
 70
8
 71
3
 72
8
 73
4
 74
0
 40
0
 40
0
 40
0
 40
0
 40
1
 40
1
 40
1
 40
1
 10
141.447224
 20
85.757727
 30
0.0
 10
142.586931
 20
86.229809
 30
0.0
 10
143.330040
 20
87.341950
 30
0.0
 10
143.330040
 20
88.575560
 30
0.0
  0
SPLINE
  5
11f
100
AcDbEntity
  8
Layer_1
 62
7
100
AcDbSpline
 70
8
 71
3
 72
8
 73
4
 74
0
 40
0
 40
0
 40
0
 40
0
 40
1
 40
1
 40
1
 40
1
 10
143.330040
 20
88.575560
 30
0.0
 10
143.330040
 20
89.384470
 30
0.0
 10
143.008702
 20
90.160250
 30
0.0
 10
142.436716
 20
90.732236
 30
0.0
  0
SPLINE
  5
120
100
AcDbEntity
  8
Layer_1
 62
7
100
AcDbSpline
 70
8
 71
3
 72
8
 73
4
 74
0
 40
0
 40
0
 40
0
 40
0
 40
1
 40
1
 40
1
 40
1
 10
142.436716
 20
90.732236
 30
0.0
 10
141.864730
 20
91.304222
 30
0.0
 10
141.088950
 20
91.625560
 30
0.0
 10
140.280040
 20
91.625560
 30
0.0
  0
LINE
  5
121
100
AcDbEntity
  8
Layer_1
 62
7
100
AcDbLine
 10
140.280040
 20
91.625560
 30
0.0
 11
140.280040
 21
91.625560
 31
0.0
  0
SPLINE
  5
122
100
AcDbEntity
  8
Layer_1
 62
7
100
AcDbSpline
 70
8
 71
3
 72
8
 73
4
 74
0
 40
0
 40
0
 40
0
 40
0
 40
1
 40
1
 40
1
 40
1
 10
21.850750
 20
30.725550
 30
0.0
 10
20.617140
 20
30.725550
 30
0.0
 10
19.504999
 20
29.982441
 30
0.0
 10
19.032917
 20
28.842734
 30
0.0
  0
SPLINE
  5
123
100
AcDbEntity
  8
Layer_1
 62
7
100
AcDbSpline
 70
8
 71
3
 72
8
 73
4
 74
0
 40
0
 40
0
 40
0
 40
0
 40
1
 40
1
 40
1
 40
1
 10
19.032917
 20
28.842734
 30
0.0
 10
18.560835
 20
27.703028
 30
0.0
 10
18.821780
 20
26.391168
 30
0.0
 10
19.694074
 20
25.518874
 30
0.0
  0
SPLINE
  5
124
100
AcDbEntity
  8
Layer_1
 62
7
100
AcDbSpline
 70
8
 71
3
 72
8
 73
4
 74
0
 40
0
 40
0
 40
0
 40
0
 40
1
 40
1
 40
1
 40
1
 10
19.694074
 20
25.518874
 30
0.0
 10
20.566368
 20
24.646580
 30
0.0
 10
21.878227
 20
24.385635
 30
0.0
 10
23.017934
 20
24.857717
 30
0.0
  0
SPLINE
  5
125
100
AcDbEntity
  8
Layer_1
 62
7
100
AcDbSpline
 70
8
 71
3
 72
8
 73
4
 74
0
 40
0
 40
0
 40
0
 40
0
 40
1
 40
1
 40
1
 40
1
 10
23.017934
 20
24.857717
 30
0.0
 10
24.157641
 20
25.329799
 30
0.0
 10
24.900750
 20
26.441940
 30
0.0
 10
24.900750
 20
27.675550
 30
0.0
  0
SPLINE
  5
126
100
AcDbEntity
  8
Layer_1
 62
7
100
AcDbSpline
 70
8
 71
3
 72
8
 73
4
 74
0
 40
0
 40
0
 40
0
 40
0
 40
1
 40
1
 40
1
 40
1
 10
24.900750
 20
27.675550
 30
0.0
 10
24.900750
 20
28.484460
 30
0.0
 10
24.579411
 20
29.260240
 30
0.0
 10
24.007425
 20
29.832226
 30
0.0
  0
SPLINE
  5
127
100
AcDbEntity
  8
Layer_1
 62
7
100
AcDbSpline
 70
8
 71
3
 72
8
 73
4
 74
0
 40
0
 40
0
 40
0
 40
0
 40
1
 40
1
 40
1
 40
1
 10
24.007425
 20
29.832226
 30
0.0
 10
23.435439
 20
30.404212
 30
0.0
 10
22.659660
 20
30.725550
 30
0.0
 10
21.850750
 20
30.725550
 30
0.0
  0
LINE
  5
128
100
AcDbEntity
  8
Layer_1
 62
7
100
AcDbLine
 10
21.850750
 20
30.725550
 30
0.0
 11
21.850750
 21
30.725550
 31
0.0
  0
SPLINE
  5
129
100
AcDbEntity
  8
Layer_1
 62
7
100
AcDbSpline
 70
8
 71
3
 72
8
 73
4
 74
0
 40
0
 40
0
 40
0
 40
0
 40
1
 40
1
 40
1
 40
1
 10
130.962349
 20
6.860088
 30
0.0
 10
129.728739
 20
6.860088
 30
0.0
 10
128.616598
 20
6.116980
 30
0.0
 10
128.144516
 20
4.977273
 30
0.0
  0
SPLINE
  5
12a
100
AcDbEntity
  8
Layer_1
 62
7
100
AcDbSpline
 70
8
 71
3
 72
8
 73
4
 74
0
 40
0
 40
0
 40
0
 40
0
 40
1
 40
1
 40
1
 40
1
 10
128.144516
 20
4.977273
 30
0.0
 10
127.672434
 20
3.837566
 30
0.0
 10
127.933379
 20
2.525706
 30
0.0
 10
128.805673
 20
1.653412
 30
0.0
  0
SPLINE
  5
12b
100
AcDbEntity
  8
Layer_1
 62
7
100
AcDbSpline
 70
8
 71
3
 72
8
 73
4
 74
0
 40
0
 40
0
 40
0
 40
0
 40
1
 40
1
 40
1
 40
1
 10
128.805673
 20
1.653412
 30
0.0
 10
129.677967
 20
0.781118
 30
0.0
 10
130.989827
 20
0.520173
 30
0.0
 10
132.129534
 20
0.992255
 30
0.0
  0
SPLINE
  5
12c
100
AcDbEntity
  8
Layer_1
 62
7
100
AcDbSpline
 70
8
 71
3
 72
8
 73
4
 74
0
 40
0
 40
0
 40
0
 40
0
 40
1
 40
1
 40
1
 40
1
 10
132.129534
 20
0.992255
 30
0.0
 10
133.269241
 20
1.464338
 30
0.0
 10
134.012349
 20
2.576478
 30
0.0
 10
134.012349
 20
3.810088
 30
0.0
  0
SPLINE
  5
12d
100
AcDbEntity
  8
Layer_1
 62
7
100
AcDbSpline
 70
8
 71
3
 72
8
 73
4
 74
0
 40
0
 40
0
 40
0
 40
0
 40
1
 40
1
 40
1
 40
1
 10
134.012349
 20
3.810088
 30
0.0
 10
134.012349
 20
4.618999
 30
0.0
 10
133.691011
 20
5.394778
 30
0.0
 10
133.119025
 20
5.966764
 30
0.0
  0
SPLINE
  5
12e
100
AcDbEntity
  8
Layer_1
 62
7
100
AcDbSpline
 70
8
 71
3
 72
8
 73
4
 74
0
 40
0
 40
0
 40
0
 40
0
 40
1
 40
1
 40
1
 40
1
 10
133.119025
 20
5.966764
 30
0.0
 10
132.547039
 20
6.538750
 30
0.0
 10
131.771259
 20
6.860088
 30
0.0
 10
130.962349
 20
6.860088
 30
0.0
  0
LINE
  5
12f
100
AcDbEntity
  8
Layer_1
 62
7
100
AcDbLine
 10
130.962349
 20
6.860088
 30
0.0
 11
130.962349
 21
6.860088
 31
0.0
  0
SPLINE
  5
130
100
AcDbEntity
  8
Layer_1
 62
7
100
AcDbSpline
 70
8
 71
3
 72
8
 73
4
 74
0
 40
0
 40
0
 40
0
 40
0
 40
1
 40
1
 40
1
 40
1
 10
64.782884
 20
21.767960
 30
0.0
 10
63.098416
 20
21.767960
 30
0.0
 10
61.732884
 20
20.402428
 30
0.0
 10
61.732884
 20
18.717959
 30
0.0
  0
SPLINE
  5
131
100
AcDbEntity
  8
Layer_1
 62
7
100
AcDbSpline
 70
8
 71
3
 72
8
 73
4
 74
0
 40
0
 40
0
 40
0
 40
0
 40
1
 40
1
 40
1
 40
1
 10
61.732884
 20
18.717959
 30
0.0
 10
61.732884
 20
17.033491
 30
0.0
 10
63.098416
 20
15.667959
 30
0.0
 10
64.782884
 20
15.667959
 30
0.0
  0
SPLINE
  5
132
100
AcDbEntity
  8
Layer_1
 62
7
100
AcDbSpline
 70
8
 71
3
 72
8
 73
4
 74
0
 40
0
 40
0
 40
0
 40
0
 40
1
 40
1
 40
1
 40
1
 10
64.782884
 20
15.667959
 30
0.0
 10
66.467353
 20
15.667959
 30
0.0
 10
67.832885
 20
17.033491
 30
0.0
 10
67.832885
 20
18.717959
 30
0.0
  0
SPLINE
  5
133
100
AcDbEntity
  8
Layer_1
 62
7
100
AcDbSpline
 70
8
 71
3
 72
8
 73
4
 74
0
 40
0
 40
0
 40
0
 40
0
 40
1
 40
1
 40
1
 40
1
 10
67.832885
 20
18.717959
 30
0.0
 10
67.832885
 20
19.526870
 30
0.0
 10
67.511546
 20
20.302649
 30
0.0
 10
66.939560
 20
20.874635
 30
0.0
  0
SPLINE
  5
134
100
AcDbEntity
  8
Layer_1
 62
7
100
AcDbSpline
 70
8
 71
3
 72
8
 73
4
 74
0
 40
0
 40
0
 40
0
 40
0
 40
1
 40
1
 40
1
 40
1
 10
66.939560
 20
20.874635
 30
0.0
 10
66.367574
 20
21.446621
 30
0.0
 10
65.591795
 20
21.767960
 30
0.0
 10
64.782884
 20
21.767960
 30
0.0
  0
LINE
  5
135
100
AcDbEntity
  8
Layer_1
 62
7
100
AcDbLine
 10
64.782884
 20
21.767960
 30
0.0
 11
64.782884
 21
21.767960
 31
0.0
  0
SPLINE
  5
136
100
AcDbEntity
  8
Layer_1
 62
7
100
AcDbSpline
 70
8
 71
3
 72
8
 73
4
 74
0
 40
0
 40
0
 40
0
 40
0
 40
1
 40
1
 40
1
 40
1
 10
99.678047
 20
22.945860
 30
0.0
 10
98.444437
 20
22.945860
 30
0.0
 10
97.332296
 20
22.202751
 30
0.0
 10
96.860214
 20
21.063044
 30
0.0
  0
SPLINE
  5
137
100
AcDbEntity
  8
Layer_1
 62
7
100
AcDbSpline
 70
8
 71
3
 72
8
 73
4
 74
0
 40
0
 40
0
 40
0
 40
0
 40
1
 40
1
 40
1
 40
1
 10
96.860214
 20
21.063044
 30
0.0
 10
96.388132
 20
19.923337
 30
0.0
 10
96.649077
 20
18.611477
 30
0.0
 10
97.521371
 20
17.739184
 30
0.0
  0
SPLINE
  5
138
100
AcDbEntity
  8
Layer_1
 62
7
100
AcDbSpline
 70
8
 71
3
 72
8
 73
4
 74
0
 40
0
 40
0
 40
0
 40
0
 40
1
 40
1
 40
1
 40
1
 10
97.521371
 20
17.739184
 30
0.0
 10
98.393665
 20
16.866890
 30
0.0
 10
99.705524
 20
16.605945
 30
0.0
 10
100.845231
 20
17.078027
 30
0.0
  0
SPLINE
  5
139
100
AcDbEntity
  8
Layer_1
 62
7
100
AcDbSpline
 70
8
 71
3
 72
8
 73
4
 74
0
 40
0
 40
0
 40
0
 40
0
 40
1
 40
1
 40
1
 40
1
 10
100.845231
 20
17.078027
 30
0.0
 10
101.984938
 20
17.550109
 30
0.0
 10
102.728047
 20
18.662249
 30
0.0
 10
102.728047
 20
19.895859
 30
0.0
  0
SPLINE
  5
13a
100
AcDbEntity
  8
Layer_1
 62
7
100
AcDbSpline
 70
8
 71
3
 72
8
 73
4
 74
0
 40
0
 40
0
 40
0
 40
0
 40
1
 40
1
 40
1
 40
1
 10
102.728047
 20
19.895859
 30
0.0
 10
102.728047
 20
20.704770
 30
0.0
 10
102.406709
 20
21.480549
 30
0.0
 10
101.834723
 20
22.052535
 30
0.0
  0
SPLINE
  5
13b
100
AcDbEntity
  8
Layer_1
 62
7
100
AcDbSpline
 70
8
 71
3
 72
8
 73
4
 74
0
 40
0
 40
0
 40
0
 40
0
 40
1
 40
1
 40
1
 40
1
 10
101.834723
 20
22.052535
 30
0.0
 10
101.262737
 20
22.624521
 30
0.0
 10
100.486957
 20
22.945860
 30
0.0
 10
99.678047
 20
22.945860
 30
0.0
  0
LINE
  5
13c
100
AcDbEntity
  8
Layer_1
 62
7
100
AcDbLine
 10
99.678047
 20
22.945860
 30
0.0
 11
99.678047
 21
22.945860
 31
0.0
  0
SPLINE
  5
13d
100
AcDbEntity
  8
Layer_1
 62
7
100
AcDbSpline
 70
8
 71
3
 72
8
 73
4
 74
0
 40
0
 40
0
 40
0
 40
0
 40
1
 40
1
 40
1
 40
1
 10
113.300748
 20
91.625560
 30
0.0
 10
111.616279
 20
91.625560
 30
0.0
 10
110.250748
 20
90.260029
 30
0.0
 10
110.250748
 20
88.575560
 30
0.0
  0
SPLINE
  5
13e
100
AcDbEntity
  8
Layer_1
 62
7
100
AcDbSpline
 70
8
 71
3
 72
8
 73
4
 74
0
 40
0
 40
0
 40
0
 40
0
 40
1
 40
1
 40
1
 40
1
 10
110.250748
 20
88.575560
 30
0.0
 10
110.250748
 20
86.891092
 30
0.0
 10
111.616279
 20
85.525560
 30
0.0
 10
113.300748
 20
85.525560
 30
0.0
  0
SPLINE
  5
13f
100
AcDbEntity
  8
Layer_1
 62
7
100
AcDbSpline
 70
8
 71
3
 72
8
 73
4
 74
0
 40
0
 40
0
 40
0
 40
0
 40
1
 40
1
 40
1
 40
1
 10
113.300748
 20
85.525560
 30
0.0
 10
114.985216
 20
85.525560
 30
0.0
 10
116.350748
 20
86.891092
 30
0.0
 10
116.350748
 20
88.575560
 30
0.0
  0
SPLINE
  5
140
100
AcDbEntity
  8
Layer_1
 62
7
100
AcDbSpline
 70
8
 71
3
 72
8
 73
4
 74
0
 40
0
 40
0
 40
0
 40
0
 40
1
 40
1
 40
1
 40
1
 10
116.350748
 20
88.575560
 30
0.0
 10
116.350748
 20
89.384470
 30
0.0
 10
116.029410
 20
90.160250
 30
0.0
 10
115.457424
 20
90.732236
 30
0.0
  0
SPLINE
  5
141
100
AcDbEntity
  8
Layer_1
 62
7
100
AcDbSpline
 70
8
 71
3
 72
8
 73
4
 74
0
 40
0
 40
0
 40
0
 40
0
 40
1
 40
1
 40
1
 40
1
 10
115.457424
 20
90.732236
 30
0.0
 10
114.885438
 20
91.304222
 30
0.0
 10
114.109658
 20
91.625560
 30
0.0
 10
113.300748
 20
91.625560
 30
0.0
  0
LINE
  5
142
100
AcDbEntity
  8
Layer_1
 62
7
100
AcDbLine
 10
113.300748
 20
91.625560
 30
0.0
 11
113.300748
 21
91.625560
 31
0.0
  0
ENDSEC
  0
SECTION
  2
OBJECTS
  0
DICTIONARY
  5
C
330
0
100
AcDbDictionary
  3
ACAD_GROUP
350
D
  3
ACAD_MLINESTYLE
350
17
  0
DICTIONARY
  5
D
330
C
100
AcDbDictionary
  0
DICTIONARY
  5
1A
330
C
100
AcDbDictionary
  0
DICTIONARY
  5
17
330
C
100
AcDbDictionary
  3
STANDARD
350
18
  0
DICTIONARY
  5
19
330
C
100
AcDbDictionary
  0
ENDSEC
  0
EOF
