  0
SECTION
  2
HEADER
  9
$ACADVER
  1
AC1014
  9
$HANDSEED
  5
FFFF
  9
$INSUNITS
 70
     4
  9
$MEASUREMENT
 70
     1
  0
ENDSEC
  0
SECTION
  2
TABLES
  0
TABLE
  2
VPORT
  5
8
330
0
100
AcDbSymbolTable
 70
     4
  0
VPORT
  5
2E
330
8
100
AcDbSymbolTableRecord
100
AcDbViewportTableRecord
  2
*ACTIVE
 70
     0
 10
0.0
 20
0.0
 11
1.0
 21
1.0
 12
210.0
 22
148.5
 13
0.0
 23
0.0
 14
10.0
 24
10.0
 15
10.0
 25
10.0
 16
0.0
 26
0.0
 36
1.0
 17
0.0
 27
0.0
 37
0.0
 40
341.0
 41
1.24
 42
50.0
 43
0.0
 44
0.0
 50
0.0
 51
0.0
 71
     0
 72
   100
 73
     1
 74
     3
 75
     0
 76
     0
 77
     0
 78
     0
  0
ENDTAB
  0
TABLE
  2
LTYPE
  5
5
330
0
100
AcDbSymbolTable
 70
     1
  0
LTYPE
  5
14
330
5
100
AcDbSymbolTableRecord
100
AcDbLinetypeTableRecord
  2
BYBLOCK
 70
     0
  3

 72
    65
 73
     0
 40
0.0
  0
LTYPE
  5
15
330
5
100
AcDbSymbolTableRecord
100
AcDbLinetypeTableRecord
  2
BYLAYER
 70
     0
  3

 72
    65
 73
     0
 40
0.0
  0
LTYPE
  5
16
330
5
100
AcDbSymbolTableRecord
100
AcDbLinetypeTableRecord
  2
CONTINUOUS
 70
     0
  3
Solid line
 72
    65
 73
     0
 40
0.0
  0
ENDTAB
  0
TABLE
  2
LAYER
  5
2
100
AcDbSymbolTable
 70
2
  0
LAYER
  5
50
100
AcDbSymbolTableRecord
100
AcDbLayerTableRecord
  2
0
 70
0
  6
CONTINUOUS
  0
LAYER
  5
51
100
AcDbSymbolTableRecord
100
AcDbLayerTableRecord
  2
Layer_1
 70
0
  6
CONTINUOUS
  0
ENDTAB
  0
TABLE
  2
STYLE
  5
3
330
0
100
AcDbSymbolTable
 70
     1
  0
STYLE
  5
11
330
3
100
AcDbSymbolTableRecord
100
AcDbTextStyleTableRecord
  2
STANDARD
 70
     0
 40
0.0
 41
1.0
 50
0.0
 71
     0
 42
2.5
  3
txt
  4

  0
ENDTAB
  0
TABLE
  2
VIEW
  5
6
330
0
100
AcDbSymbolTable
 70
     0
  0
ENDTAB
  0
TABLE
  2
UCS
  5
7
330
0
100
AcDbSymbolTable
 70
     0
  0
ENDTAB
  0
TABLE
  2
APPID
  5
9
330
0
100
AcDbSymbolTable
 70
     2
  0
APPID
  5
12
330
9
100
AcDbSymbolTableRecord
100
AcDbRegAppTableRecord
  2
ACAD
 70
     0
  0
ENDTAB
  0
TABLE
  2
DIMSTYLE
  5
A
330
0
100
AcDbSymbolTable
 70
     1
  0
DIMSTYLE
105
27
330
A
100
AcDbSymbolTableRecord
100
AcDbDimStyleTableRecord
  2
ISO-25
 70
     0
  3

  4

  5

  6

  7

 40
1.0
 41
2.5
 42
0.625
 43
3.75
 44
1.25
 45
0.0
 46
0.0
 47
0.0
 48
0.0
140
2.5
141
2.5
142
0.0
143
0.03937007874016
144
1.0
145
0.0
146
1.0
147
0.625
 71
     0
 72
     0
 73
     0
 74
     0
 75
     0
 76
     0
 77
     1
 78
     8
170
     0
171
     3
172
     1
173
     0
174
     0
175
     0
176
     0
177
     0
178
     0
270
     2
271
     2
272
     2
273
     2
274
     3
340
11
275
     0
280
     0
281
     0
282
     0
283
     0
284
     8
285
     0
286
     0
287
     3
288
     0
  0
ENDTAB
  0
TABLE
  2
BLOCK_RECORD
  5
1
330
0
100
AcDbSymbolTable
 70
     1
  0
BLOCK_RECORD
  5
1F
330
1
100
AcDbSymbolTableRecord
100
AcDbBlockTableRecord
  2
*MODEL_SPACE
  0
BLOCK_RECORD
  5
1B
330
1
100
AcDbSymbolTableRecord
100
AcDbBlockTableRecord
  2
*PAPER_SPACE
  0
ENDTAB
  0
ENDSEC
  0
SECTION
  2
BLOCKS
  0
BLOCK
  5
20
330
1F
100
AcDbEntity
  8
0
100
AcDbBlockBegin
  2
*MODEL_SPACE
 70
     0
 10
0.0
 20
0.0
 30
0.0
  3
*MODEL_SPACE
  1

  0
ENDBLK
  5
21
330
1F
100
AcDbEntity
  8
0
100
AcDbBlockEnd
  0
BLOCK
  5
1C
330
1B
100
AcDbEntity
 67
     1
  8
0
100
AcDbBlockBegin
  2
*PAPER_SPACE
  1

  0
ENDBLK
  5
1D
330
1B
100
AcDbEntity
 67
     1
  8
0
100
AcDbBlockEnd
  0
ENDSEC
  0
SECTION
  2
ENTITIES
  0
LINE
  5
100
100
AcDbEntity
  8
Layer_1
 62
7
100
AcDbLine
 10
56.199694
 20
95.224036
 30
0.0
 11
56.199694
 21
94.224036
 31
0.0
  0
SPLINE
  5
101
100
AcDbEntity
  8
Layer_1
 62
7
100
AcDbSpline
 70
8
 71
3
 72
8
 73
4
 74
0
 40
0
 40
0
 40
0
 40
0
 40
1
 40
1
 40
1
 40
1
 10
56.199694
 20
94.224036
 30
0.0
 10
56.199694
 20
93.693603
 30
0.0
 10
55.988980
 20
93.184895
 30
0.0
 10
55.613907
 20
92.809822
 30
0.0
  0
SPLINE
  5
102
100
AcDbEntity
  8
Layer_1
 62
7
100
AcDbSpline
 70
8
 71
3
 72
8
 73
4
 74
0
 40
0
 40
0
 40
0
 40
0
 40
1
 40
1
 40
1
 40
1
 10
55.613907
 20
92.809822
 30
0.0
 10
55.238835
 20
92.434749
 30
0.0
 10
54.730127
 20
92.224035
 30
0.0
 10
54.199694
 20
92.224035
 30
0.0
  0
LINE
  5
103
100
AcDbEntity
  8
Layer_1
 62
7
100
AcDbLine
 10
54.199694
 20
92.224035
 30
0.0
 11
40.199693
 21
92.224035
 31
0.0
  0
SPLINE
  5
104
100
AcDbEntity
  8
Layer_1
 62
7
100
AcDbSpline
 70
8
 71
3
 72
8
 73
4
 74
0
 40
0
 40
0
 40
0
 40
0
 40
1
 40
1
 40
1
 40
1
 10
40.199693
 20
92.224035
 30
0.0
 10
39.669260
 20
92.224035
 30
0.0
 10
39.160552
 20
92.013322
 30
0.0
 10
38.785479
 20
91.638249
 30
0.0
  0
SPLINE
  5
105
100
AcDbEntity
  8
Layer_1
 62
7
100
AcDbSpline
 70
8
 71
3
 72
8
 73
4
 74
0
 40
0
 40
0
 40
0
 40
0
 40
1
 40
1
 40
1
 40
1
 10
38.785479
 20
91.638249
 30
0.0
 10
38.410406
 20
91.263176
 30
0.0
 10
38.199693
 20
90.754468
 30
0.0
 10
38.199693
 20
90.224035
 30
0.0
  0
LINE
  5
106
100
AcDbEntity
  8
Layer_1
 62
7
100
AcDbLine
 10
38.199693
 20
90.224035
 30
0.0
 11
38.199693
 21
82.224035
 31
0.0
  0
SPLINE
  5
107
100
AcDbEntity
  8
Layer_1
 62
7
100
AcDbSpline
 70
8
 71
3
 72
8
 73
4
 74
0
 40
0
 40
0
 40
0
 40
0
 40
1
 40
1
 40
1
 40
1
 10
38.199693
 20
82.224035
 30
0.0
 10
38.199693
 20
81.693602
 30
0.0
 10
37.988979
 20
81.184894
 30
0.0
 10
37.613906
 20
80.809821
 30
0.0
  0
SPLINE
  5
108
100
AcDbEntity
  8
Layer_1
 62
7
100
AcDbSpline
 70
8
 71
3
 72
8
 73
4
 74
0
 40
0
 40
0
 40
0
 40
0
 40
1
 40
1
 40
1
 40
1
 10
37.613906
 20
80.809821
 30
0.0
 10
37.238833
 20
80.434748
 30
0.0
 10
36.730126
 20
80.224035
 30
0.0
 10
36.199693
 20
80.224035
 30
0.0
  0
LINE
  5
109
100
AcDbEntity
  8
Layer_1
 62
7
100
AcDbLine
 10
36.199693
 20
80.224035
 30
0.0
 11
22.199696
 21
80.224035
 31
0.0
  0
SPLINE
  5
10a
100
AcDbEntity
  8
Layer_1
 62
7
100
AcDbSpline
 70
8
 71
3
 72
8
 73
4
 74
0
 40
0
 40
0
 40
0
 40
0
 40
1
 40
1
 40
1
 40
1
 10
22.199696
 20
80.224035
 30
0.0
 10
21.669263
 20
80.224035
 30
0.0
 10
21.160555
 20
80.013321
 30
0.0
 10
20.785482
 20
79.638248
 30
0.0
  0
SPLINE
  5
10b
100
AcDbEntity
  8
Layer_1
 62
7
100
AcDbSpline
 70
8
 71
3
 72
8
 73
4
 74
0
 40
0
 40
0
 40
0
 40
0
 40
1
 40
1
 40
1
 40
1
 10
20.785482
 20
79.638248
 30
0.0
 10
20.410409
 20
79.263175
 30
0.0
 10
20.199695
 20
78.754467
 30
0.0
 10
20.199695
 20
78.224034
 30
0.0
  0
LINE
  5
10c
100
AcDbEntity
  8
Layer_1
 62
7
100
AcDbLine
 10
20.199695
 20
78.224034
 30
0.0
 11
20.199695
 21
73.724034
 31
0.0
  0
SPLINE
  5
10d
100
AcDbEntity
  8
Layer_1
 62
7
100
AcDbSpline
 70
8
 71
3
 72
8
 73
4
 74
0
 40
0
 40
0
 40
0
 40
0
 40
1
 40
1
 40
1
 40
1
 10
20.199695
 20
73.724034
 30
0.0
 10
20.199695
 20
73.193601
 30
0.0
 10
19.988982
 20
72.684893
 30
0.0
 10
19.613909
 20
72.309820
 30
0.0
  0
SPLINE
  5
10e
100
AcDbEntity
  8
Layer_1
 62
7
100
AcDbSpline
 70
8
 71
3
 72
8
 73
4
 74
0
 40
0
 40
0
 40
0
 40
0
 40
1
 40
1
 40
1
 40
1
 10
19.613909
 20
72.309820
 30
0.0
 10
19.238836
 20
71.934748
 30
0.0
 10
18.730128
 20
71.724034
 30
0.0
 10
18.199695
 20
71.724034
 30
0.0
  0
LINE
  5
10f
100
AcDbEntity
  8
Layer_1
 62
7
100
AcDbLine
 10
18.199695
 20
71.724034
 30
0.0
 11
4.199694
 21
71.724034
 31
0.0
  0
SPLINE
  5
110
100
AcDbEntity
  8
Layer_1
 62
7
100
AcDbSpline
 70
8
 71
3
 72
8
 73
4
 74
0
 40
0
 40
0
 40
0
 40
0
 40
1
 40
1
 40
1
 40
1
 10
4.199694
 20
71.724034
 30
0.0
 10
3.669261
 20
71.724034
 30
0.0
 10
3.160553
 20
71.513320
 30
0.0
 10
2.785481
 20
71.138247
 30
0.0
  0
SPLINE
  5
111
100
AcDbEntity
  8
Layer_1
 62
7
100
AcDbSpline
 70
8
 71
3
 72
8
 73
4
 74
0
 40
0
 40
0
 40
0
 40
0
 40
1
 40
1
 40
1
 40
1
 10
2.785481
 20
71.138247
 30
0.0
 10
2.410408
 20
70.763175
 30
0.0
 10
2.199694
 20
70.254467
 30
0.0
 10
2.199694
 20
69.724034
 30
0.0
  0
LINE
  5
112
100
AcDbEntity
  8
Layer_1
 62
7
100
AcDbLine
 10
2.199694
 20
69.724034
 30
0.0
 11
2.199694
 21
36.524811
 31
0.0
  0
SPLINE
  5
113
100
AcDbEntity
  8
Layer_1
 62
7
100
AcDbSpline
 70
8
 71
3
 72
8
 73
4
 74
0
 40
0
 40
0
 40
0
 40
0
 40
1
 40
1
 40
1
 40
1
 10
2.199694
 20
36.524811
 30
0.0
 10
2.199694
 20
35.994378
 30
0.0
 10
2.410408
 20
35.485670
 30
0.0
 10
2.785481
 20
35.110597
 30
0.0
  0
SPLINE
  5
114
100
AcDbEntity
  8
Layer_1
 62
7
100
AcDbSpline
 70
8
 71
3
 72
8
 73
4
 74
0
 40
0
 40
0
 40
0
 40
0
 40
1
 40
1
 40
1
 40
1
 10
2.785481
 20
35.110597
 30
0.0
 10
3.160553
 20
34.735524
 30
0.0
 10
3.669261
 20
34.524810
 30
0.0
 10
4.199694
 20
34.524810
 30
0.0
  0
LINE
  5
115
100
AcDbEntity
  8
Layer_1
 62
7
100
AcDbLine
 10
4.199694
 20
34.524810
 30
0.0
 11
18.199695
 21
34.524810
 31
0.0
  0
SPLINE
  5
116
100
AcDbEntity
  8
Layer_1
 62
7
100
AcDbSpline
 70
8
 71
3
 72
8
 73
4
 74
0
 40
0
 40
0
 40
0
 40
0
 40
1
 40
1
 40
1
 40
1
 10
18.199695
 20
34.524810
 30
0.0
 10
18.730128
 20
34.524810
 30
0.0
 10
19.238836
 20
34.314097
 30
0.0
 10
19.613909
 20
33.939024
 30
0.0
  0
SPLINE
  5
117
100
AcDbEntity
  8
Layer_1
 62
7
100
AcDbSpline
 70
8
 71
3
 72
8
 73
4
 74
0
 40
0
 40
0
 40
0
 40
0
 40
1
 40
1
 40
1
 40
1
 10
19.613909
 20
33.939024
 30
0.0
 10
19.988982
 20
33.563951
 30
0.0
 10
20.199695
 20
33.055243
 30
0.0
 10
20.199695
 20
32.524810
 30
0.0
  0
LINE
  5
118
100
AcDbEntity
  8
Layer_1
 62
7
100
AcDbLine
 10
20.199695
 20
32.524810
 30
0.0
 11
20.199695
 21
28.024810
 31
0.0
  0
SPLINE
  5
119
100
AcDbEntity
  8
Layer_1
 62
7
100
AcDbSpline
 70
8
 71
3
 72
8
 73
4
 74
0
 40
0
 40
0
 40
0
 40
0
 40
1
 40
1
 40
1
 40
1
 10
20.199695
 20
28.024810
 30
0.0
 10
20.199695
 20
27.494377
 30
0.0
 10
20.410409
 20
26.985669
 30
0.0
 10
20.785482
 20
26.610596
 30
0.0
  0
SPLINE
  5
11a
100
AcDbEntity
  8
Layer_1
 62
7
100
AcDbSpline
 70
8
 71
3
 72
8
 73
4
 74
0
 40
0
 40
0
 40
0
 40
0
 40
1
 40
1
 40
1
 40
1
 10
20.785482
 20
26.610596
 30
0.0
 10
21.160555
 20
26.235524
 30
0.0
 10
21.669263
 20
26.024810
 30
0.0
 10
22.199696
 20
26.024810
 30
0.0
  0
LINE
  5
11b
100
AcDbEntity
  8
Layer_1
 62
7
100
AcDbLine
 10
22.199696
 20
26.024810
 30
0.0
 11
43.564493
 21
26.024810
 31
0.0
  0
SPLINE
  5
11c
100
AcDbEntity
  8
Layer_1
 62
7
100
AcDbSpline
 70
8
 71
3
 72
8
 73
4
 74
0
 40
0
 40
0
 40
0
 40
0
 40
1
 40
1
 40
1
 40
1
 10
43.564493
 20
26.024810
 30
0.0
 10
50.732754
 20
26.024809
 30
0.0
 10
57.618693
 20
23.230565
 30
0.0
 10
62.759994
 20
18.235469
 30
0.0
  0
LINE
  5
11d
100
AcDbEntity
  8
Layer_1
 62
7
100
AcDbLine
 10
62.759994
 20
18.235469
 30
0.0
 11
62.855094
 21
18.143069
 31
0.0
  0
SPLINE
  5
11e
100
AcDbEntity
  8
Layer_1
 62
7
100
AcDbSpline
 70
8
 71
3
 72
8
 73
4
 74
0
 40
0
 40
0
 40
0
 40
0
 40
1
 40
1
 40
1
 40
1
 10
62.855094
 20
18.143069
 30
0.0
 10
63.573590
 20
17.323468
 30
0.0
 10
64.677423
 20
16.953724
 30
0.0
 10
65.744635
 20
17.175179
 30
0.0
  0
SPLINE
  5
11f
100
AcDbEntity
  8
Layer_1
 62
7
100
AcDbSpline
 70
8
 71
3
 72
8
 73
4
 74
0
 40
0
 40
0
 40
0
 40
0
 40
1
 40
1
 40
1
 40
1
 10
65.744635
 20
17.175179
 30
0.0
 10
74.477185
 20
19.485849
 30
0.0
 10
81.517846
 20
20.191069
 30
0.0
 10
88.536826
 20
19.797259
 30
0.0
  0
SPLINE
  5
120
100
AcDbEntity
  8
Layer_1
 62
7
100
AcDbSpline
 70
8
 71
3
 72
8
 73
4
 74
0
 40
0
 40
0
 40
0
 40
0
 40
1
 40
1
 40
1
 40
1
 10
88.536826
 20
19.797259
 30
0.0
 10
89.639626
 20
19.735359
 30
0.0
 10
91.424256
 20
19.580609
 30
0.0
 10
92.521246
 20
19.451779
 30
0.0
  0
SPLINE
  5
121
100
AcDbEntity
  8
Layer_1
 62
7
100
AcDbSpline
 70
8
 71
3
 72
8
 73
4
 74
0
 40
0
 40
0
 40
0
 40
0
 40
1
 40
1
 40
1
 40
1
 10
92.521246
 20
19.451779
 30
0.0
 10
106.028537
 20
17.865489
 30
0.0
 10
118.761458
 20
12.238449
 30
0.0
 10
129.039859
 20
3.285688
 30
0.0
  0
SPLINE
  5
122
100
AcDbEntity
  8
Layer_1
 62
7
100
AcDbSpline
 70
8
 71
3
 72
8
 73
4
 74
0
 40
0
 40
0
 40
0
 40
0
 40
1
 40
1
 40
1
 40
1
 10
129.039859
 20
3.285688
 30
0.0
 10
129.050459
 20
3.276688
 30
0.0
 10
129.067659
 20
3.261388
 30
0.0
 10
129.078259
 20
3.252188
 30
0.0
  0
LINE
  5
123
100
AcDbEntity
  8
Layer_1
 62
7
100
AcDbLine
 10
129.078259
 20
3.252188
 30
0.0
 11
129.186219
 21
3.158088
 31
0.0
  0
SPLINE
  5
124
100
AcDbEntity
  8
Layer_1
 62
7
100
AcDbSpline
 70
8
 71
3
 72
8
 73
4
 74
0
 40
0
 40
0
 40
0
 40
0
 40
1
 40
1
 40
1
 40
1
 10
129.186219
 20
3.158088
 30
0.0
 10
129.709443
 20
2.701969
 30
0.0
 10
130.401651
 20
2.489315
 30
0.0
 10
131.090712
 20
2.573008
 30
0.0
  0
SPLINE
  5
125
100
AcDbEntity
  8
Layer_1
 62
7
100
AcDbSpline
 70
8
 71
3
 72
8
 73
4
 74
0
 40
0
 40
0
 40
0
 40
0
 40
1
 40
1
 40
1
 40
1
 10
131.090712
 20
2.573008
 30
0.0
 10
131.779772
 20
2.656701
 30
0.0
 10
132.400947
 20
3.028877
 30
0.0
 10
132.799769
 20
3.596988
 30
0.0
  0
LINE
  5
126
100
AcDbEntity
  8
Layer_1
 62
7
100
AcDbLine
 10
132.799769
 20
3.596988
 30
0.0
 11
140.780990
 21
14.966039
 31
0.0
  0
SPLINE
  5
127
100
AcDbEntity
  8
Layer_1
 62
7
100
AcDbSpline
 70
8
 71
3
 72
8
 73
4
 74
0
 40
0
 40
0
 40
0
 40
0
 40
1
 40
1
 40
1
 40
1
 10
140.780990
 20
14.966039
 30
0.0
 10
141.528859
 20
16.031357
 30
0.0
 10
141.930128
 20
17.301330
 30
0.0
 10
141.930130
 20
18.602949
 30
0.0
  0
LINE
  5
128
100
AcDbEntity
  8
Layer_1
 62
7
100
AcDbLine
 10
141.930130
 20
18.602949
 30
0.0
 11
141.930130
 21
88.224035
 31
0.0
  0
SPLINE
  5
129
100
AcDbEntity
  8
Layer_1
 62
7
100
AcDbSpline
 70
8
 71
3
 72
8
 73
4
 74
0
 40
0
 40
0
 40
0
 40
0
 40
1
 40
1
 40
1
 40
1
 10
141.930130
 20
88.224035
 30
0.0
 10
141.930130
 20
88.754468
 30
0.0
 10
141.719416
 20
89.263176
 30
0.0
 10
141.344343
 20
89.638249
 30
0.0
  0
SPLINE
  5
12a
100
AcDbEntity
  8
Layer_1
 62
7
100
AcDbSpline
 70
8
 71
3
 72
8
 73
4
 74
0
 40
0
 40
0
 40
0
 40
0
 40
1
 40
1
 40
1
 40
1
 10
141.344343
 20
89.638249
 30
0.0
 10
140.969271
 20
90.013322
 30
0.0
 10
140.460563
 20
90.224035
 30
0.0
 10
139.930130
 20
90.224035
 30
0.0
  0
LINE
  5
12b
100
AcDbEntity
  8
Layer_1
 62
7
100
AcDbLine
 10
139.930130
 20
90.224035
 30
0.0
 11
95.766407
 21
90.224035
 31
0.0
  0
SPLINE
  5
12c
100
AcDbEntity
  8
Layer_1
 62
7
100
AcDbSpline
 70
8
 71
3
 72
8
 73
4
 74
0
 40
0
 40
0
 40
0
 40
0
 40
1
 40
1
 40
1
 40
1
 10
95.766407
 20
90.224035
 30
0.0
 10
95.042086
 20
90.224033
 30
0.0
 10
94.358831
 20
90.560387
 30
0.0
 10
93.917097
 20
91.134418
 30
0.0
  0
LINE
  5
12d
100
AcDbEntity
  8
Layer_1
 62
7
100
AcDbLine
 10
93.917097
 20
91.134418
 30
0.0
 11
93.898897
 21
91.158138
 31
0.0
  0
SPLINE
  5
12e
100
AcDbEntity
  8
Layer_1
 62
7
100
AcDbSpline
 70
8
 71
3
 72
8
 73
4
 74
0
 40
0
 40
0
 40
0
 40
0
 40
1
 40
1
 40
1
 40
1
 10
93.898897
 20
91.158138
 30
0.0
 10
93.381708
 20
91.830223
 30
0.0
 10
92.581742
 20
92.224032
 30
0.0
 10
91.733696
 20
92.224030
 30
0.0
  0
LINE
  5
12f
100
AcDbEntity
  8
Layer_1
 62
7
100
AcDbLine
 10
91.733696
 20
92.224030
 30
0.0
 11
78.398965
 21
92.224030
 31
0.0
  0
SPLINE
  5
130
100
AcDbEntity
  8
Layer_1
 62
7
100
AcDbSpline
 70
8
 71
3
 72
8
 73
4
 74
0
 40
0
 40
0
 40
0
 40
0
 40
1
 40
1
 40
1
 40
1
 10
78.398965
 20
92.224030
 30
0.0
 10
77.868532
 20
92.224030
 30
0.0
 10
77.359825
 20
92.434744
 30
0.0
 10
76.984752
 20
92.809817
 30
0.0
  0
SPLINE
  5
131
100
AcDbEntity
  8
Layer_1
 62
7
100
AcDbSpline
 70
8
 71
3
 72
8
 73
4
 74
0
 40
0
 40
0
 40
0
 40
0
 40
1
 40
1
 40
1
 40
1
 10
76.984752
 20
92.809817
 30
0.0
 10
76.609679
 20
93.184890
 30
0.0
 10
76.398965
 20
93.693598
 30
0.0
 10
76.398965
 20
94.224031
 30
0.0
  0
LINE
  5
132
100
AcDbEntity
  8
Layer_1
 62
7
100
AcDbLine
 10
76.398965
 20
94.224031
 30
0.0
 11
76.398965
 21
95.224031
 31
0.0
  0
SPLINE
  5
133
100
AcDbEntity
  8
Layer_1
 62
7
100
AcDbSpline
 70
8
 71
3
 72
8
 73
4
 74
0
 40
0
 40
0
 40
0
 40
0
 40
1
 40
1
 40
1
 40
1
 10
76.398965
 20
95.224031
 30
0.0
 10
76.398965
 20
95.754464
 30
0.0
 10
76.188252
 20
96.263171
 30
0.0
 10
75.813179
 20
96.638244
 30
0.0
  0
SPLINE
  5
134
100
AcDbEntity
  8
Layer_1
 62
7
100
AcDbSpline
 70
8
 71
3
 72
8
 73
4
 74
0
 40
0
 40
0
 40
0
 40
0
 40
1
 40
1
 40
1
 40
1
 10
75.813179
 20
96.638244
 30
0.0
 10
75.438106
 20
97.013317
 30
0.0
 10
74.929398
 20
97.224031
 30
0.0
 10
74.398965
 20
97.224031
 30
0.0
  0
LINE
  5
135
100
AcDbEntity
  8
Layer_1
 62
7
100
AcDbLine
 10
74.398965
 20
97.224031
 30
0.0
 11
58.199744
 21
97.224031
 31
0.0
  0
SPLINE
  5
136
100
AcDbEntity
  8
Layer_1
 62
7
100
AcDbSpline
 70
8
 71
3
 72
8
 73
4
 74
0
 40
0
 40
0
 40
0
 40
0
 40
1
 40
1
 40
1
 40
1
 10
58.199744
 20
97.224031
 30
0.0
 10
57.669311
 20
97.224031
 30
0.0
 10
57.160603
 20
97.013317
 30
0.0
 10
56.785530
 20
96.638244
 30
0.0
  0
SPLINE
  5
137
100
AcDbEntity
  8
Layer_1
 62
7
100
AcDbSpline
 70
8
 71
3
 72
8
 73
4
 74
0
 40
0
 40
0
 40
0
 40
0
 40
1
 40
1
 40
1
 40
1
 10
56.785530
 20
96.638244
 30
0.0
 10
56.410458
 20
96.263171
 30
0.0
 10
56.199744
 20
95.754464
 30
0.0
 10
56.199744
 20
95.224031
 30
0.0
  0
LINE
  5
138
100
AcDbEntity
  8
Layer_1
 62
7
100
AcDbLine
 10
56.199744
 20
95.224031
 30
0.0
 11
56.199694
 21
95.224036
 31
0.0
  0
ENDSEC
  0
SECTION
  2
OBJECTS
  0
DICTIONARY
  5
C
330
0
100
AcDbDictionary
  3
ACAD_GROUP
350
D
  3
ACAD_MLINESTYLE
350
17
  0
DICTIONARY
  5
D
330
C
100
AcDbDictionary
  0
DICTIONARY
  5
1A
330
C
100
AcDbDictionary
  0
DICTIONARY
  5
17
330
C
100
AcDbDictionary
  3
STANDARD
350
18
  0
DICTIONARY
  5
19
330
C
100
AcDbDictionary
  0
ENDSEC
  0
EOF
